%TF.GenerationSoftware,KiCad,Pcbnew,7.0.6*%
%TF.CreationDate,2023-07-16T23:36:36-04:00*%
%TF.ProjectId,littolRP2040,6c697474-6f6c-4525-9032-3034302e6b69,rev?*%
%TF.SameCoordinates,PX2d6b3a0PY7e098dc*%
%TF.FileFunction,Drillmap*%
%TF.FilePolarity,Positive*%
%FSLAX45Y45*%
G04 Gerber Fmt 4.5, Leading zero omitted, Abs format (unit mm)*
G04 Created by KiCad (PCBNEW 7.0.6) date 2023-07-16 23:36:36*
%MOMM*%
%LPD*%
G01*
G04 APERTURE LIST*
%ADD10C,0.100000*%
%ADD11C,0.200000*%
%ADD12C,0.040000*%
%ADD13C,0.060000*%
G04 APERTURE END LIST*
D10*
X0Y1180414D02*
G75*
G03*
X227912Y952502I227908J-3D01*
G01*
X238126Y6667519D02*
G75*
G03*
X0Y6429391I2J-238128D01*
G01*
X20716927Y952506D02*
G75*
G03*
X20955053Y1190628I1J238125D01*
G01*
X20955054Y6439605D02*
G75*
G03*
X20716927Y6667517I-233016J-5104D01*
G01*
X12144406Y-2D02*
G75*
G03*
X12382531Y238126I2J238123D01*
G01*
X8572522Y227912D02*
X8572522Y952502D01*
X12382531Y952502D02*
X12382531Y238126D01*
X8572527Y227912D02*
G75*
G03*
X8800433Y0I227911J-1D01*
G01*
X20955053Y6439605D02*
X20955053Y1190628D01*
X8572522Y952502D02*
X227912Y952502D01*
X20716927Y952502D02*
X12382531Y952502D01*
X238126Y6667517D02*
X20716927Y6667517D01*
X12144406Y0D02*
X8800433Y0D01*
X0Y1180414D02*
X0Y6429391D01*
D11*
D12*
X218126Y2163130D02*
X258126Y2123130D01*
X258126Y2163130D02*
X218126Y2123130D01*
X456251Y4068135D02*
X496251Y4028135D01*
X496251Y4068135D02*
X456251Y4028135D01*
X694377Y5973140D02*
X734377Y5933140D01*
X734377Y5973140D02*
X694377Y5933140D01*
X2123130Y2163130D02*
X2163130Y2123130D01*
X2163130Y2163130D02*
X2123130Y2123130D01*
X2599382Y4068135D02*
X2639382Y4028135D01*
X2639382Y4068135D02*
X2599382Y4028135D01*
X3075633Y5973140D02*
X3115633Y5933140D01*
X3115633Y5973140D02*
X3075633Y5933140D01*
X4028135Y2163130D02*
X4068135Y2123130D01*
X4068135Y2163130D02*
X4028135Y2123130D01*
X4504386Y4068135D02*
X4544386Y4028135D01*
X4544386Y4068135D02*
X4504386Y4028135D01*
X4980638Y5973140D02*
X5020638Y5933140D01*
X5020638Y5973140D02*
X4980638Y5933140D01*
X5933140Y2163130D02*
X5973140Y2123130D01*
X5973140Y2163130D02*
X5933140Y2123130D01*
X6409391Y4068135D02*
X6449391Y4028135D01*
X6449391Y4068135D02*
X6409391Y4028135D01*
X6885642Y5973140D02*
X6925642Y5933140D01*
X6925642Y5973140D02*
X6885642Y5933140D01*
X8314396Y4068135D02*
X8354396Y4028135D01*
X8354396Y4068135D02*
X8314396Y4028135D01*
X8671584Y5735014D02*
X8711584Y5695014D01*
X8711584Y5735014D02*
X8671584Y5695014D01*
X8790647Y1210628D02*
X8830647Y1170628D01*
X8830647Y1210628D02*
X8790647Y1170628D01*
X9326430Y2817976D02*
X9366430Y2777976D01*
X9366430Y2817976D02*
X9326430Y2777976D01*
X9326430Y2520319D02*
X9366430Y2480319D01*
X9366430Y2520319D02*
X9326430Y2480319D01*
X9445493Y1329691D02*
X9485493Y1289691D01*
X9485493Y1329691D02*
X9445493Y1289691D01*
X9505024Y2962351D02*
X9545024Y2922351D01*
X9545024Y2962351D02*
X9505024Y2922351D01*
X9600024Y3353758D02*
X9640024Y3313758D01*
X9640024Y3353758D02*
X9600024Y3313758D01*
X9624087Y1925005D02*
X9664087Y1885005D01*
X9664087Y1925005D02*
X9624087Y1885005D01*
X9743150Y1925005D02*
X9783150Y1885005D01*
X9783150Y1925005D02*
X9743150Y1885005D01*
X9814212Y3353758D02*
X9854212Y3313758D01*
X9854212Y3353758D02*
X9814212Y3313758D01*
X9862212Y1925005D02*
X9902212Y1885005D01*
X9902212Y1925005D02*
X9862212Y1885005D01*
X9981275Y5020638D02*
X10021275Y4980638D01*
X10021275Y5020638D02*
X9981275Y4980638D01*
X9981275Y4867356D02*
X10021275Y4827356D01*
X10021275Y4867356D02*
X9981275Y4827356D01*
X9981275Y1210628D02*
X10021275Y1170628D01*
X10021275Y1210628D02*
X9981275Y1170628D01*
X10159869Y3413290D02*
X10199869Y3373290D01*
X10199869Y3413290D02*
X10159869Y3373290D01*
X10219401Y5794546D02*
X10259401Y5754546D01*
X10259401Y5794546D02*
X10219401Y5754546D01*
X10219401Y5496889D02*
X10259401Y5456889D01*
X10259401Y5496889D02*
X10219401Y5456889D01*
X10338464Y3949072D02*
X10378464Y3909072D01*
X10378464Y3949072D02*
X10338464Y3909072D01*
X10338464Y2758444D02*
X10378464Y2718444D01*
X10378464Y2758444D02*
X10338464Y2718444D01*
X10338464Y2639382D02*
X10378464Y2599382D01*
X10378464Y2639382D02*
X10338464Y2599382D01*
X10338464Y2520319D02*
X10378464Y2480319D01*
X10378464Y2520319D02*
X10338464Y2480319D01*
X10457526Y2758444D02*
X10497526Y2718444D01*
X10497526Y2758444D02*
X10457526Y2718444D01*
X10457526Y2639382D02*
X10497526Y2599382D01*
X10497526Y2639382D02*
X10457526Y2599382D01*
X10457526Y2520319D02*
X10497526Y2480319D01*
X10497526Y2520319D02*
X10457526Y2480319D01*
X10576589Y3651415D02*
X10616589Y3611415D01*
X10616589Y3651415D02*
X10576589Y3611415D01*
X10576589Y2758444D02*
X10616589Y2718444D01*
X10616589Y2758444D02*
X10576589Y2718444D01*
X10576589Y2639382D02*
X10616589Y2599382D01*
X10616589Y2639382D02*
X10576589Y2599382D01*
X10576589Y2520319D02*
X10616589Y2480319D01*
X10616589Y2520319D02*
X10576589Y2480319D01*
X10576589Y1925005D02*
X10616589Y1885005D01*
X10616589Y1925005D02*
X10576589Y1885005D01*
X10576589Y1686879D02*
X10616589Y1646879D01*
X10616589Y1686879D02*
X10576589Y1646879D01*
X10695652Y1210628D02*
X10735652Y1170628D01*
X10735652Y1210628D02*
X10695652Y1170628D01*
X10814715Y3770478D02*
X10854715Y3730478D01*
X10854715Y3770478D02*
X10814715Y3730478D01*
X10814715Y3591884D02*
X10854715Y3551884D01*
X10854715Y3591884D02*
X10814715Y3551884D01*
X10933778Y4544386D02*
X10973778Y4504386D01*
X10973778Y4544386D02*
X10933778Y4504386D01*
X10933778Y3056101D02*
X10973778Y3016101D01*
X10973778Y3056101D02*
X10933778Y3016101D01*
X10993309Y2698913D02*
X11033309Y2658913D01*
X11033309Y2698913D02*
X10993309Y2658913D01*
X11052840Y2817976D02*
X11092840Y2777976D01*
X11092840Y2817976D02*
X11052840Y2777976D01*
X11171903Y4068135D02*
X11211903Y4028135D01*
X11211903Y4068135D02*
X11171903Y4028135D01*
X11171903Y2401256D02*
X11211903Y2361256D01*
X11211903Y2401256D02*
X11171903Y2361256D01*
X11290966Y5020638D02*
X11330966Y4980638D01*
X11330966Y5020638D02*
X11290966Y4980638D01*
X11290966Y4867356D02*
X11330966Y4827356D01*
X11330966Y4867356D02*
X11290966Y4827356D01*
X11350497Y3294227D02*
X11390497Y3254227D01*
X11390497Y3294227D02*
X11350497Y3254227D01*
X12124406Y5496889D02*
X12164406Y5456889D01*
X12164406Y5496889D02*
X12124406Y5456889D01*
X12600657Y5973140D02*
X12640657Y5933140D01*
X12640657Y5973140D02*
X12600657Y5933140D01*
X13076908Y4068135D02*
X13116908Y4028135D01*
X13116908Y4068135D02*
X13076908Y4028135D01*
X13553159Y2163130D02*
X13593159Y2123130D01*
X13593159Y2163130D02*
X13553159Y2123130D01*
X14505662Y5973140D02*
X14545662Y5933140D01*
X14545662Y5973140D02*
X14505662Y5933140D01*
X14981913Y4068135D02*
X15021913Y4028135D01*
X15021913Y4068135D02*
X14981913Y4028135D01*
X15458164Y2163130D02*
X15498164Y2123130D01*
X15498164Y2163130D02*
X15458164Y2123130D01*
X16410666Y5973140D02*
X16450666Y5933140D01*
X16450666Y5973140D02*
X16410666Y5933140D01*
X16886918Y4068135D02*
X16926918Y4028135D01*
X16926918Y4068135D02*
X16886918Y4028135D01*
X17363169Y2163130D02*
X17403169Y2123130D01*
X17403169Y2163130D02*
X17363169Y2123130D01*
X18791922Y5973140D02*
X18831922Y5933140D01*
X18831922Y5973140D02*
X18791922Y5933140D01*
X19030048Y4068135D02*
X19070048Y4028135D01*
X19070048Y4068135D02*
X19030048Y4028135D01*
X19268174Y2163130D02*
X19308174Y2123130D01*
X19308174Y2163130D02*
X19268174Y2123130D01*
D13*
X10075526Y6534391D02*
G75*
G03*
X10075526Y6534391I-30000J0D01*
G01*
D11*
X10015526Y6564391D02*
X10015526Y6504391D01*
X10015526Y6504391D02*
G75*
G03*
X10075526Y6504391I30000J0D01*
G01*
X10075526Y6504391D02*
X10075526Y6564391D01*
X10075526Y6564391D02*
G75*
G03*
X10015526Y6564391I-30000J0D01*
G01*
D13*
X10075526Y6116391D02*
G75*
G03*
X10075526Y6116391I-30000J0D01*
G01*
D11*
X10015526Y6171391D02*
X10015526Y6061391D01*
X10015526Y6061391D02*
G75*
G03*
X10075526Y6061391I30000J0D01*
G01*
X10075526Y6061391D02*
X10075526Y6171391D01*
X10075526Y6171391D02*
G75*
G03*
X10015526Y6171391I-30000J0D01*
G01*
D13*
X10939526Y6534391D02*
G75*
G03*
X10939526Y6534391I-30000J0D01*
G01*
D11*
X10879526Y6564391D02*
X10879526Y6504391D01*
X10879526Y6504391D02*
G75*
G03*
X10939526Y6504391I30000J0D01*
G01*
X10939526Y6504391D02*
X10939526Y6564391D01*
X10939526Y6564391D02*
G75*
G03*
X10879526Y6564391I-30000J0D01*
G01*
D13*
X10939526Y6116391D02*
G75*
G03*
X10939526Y6116391I-30000J0D01*
G01*
D11*
X10879526Y6171391D02*
X10879526Y6061391D01*
X10879526Y6061391D02*
G75*
G03*
X10939526Y6061391I30000J0D01*
G01*
X10939526Y6061391D02*
X10939526Y6171391D01*
X10939526Y6171391D02*
G75*
G03*
X10879526Y6171391I-30000J0D01*
G01*
D10*
X7080270Y1240628D02*
X7080270Y1140628D01*
X7030270Y1190628D02*
X7130270Y1190628D01*
X7334270Y1240628D02*
X7334270Y1140628D01*
X7284270Y1190628D02*
X7384270Y1190628D01*
X7588270Y1240628D02*
X7588270Y1140628D01*
X7538270Y1190628D02*
X7638270Y1190628D01*
X7842270Y1240628D02*
X7842270Y1140628D01*
X7792270Y1190628D02*
X7892270Y1190628D01*
X8096270Y1240628D02*
X8096270Y1140628D01*
X8046270Y1190628D02*
X8146270Y1190628D01*
D11*
X255776Y-316486D02*
X255776Y-116486D01*
X255776Y-116486D02*
X303395Y-116486D01*
X303395Y-116486D02*
X331967Y-126010D01*
X331967Y-126010D02*
X351014Y-145058D01*
X351014Y-145058D02*
X360538Y-164105D01*
X360538Y-164105D02*
X370062Y-202200D01*
X370062Y-202200D02*
X370062Y-230772D01*
X370062Y-230772D02*
X360538Y-268867D01*
X360538Y-268867D02*
X351014Y-287915D01*
X351014Y-287915D02*
X331967Y-306962D01*
X331967Y-306962D02*
X303395Y-316486D01*
X303395Y-316486D02*
X255776Y-316486D01*
X455776Y-316486D02*
X455776Y-183153D01*
X455776Y-221248D02*
X465300Y-202200D01*
X465300Y-202200D02*
X474824Y-192677D01*
X474824Y-192677D02*
X493872Y-183153D01*
X493872Y-183153D02*
X512919Y-183153D01*
X579586Y-316486D02*
X579586Y-183153D01*
X579586Y-116486D02*
X570062Y-126010D01*
X570062Y-126010D02*
X579586Y-135534D01*
X579586Y-135534D02*
X589110Y-126010D01*
X589110Y-126010D02*
X579586Y-116486D01*
X579586Y-116486D02*
X579586Y-135534D01*
X703395Y-316486D02*
X684348Y-306962D01*
X684348Y-306962D02*
X674824Y-287915D01*
X674824Y-287915D02*
X674824Y-116486D01*
X808157Y-316486D02*
X789110Y-306962D01*
X789110Y-306962D02*
X779586Y-287915D01*
X779586Y-287915D02*
X779586Y-116486D01*
X1036729Y-316486D02*
X1036729Y-116486D01*
X1036729Y-116486D02*
X1103396Y-259343D01*
X1103396Y-259343D02*
X1170062Y-116486D01*
X1170062Y-116486D02*
X1170062Y-316486D01*
X1351015Y-316486D02*
X1351015Y-211724D01*
X1351015Y-211724D02*
X1341491Y-192677D01*
X1341491Y-192677D02*
X1322443Y-183153D01*
X1322443Y-183153D02*
X1284348Y-183153D01*
X1284348Y-183153D02*
X1265300Y-192677D01*
X1351015Y-306962D02*
X1331967Y-316486D01*
X1331967Y-316486D02*
X1284348Y-316486D01*
X1284348Y-316486D02*
X1265300Y-306962D01*
X1265300Y-306962D02*
X1255776Y-287915D01*
X1255776Y-287915D02*
X1255776Y-268867D01*
X1255776Y-268867D02*
X1265300Y-249819D01*
X1265300Y-249819D02*
X1284348Y-240296D01*
X1284348Y-240296D02*
X1331967Y-240296D01*
X1331967Y-240296D02*
X1351015Y-230772D01*
X1446253Y-183153D02*
X1446253Y-383153D01*
X1446253Y-192677D02*
X1465300Y-183153D01*
X1465300Y-183153D02*
X1503395Y-183153D01*
X1503395Y-183153D02*
X1522443Y-192677D01*
X1522443Y-192677D02*
X1531967Y-202200D01*
X1531967Y-202200D02*
X1541491Y-221248D01*
X1541491Y-221248D02*
X1541491Y-278391D01*
X1541491Y-278391D02*
X1531967Y-297439D01*
X1531967Y-297439D02*
X1522443Y-306962D01*
X1522443Y-306962D02*
X1503395Y-316486D01*
X1503395Y-316486D02*
X1465300Y-316486D01*
X1465300Y-316486D02*
X1446253Y-306962D01*
X1627205Y-297439D02*
X1636729Y-306962D01*
X1636729Y-306962D02*
X1627205Y-316486D01*
X1627205Y-316486D02*
X1617681Y-306962D01*
X1617681Y-306962D02*
X1627205Y-297439D01*
X1627205Y-297439D02*
X1627205Y-316486D01*
X1627205Y-192677D02*
X1636729Y-202200D01*
X1636729Y-202200D02*
X1627205Y-211724D01*
X1627205Y-211724D02*
X1617681Y-202200D01*
X1617681Y-202200D02*
X1627205Y-192677D01*
X1627205Y-192677D02*
X1627205Y-211724D01*
D12*
X-45000Y-625002D02*
X-5000Y-665002D01*
X-5000Y-625002D02*
X-45000Y-665002D01*
D11*
X293872Y-536486D02*
X312919Y-536486D01*
X312919Y-536486D02*
X331967Y-546010D01*
X331967Y-546010D02*
X341491Y-555534D01*
X341491Y-555534D02*
X351014Y-574581D01*
X351014Y-574581D02*
X360538Y-612677D01*
X360538Y-612677D02*
X360538Y-660296D01*
X360538Y-660296D02*
X351014Y-698391D01*
X351014Y-698391D02*
X341491Y-717438D01*
X341491Y-717438D02*
X331967Y-726962D01*
X331967Y-726962D02*
X312919Y-736486D01*
X312919Y-736486D02*
X293872Y-736486D01*
X293872Y-736486D02*
X274824Y-726962D01*
X274824Y-726962D02*
X265300Y-717438D01*
X265300Y-717438D02*
X255776Y-698391D01*
X255776Y-698391D02*
X246253Y-660296D01*
X246253Y-660296D02*
X246253Y-612677D01*
X246253Y-612677D02*
X255776Y-574581D01*
X255776Y-574581D02*
X265300Y-555534D01*
X265300Y-555534D02*
X274824Y-546010D01*
X274824Y-546010D02*
X293872Y-536486D01*
X446253Y-717438D02*
X455776Y-726962D01*
X455776Y-726962D02*
X446253Y-736486D01*
X446253Y-736486D02*
X436729Y-726962D01*
X436729Y-726962D02*
X446253Y-717438D01*
X446253Y-717438D02*
X446253Y-736486D01*
X627205Y-603153D02*
X627205Y-736486D01*
X579586Y-526962D02*
X531967Y-669820D01*
X531967Y-669820D02*
X655776Y-669820D01*
X770062Y-536486D02*
X789110Y-536486D01*
X789110Y-536486D02*
X808157Y-546010D01*
X808157Y-546010D02*
X817681Y-555534D01*
X817681Y-555534D02*
X827205Y-574581D01*
X827205Y-574581D02*
X836729Y-612677D01*
X836729Y-612677D02*
X836729Y-660296D01*
X836729Y-660296D02*
X827205Y-698391D01*
X827205Y-698391D02*
X817681Y-717438D01*
X817681Y-717438D02*
X808157Y-726962D01*
X808157Y-726962D02*
X789110Y-736486D01*
X789110Y-736486D02*
X770062Y-736486D01*
X770062Y-736486D02*
X751014Y-726962D01*
X751014Y-726962D02*
X741491Y-717438D01*
X741491Y-717438D02*
X731967Y-698391D01*
X731967Y-698391D02*
X722443Y-660296D01*
X722443Y-660296D02*
X722443Y-612677D01*
X722443Y-612677D02*
X731967Y-574581D01*
X731967Y-574581D02*
X741491Y-555534D01*
X741491Y-555534D02*
X751014Y-546010D01*
X751014Y-546010D02*
X770062Y-536486D01*
X960538Y-536486D02*
X979586Y-536486D01*
X979586Y-536486D02*
X998634Y-546010D01*
X998634Y-546010D02*
X1008157Y-555534D01*
X1008157Y-555534D02*
X1017681Y-574581D01*
X1017681Y-574581D02*
X1027205Y-612677D01*
X1027205Y-612677D02*
X1027205Y-660296D01*
X1027205Y-660296D02*
X1017681Y-698391D01*
X1017681Y-698391D02*
X1008157Y-717438D01*
X1008157Y-717438D02*
X998634Y-726962D01*
X998634Y-726962D02*
X979586Y-736486D01*
X979586Y-736486D02*
X960538Y-736486D01*
X960538Y-736486D02*
X941491Y-726962D01*
X941491Y-726962D02*
X931967Y-717438D01*
X931967Y-717438D02*
X922443Y-698391D01*
X922443Y-698391D02*
X912919Y-660296D01*
X912919Y-660296D02*
X912919Y-612677D01*
X912919Y-612677D02*
X922443Y-574581D01*
X922443Y-574581D02*
X931967Y-555534D01*
X931967Y-555534D02*
X941491Y-546010D01*
X941491Y-546010D02*
X960538Y-536486D01*
X1112919Y-736486D02*
X1112919Y-603153D01*
X1112919Y-622200D02*
X1122443Y-612677D01*
X1122443Y-612677D02*
X1141491Y-603153D01*
X1141491Y-603153D02*
X1170062Y-603153D01*
X1170062Y-603153D02*
X1189110Y-612677D01*
X1189110Y-612677D02*
X1198634Y-631724D01*
X1198634Y-631724D02*
X1198634Y-736486D01*
X1198634Y-631724D02*
X1208157Y-612677D01*
X1208157Y-612677D02*
X1227205Y-603153D01*
X1227205Y-603153D02*
X1255776Y-603153D01*
X1255776Y-603153D02*
X1274824Y-612677D01*
X1274824Y-612677D02*
X1284348Y-631724D01*
X1284348Y-631724D02*
X1284348Y-736486D01*
X1379586Y-736486D02*
X1379586Y-603153D01*
X1379586Y-622200D02*
X1389110Y-612677D01*
X1389110Y-612677D02*
X1408157Y-603153D01*
X1408157Y-603153D02*
X1436729Y-603153D01*
X1436729Y-603153D02*
X1455776Y-612677D01*
X1455776Y-612677D02*
X1465300Y-631724D01*
X1465300Y-631724D02*
X1465300Y-736486D01*
X1465300Y-631724D02*
X1474824Y-612677D01*
X1474824Y-612677D02*
X1493872Y-603153D01*
X1493872Y-603153D02*
X1522443Y-603153D01*
X1522443Y-603153D02*
X1541491Y-612677D01*
X1541491Y-612677D02*
X1551015Y-631724D01*
X1551015Y-631724D02*
X1551015Y-736486D01*
X1941491Y-526962D02*
X1770062Y-784105D01*
X2198634Y-536486D02*
X2217681Y-536486D01*
X2217681Y-536486D02*
X2236729Y-546010D01*
X2236729Y-546010D02*
X2246253Y-555534D01*
X2246253Y-555534D02*
X2255777Y-574581D01*
X2255777Y-574581D02*
X2265300Y-612677D01*
X2265300Y-612677D02*
X2265300Y-660296D01*
X2265300Y-660296D02*
X2255777Y-698391D01*
X2255777Y-698391D02*
X2246253Y-717438D01*
X2246253Y-717438D02*
X2236729Y-726962D01*
X2236729Y-726962D02*
X2217681Y-736486D01*
X2217681Y-736486D02*
X2198634Y-736486D01*
X2198634Y-736486D02*
X2179586Y-726962D01*
X2179586Y-726962D02*
X2170062Y-717438D01*
X2170062Y-717438D02*
X2160539Y-698391D01*
X2160539Y-698391D02*
X2151015Y-660296D01*
X2151015Y-660296D02*
X2151015Y-612677D01*
X2151015Y-612677D02*
X2160539Y-574581D01*
X2160539Y-574581D02*
X2170062Y-555534D01*
X2170062Y-555534D02*
X2179586Y-546010D01*
X2179586Y-546010D02*
X2198634Y-536486D01*
X2351015Y-717438D02*
X2360539Y-726962D01*
X2360539Y-726962D02*
X2351015Y-736486D01*
X2351015Y-736486D02*
X2341491Y-726962D01*
X2341491Y-726962D02*
X2351015Y-717438D01*
X2351015Y-717438D02*
X2351015Y-736486D01*
X2484348Y-536486D02*
X2503396Y-536486D01*
X2503396Y-536486D02*
X2522443Y-546010D01*
X2522443Y-546010D02*
X2531967Y-555534D01*
X2531967Y-555534D02*
X2541491Y-574581D01*
X2541491Y-574581D02*
X2551015Y-612677D01*
X2551015Y-612677D02*
X2551015Y-660296D01*
X2551015Y-660296D02*
X2541491Y-698391D01*
X2541491Y-698391D02*
X2531967Y-717438D01*
X2531967Y-717438D02*
X2522443Y-726962D01*
X2522443Y-726962D02*
X2503396Y-736486D01*
X2503396Y-736486D02*
X2484348Y-736486D01*
X2484348Y-736486D02*
X2465300Y-726962D01*
X2465300Y-726962D02*
X2455777Y-717438D01*
X2455777Y-717438D02*
X2446253Y-698391D01*
X2446253Y-698391D02*
X2436729Y-660296D01*
X2436729Y-660296D02*
X2436729Y-612677D01*
X2436729Y-612677D02*
X2446253Y-574581D01*
X2446253Y-574581D02*
X2455777Y-555534D01*
X2455777Y-555534D02*
X2465300Y-546010D01*
X2465300Y-546010D02*
X2484348Y-536486D01*
X2741491Y-736486D02*
X2627205Y-736486D01*
X2684348Y-736486D02*
X2684348Y-536486D01*
X2684348Y-536486D02*
X2665300Y-565058D01*
X2665300Y-565058D02*
X2646253Y-584105D01*
X2646253Y-584105D02*
X2627205Y-593629D01*
X2922443Y-536486D02*
X2827205Y-536486D01*
X2827205Y-536486D02*
X2817681Y-631724D01*
X2817681Y-631724D02*
X2827205Y-622200D01*
X2827205Y-622200D02*
X2846253Y-612677D01*
X2846253Y-612677D02*
X2893872Y-612677D01*
X2893872Y-612677D02*
X2912919Y-622200D01*
X2912919Y-622200D02*
X2922443Y-631724D01*
X2922443Y-631724D02*
X2931967Y-650772D01*
X2931967Y-650772D02*
X2931967Y-698391D01*
X2931967Y-698391D02*
X2922443Y-717438D01*
X2922443Y-717438D02*
X2912919Y-726962D01*
X2912919Y-726962D02*
X2893872Y-736486D01*
X2893872Y-736486D02*
X2846253Y-736486D01*
X2846253Y-736486D02*
X2827205Y-726962D01*
X2827205Y-726962D02*
X2817681Y-717438D01*
X2998634Y-536486D02*
X3131967Y-536486D01*
X3131967Y-536486D02*
X3046253Y-736486D01*
X3198634Y-536486D02*
X3198634Y-574581D01*
X3274824Y-536486D02*
X3274824Y-574581D01*
X3570062Y-812677D02*
X3560539Y-803153D01*
X3560539Y-803153D02*
X3541491Y-774581D01*
X3541491Y-774581D02*
X3531967Y-755534D01*
X3531967Y-755534D02*
X3522443Y-726962D01*
X3522443Y-726962D02*
X3512920Y-679343D01*
X3512920Y-679343D02*
X3512920Y-641248D01*
X3512920Y-641248D02*
X3522443Y-593629D01*
X3522443Y-593629D02*
X3531967Y-565058D01*
X3531967Y-565058D02*
X3541491Y-546010D01*
X3541491Y-546010D02*
X3560539Y-517438D01*
X3560539Y-517438D02*
X3570062Y-507915D01*
X3731967Y-536486D02*
X3693872Y-536486D01*
X3693872Y-536486D02*
X3674824Y-546010D01*
X3674824Y-546010D02*
X3665300Y-555534D01*
X3665300Y-555534D02*
X3646253Y-584105D01*
X3646253Y-584105D02*
X3636729Y-622200D01*
X3636729Y-622200D02*
X3636729Y-698391D01*
X3636729Y-698391D02*
X3646253Y-717438D01*
X3646253Y-717438D02*
X3655777Y-726962D01*
X3655777Y-726962D02*
X3674824Y-736486D01*
X3674824Y-736486D02*
X3712920Y-736486D01*
X3712920Y-736486D02*
X3731967Y-726962D01*
X3731967Y-726962D02*
X3741491Y-717438D01*
X3741491Y-717438D02*
X3751015Y-698391D01*
X3751015Y-698391D02*
X3751015Y-650772D01*
X3751015Y-650772D02*
X3741491Y-631724D01*
X3741491Y-631724D02*
X3731967Y-622200D01*
X3731967Y-622200D02*
X3712920Y-612677D01*
X3712920Y-612677D02*
X3674824Y-612677D01*
X3674824Y-612677D02*
X3655777Y-622200D01*
X3655777Y-622200D02*
X3646253Y-631724D01*
X3646253Y-631724D02*
X3636729Y-650772D01*
X3865300Y-622200D02*
X3846253Y-612677D01*
X3846253Y-612677D02*
X3836729Y-603153D01*
X3836729Y-603153D02*
X3827205Y-584105D01*
X3827205Y-584105D02*
X3827205Y-574581D01*
X3827205Y-574581D02*
X3836729Y-555534D01*
X3836729Y-555534D02*
X3846253Y-546010D01*
X3846253Y-546010D02*
X3865300Y-536486D01*
X3865300Y-536486D02*
X3903396Y-536486D01*
X3903396Y-536486D02*
X3922443Y-546010D01*
X3922443Y-546010D02*
X3931967Y-555534D01*
X3931967Y-555534D02*
X3941491Y-574581D01*
X3941491Y-574581D02*
X3941491Y-584105D01*
X3941491Y-584105D02*
X3931967Y-603153D01*
X3931967Y-603153D02*
X3922443Y-612677D01*
X3922443Y-612677D02*
X3903396Y-622200D01*
X3903396Y-622200D02*
X3865300Y-622200D01*
X3865300Y-622200D02*
X3846253Y-631724D01*
X3846253Y-631724D02*
X3836729Y-641248D01*
X3836729Y-641248D02*
X3827205Y-660296D01*
X3827205Y-660296D02*
X3827205Y-698391D01*
X3827205Y-698391D02*
X3836729Y-717438D01*
X3836729Y-717438D02*
X3846253Y-726962D01*
X3846253Y-726962D02*
X3865300Y-736486D01*
X3865300Y-736486D02*
X3903396Y-736486D01*
X3903396Y-736486D02*
X3922443Y-726962D01*
X3922443Y-726962D02*
X3931967Y-717438D01*
X3931967Y-717438D02*
X3941491Y-698391D01*
X3941491Y-698391D02*
X3941491Y-660296D01*
X3941491Y-660296D02*
X3931967Y-641248D01*
X3931967Y-641248D02*
X3922443Y-631724D01*
X3922443Y-631724D02*
X3903396Y-622200D01*
X4179586Y-736486D02*
X4179586Y-536486D01*
X4265301Y-736486D02*
X4265301Y-631724D01*
X4265301Y-631724D02*
X4255777Y-612677D01*
X4255777Y-612677D02*
X4236729Y-603153D01*
X4236729Y-603153D02*
X4208158Y-603153D01*
X4208158Y-603153D02*
X4189110Y-612677D01*
X4189110Y-612677D02*
X4179586Y-622200D01*
X4389110Y-736486D02*
X4370063Y-726962D01*
X4370063Y-726962D02*
X4360539Y-717438D01*
X4360539Y-717438D02*
X4351015Y-698391D01*
X4351015Y-698391D02*
X4351015Y-641248D01*
X4351015Y-641248D02*
X4360539Y-622200D01*
X4360539Y-622200D02*
X4370063Y-612677D01*
X4370063Y-612677D02*
X4389110Y-603153D01*
X4389110Y-603153D02*
X4417682Y-603153D01*
X4417682Y-603153D02*
X4436729Y-612677D01*
X4436729Y-612677D02*
X4446253Y-622200D01*
X4446253Y-622200D02*
X4455777Y-641248D01*
X4455777Y-641248D02*
X4455777Y-698391D01*
X4455777Y-698391D02*
X4446253Y-717438D01*
X4446253Y-717438D02*
X4436729Y-726962D01*
X4436729Y-726962D02*
X4417682Y-736486D01*
X4417682Y-736486D02*
X4389110Y-736486D01*
X4570063Y-736486D02*
X4551015Y-726962D01*
X4551015Y-726962D02*
X4541491Y-707915D01*
X4541491Y-707915D02*
X4541491Y-536486D01*
X4722444Y-726962D02*
X4703396Y-736486D01*
X4703396Y-736486D02*
X4665301Y-736486D01*
X4665301Y-736486D02*
X4646253Y-726962D01*
X4646253Y-726962D02*
X4636729Y-707915D01*
X4636729Y-707915D02*
X4636729Y-631724D01*
X4636729Y-631724D02*
X4646253Y-612677D01*
X4646253Y-612677D02*
X4665301Y-603153D01*
X4665301Y-603153D02*
X4703396Y-603153D01*
X4703396Y-603153D02*
X4722444Y-612677D01*
X4722444Y-612677D02*
X4731967Y-631724D01*
X4731967Y-631724D02*
X4731967Y-650772D01*
X4731967Y-650772D02*
X4636729Y-669820D01*
X4808158Y-726962D02*
X4827205Y-736486D01*
X4827205Y-736486D02*
X4865301Y-736486D01*
X4865301Y-736486D02*
X4884348Y-726962D01*
X4884348Y-726962D02*
X4893872Y-707915D01*
X4893872Y-707915D02*
X4893872Y-698391D01*
X4893872Y-698391D02*
X4884348Y-679343D01*
X4884348Y-679343D02*
X4865301Y-669820D01*
X4865301Y-669820D02*
X4836729Y-669820D01*
X4836729Y-669820D02*
X4817682Y-660296D01*
X4817682Y-660296D02*
X4808158Y-641248D01*
X4808158Y-641248D02*
X4808158Y-631724D01*
X4808158Y-631724D02*
X4817682Y-612677D01*
X4817682Y-612677D02*
X4836729Y-603153D01*
X4836729Y-603153D02*
X4865301Y-603153D01*
X4865301Y-603153D02*
X4884348Y-612677D01*
X4960539Y-812677D02*
X4970063Y-803153D01*
X4970063Y-803153D02*
X4989110Y-774581D01*
X4989110Y-774581D02*
X4998634Y-755534D01*
X4998634Y-755534D02*
X5008158Y-726962D01*
X5008158Y-726962D02*
X5017682Y-679343D01*
X5017682Y-679343D02*
X5017682Y-641248D01*
X5017682Y-641248D02*
X5008158Y-593629D01*
X5008158Y-593629D02*
X4998634Y-565058D01*
X4998634Y-565058D02*
X4989110Y-546010D01*
X4989110Y-546010D02*
X4970063Y-517438D01*
X4970063Y-517438D02*
X4960539Y-507915D01*
D13*
X-5000Y-909002D02*
G75*
G03*
X-5000Y-909002I-30000J0D01*
G01*
D11*
X293872Y-800486D02*
X312919Y-800486D01*
X312919Y-800486D02*
X331967Y-810010D01*
X331967Y-810010D02*
X341491Y-819534D01*
X341491Y-819534D02*
X351014Y-838581D01*
X351014Y-838581D02*
X360538Y-876677D01*
X360538Y-876677D02*
X360538Y-924296D01*
X360538Y-924296D02*
X351014Y-962391D01*
X351014Y-962391D02*
X341491Y-981438D01*
X341491Y-981438D02*
X331967Y-990962D01*
X331967Y-990962D02*
X312919Y-1000486D01*
X312919Y-1000486D02*
X293872Y-1000486D01*
X293872Y-1000486D02*
X274824Y-990962D01*
X274824Y-990962D02*
X265300Y-981438D01*
X265300Y-981438D02*
X255776Y-962391D01*
X255776Y-962391D02*
X246253Y-924296D01*
X246253Y-924296D02*
X246253Y-876677D01*
X246253Y-876677D02*
X255776Y-838581D01*
X255776Y-838581D02*
X265300Y-819534D01*
X265300Y-819534D02*
X274824Y-810010D01*
X274824Y-810010D02*
X293872Y-800486D01*
X446253Y-981438D02*
X455776Y-990962D01*
X455776Y-990962D02*
X446253Y-1000486D01*
X446253Y-1000486D02*
X436729Y-990962D01*
X436729Y-990962D02*
X446253Y-981438D01*
X446253Y-981438D02*
X446253Y-1000486D01*
X627205Y-800486D02*
X589110Y-800486D01*
X589110Y-800486D02*
X570062Y-810010D01*
X570062Y-810010D02*
X560538Y-819534D01*
X560538Y-819534D02*
X541491Y-848105D01*
X541491Y-848105D02*
X531967Y-886200D01*
X531967Y-886200D02*
X531967Y-962391D01*
X531967Y-962391D02*
X541491Y-981438D01*
X541491Y-981438D02*
X551015Y-990962D01*
X551015Y-990962D02*
X570062Y-1000486D01*
X570062Y-1000486D02*
X608157Y-1000486D01*
X608157Y-1000486D02*
X627205Y-990962D01*
X627205Y-990962D02*
X636729Y-981438D01*
X636729Y-981438D02*
X646253Y-962391D01*
X646253Y-962391D02*
X646253Y-914772D01*
X646253Y-914772D02*
X636729Y-895724D01*
X636729Y-895724D02*
X627205Y-886200D01*
X627205Y-886200D02*
X608157Y-876677D01*
X608157Y-876677D02*
X570062Y-876677D01*
X570062Y-876677D02*
X551015Y-886200D01*
X551015Y-886200D02*
X541491Y-895724D01*
X541491Y-895724D02*
X531967Y-914772D01*
X770062Y-800486D02*
X789110Y-800486D01*
X789110Y-800486D02*
X808157Y-810010D01*
X808157Y-810010D02*
X817681Y-819534D01*
X817681Y-819534D02*
X827205Y-838581D01*
X827205Y-838581D02*
X836729Y-876677D01*
X836729Y-876677D02*
X836729Y-924296D01*
X836729Y-924296D02*
X827205Y-962391D01*
X827205Y-962391D02*
X817681Y-981438D01*
X817681Y-981438D02*
X808157Y-990962D01*
X808157Y-990962D02*
X789110Y-1000486D01*
X789110Y-1000486D02*
X770062Y-1000486D01*
X770062Y-1000486D02*
X751014Y-990962D01*
X751014Y-990962D02*
X741491Y-981438D01*
X741491Y-981438D02*
X731967Y-962391D01*
X731967Y-962391D02*
X722443Y-924296D01*
X722443Y-924296D02*
X722443Y-876677D01*
X722443Y-876677D02*
X731967Y-838581D01*
X731967Y-838581D02*
X741491Y-819534D01*
X741491Y-819534D02*
X751014Y-810010D01*
X751014Y-810010D02*
X770062Y-800486D01*
X960538Y-800486D02*
X979586Y-800486D01*
X979586Y-800486D02*
X998634Y-810010D01*
X998634Y-810010D02*
X1008157Y-819534D01*
X1008157Y-819534D02*
X1017681Y-838581D01*
X1017681Y-838581D02*
X1027205Y-876677D01*
X1027205Y-876677D02*
X1027205Y-924296D01*
X1027205Y-924296D02*
X1017681Y-962391D01*
X1017681Y-962391D02*
X1008157Y-981438D01*
X1008157Y-981438D02*
X998634Y-990962D01*
X998634Y-990962D02*
X979586Y-1000486D01*
X979586Y-1000486D02*
X960538Y-1000486D01*
X960538Y-1000486D02*
X941491Y-990962D01*
X941491Y-990962D02*
X931967Y-981438D01*
X931967Y-981438D02*
X922443Y-962391D01*
X922443Y-962391D02*
X912919Y-924296D01*
X912919Y-924296D02*
X912919Y-876677D01*
X912919Y-876677D02*
X922443Y-838581D01*
X922443Y-838581D02*
X931967Y-819534D01*
X931967Y-819534D02*
X941491Y-810010D01*
X941491Y-810010D02*
X960538Y-800486D01*
X1112919Y-1000486D02*
X1112919Y-867153D01*
X1112919Y-886200D02*
X1122443Y-876677D01*
X1122443Y-876677D02*
X1141491Y-867153D01*
X1141491Y-867153D02*
X1170062Y-867153D01*
X1170062Y-867153D02*
X1189110Y-876677D01*
X1189110Y-876677D02*
X1198634Y-895724D01*
X1198634Y-895724D02*
X1198634Y-1000486D01*
X1198634Y-895724D02*
X1208157Y-876677D01*
X1208157Y-876677D02*
X1227205Y-867153D01*
X1227205Y-867153D02*
X1255776Y-867153D01*
X1255776Y-867153D02*
X1274824Y-876677D01*
X1274824Y-876677D02*
X1284348Y-895724D01*
X1284348Y-895724D02*
X1284348Y-1000486D01*
X1379586Y-1000486D02*
X1379586Y-867153D01*
X1379586Y-886200D02*
X1389110Y-876677D01*
X1389110Y-876677D02*
X1408157Y-867153D01*
X1408157Y-867153D02*
X1436729Y-867153D01*
X1436729Y-867153D02*
X1455776Y-876677D01*
X1455776Y-876677D02*
X1465300Y-895724D01*
X1465300Y-895724D02*
X1465300Y-1000486D01*
X1465300Y-895724D02*
X1474824Y-876677D01*
X1474824Y-876677D02*
X1493872Y-867153D01*
X1493872Y-867153D02*
X1522443Y-867153D01*
X1522443Y-867153D02*
X1541491Y-876677D01*
X1541491Y-876677D02*
X1551015Y-895724D01*
X1551015Y-895724D02*
X1551015Y-1000486D01*
X1941491Y-790962D02*
X1770062Y-1048105D01*
X2198634Y-800486D02*
X2217681Y-800486D01*
X2217681Y-800486D02*
X2236729Y-810010D01*
X2236729Y-810010D02*
X2246253Y-819534D01*
X2246253Y-819534D02*
X2255777Y-838581D01*
X2255777Y-838581D02*
X2265300Y-876677D01*
X2265300Y-876677D02*
X2265300Y-924296D01*
X2265300Y-924296D02*
X2255777Y-962391D01*
X2255777Y-962391D02*
X2246253Y-981438D01*
X2246253Y-981438D02*
X2236729Y-990962D01*
X2236729Y-990962D02*
X2217681Y-1000486D01*
X2217681Y-1000486D02*
X2198634Y-1000486D01*
X2198634Y-1000486D02*
X2179586Y-990962D01*
X2179586Y-990962D02*
X2170062Y-981438D01*
X2170062Y-981438D02*
X2160539Y-962391D01*
X2160539Y-962391D02*
X2151015Y-924296D01*
X2151015Y-924296D02*
X2151015Y-876677D01*
X2151015Y-876677D02*
X2160539Y-838581D01*
X2160539Y-838581D02*
X2170062Y-819534D01*
X2170062Y-819534D02*
X2179586Y-810010D01*
X2179586Y-810010D02*
X2198634Y-800486D01*
X2351015Y-981438D02*
X2360539Y-990962D01*
X2360539Y-990962D02*
X2351015Y-1000486D01*
X2351015Y-1000486D02*
X2341491Y-990962D01*
X2341491Y-990962D02*
X2351015Y-981438D01*
X2351015Y-981438D02*
X2351015Y-1000486D01*
X2484348Y-800486D02*
X2503396Y-800486D01*
X2503396Y-800486D02*
X2522443Y-810010D01*
X2522443Y-810010D02*
X2531967Y-819534D01*
X2531967Y-819534D02*
X2541491Y-838581D01*
X2541491Y-838581D02*
X2551015Y-876677D01*
X2551015Y-876677D02*
X2551015Y-924296D01*
X2551015Y-924296D02*
X2541491Y-962391D01*
X2541491Y-962391D02*
X2531967Y-981438D01*
X2531967Y-981438D02*
X2522443Y-990962D01*
X2522443Y-990962D02*
X2503396Y-1000486D01*
X2503396Y-1000486D02*
X2484348Y-1000486D01*
X2484348Y-1000486D02*
X2465300Y-990962D01*
X2465300Y-990962D02*
X2455777Y-981438D01*
X2455777Y-981438D02*
X2446253Y-962391D01*
X2446253Y-962391D02*
X2436729Y-924296D01*
X2436729Y-924296D02*
X2436729Y-876677D01*
X2436729Y-876677D02*
X2446253Y-838581D01*
X2446253Y-838581D02*
X2455777Y-819534D01*
X2455777Y-819534D02*
X2465300Y-810010D01*
X2465300Y-810010D02*
X2484348Y-800486D01*
X2627205Y-819534D02*
X2636729Y-810010D01*
X2636729Y-810010D02*
X2655777Y-800486D01*
X2655777Y-800486D02*
X2703396Y-800486D01*
X2703396Y-800486D02*
X2722443Y-810010D01*
X2722443Y-810010D02*
X2731967Y-819534D01*
X2731967Y-819534D02*
X2741491Y-838581D01*
X2741491Y-838581D02*
X2741491Y-857629D01*
X2741491Y-857629D02*
X2731967Y-886200D01*
X2731967Y-886200D02*
X2617681Y-1000486D01*
X2617681Y-1000486D02*
X2741491Y-1000486D01*
X2808158Y-800486D02*
X2931967Y-800486D01*
X2931967Y-800486D02*
X2865300Y-876677D01*
X2865300Y-876677D02*
X2893872Y-876677D01*
X2893872Y-876677D02*
X2912919Y-886200D01*
X2912919Y-886200D02*
X2922443Y-895724D01*
X2922443Y-895724D02*
X2931967Y-914772D01*
X2931967Y-914772D02*
X2931967Y-962391D01*
X2931967Y-962391D02*
X2922443Y-981438D01*
X2922443Y-981438D02*
X2912919Y-990962D01*
X2912919Y-990962D02*
X2893872Y-1000486D01*
X2893872Y-1000486D02*
X2836729Y-1000486D01*
X2836729Y-1000486D02*
X2817681Y-990962D01*
X2817681Y-990962D02*
X2808158Y-981438D01*
X3103396Y-800486D02*
X3065300Y-800486D01*
X3065300Y-800486D02*
X3046253Y-810010D01*
X3046253Y-810010D02*
X3036729Y-819534D01*
X3036729Y-819534D02*
X3017681Y-848105D01*
X3017681Y-848105D02*
X3008158Y-886200D01*
X3008158Y-886200D02*
X3008158Y-962391D01*
X3008158Y-962391D02*
X3017681Y-981438D01*
X3017681Y-981438D02*
X3027205Y-990962D01*
X3027205Y-990962D02*
X3046253Y-1000486D01*
X3046253Y-1000486D02*
X3084348Y-1000486D01*
X3084348Y-1000486D02*
X3103396Y-990962D01*
X3103396Y-990962D02*
X3112919Y-981438D01*
X3112919Y-981438D02*
X3122443Y-962391D01*
X3122443Y-962391D02*
X3122443Y-914772D01*
X3122443Y-914772D02*
X3112919Y-895724D01*
X3112919Y-895724D02*
X3103396Y-886200D01*
X3103396Y-886200D02*
X3084348Y-876677D01*
X3084348Y-876677D02*
X3046253Y-876677D01*
X3046253Y-876677D02*
X3027205Y-886200D01*
X3027205Y-886200D02*
X3017681Y-895724D01*
X3017681Y-895724D02*
X3008158Y-914772D01*
X3198634Y-800486D02*
X3198634Y-838581D01*
X3274824Y-800486D02*
X3274824Y-838581D01*
X3570062Y-1076677D02*
X3560539Y-1067153D01*
X3560539Y-1067153D02*
X3541491Y-1038581D01*
X3541491Y-1038581D02*
X3531967Y-1019534D01*
X3531967Y-1019534D02*
X3522443Y-990962D01*
X3522443Y-990962D02*
X3512920Y-943343D01*
X3512920Y-943343D02*
X3512920Y-905248D01*
X3512920Y-905248D02*
X3522443Y-857629D01*
X3522443Y-857629D02*
X3531967Y-829058D01*
X3531967Y-829058D02*
X3541491Y-810010D01*
X3541491Y-810010D02*
X3560539Y-781438D01*
X3560539Y-781438D02*
X3570062Y-771915D01*
X3684348Y-800486D02*
X3703396Y-800486D01*
X3703396Y-800486D02*
X3722443Y-810010D01*
X3722443Y-810010D02*
X3731967Y-819534D01*
X3731967Y-819534D02*
X3741491Y-838581D01*
X3741491Y-838581D02*
X3751015Y-876677D01*
X3751015Y-876677D02*
X3751015Y-924296D01*
X3751015Y-924296D02*
X3741491Y-962391D01*
X3741491Y-962391D02*
X3731967Y-981438D01*
X3731967Y-981438D02*
X3722443Y-990962D01*
X3722443Y-990962D02*
X3703396Y-1000486D01*
X3703396Y-1000486D02*
X3684348Y-1000486D01*
X3684348Y-1000486D02*
X3665300Y-990962D01*
X3665300Y-990962D02*
X3655777Y-981438D01*
X3655777Y-981438D02*
X3646253Y-962391D01*
X3646253Y-962391D02*
X3636729Y-924296D01*
X3636729Y-924296D02*
X3636729Y-876677D01*
X3636729Y-876677D02*
X3646253Y-838581D01*
X3646253Y-838581D02*
X3655777Y-819534D01*
X3655777Y-819534D02*
X3665300Y-810010D01*
X3665300Y-810010D02*
X3684348Y-800486D01*
X3989110Y-1000486D02*
X3989110Y-800486D01*
X4074824Y-1000486D02*
X4074824Y-895724D01*
X4074824Y-895724D02*
X4065301Y-876677D01*
X4065301Y-876677D02*
X4046253Y-867153D01*
X4046253Y-867153D02*
X4017681Y-867153D01*
X4017681Y-867153D02*
X3998634Y-876677D01*
X3998634Y-876677D02*
X3989110Y-886200D01*
X4198634Y-1000486D02*
X4179586Y-990962D01*
X4179586Y-990962D02*
X4170062Y-981438D01*
X4170062Y-981438D02*
X4160539Y-962391D01*
X4160539Y-962391D02*
X4160539Y-905248D01*
X4160539Y-905248D02*
X4170062Y-886200D01*
X4170062Y-886200D02*
X4179586Y-876677D01*
X4179586Y-876677D02*
X4198634Y-867153D01*
X4198634Y-867153D02*
X4227205Y-867153D01*
X4227205Y-867153D02*
X4246253Y-876677D01*
X4246253Y-876677D02*
X4255777Y-886200D01*
X4255777Y-886200D02*
X4265301Y-905248D01*
X4265301Y-905248D02*
X4265301Y-962391D01*
X4265301Y-962391D02*
X4255777Y-981438D01*
X4255777Y-981438D02*
X4246253Y-990962D01*
X4246253Y-990962D02*
X4227205Y-1000486D01*
X4227205Y-1000486D02*
X4198634Y-1000486D01*
X4379586Y-1000486D02*
X4360539Y-990962D01*
X4360539Y-990962D02*
X4351015Y-971915D01*
X4351015Y-971915D02*
X4351015Y-800486D01*
X4531967Y-990962D02*
X4512920Y-1000486D01*
X4512920Y-1000486D02*
X4474824Y-1000486D01*
X4474824Y-1000486D02*
X4455777Y-990962D01*
X4455777Y-990962D02*
X4446253Y-971915D01*
X4446253Y-971915D02*
X4446253Y-895724D01*
X4446253Y-895724D02*
X4455777Y-876677D01*
X4455777Y-876677D02*
X4474824Y-867153D01*
X4474824Y-867153D02*
X4512920Y-867153D01*
X4512920Y-867153D02*
X4531967Y-876677D01*
X4531967Y-876677D02*
X4541491Y-895724D01*
X4541491Y-895724D02*
X4541491Y-914772D01*
X4541491Y-914772D02*
X4446253Y-933819D01*
X4617682Y-990962D02*
X4636729Y-1000486D01*
X4636729Y-1000486D02*
X4674824Y-1000486D01*
X4674824Y-1000486D02*
X4693872Y-990962D01*
X4693872Y-990962D02*
X4703396Y-971915D01*
X4703396Y-971915D02*
X4703396Y-962391D01*
X4703396Y-962391D02*
X4693872Y-943343D01*
X4693872Y-943343D02*
X4674824Y-933819D01*
X4674824Y-933819D02*
X4646253Y-933819D01*
X4646253Y-933819D02*
X4627205Y-924296D01*
X4627205Y-924296D02*
X4617682Y-905248D01*
X4617682Y-905248D02*
X4617682Y-895724D01*
X4617682Y-895724D02*
X4627205Y-876677D01*
X4627205Y-876677D02*
X4646253Y-867153D01*
X4646253Y-867153D02*
X4674824Y-867153D01*
X4674824Y-867153D02*
X4693872Y-876677D01*
X4941491Y-924296D02*
X5093872Y-924296D01*
X5017682Y-1000486D02*
X5017682Y-848105D01*
X5427206Y-867153D02*
X5427206Y-1000486D01*
X5379586Y-790962D02*
X5331967Y-933819D01*
X5331967Y-933819D02*
X5455777Y-933819D01*
X5674825Y-990962D02*
X5693872Y-1000486D01*
X5693872Y-1000486D02*
X5731967Y-1000486D01*
X5731967Y-1000486D02*
X5751015Y-990962D01*
X5751015Y-990962D02*
X5760539Y-971915D01*
X5760539Y-971915D02*
X5760539Y-962391D01*
X5760539Y-962391D02*
X5751015Y-943343D01*
X5751015Y-943343D02*
X5731967Y-933819D01*
X5731967Y-933819D02*
X5703396Y-933819D01*
X5703396Y-933819D02*
X5684348Y-924296D01*
X5684348Y-924296D02*
X5674825Y-905248D01*
X5674825Y-905248D02*
X5674825Y-895724D01*
X5674825Y-895724D02*
X5684348Y-876677D01*
X5684348Y-876677D02*
X5703396Y-867153D01*
X5703396Y-867153D02*
X5731967Y-867153D01*
X5731967Y-867153D02*
X5751015Y-876677D01*
X5874825Y-1000486D02*
X5855777Y-990962D01*
X5855777Y-990962D02*
X5846253Y-971915D01*
X5846253Y-971915D02*
X5846253Y-800486D01*
X5979586Y-1000486D02*
X5960539Y-990962D01*
X5960539Y-990962D02*
X5951015Y-981438D01*
X5951015Y-981438D02*
X5941491Y-962391D01*
X5941491Y-962391D02*
X5941491Y-905248D01*
X5941491Y-905248D02*
X5951015Y-886200D01*
X5951015Y-886200D02*
X5960539Y-876677D01*
X5960539Y-876677D02*
X5979586Y-867153D01*
X5979586Y-867153D02*
X6008158Y-867153D01*
X6008158Y-867153D02*
X6027206Y-876677D01*
X6027206Y-876677D02*
X6036729Y-886200D01*
X6036729Y-886200D02*
X6046253Y-905248D01*
X6046253Y-905248D02*
X6046253Y-962391D01*
X6046253Y-962391D02*
X6036729Y-981438D01*
X6036729Y-981438D02*
X6027206Y-990962D01*
X6027206Y-990962D02*
X6008158Y-1000486D01*
X6008158Y-1000486D02*
X5979586Y-1000486D01*
X6103396Y-867153D02*
X6179586Y-867153D01*
X6131967Y-800486D02*
X6131967Y-971915D01*
X6131967Y-971915D02*
X6141491Y-990962D01*
X6141491Y-990962D02*
X6160539Y-1000486D01*
X6160539Y-1000486D02*
X6179586Y-1000486D01*
X6236729Y-990962D02*
X6255777Y-1000486D01*
X6255777Y-1000486D02*
X6293872Y-1000486D01*
X6293872Y-1000486D02*
X6312920Y-990962D01*
X6312920Y-990962D02*
X6322444Y-971915D01*
X6322444Y-971915D02*
X6322444Y-962391D01*
X6322444Y-962391D02*
X6312920Y-943343D01*
X6312920Y-943343D02*
X6293872Y-933819D01*
X6293872Y-933819D02*
X6265301Y-933819D01*
X6265301Y-933819D02*
X6246253Y-924296D01*
X6246253Y-924296D02*
X6236729Y-905248D01*
X6236729Y-905248D02*
X6236729Y-895724D01*
X6236729Y-895724D02*
X6246253Y-876677D01*
X6246253Y-876677D02*
X6265301Y-867153D01*
X6265301Y-867153D02*
X6293872Y-867153D01*
X6293872Y-867153D02*
X6312920Y-876677D01*
X6389110Y-1076677D02*
X6398634Y-1067153D01*
X6398634Y-1067153D02*
X6417682Y-1038581D01*
X6417682Y-1038581D02*
X6427206Y-1019534D01*
X6427206Y-1019534D02*
X6436729Y-990962D01*
X6436729Y-990962D02*
X6446253Y-943343D01*
X6446253Y-943343D02*
X6446253Y-905248D01*
X6446253Y-905248D02*
X6436729Y-857629D01*
X6436729Y-857629D02*
X6427206Y-829058D01*
X6427206Y-829058D02*
X6417682Y-810010D01*
X6417682Y-810010D02*
X6398634Y-781438D01*
X6398634Y-781438D02*
X6389110Y-771915D01*
D10*
X-55000Y-1123002D02*
X-55000Y-1223002D01*
X-105000Y-1173002D02*
X-5000Y-1173002D01*
D11*
X360538Y-1264486D02*
X246253Y-1264486D01*
X303395Y-1264486D02*
X303395Y-1064486D01*
X303395Y-1064486D02*
X284348Y-1093058D01*
X284348Y-1093058D02*
X265300Y-1112105D01*
X265300Y-1112105D02*
X246253Y-1121629D01*
X446253Y-1245439D02*
X455776Y-1254962D01*
X455776Y-1254962D02*
X446253Y-1264486D01*
X446253Y-1264486D02*
X436729Y-1254962D01*
X436729Y-1254962D02*
X446253Y-1245439D01*
X446253Y-1245439D02*
X446253Y-1264486D01*
X579586Y-1064486D02*
X598634Y-1064486D01*
X598634Y-1064486D02*
X617681Y-1074010D01*
X617681Y-1074010D02*
X627205Y-1083534D01*
X627205Y-1083534D02*
X636729Y-1102581D01*
X636729Y-1102581D02*
X646253Y-1140677D01*
X646253Y-1140677D02*
X646253Y-1188296D01*
X646253Y-1188296D02*
X636729Y-1226391D01*
X636729Y-1226391D02*
X627205Y-1245439D01*
X627205Y-1245439D02*
X617681Y-1254962D01*
X617681Y-1254962D02*
X598634Y-1264486D01*
X598634Y-1264486D02*
X579586Y-1264486D01*
X579586Y-1264486D02*
X560538Y-1254962D01*
X560538Y-1254962D02*
X551015Y-1245439D01*
X551015Y-1245439D02*
X541491Y-1226391D01*
X541491Y-1226391D02*
X531967Y-1188296D01*
X531967Y-1188296D02*
X531967Y-1140677D01*
X531967Y-1140677D02*
X541491Y-1102581D01*
X541491Y-1102581D02*
X551015Y-1083534D01*
X551015Y-1083534D02*
X560538Y-1074010D01*
X560538Y-1074010D02*
X579586Y-1064486D01*
X770062Y-1064486D02*
X789110Y-1064486D01*
X789110Y-1064486D02*
X808157Y-1074010D01*
X808157Y-1074010D02*
X817681Y-1083534D01*
X817681Y-1083534D02*
X827205Y-1102581D01*
X827205Y-1102581D02*
X836729Y-1140677D01*
X836729Y-1140677D02*
X836729Y-1188296D01*
X836729Y-1188296D02*
X827205Y-1226391D01*
X827205Y-1226391D02*
X817681Y-1245439D01*
X817681Y-1245439D02*
X808157Y-1254962D01*
X808157Y-1254962D02*
X789110Y-1264486D01*
X789110Y-1264486D02*
X770062Y-1264486D01*
X770062Y-1264486D02*
X751014Y-1254962D01*
X751014Y-1254962D02*
X741491Y-1245439D01*
X741491Y-1245439D02*
X731967Y-1226391D01*
X731967Y-1226391D02*
X722443Y-1188296D01*
X722443Y-1188296D02*
X722443Y-1140677D01*
X722443Y-1140677D02*
X731967Y-1102581D01*
X731967Y-1102581D02*
X741491Y-1083534D01*
X741491Y-1083534D02*
X751014Y-1074010D01*
X751014Y-1074010D02*
X770062Y-1064486D01*
X960538Y-1064486D02*
X979586Y-1064486D01*
X979586Y-1064486D02*
X998634Y-1074010D01*
X998634Y-1074010D02*
X1008157Y-1083534D01*
X1008157Y-1083534D02*
X1017681Y-1102581D01*
X1017681Y-1102581D02*
X1027205Y-1140677D01*
X1027205Y-1140677D02*
X1027205Y-1188296D01*
X1027205Y-1188296D02*
X1017681Y-1226391D01*
X1017681Y-1226391D02*
X1008157Y-1245439D01*
X1008157Y-1245439D02*
X998634Y-1254962D01*
X998634Y-1254962D02*
X979586Y-1264486D01*
X979586Y-1264486D02*
X960538Y-1264486D01*
X960538Y-1264486D02*
X941491Y-1254962D01*
X941491Y-1254962D02*
X931967Y-1245439D01*
X931967Y-1245439D02*
X922443Y-1226391D01*
X922443Y-1226391D02*
X912919Y-1188296D01*
X912919Y-1188296D02*
X912919Y-1140677D01*
X912919Y-1140677D02*
X922443Y-1102581D01*
X922443Y-1102581D02*
X931967Y-1083534D01*
X931967Y-1083534D02*
X941491Y-1074010D01*
X941491Y-1074010D02*
X960538Y-1064486D01*
X1112919Y-1264486D02*
X1112919Y-1131153D01*
X1112919Y-1150200D02*
X1122443Y-1140677D01*
X1122443Y-1140677D02*
X1141491Y-1131153D01*
X1141491Y-1131153D02*
X1170062Y-1131153D01*
X1170062Y-1131153D02*
X1189110Y-1140677D01*
X1189110Y-1140677D02*
X1198634Y-1159724D01*
X1198634Y-1159724D02*
X1198634Y-1264486D01*
X1198634Y-1159724D02*
X1208157Y-1140677D01*
X1208157Y-1140677D02*
X1227205Y-1131153D01*
X1227205Y-1131153D02*
X1255776Y-1131153D01*
X1255776Y-1131153D02*
X1274824Y-1140677D01*
X1274824Y-1140677D02*
X1284348Y-1159724D01*
X1284348Y-1159724D02*
X1284348Y-1264486D01*
X1379586Y-1264486D02*
X1379586Y-1131153D01*
X1379586Y-1150200D02*
X1389110Y-1140677D01*
X1389110Y-1140677D02*
X1408157Y-1131153D01*
X1408157Y-1131153D02*
X1436729Y-1131153D01*
X1436729Y-1131153D02*
X1455776Y-1140677D01*
X1455776Y-1140677D02*
X1465300Y-1159724D01*
X1465300Y-1159724D02*
X1465300Y-1264486D01*
X1465300Y-1159724D02*
X1474824Y-1140677D01*
X1474824Y-1140677D02*
X1493872Y-1131153D01*
X1493872Y-1131153D02*
X1522443Y-1131153D01*
X1522443Y-1131153D02*
X1541491Y-1140677D01*
X1541491Y-1140677D02*
X1551015Y-1159724D01*
X1551015Y-1159724D02*
X1551015Y-1264486D01*
X1941491Y-1054962D02*
X1770062Y-1312105D01*
X2198634Y-1064486D02*
X2217681Y-1064486D01*
X2217681Y-1064486D02*
X2236729Y-1074010D01*
X2236729Y-1074010D02*
X2246253Y-1083534D01*
X2246253Y-1083534D02*
X2255777Y-1102581D01*
X2255777Y-1102581D02*
X2265300Y-1140677D01*
X2265300Y-1140677D02*
X2265300Y-1188296D01*
X2265300Y-1188296D02*
X2255777Y-1226391D01*
X2255777Y-1226391D02*
X2246253Y-1245439D01*
X2246253Y-1245439D02*
X2236729Y-1254962D01*
X2236729Y-1254962D02*
X2217681Y-1264486D01*
X2217681Y-1264486D02*
X2198634Y-1264486D01*
X2198634Y-1264486D02*
X2179586Y-1254962D01*
X2179586Y-1254962D02*
X2170062Y-1245439D01*
X2170062Y-1245439D02*
X2160539Y-1226391D01*
X2160539Y-1226391D02*
X2151015Y-1188296D01*
X2151015Y-1188296D02*
X2151015Y-1140677D01*
X2151015Y-1140677D02*
X2160539Y-1102581D01*
X2160539Y-1102581D02*
X2170062Y-1083534D01*
X2170062Y-1083534D02*
X2179586Y-1074010D01*
X2179586Y-1074010D02*
X2198634Y-1064486D01*
X2351015Y-1245439D02*
X2360539Y-1254962D01*
X2360539Y-1254962D02*
X2351015Y-1264486D01*
X2351015Y-1264486D02*
X2341491Y-1254962D01*
X2341491Y-1254962D02*
X2351015Y-1245439D01*
X2351015Y-1245439D02*
X2351015Y-1264486D01*
X2484348Y-1064486D02*
X2503396Y-1064486D01*
X2503396Y-1064486D02*
X2522443Y-1074010D01*
X2522443Y-1074010D02*
X2531967Y-1083534D01*
X2531967Y-1083534D02*
X2541491Y-1102581D01*
X2541491Y-1102581D02*
X2551015Y-1140677D01*
X2551015Y-1140677D02*
X2551015Y-1188296D01*
X2551015Y-1188296D02*
X2541491Y-1226391D01*
X2541491Y-1226391D02*
X2531967Y-1245439D01*
X2531967Y-1245439D02*
X2522443Y-1254962D01*
X2522443Y-1254962D02*
X2503396Y-1264486D01*
X2503396Y-1264486D02*
X2484348Y-1264486D01*
X2484348Y-1264486D02*
X2465300Y-1254962D01*
X2465300Y-1254962D02*
X2455777Y-1245439D01*
X2455777Y-1245439D02*
X2446253Y-1226391D01*
X2446253Y-1226391D02*
X2436729Y-1188296D01*
X2436729Y-1188296D02*
X2436729Y-1140677D01*
X2436729Y-1140677D02*
X2446253Y-1102581D01*
X2446253Y-1102581D02*
X2455777Y-1083534D01*
X2455777Y-1083534D02*
X2465300Y-1074010D01*
X2465300Y-1074010D02*
X2484348Y-1064486D01*
X2617681Y-1064486D02*
X2741491Y-1064486D01*
X2741491Y-1064486D02*
X2674824Y-1140677D01*
X2674824Y-1140677D02*
X2703396Y-1140677D01*
X2703396Y-1140677D02*
X2722443Y-1150200D01*
X2722443Y-1150200D02*
X2731967Y-1159724D01*
X2731967Y-1159724D02*
X2741491Y-1178772D01*
X2741491Y-1178772D02*
X2741491Y-1226391D01*
X2741491Y-1226391D02*
X2731967Y-1245439D01*
X2731967Y-1245439D02*
X2722443Y-1254962D01*
X2722443Y-1254962D02*
X2703396Y-1264486D01*
X2703396Y-1264486D02*
X2646253Y-1264486D01*
X2646253Y-1264486D02*
X2627205Y-1254962D01*
X2627205Y-1254962D02*
X2617681Y-1245439D01*
X2836729Y-1264486D02*
X2874824Y-1264486D01*
X2874824Y-1264486D02*
X2893872Y-1254962D01*
X2893872Y-1254962D02*
X2903396Y-1245439D01*
X2903396Y-1245439D02*
X2922443Y-1216867D01*
X2922443Y-1216867D02*
X2931967Y-1178772D01*
X2931967Y-1178772D02*
X2931967Y-1102581D01*
X2931967Y-1102581D02*
X2922443Y-1083534D01*
X2922443Y-1083534D02*
X2912919Y-1074010D01*
X2912919Y-1074010D02*
X2893872Y-1064486D01*
X2893872Y-1064486D02*
X2855777Y-1064486D01*
X2855777Y-1064486D02*
X2836729Y-1074010D01*
X2836729Y-1074010D02*
X2827205Y-1083534D01*
X2827205Y-1083534D02*
X2817681Y-1102581D01*
X2817681Y-1102581D02*
X2817681Y-1150200D01*
X2817681Y-1150200D02*
X2827205Y-1169248D01*
X2827205Y-1169248D02*
X2836729Y-1178772D01*
X2836729Y-1178772D02*
X2855777Y-1188296D01*
X2855777Y-1188296D02*
X2893872Y-1188296D01*
X2893872Y-1188296D02*
X2912919Y-1178772D01*
X2912919Y-1178772D02*
X2922443Y-1169248D01*
X2922443Y-1169248D02*
X2931967Y-1150200D01*
X3103396Y-1131153D02*
X3103396Y-1264486D01*
X3055777Y-1054962D02*
X3008158Y-1197820D01*
X3008158Y-1197820D02*
X3131967Y-1197820D01*
X3198634Y-1064486D02*
X3198634Y-1102581D01*
X3274824Y-1064486D02*
X3274824Y-1102581D01*
X3570062Y-1340677D02*
X3560539Y-1331153D01*
X3560539Y-1331153D02*
X3541491Y-1302581D01*
X3541491Y-1302581D02*
X3531967Y-1283534D01*
X3531967Y-1283534D02*
X3522443Y-1254962D01*
X3522443Y-1254962D02*
X3512920Y-1207343D01*
X3512920Y-1207343D02*
X3512920Y-1169248D01*
X3512920Y-1169248D02*
X3522443Y-1121629D01*
X3522443Y-1121629D02*
X3531967Y-1093058D01*
X3531967Y-1093058D02*
X3541491Y-1074010D01*
X3541491Y-1074010D02*
X3560539Y-1045438D01*
X3560539Y-1045438D02*
X3570062Y-1035915D01*
X3741491Y-1064486D02*
X3646253Y-1064486D01*
X3646253Y-1064486D02*
X3636729Y-1159724D01*
X3636729Y-1159724D02*
X3646253Y-1150200D01*
X3646253Y-1150200D02*
X3665300Y-1140677D01*
X3665300Y-1140677D02*
X3712920Y-1140677D01*
X3712920Y-1140677D02*
X3731967Y-1150200D01*
X3731967Y-1150200D02*
X3741491Y-1159724D01*
X3741491Y-1159724D02*
X3751015Y-1178772D01*
X3751015Y-1178772D02*
X3751015Y-1226391D01*
X3751015Y-1226391D02*
X3741491Y-1245439D01*
X3741491Y-1245439D02*
X3731967Y-1254962D01*
X3731967Y-1254962D02*
X3712920Y-1264486D01*
X3712920Y-1264486D02*
X3665300Y-1264486D01*
X3665300Y-1264486D02*
X3646253Y-1254962D01*
X3646253Y-1254962D02*
X3636729Y-1245439D01*
X3989110Y-1264486D02*
X3989110Y-1064486D01*
X4074824Y-1264486D02*
X4074824Y-1159724D01*
X4074824Y-1159724D02*
X4065301Y-1140677D01*
X4065301Y-1140677D02*
X4046253Y-1131153D01*
X4046253Y-1131153D02*
X4017681Y-1131153D01*
X4017681Y-1131153D02*
X3998634Y-1140677D01*
X3998634Y-1140677D02*
X3989110Y-1150200D01*
X4198634Y-1264486D02*
X4179586Y-1254962D01*
X4179586Y-1254962D02*
X4170062Y-1245439D01*
X4170062Y-1245439D02*
X4160539Y-1226391D01*
X4160539Y-1226391D02*
X4160539Y-1169248D01*
X4160539Y-1169248D02*
X4170062Y-1150200D01*
X4170062Y-1150200D02*
X4179586Y-1140677D01*
X4179586Y-1140677D02*
X4198634Y-1131153D01*
X4198634Y-1131153D02*
X4227205Y-1131153D01*
X4227205Y-1131153D02*
X4246253Y-1140677D01*
X4246253Y-1140677D02*
X4255777Y-1150200D01*
X4255777Y-1150200D02*
X4265301Y-1169248D01*
X4265301Y-1169248D02*
X4265301Y-1226391D01*
X4265301Y-1226391D02*
X4255777Y-1245439D01*
X4255777Y-1245439D02*
X4246253Y-1254962D01*
X4246253Y-1254962D02*
X4227205Y-1264486D01*
X4227205Y-1264486D02*
X4198634Y-1264486D01*
X4379586Y-1264486D02*
X4360539Y-1254962D01*
X4360539Y-1254962D02*
X4351015Y-1235915D01*
X4351015Y-1235915D02*
X4351015Y-1064486D01*
X4531967Y-1254962D02*
X4512920Y-1264486D01*
X4512920Y-1264486D02*
X4474824Y-1264486D01*
X4474824Y-1264486D02*
X4455777Y-1254962D01*
X4455777Y-1254962D02*
X4446253Y-1235915D01*
X4446253Y-1235915D02*
X4446253Y-1159724D01*
X4446253Y-1159724D02*
X4455777Y-1140677D01*
X4455777Y-1140677D02*
X4474824Y-1131153D01*
X4474824Y-1131153D02*
X4512920Y-1131153D01*
X4512920Y-1131153D02*
X4531967Y-1140677D01*
X4531967Y-1140677D02*
X4541491Y-1159724D01*
X4541491Y-1159724D02*
X4541491Y-1178772D01*
X4541491Y-1178772D02*
X4446253Y-1197820D01*
X4617682Y-1254962D02*
X4636729Y-1264486D01*
X4636729Y-1264486D02*
X4674824Y-1264486D01*
X4674824Y-1264486D02*
X4693872Y-1254962D01*
X4693872Y-1254962D02*
X4703396Y-1235915D01*
X4703396Y-1235915D02*
X4703396Y-1226391D01*
X4703396Y-1226391D02*
X4693872Y-1207343D01*
X4693872Y-1207343D02*
X4674824Y-1197820D01*
X4674824Y-1197820D02*
X4646253Y-1197820D01*
X4646253Y-1197820D02*
X4627205Y-1188296D01*
X4627205Y-1188296D02*
X4617682Y-1169248D01*
X4617682Y-1169248D02*
X4617682Y-1159724D01*
X4617682Y-1159724D02*
X4627205Y-1140677D01*
X4627205Y-1140677D02*
X4646253Y-1131153D01*
X4646253Y-1131153D02*
X4674824Y-1131153D01*
X4674824Y-1131153D02*
X4693872Y-1140677D01*
X4770063Y-1340677D02*
X4779586Y-1331153D01*
X4779586Y-1331153D02*
X4798634Y-1302581D01*
X4798634Y-1302581D02*
X4808158Y-1283534D01*
X4808158Y-1283534D02*
X4817682Y-1254962D01*
X4817682Y-1254962D02*
X4827205Y-1207343D01*
X4827205Y-1207343D02*
X4827205Y-1169248D01*
X4827205Y-1169248D02*
X4817682Y-1121629D01*
X4817682Y-1121629D02*
X4808158Y-1093058D01*
X4808158Y-1093058D02*
X4798634Y-1074010D01*
X4798634Y-1074010D02*
X4779586Y-1045438D01*
X4779586Y-1045438D02*
X4770063Y-1035915D01*
M02*
