M48
; DRILL file {KiCad 7.0.6} date Sun Jul 16 23:36:38 2023
; FORMAT={-:-/ absolute / metric / decimal}
; #@! TF.CreationDate,2023-07-16T23:36:38-04:00
; #@! TF.GenerationSoftware,Kicad,Pcbnew,7.0.6
; #@! TF.FileFunction,Plated,1,2,PTH
FMAT,2
METRIC
; #@! TA.AperFunction,Plated,PTH,ViaDrill
T1C0.400
; #@! TA.AperFunction,Plated,PTH,ComponentDrill
T2C0.600
; #@! TA.AperFunction,Plated,PTH,ComponentDrill
T3C1.000
%
G90
G05
T1
X2.381Y21.431
X4.763Y40.481
X7.144Y59.531
X21.431Y21.431
X26.194Y40.481
X30.956Y59.531
X40.481Y21.431
X45.244Y40.481
X50.006Y59.531
X59.531Y21.431
X64.294Y40.481
X69.056Y59.531
X83.344Y40.481
X86.916Y57.15
X88.106Y11.906
X93.464Y27.98
X93.464Y25.003
X94.655Y13.097
X95.25Y29.424
X96.2Y33.338
X96.441Y19.05
X97.631Y19.05
X98.342Y33.338
X98.822Y19.05
X100.013Y50.006
X100.013Y48.474
X100.013Y11.906
X101.799Y33.933
X102.394Y57.745
X102.394Y54.769
X103.585Y39.291
X103.585Y27.384
X103.585Y26.194
X103.585Y25.003
X104.775Y27.384
X104.775Y26.194
X104.775Y25.003
X105.966Y36.314
X105.966Y27.384
X105.966Y26.194
X105.966Y25.003
X105.966Y19.05
X105.966Y16.669
X107.157Y11.906
X108.347Y37.505
X108.347Y35.719
X109.538Y45.244
X109.538Y30.361
X110.133Y26.789
X110.728Y27.98
X111.919Y40.481
X111.919Y23.813
X113.11Y50.006
X113.11Y48.474
X113.705Y32.742
X121.444Y54.769
X126.207Y59.531
X130.969Y40.481
X135.732Y21.431
X145.257Y59.531
X150.019Y40.481
X154.782Y21.431
X164.307Y59.531
X169.069Y40.481
X173.832Y21.431
X188.119Y59.531
X190.5Y40.481
X192.882Y21.431
T3
X70.803Y11.906
X73.343Y11.906
X75.883Y11.906
X78.423Y11.906
X80.963Y11.906
T2
X100.455Y65.644G85X100.455Y65.044
G05
X100.455Y61.714G85X100.455Y60.614
G05
X109.095Y65.644G85X109.095Y65.044
G05
X109.095Y61.714G85X109.095Y60.614
G05
T0
M30
