%TF.GenerationSoftware,KiCad,Pcbnew,7.0.6*%
%TF.CreationDate,2023-07-16T23:36:14-04:00*%
%TF.ProjectId,littolRP2040,6c697474-6f6c-4525-9032-3034302e6b69,rev?*%
%TF.SameCoordinates,PX2d6b3a0PY7e098dc*%
%TF.FileFunction,Legend,Bot*%
%TF.FilePolarity,Positive*%
%FSLAX46Y46*%
G04 Gerber Fmt 4.6, Leading zero omitted, Abs format (unit mm)*
G04 Created by KiCad (PCBNEW 7.0.6) date 2023-07-16 23:36:14*
%MOMM*%
%LPD*%
G01*
G04 APERTURE LIST*
G04 Aperture macros list*
%AMRoundRect*
0 Rectangle with rounded corners*
0 $1 Rounding radius*
0 $2 $3 $4 $5 $6 $7 $8 $9 X,Y pos of 4 corners*
0 Add a 4 corners polygon primitive as box body*
4,1,4,$2,$3,$4,$5,$6,$7,$8,$9,$2,$3,0*
0 Add four circle primitives for the rounded corners*
1,1,$1+$1,$2,$3*
1,1,$1+$1,$4,$5*
1,1,$1+$1,$6,$7*
1,1,$1+$1,$8,$9*
0 Add four rect primitives between the rounded corners*
20,1,$1+$1,$2,$3,$4,$5,0*
20,1,$1+$1,$4,$5,$6,$7,0*
20,1,$1+$1,$6,$7,$8,$9,0*
20,1,$1+$1,$8,$9,$2,$3,0*%
%AMRotRect*
0 Rectangle, with rotation*
0 The origin of the aperture is its center*
0 $1 length*
0 $2 width*
0 $3 Rotation angle, in degrees counterclockwise*
0 Add horizontal line*
21,1,$1,$2,0,0,$3*%
%AMOutline5P*
0 Free polygon, 5 corners , with rotation*
0 The origin of the aperture is its center*
0 number of corners: always 5*
0 $1 to $10 corner X, Y*
0 $11 Rotation angle, in degrees counterclockwise*
0 create outline with 5 corners*
4,1,5,$1,$2,$3,$4,$5,$6,$7,$8,$9,$10,$1,$2,$11*%
%AMOutline6P*
0 Free polygon, 6 corners , with rotation*
0 The origin of the aperture is its center*
0 number of corners: always 6*
0 $1 to $12 corner X, Y*
0 $13 Rotation angle, in degrees counterclockwise*
0 create outline with 6 corners*
4,1,6,$1,$2,$3,$4,$5,$6,$7,$8,$9,$10,$11,$12,$1,$2,$13*%
%AMOutline7P*
0 Free polygon, 7 corners , with rotation*
0 The origin of the aperture is its center*
0 number of corners: always 7*
0 $1 to $14 corner X, Y*
0 $15 Rotation angle, in degrees counterclockwise*
0 create outline with 7 corners*
4,1,7,$1,$2,$3,$4,$5,$6,$7,$8,$9,$10,$11,$12,$13,$14,$1,$2,$15*%
%AMOutline8P*
0 Free polygon, 8 corners , with rotation*
0 The origin of the aperture is its center*
0 number of corners: always 8*
0 $1 to $16 corner X, Y*
0 $17 Rotation angle, in degrees counterclockwise*
0 create outline with 8 corners*
4,1,8,$1,$2,$3,$4,$5,$6,$7,$8,$9,$10,$11,$12,$13,$14,$15,$16,$1,$2,$17*%
G04 Aperture macros list end*
%ADD10C,0.125000*%
%ADD11C,0.150000*%
%ADD12C,0.120000*%
%ADD13R,1.700000X1.700000*%
%ADD14O,1.700000X1.700000*%
%ADD15C,1.750000*%
%ADD16C,3.000000*%
%ADD17C,3.987800*%
%ADD18R,2.550000X2.500000*%
%ADD19RoundRect,0.140000X-0.140000X-0.170000X0.140000X-0.170000X0.140000X0.170000X-0.140000X0.170000X0*%
%ADD20RoundRect,0.150000X-0.150000X0.587500X-0.150000X-0.587500X0.150000X-0.587500X0.150000X0.587500X0*%
%ADD21RoundRect,0.140000X0.170000X-0.140000X0.170000X0.140000X-0.170000X0.140000X-0.170000X-0.140000X0*%
%ADD22RoundRect,0.250000X0.375000X0.625000X-0.375000X0.625000X-0.375000X-0.625000X0.375000X-0.625000X0*%
%ADD23RoundRect,0.150000X-0.512500X-0.150000X0.512500X-0.150000X0.512500X0.150000X-0.512500X0.150000X0*%
%ADD24RotRect,1.400000X1.200000X45.000000*%
%ADD25RoundRect,0.140000X0.021213X-0.219203X0.219203X-0.021213X-0.021213X0.219203X-0.219203X0.021213X0*%
%ADD26RoundRect,0.135000X-0.185000X0.135000X-0.185000X-0.135000X0.185000X-0.135000X0.185000X0.135000X0*%
%ADD27RoundRect,0.140000X-0.021213X0.219203X-0.219203X0.021213X0.021213X-0.219203X0.219203X-0.021213X0*%
%ADD28RoundRect,0.135000X0.185000X-0.135000X0.185000X0.135000X-0.185000X0.135000X-0.185000X-0.135000X0*%
%ADD29RoundRect,0.150000X0.475000X0.150000X-0.475000X0.150000X-0.475000X-0.150000X0.475000X-0.150000X0*%
%ADD30RoundRect,0.140000X0.140000X0.170000X-0.140000X0.170000X-0.140000X-0.170000X0.140000X-0.170000X0*%
%ADD31RoundRect,0.225000X0.250000X-0.225000X0.250000X0.225000X-0.250000X0.225000X-0.250000X-0.225000X0*%
%ADD32Outline5P,-1.275000X1.250000X0.400000X1.250000X1.275000X0.375000X1.275000X-1.250000X-1.275000X-1.250000X180.000000*%
%ADD33RoundRect,0.050000X0.387500X0.050000X-0.387500X0.050000X-0.387500X-0.050000X0.387500X-0.050000X0*%
%ADD34RoundRect,0.050000X0.050000X0.387500X-0.050000X0.387500X-0.050000X-0.387500X0.050000X-0.387500X0*%
%ADD35R,3.200000X3.200000*%
%ADD36RoundRect,0.150000X0.565685X-0.353553X-0.353553X0.565685X-0.565685X0.353553X0.353553X-0.565685X0*%
%ADD37RoundRect,0.135000X0.035355X-0.226274X0.226274X-0.035355X-0.035355X0.226274X-0.226274X0.035355X0*%
%ADD38R,1.700000X1.000000*%
%ADD39C,3.048000*%
%ADD40Outline5P,-1.275000X1.250000X0.400000X1.250000X1.275000X0.375000X1.275000X-1.250000X-1.275000X-1.250000X0.000000*%
%ADD41C,0.650000*%
%ADD42R,0.600000X1.450000*%
%ADD43R,0.300000X1.450000*%
%ADD44O,1.000000X1.600000*%
%ADD45O,1.000000X2.100000*%
%ADD46RoundRect,0.140000X0.219203X0.021213X0.021213X0.219203X-0.219203X-0.021213X-0.021213X-0.219203X0*%
G04 APERTURE END LIST*
D10*
X71383325Y13782566D02*
X71633325Y14139709D01*
X71811896Y13782566D02*
X71811896Y14532566D01*
X71811896Y14532566D02*
X71526182Y14532566D01*
X71526182Y14532566D02*
X71454753Y14496852D01*
X71454753Y14496852D02*
X71419039Y14461138D01*
X71419039Y14461138D02*
X71383325Y14389709D01*
X71383325Y14389709D02*
X71383325Y14282566D01*
X71383325Y14282566D02*
X71419039Y14211138D01*
X71419039Y14211138D02*
X71454753Y14175423D01*
X71454753Y14175423D02*
X71526182Y14139709D01*
X71526182Y14139709D02*
X71811896Y14139709D01*
X71097610Y13818280D02*
X70990468Y13782566D01*
X70990468Y13782566D02*
X70811896Y13782566D01*
X70811896Y13782566D02*
X70740468Y13818280D01*
X70740468Y13818280D02*
X70704753Y13853995D01*
X70704753Y13853995D02*
X70669039Y13925423D01*
X70669039Y13925423D02*
X70669039Y13996852D01*
X70669039Y13996852D02*
X70704753Y14068280D01*
X70704753Y14068280D02*
X70740468Y14103995D01*
X70740468Y14103995D02*
X70811896Y14139709D01*
X70811896Y14139709D02*
X70954753Y14175423D01*
X70954753Y14175423D02*
X71026182Y14211138D01*
X71026182Y14211138D02*
X71061896Y14246852D01*
X71061896Y14246852D02*
X71097610Y14318280D01*
X71097610Y14318280D02*
X71097610Y14389709D01*
X71097610Y14389709D02*
X71061896Y14461138D01*
X71061896Y14461138D02*
X71026182Y14496852D01*
X71026182Y14496852D02*
X70954753Y14532566D01*
X70954753Y14532566D02*
X70776182Y14532566D01*
X70776182Y14532566D02*
X70669039Y14496852D01*
X70454753Y14532566D02*
X70026182Y14532566D01*
X70240467Y13782566D02*
X70240467Y14532566D01*
D11*
X74406877Y14533866D02*
X73942591Y14533866D01*
X73942591Y14533866D02*
X74192591Y14248152D01*
X74192591Y14248152D02*
X74085448Y14248152D01*
X74085448Y14248152D02*
X74014020Y14212438D01*
X74014020Y14212438D02*
X73978305Y14176723D01*
X73978305Y14176723D02*
X73942591Y14105295D01*
X73942591Y14105295D02*
X73942591Y13926723D01*
X73942591Y13926723D02*
X73978305Y13855295D01*
X73978305Y13855295D02*
X74014020Y13819580D01*
X74014020Y13819580D02*
X74085448Y13783866D01*
X74085448Y13783866D02*
X74299734Y13783866D01*
X74299734Y13783866D02*
X74371162Y13819580D01*
X74371162Y13819580D02*
X74406877Y13855295D01*
X73728305Y14533866D02*
X73478305Y13783866D01*
X73478305Y13783866D02*
X73228305Y14533866D01*
X73049734Y14533866D02*
X72585448Y14533866D01*
X72585448Y14533866D02*
X72835448Y14248152D01*
X72835448Y14248152D02*
X72728305Y14248152D01*
X72728305Y14248152D02*
X72656877Y14212438D01*
X72656877Y14212438D02*
X72621162Y14176723D01*
X72621162Y14176723D02*
X72585448Y14105295D01*
X72585448Y14105295D02*
X72585448Y13926723D01*
X72585448Y13926723D02*
X72621162Y13855295D01*
X72621162Y13855295D02*
X72656877Y13819580D01*
X72656877Y13819580D02*
X72728305Y13783866D01*
X72728305Y13783866D02*
X72942591Y13783866D01*
X72942591Y13783866D02*
X73014019Y13819580D01*
X73014019Y13819580D02*
X73049734Y13855295D01*
X81991162Y13819580D02*
X81884020Y13783866D01*
X81884020Y13783866D02*
X81705448Y13783866D01*
X81705448Y13783866D02*
X81634020Y13819580D01*
X81634020Y13819580D02*
X81598305Y13855295D01*
X81598305Y13855295D02*
X81562591Y13926723D01*
X81562591Y13926723D02*
X81562591Y13998152D01*
X81562591Y13998152D02*
X81598305Y14069580D01*
X81598305Y14069580D02*
X81634020Y14105295D01*
X81634020Y14105295D02*
X81705448Y14141009D01*
X81705448Y14141009D02*
X81848305Y14176723D01*
X81848305Y14176723D02*
X81919734Y14212438D01*
X81919734Y14212438D02*
X81955448Y14248152D01*
X81955448Y14248152D02*
X81991162Y14319580D01*
X81991162Y14319580D02*
X81991162Y14391009D01*
X81991162Y14391009D02*
X81955448Y14462438D01*
X81955448Y14462438D02*
X81919734Y14498152D01*
X81919734Y14498152D02*
X81848305Y14533866D01*
X81848305Y14533866D02*
X81669734Y14533866D01*
X81669734Y14533866D02*
X81562591Y14498152D01*
X81312591Y14533866D02*
X81134019Y13783866D01*
X81134019Y13783866D02*
X80991162Y14319580D01*
X80991162Y14319580D02*
X80848305Y13783866D01*
X80848305Y13783866D02*
X80669734Y14533866D01*
X80384019Y13783866D02*
X80384019Y14533866D01*
X80384019Y14533866D02*
X80205448Y14533866D01*
X80205448Y14533866D02*
X80098305Y14498152D01*
X80098305Y14498152D02*
X80026876Y14426723D01*
X80026876Y14426723D02*
X79991162Y14355295D01*
X79991162Y14355295D02*
X79955448Y14212438D01*
X79955448Y14212438D02*
X79955448Y14105295D01*
X79955448Y14105295D02*
X79991162Y13962438D01*
X79991162Y13962438D02*
X80026876Y13891009D01*
X80026876Y13891009D02*
X80098305Y13819580D01*
X80098305Y13819580D02*
X80205448Y13783866D01*
X80205448Y13783866D02*
X80384019Y13783866D01*
X79451162Y13819580D02*
X79344020Y13783866D01*
X79344020Y13783866D02*
X79165448Y13783866D01*
X79165448Y13783866D02*
X79094020Y13819580D01*
X79094020Y13819580D02*
X79058305Y13855295D01*
X79058305Y13855295D02*
X79022591Y13926723D01*
X79022591Y13926723D02*
X79022591Y13998152D01*
X79022591Y13998152D02*
X79058305Y14069580D01*
X79058305Y14069580D02*
X79094020Y14105295D01*
X79094020Y14105295D02*
X79165448Y14141009D01*
X79165448Y14141009D02*
X79308305Y14176723D01*
X79308305Y14176723D02*
X79379734Y14212438D01*
X79379734Y14212438D02*
X79415448Y14248152D01*
X79415448Y14248152D02*
X79451162Y14319580D01*
X79451162Y14319580D02*
X79451162Y14391009D01*
X79451162Y14391009D02*
X79415448Y14462438D01*
X79415448Y14462438D02*
X79379734Y14498152D01*
X79379734Y14498152D02*
X79308305Y14533866D01*
X79308305Y14533866D02*
X79129734Y14533866D01*
X79129734Y14533866D02*
X79022591Y14498152D01*
X78772591Y14533866D02*
X78594019Y13783866D01*
X78594019Y13783866D02*
X78451162Y14319580D01*
X78451162Y14319580D02*
X78308305Y13783866D01*
X78308305Y13783866D02*
X78129734Y14533866D01*
X77415448Y13855295D02*
X77451162Y13819580D01*
X77451162Y13819580D02*
X77558305Y13783866D01*
X77558305Y13783866D02*
X77629733Y13783866D01*
X77629733Y13783866D02*
X77736876Y13819580D01*
X77736876Y13819580D02*
X77808305Y13891009D01*
X77808305Y13891009D02*
X77844019Y13962438D01*
X77844019Y13962438D02*
X77879733Y14105295D01*
X77879733Y14105295D02*
X77879733Y14212438D01*
X77879733Y14212438D02*
X77844019Y14355295D01*
X77844019Y14355295D02*
X77808305Y14426723D01*
X77808305Y14426723D02*
X77736876Y14498152D01*
X77736876Y14498152D02*
X77629733Y14533866D01*
X77629733Y14533866D02*
X77558305Y14533866D01*
X77558305Y14533866D02*
X77451162Y14498152D01*
X77451162Y14498152D02*
X77415448Y14462438D01*
X76482591Y14498152D02*
X76554020Y14533866D01*
X76554020Y14533866D02*
X76661162Y14533866D01*
X76661162Y14533866D02*
X76768305Y14498152D01*
X76768305Y14498152D02*
X76839734Y14426723D01*
X76839734Y14426723D02*
X76875448Y14355295D01*
X76875448Y14355295D02*
X76911162Y14212438D01*
X76911162Y14212438D02*
X76911162Y14105295D01*
X76911162Y14105295D02*
X76875448Y13962438D01*
X76875448Y13962438D02*
X76839734Y13891009D01*
X76839734Y13891009D02*
X76768305Y13819580D01*
X76768305Y13819580D02*
X76661162Y13783866D01*
X76661162Y13783866D02*
X76589734Y13783866D01*
X76589734Y13783866D02*
X76482591Y13819580D01*
X76482591Y13819580D02*
X76446877Y13855295D01*
X76446877Y13855295D02*
X76446877Y14105295D01*
X76446877Y14105295D02*
X76589734Y14105295D01*
X76125448Y13783866D02*
X76125448Y14533866D01*
X76125448Y14533866D02*
X75696877Y13783866D01*
X75696877Y13783866D02*
X75696877Y14533866D01*
X75339734Y13783866D02*
X75339734Y14533866D01*
X75339734Y14533866D02*
X75161163Y14533866D01*
X75161163Y14533866D02*
X75054020Y14498152D01*
X75054020Y14498152D02*
X74982591Y14426723D01*
X74982591Y14426723D02*
X74946877Y14355295D01*
X74946877Y14355295D02*
X74911163Y14212438D01*
X74911163Y14212438D02*
X74911163Y14105295D01*
X74911163Y14105295D02*
X74946877Y13962438D01*
X74946877Y13962438D02*
X74982591Y13891009D01*
X74982591Y13891009D02*
X75054020Y13819580D01*
X75054020Y13819580D02*
X75161163Y13783866D01*
X75161163Y13783866D02*
X75339734Y13783866D01*
D12*
%TO.C,J2*%
X69472704Y10576280D02*
X69472704Y11906280D01*
X70802704Y10576280D02*
X69472704Y10576280D01*
X72072704Y10576280D02*
X82292704Y10576280D01*
X72072704Y10576280D02*
X72072704Y13236280D01*
X82292704Y10576280D02*
X82292704Y13236280D01*
X72072704Y13236280D02*
X82292704Y13236280D01*
%TO.C,C13*%
X110025254Y29288200D02*
X110240926Y29288200D01*
X110025254Y28568200D02*
X110240926Y28568200D01*
%TO.C,D2*%
X23586618Y30361014D02*
X23586618Y31011014D01*
X23586618Y30361014D02*
X23586618Y29711014D01*
X20466618Y30361014D02*
X20466618Y32036014D01*
X20466618Y30361014D02*
X20466618Y29711014D01*
%TO.C,C1*%
X93699612Y61334820D02*
X93699612Y61550492D01*
X94419612Y61334820D02*
X94419612Y61550492D01*
%TO.C,F1*%
X97638246Y60052656D02*
X96434118Y60052656D01*
X97638246Y61872656D02*
X96434118Y61872656D01*
%TO.C,U2*%
X91083042Y62522656D02*
X90283042Y62522656D01*
X91083042Y62522656D02*
X91883042Y62522656D01*
X91083042Y59402656D02*
X89283042Y59402656D01*
X91083042Y59402656D02*
X91883042Y59402656D01*
%TO.C,D10*%
X142649418Y49411062D02*
X142649418Y50061062D01*
X142649418Y49411062D02*
X142649418Y48761062D01*
X139529418Y49411062D02*
X139529418Y51086062D01*
X139529418Y49411062D02*
X139529418Y48761062D01*
%TO.C,C6*%
X102034008Y31923806D02*
X102034008Y32139478D01*
X102754008Y31923806D02*
X102754008Y32139478D01*
%TO.C,Y1*%
X103282811Y17714073D02*
X106111238Y20542500D01*
X105616264Y15380620D02*
X103282811Y17714073D01*
%TO.C,C5*%
X110368404Y37876946D02*
X110368404Y38092618D01*
X111088404Y37876946D02*
X111088404Y38092618D01*
%TO.C,C3*%
X107216744Y16456065D02*
X107369247Y16608568D01*
X107725861Y15946948D02*
X107878364Y16099451D01*
%TO.C,D15*%
X190274538Y11310966D02*
X190274538Y11960966D01*
X190274538Y11310966D02*
X190274538Y10660966D01*
X187154538Y11310966D02*
X187154538Y12985966D01*
X187154538Y11310966D02*
X187154538Y10660966D01*
%TO.C,R6*%
X122419370Y34290911D02*
X122419370Y33983629D01*
X121659370Y34290911D02*
X121659370Y33983629D01*
%TO.C,C8*%
X101534190Y19467055D02*
X101381687Y19314552D01*
X101025073Y19976172D02*
X100872570Y19823669D01*
%TO.C,D11*%
X147411930Y30361014D02*
X147411930Y31011014D01*
X147411930Y30361014D02*
X147411930Y29711014D01*
X144291930Y30361014D02*
X144291930Y32036014D01*
X144291930Y30361014D02*
X144291930Y29711014D01*
%TO.C,R9*%
X89090530Y19491721D02*
X89090530Y19799003D01*
X89850530Y19491721D02*
X89850530Y19799003D01*
%TO.C,U1*%
X106875264Y45598550D02*
X106875264Y46208550D01*
X106875264Y46208550D02*
X103975264Y46208550D01*
X104775264Y43088550D02*
X105575264Y43088550D01*
X104775264Y43088550D02*
X103975264Y43088550D01*
%TO.C,R7*%
X120468742Y33983629D02*
X120468742Y34290911D01*
X121228742Y33983629D02*
X121228742Y34290911D01*
%TO.C,C14*%
X98929960Y24643188D02*
X98714288Y24643188D01*
X98929960Y25363188D02*
X98714288Y25363188D01*
%TO.C,R2*%
X106145264Y57591817D02*
X106145264Y57899099D01*
X106905264Y57591817D02*
X106905264Y57899099D01*
%TO.C,D6*%
X56924202Y11310966D02*
X56924202Y11960966D01*
X56924202Y11310966D02*
X56924202Y10660966D01*
X53804202Y11310966D02*
X53804202Y12985966D01*
X53804202Y11310966D02*
X53804202Y10660966D01*
%TO.C,C9*%
X98792124Y35492946D02*
X98792124Y35774106D01*
X99812124Y35492946D02*
X99812124Y35774106D01*
%TO.C,U4*%
X108385264Y22718200D02*
X108385264Y23368200D01*
X107735264Y22718200D02*
X108385264Y22718200D01*
X107735264Y29938200D02*
X108385264Y29938200D01*
X101815264Y22718200D02*
X101165264Y22718200D01*
X101815264Y29938200D02*
X101165264Y29938200D01*
X101165264Y22718200D02*
X101165264Y23368200D01*
X101165264Y29938200D02*
X101165264Y29288200D01*
%TO.C,D12*%
X152174442Y11310966D02*
X152174442Y11960966D01*
X152174442Y11310966D02*
X152174442Y10660966D01*
X149054442Y11310966D02*
X149054442Y12985966D01*
X149054442Y11310966D02*
X149054442Y10660966D01*
%TO.C,U3*%
X113704974Y28888538D02*
X113888822Y29072386D01*
X117374858Y32558422D02*
X118559262Y31374018D01*
X117558706Y32742270D02*
X117374858Y32558422D01*
X111778108Y30815404D02*
X113704974Y28888538D01*
X111778108Y30815404D02*
X109851242Y32742270D01*
X115631840Y34669136D02*
X117558706Y32742270D01*
X115631840Y34669136D02*
X113704974Y36596002D01*
X109851242Y32742270D02*
X110035090Y32926118D01*
X113704974Y36596002D02*
X113521126Y36412154D01*
%TO.C,D9*%
X127171254Y11310966D02*
X127171254Y11960966D01*
X127171254Y11310966D02*
X127171254Y10660966D01*
X124051254Y11310966D02*
X124051254Y12985966D01*
X124051254Y11310966D02*
X124051254Y10660966D01*
%TO.C,C11*%
X100843380Y31923806D02*
X100843380Y32139478D01*
X101563380Y31923806D02*
X101563380Y32139478D01*
%TO.C,R8*%
X120038114Y34290911D02*
X120038114Y33983629D01*
X119278114Y34290911D02*
X119278114Y33983629D01*
%TO.C,D5*%
X61686714Y30361014D02*
X61686714Y31011014D01*
X61686714Y30361014D02*
X61686714Y29711014D01*
X58566714Y30361014D02*
X58566714Y32036014D01*
X58566714Y30361014D02*
X58566714Y29711014D01*
%TO.C,R5*%
X103802609Y19805422D02*
X104019890Y20022703D01*
X104340010Y19268021D02*
X104557291Y19485302D01*
%TO.C,C15*%
X110025254Y25688200D02*
X110240926Y25688200D01*
X110025254Y24968200D02*
X110240926Y24968200D01*
%TO.C,D4*%
X66449226Y49411062D02*
X66449226Y50061062D01*
X66449226Y49411062D02*
X66449226Y48761062D01*
X63329226Y49411062D02*
X63329226Y51086062D01*
X63329226Y49411062D02*
X63329226Y48761062D01*
%TO.C,D3*%
X18824106Y11310966D02*
X18824106Y11960966D01*
X18824106Y11310966D02*
X18824106Y10660966D01*
X15704106Y11310966D02*
X15704106Y12985966D01*
X15704106Y11310966D02*
X15704106Y10660966D01*
%TO.C,D8*%
X96810240Y30361014D02*
X96810240Y31011014D01*
X96810240Y30361014D02*
X96810240Y29711014D01*
X93690240Y30361014D02*
X93690240Y32036014D01*
X93690240Y30361014D02*
X93690240Y29711014D01*
%TO.C,D1*%
X28349130Y49411062D02*
X28349130Y50061062D01*
X28349130Y49411062D02*
X28349130Y48761062D01*
X25229130Y49411062D02*
X25229130Y51086062D01*
X25229130Y49411062D02*
X25229130Y48761062D01*
%TO.C,R4*%
X102609322Y35479885D02*
X102609322Y35787167D01*
X103369322Y35479885D02*
X103369322Y35787167D01*
%TO.C,C2*%
X88098994Y61552656D02*
X87883322Y61552656D01*
X88098994Y62272656D02*
X87883322Y62272656D01*
%TO.C,C16*%
X102129504Y18871741D02*
X101977001Y18719238D01*
X101620387Y19380858D02*
X101467884Y19228355D01*
%TO.C,RESET1*%
X83570530Y22103188D02*
X83570530Y24103188D01*
X84620530Y25403188D02*
X85070530Y25853188D01*
X84620530Y20803188D02*
X85070530Y20353188D01*
X85070530Y25853188D02*
X87570530Y25853188D01*
X85070530Y20353188D02*
X87570530Y20353188D01*
X88020530Y25403188D02*
X87570530Y25853188D01*
X88020530Y20803188D02*
X87570530Y20353188D01*
X89070530Y22103188D02*
X89070530Y24103188D01*
%TO.C,C7*%
X106201206Y33825062D02*
X106201206Y34040734D01*
X106921206Y33825062D02*
X106921206Y34040734D01*
%TO.C,R1*%
X103905264Y57899099D02*
X103905264Y57591817D01*
X103145264Y57899099D02*
X103145264Y57591817D01*
%TO.C,C12*%
X104415264Y33229748D02*
X104415264Y33445420D01*
X105135264Y33229748D02*
X105135264Y33445420D01*
%TO.C,D13*%
X180749514Y49411062D02*
X180749514Y50061062D01*
X180749514Y49411062D02*
X180749514Y48761062D01*
X177629514Y49411062D02*
X177629514Y51086062D01*
X177629514Y49411062D02*
X177629514Y48761062D01*
%TO.C,J1*%
X100075264Y68193912D02*
X109475264Y68193912D01*
X100075264Y66293912D02*
X100075264Y68193912D01*
X100075264Y62393912D02*
X100075264Y64393912D01*
X109475264Y66293912D02*
X109475264Y68193912D01*
X109475264Y62393912D02*
X109475264Y64393912D01*
%TO.C,R3*%
X103799950Y35479885D02*
X103799950Y35787167D01*
X104559950Y35479885D02*
X104559950Y35787167D01*
%TO.C,D7*%
X123599370Y49411062D02*
X123599370Y50061062D01*
X123599370Y49411062D02*
X123599370Y48761062D01*
X120479370Y49411062D02*
X120479370Y51086062D01*
X120479370Y49411062D02*
X120479370Y48761062D01*
%TO.C,C4*%
X103560092Y15505398D02*
X103407589Y15657901D01*
X104069209Y16014515D02*
X103916706Y16167018D01*
%TO.C,D14*%
X185512026Y30361014D02*
X185512026Y31011014D01*
X185512026Y30361014D02*
X185512026Y29711014D01*
X182392026Y30361014D02*
X182392026Y32036014D01*
X182392026Y30361014D02*
X182392026Y29711014D01*
%TO.C,C10*%
X98929960Y28568200D02*
X98714288Y28568200D01*
X98929960Y29288200D02*
X98714288Y29288200D01*
%TO.C,BOOT1*%
X126277655Y30765700D02*
X126277655Y28765700D01*
X125227655Y27465700D02*
X124777655Y27015700D01*
X125227655Y32065700D02*
X124777655Y32515700D01*
X124777655Y27015700D02*
X122277655Y27015700D01*
X124777655Y32515700D02*
X122277655Y32515700D01*
X121827655Y27465700D02*
X122277655Y27015700D01*
X121827655Y32065700D02*
X122277655Y32515700D01*
X120777655Y30765700D02*
X120777655Y28765700D01*
%TD*%
%LPC*%
D13*
%TO.C,J2*%
X70802704Y11906280D03*
D14*
X73342704Y11906280D03*
X75882704Y11906280D03*
X78422704Y11906280D03*
X80962704Y11906280D03*
%TD*%
D15*
%TO.C,MX24*%
X162262727Y38100096D03*
D16*
X159722727Y43180096D03*
D17*
X157182727Y38100096D03*
D16*
X153372727Y40640096D03*
D15*
X152102727Y38100096D03*
D18*
X150097727Y40640096D03*
X163024727Y43180096D03*
%TD*%
D19*
%TO.C,C13*%
X109653090Y28928200D03*
X110613090Y28928200D03*
%TD*%
D20*
%TO.C,D2*%
X21076618Y31298514D03*
X22976618Y31298514D03*
X22026618Y29423514D03*
%TD*%
D21*
%TO.C,C1*%
X94059612Y60962656D03*
X94059612Y61922656D03*
%TD*%
D15*
%TO.C,MX25*%
X167025239Y19050048D03*
D16*
X164485239Y24130048D03*
D17*
X161945239Y19050048D03*
D16*
X158135239Y21590048D03*
D15*
X156865239Y19050048D03*
D18*
X154860239Y21590048D03*
X167787239Y24130048D03*
%TD*%
D22*
%TO.C,F1*%
X98436182Y60962656D03*
X95636182Y60962656D03*
%TD*%
D15*
%TO.C,MX1*%
X19347705Y57150144D03*
D16*
X16807705Y62230144D03*
D17*
X14267705Y57150144D03*
D16*
X10457705Y59690144D03*
D15*
X9187705Y57150144D03*
D18*
X7182705Y59690144D03*
X20109705Y62230144D03*
%TD*%
D23*
%TO.C,U2*%
X89945542Y60012656D03*
X89945542Y61912656D03*
X92220542Y60962656D03*
%TD*%
D15*
%TO.C,MX17*%
X124122969Y38100096D03*
D16*
X121582969Y43180096D03*
D17*
X119042969Y38100096D03*
D16*
X115232969Y40640096D03*
D15*
X113962969Y38100096D03*
D18*
X111957969Y40640096D03*
X124884969Y43180096D03*
%TD*%
D15*
%TO.C,MX27*%
X181312775Y38100096D03*
D16*
X178772775Y43180096D03*
D17*
X176232775Y38100096D03*
D16*
X172422775Y40640096D03*
D15*
X171152775Y38100096D03*
D18*
X169147775Y40640096D03*
X182074775Y43180096D03*
%TD*%
D15*
%TO.C,MX2*%
X17006111Y38100096D03*
D16*
X14466111Y43180096D03*
D17*
X11926111Y38100096D03*
D16*
X8116111Y40640096D03*
D15*
X6846111Y38100096D03*
D18*
X4841111Y40640096D03*
X17768111Y43180096D03*
%TD*%
D15*
%TO.C,MX5*%
X38397753Y38100096D03*
D16*
X35857753Y43180096D03*
D17*
X33317753Y38100096D03*
D16*
X29507753Y40640096D03*
D15*
X28237753Y38100096D03*
D18*
X26232753Y40640096D03*
X39159753Y43180096D03*
%TD*%
D15*
%TO.C,MX22*%
X147975191Y19050048D03*
D16*
X145435191Y24130048D03*
D17*
X142895191Y19050048D03*
D16*
X139085191Y21590048D03*
D15*
X137815191Y19050048D03*
D18*
X135810191Y21590048D03*
X148737191Y24130048D03*
%TD*%
D20*
%TO.C,D10*%
X140139418Y50348562D03*
X142039418Y50348562D03*
X141089418Y48473562D03*
%TD*%
D21*
%TO.C,C6*%
X102394008Y31551642D03*
X102394008Y32511642D03*
%TD*%
D24*
%TO.C,Y1*%
X104484893Y17784783D03*
X106040528Y19340418D03*
X107242609Y18138337D03*
X105686974Y16582702D03*
%TD*%
D21*
%TO.C,C5*%
X110728404Y37504782D03*
X110728404Y38464782D03*
%TD*%
D25*
%TO.C,C3*%
X107208143Y15938347D03*
X107886965Y16617169D03*
%TD*%
D15*
%TO.C,MX3*%
X14605024Y19050048D03*
D16*
X12065024Y24130048D03*
D17*
X9525024Y19050048D03*
D16*
X5715024Y21590048D03*
D15*
X4445024Y19050048D03*
D18*
X2440024Y21590048D03*
X15367024Y24130048D03*
%TD*%
D20*
%TO.C,D15*%
X187764538Y12248466D03*
X189664538Y12248466D03*
X188714538Y10373466D03*
%TD*%
D26*
%TO.C,R6*%
X122039370Y34647270D03*
X122039370Y33627270D03*
%TD*%
D15*
%TO.C,MX11*%
X76517680Y38100096D03*
D16*
X73977680Y43180096D03*
D17*
X71437680Y38100096D03*
D16*
X67627680Y40640096D03*
D15*
X66357680Y38100096D03*
D18*
X64352680Y40640096D03*
X77279680Y43180096D03*
%TD*%
D27*
%TO.C,C8*%
X101542791Y19984773D03*
X100863969Y19305951D03*
%TD*%
D15*
%TO.C,MX14*%
X95547897Y38100096D03*
D16*
X93007897Y43180096D03*
D17*
X90467897Y38100096D03*
D16*
X86657897Y40640096D03*
D15*
X85387897Y38100096D03*
D18*
X83382897Y40640096D03*
X96309897Y43180096D03*
%TD*%
D20*
%TO.C,D11*%
X144901930Y31298514D03*
X146801930Y31298514D03*
X145851930Y29423514D03*
%TD*%
D28*
%TO.C,R9*%
X89470530Y19135362D03*
X89470530Y20155362D03*
%TD*%
D15*
%TO.C,MX8*%
X57447801Y38100096D03*
D16*
X54907801Y43180096D03*
D17*
X52367801Y38100096D03*
D16*
X48557801Y40640096D03*
D15*
X47287801Y38100096D03*
D18*
X45282801Y40640096D03*
X58209801Y43180096D03*
%TD*%
D15*
%TO.C,MX10*%
X81260361Y57150144D03*
D16*
X78720361Y62230144D03*
D17*
X76180361Y57150144D03*
D16*
X72370361Y59690144D03*
D15*
X71100361Y57150144D03*
D18*
X69095361Y59690144D03*
X82022361Y62230144D03*
%TD*%
D15*
%TO.C,MX7*%
X62249975Y57150144D03*
D16*
X59709975Y62230144D03*
D17*
X57169975Y57150144D03*
D16*
X53359975Y59690144D03*
D15*
X52089975Y57150144D03*
D18*
X50084975Y59690144D03*
X63011975Y62230144D03*
%TD*%
D29*
%TO.C,U1*%
X105950264Y45598550D03*
X105950264Y44648550D03*
X105950264Y43698550D03*
X103600264Y43698550D03*
X103600264Y44648550D03*
X103600264Y45598550D03*
%TD*%
D28*
%TO.C,R7*%
X120848742Y33627270D03*
X120848742Y34647270D03*
%TD*%
D30*
%TO.C,C14*%
X99302124Y25003188D03*
X98342124Y25003188D03*
%TD*%
D28*
%TO.C,R2*%
X106525264Y57235458D03*
X106525264Y58255458D03*
%TD*%
D15*
%TO.C,MX15*%
X100330240Y9525024D03*
D16*
X97790240Y14605024D03*
D17*
X95250240Y9525024D03*
D16*
X91440240Y12065024D03*
D15*
X90170240Y9525024D03*
D18*
X88165240Y12065024D03*
X101092240Y14605024D03*
%TD*%
D20*
%TO.C,D6*%
X54414202Y12248466D03*
X56314202Y12248466D03*
X55364202Y10373466D03*
%TD*%
D31*
%TO.C,C9*%
X99302124Y34858526D03*
X99302124Y36408526D03*
%TD*%
D15*
%TO.C,MX18*%
X119380288Y9525024D03*
D16*
X116840288Y14605024D03*
D17*
X114300288Y9525024D03*
D16*
X110490288Y12065024D03*
D15*
X109220288Y9525024D03*
D32*
X107215288Y12065024D03*
D18*
X120142288Y14605024D03*
%TD*%
D33*
%TO.C,U4*%
X108212764Y28928200D03*
X108212764Y28528200D03*
X108212764Y28128200D03*
X108212764Y27728200D03*
X108212764Y27328200D03*
X108212764Y26928200D03*
X108212764Y26528200D03*
X108212764Y26128200D03*
X108212764Y25728200D03*
X108212764Y25328200D03*
X108212764Y24928200D03*
X108212764Y24528200D03*
X108212764Y24128200D03*
X108212764Y23728200D03*
D34*
X107375264Y22890700D03*
X106975264Y22890700D03*
X106575264Y22890700D03*
X106175264Y22890700D03*
X105775264Y22890700D03*
X105375264Y22890700D03*
X104975264Y22890700D03*
X104575264Y22890700D03*
X104175264Y22890700D03*
X103775264Y22890700D03*
X103375264Y22890700D03*
X102975264Y22890700D03*
X102575264Y22890700D03*
X102175264Y22890700D03*
D33*
X101337764Y23728200D03*
X101337764Y24128200D03*
X101337764Y24528200D03*
X101337764Y24928200D03*
X101337764Y25328200D03*
X101337764Y25728200D03*
X101337764Y26128200D03*
X101337764Y26528200D03*
X101337764Y26928200D03*
X101337764Y27328200D03*
X101337764Y27728200D03*
X101337764Y28128200D03*
X101337764Y28528200D03*
X101337764Y28928200D03*
D34*
X102175264Y29765700D03*
X102575264Y29765700D03*
X102975264Y29765700D03*
X103375264Y29765700D03*
X103775264Y29765700D03*
X104175264Y29765700D03*
X104575264Y29765700D03*
X104975264Y29765700D03*
X105375264Y29765700D03*
X105775264Y29765700D03*
X106175264Y29765700D03*
X106575264Y29765700D03*
X106975264Y29765700D03*
X107375264Y29765700D03*
D35*
X104775264Y26328200D03*
%TD*%
D15*
%TO.C,MX9*%
X52724951Y19050048D03*
D16*
X50184951Y24130048D03*
D17*
X47644951Y19050048D03*
D16*
X43834951Y21590048D03*
D15*
X42564951Y19050048D03*
D18*
X40559951Y21590048D03*
X53486951Y24130048D03*
%TD*%
D15*
%TO.C,MX29*%
X200342992Y57150144D03*
D16*
X197802992Y62230144D03*
D17*
X195262992Y57150144D03*
D16*
X191452992Y59690144D03*
D15*
X190182992Y57150144D03*
D18*
X188177992Y59690144D03*
X201104992Y62230144D03*
%TD*%
D20*
%TO.C,D12*%
X149664442Y12248466D03*
X151564442Y12248466D03*
X150614442Y10373466D03*
%TD*%
D36*
%TO.C,U3*%
X117597597Y31543724D03*
X116699571Y30645698D03*
X115801546Y29747673D03*
X114903520Y28849647D03*
X109812351Y33940816D03*
X110710377Y34838842D03*
X111608402Y35736867D03*
X112506428Y36634893D03*
%TD*%
D20*
%TO.C,D9*%
X124661254Y12248466D03*
X126561254Y12248466D03*
X125611254Y10373466D03*
%TD*%
D21*
%TO.C,C11*%
X101203380Y31551642D03*
X101203380Y32511642D03*
%TD*%
D26*
%TO.C,R8*%
X119658114Y34647270D03*
X119658114Y33627270D03*
%TD*%
D20*
%TO.C,D5*%
X59176714Y31298514D03*
X61076714Y31298514D03*
X60126714Y29423514D03*
%TD*%
D37*
%TO.C,R5*%
X103819326Y19284738D03*
X104540574Y20005986D03*
%TD*%
D19*
%TO.C,C15*%
X109653090Y25328200D03*
X110613090Y25328200D03*
%TD*%
D15*
%TO.C,MX12*%
X71735337Y19050048D03*
D16*
X69195337Y24130048D03*
D17*
X66655337Y19050048D03*
D16*
X62845337Y21590048D03*
D15*
X61575337Y19050048D03*
D18*
X59570337Y21590048D03*
X72497337Y24130048D03*
%TD*%
D20*
%TO.C,D4*%
X63939226Y50348562D03*
X65839226Y50348562D03*
X64889226Y48473562D03*
%TD*%
%TO.C,D3*%
X16314106Y12248466D03*
X18214106Y12248466D03*
X17264106Y10373466D03*
%TD*%
%TO.C,D8*%
X94300240Y31298514D03*
X96200240Y31298514D03*
X95250240Y29423514D03*
%TD*%
D15*
%TO.C,MX21*%
X143173017Y38100096D03*
D16*
X140633017Y43180096D03*
D17*
X138093017Y38100096D03*
D16*
X134283017Y40640096D03*
D15*
X133013017Y38100096D03*
D18*
X131008017Y40640096D03*
X143935017Y43180096D03*
%TD*%
D15*
%TO.C,MX6*%
X33674903Y19050048D03*
D16*
X31134903Y24130048D03*
D17*
X28594903Y19050048D03*
D16*
X24784903Y21590048D03*
D15*
X23514903Y19050048D03*
D18*
X21509903Y21590048D03*
X34436903Y24130048D03*
%TD*%
D20*
%TO.C,D1*%
X25839130Y50348562D03*
X27739130Y50348562D03*
X26789130Y48473562D03*
%TD*%
D15*
%TO.C,MX30*%
X202704417Y38100096D03*
D16*
X200164417Y43180096D03*
D17*
X197624417Y38100096D03*
D16*
X193814417Y40640096D03*
D15*
X192544417Y38100096D03*
D18*
X190539417Y40640096D03*
X203466417Y43180096D03*
%TD*%
D28*
%TO.C,R4*%
X102989322Y35123526D03*
X102989322Y36143526D03*
%TD*%
D15*
%TO.C,MX13*%
X90150409Y57150144D03*
D16*
X92690409Y52070144D03*
D17*
X95230409Y57150144D03*
D16*
X99040409Y54610144D03*
D15*
X100310409Y57150144D03*
D18*
X102315409Y54610144D03*
X89388409Y52070144D03*
%TD*%
D30*
%TO.C,C2*%
X88471158Y61912656D03*
X87511158Y61912656D03*
%TD*%
D15*
%TO.C,MX16*%
X109200457Y57150144D03*
D16*
X111740457Y52070144D03*
D17*
X114280457Y57150144D03*
D16*
X118090457Y54610144D03*
D15*
X119360457Y57150144D03*
D18*
X121365457Y54610144D03*
X108438457Y52070144D03*
%TD*%
D27*
%TO.C,C16*%
X102138105Y19389459D03*
X101459283Y18710637D03*
%TD*%
D38*
%TO.C,RESET1*%
X83170530Y21203188D03*
X89470530Y21203188D03*
X83170530Y25003188D03*
X89470530Y25003188D03*
%TD*%
D21*
%TO.C,C7*%
X106561206Y33452898D03*
X106561206Y34412898D03*
%TD*%
D15*
%TO.C,MX28*%
X186055456Y19050048D03*
D16*
X183515456Y24130048D03*
D17*
X180975456Y19050048D03*
D16*
X177165456Y21590048D03*
D15*
X175895456Y19050048D03*
D18*
X173890456Y21590048D03*
X186817456Y24130048D03*
%TD*%
D26*
%TO.C,R1*%
X103525264Y58255458D03*
X103525264Y57235458D03*
%TD*%
D21*
%TO.C,C12*%
X104775264Y32857584D03*
X104775264Y33817584D03*
%TD*%
D20*
%TO.C,D13*%
X178239514Y50348562D03*
X180139514Y50348562D03*
X179189514Y48473562D03*
%TD*%
D17*
%TO.C,MX19*%
X92837264Y17780024D03*
D39*
X92837264Y2540024D03*
D15*
X99695264Y9525024D03*
D16*
X102235264Y4445024D03*
D17*
X104775264Y9525024D03*
D16*
X108585264Y6985024D03*
D15*
X109855264Y9525024D03*
D17*
X116713264Y17780024D03*
D39*
X116713264Y2540024D03*
D40*
X111860264Y6985024D03*
D18*
X98933264Y4445024D03*
%TD*%
D41*
%TO.C,J1*%
X101885264Y61693912D03*
X107665264Y61693912D03*
D42*
X101525264Y60248912D03*
X102325264Y60248912D03*
D43*
X103525264Y60248912D03*
X104525264Y60248912D03*
X105025264Y60248912D03*
X106025264Y60248912D03*
D42*
X107225264Y60248912D03*
X108025264Y60248912D03*
X108025264Y60248912D03*
X107225264Y60248912D03*
D43*
X106525264Y60248912D03*
X105525264Y60248912D03*
X104025264Y60248912D03*
X103025264Y60248912D03*
D42*
X102325264Y60248912D03*
X101525264Y60248912D03*
D44*
X100455264Y65343912D03*
D45*
X100455264Y61163912D03*
D44*
X109095264Y65343912D03*
D45*
X109095264Y61163912D03*
%TD*%
D28*
%TO.C,R3*%
X104179950Y35123526D03*
X104179950Y36143526D03*
%TD*%
D15*
%TO.C,MX26*%
X176530432Y57150144D03*
D16*
X173990432Y62230144D03*
D17*
X171450432Y57150144D03*
D16*
X167640432Y59690144D03*
D15*
X166370432Y57150144D03*
D18*
X164365432Y59690144D03*
X177292432Y62230144D03*
%TD*%
D15*
%TO.C,MX31*%
X205085673Y19050048D03*
D16*
X202545673Y24130048D03*
D17*
X200005673Y19050048D03*
D16*
X196195673Y21590048D03*
D15*
X194925673Y19050048D03*
D18*
X192920673Y21590048D03*
X205847673Y24130048D03*
%TD*%
D20*
%TO.C,D7*%
X121089370Y50348562D03*
X122989370Y50348562D03*
X122039370Y48473562D03*
%TD*%
D15*
%TO.C,MX20*%
X138410505Y57150144D03*
D16*
X135870505Y62230144D03*
D17*
X133330505Y57150144D03*
D16*
X129520505Y59690144D03*
D15*
X128250505Y57150144D03*
D18*
X126245505Y59690144D03*
X139172505Y62230144D03*
%TD*%
D15*
%TO.C,MX4*%
X43199927Y57150144D03*
D16*
X40659927Y62230144D03*
D17*
X38119927Y57150144D03*
D16*
X34309927Y59690144D03*
D15*
X33039927Y57150144D03*
D18*
X31034927Y59690144D03*
X43961927Y62230144D03*
%TD*%
D46*
%TO.C,C4*%
X104077810Y15496797D03*
X103398988Y16175619D03*
%TD*%
D20*
%TO.C,D14*%
X183002026Y31298514D03*
X184902026Y31298514D03*
X183952026Y29423514D03*
%TD*%
D15*
%TO.C,MX23*%
X157480384Y57150144D03*
D16*
X154940384Y62230144D03*
D17*
X152400384Y57150144D03*
D16*
X148590384Y59690144D03*
D15*
X147320384Y57150144D03*
D18*
X145315384Y59690144D03*
X158242384Y62230144D03*
%TD*%
D30*
%TO.C,C10*%
X99302124Y28928200D03*
X98342124Y28928200D03*
%TD*%
D38*
%TO.C,BOOT1*%
X126677655Y31665700D03*
X120377655Y31665700D03*
X126677655Y27865700D03*
X120377655Y27865700D03*
%TD*%
%LPD*%
M02*
