%TF.GenerationSoftware,KiCad,Pcbnew,7.0.6*%
%TF.CreationDate,2023-07-16T23:36:15-04:00*%
%TF.ProjectId,littolRP2040,6c697474-6f6c-4525-9032-3034302e6b69,rev?*%
%TF.SameCoordinates,PX2d6b3a0PY7e098dc*%
%TF.FileFunction,Soldermask,Top*%
%TF.FilePolarity,Negative*%
%FSLAX46Y46*%
G04 Gerber Fmt 4.6, Leading zero omitted, Abs format (unit mm)*
G04 Created by KiCad (PCBNEW 7.0.6) date 2023-07-16 23:36:15*
%MOMM*%
%LPD*%
G01*
G04 APERTURE LIST*
%ADD10R,1.700000X1.700000*%
%ADD11O,1.700000X1.700000*%
%ADD12C,1.750000*%
%ADD13C,3.000000*%
%ADD14C,3.987800*%
%ADD15C,3.048000*%
%ADD16C,0.650000*%
%ADD17O,1.000000X1.600000*%
%ADD18O,1.000000X2.100000*%
G04 APERTURE END LIST*
D10*
%TO.C,J2*%
X70802704Y11906280D03*
D11*
X73342704Y11906280D03*
X75882704Y11906280D03*
X78422704Y11906280D03*
X80962704Y11906280D03*
%TD*%
D12*
%TO.C,MX24*%
X162262727Y38100096D03*
D13*
X159722727Y43180096D03*
D14*
X157182727Y38100096D03*
D13*
X153372727Y40640096D03*
D12*
X152102727Y38100096D03*
%TD*%
%TO.C,MX25*%
X167025239Y19050048D03*
D13*
X164485239Y24130048D03*
D14*
X161945239Y19050048D03*
D13*
X158135239Y21590048D03*
D12*
X156865239Y19050048D03*
%TD*%
%TO.C,MX1*%
X19347705Y57150144D03*
D13*
X16807705Y62230144D03*
D14*
X14267705Y57150144D03*
D13*
X10457705Y59690144D03*
D12*
X9187705Y57150144D03*
%TD*%
%TO.C,MX17*%
X124122969Y38100096D03*
D13*
X121582969Y43180096D03*
D14*
X119042969Y38100096D03*
D13*
X115232969Y40640096D03*
D12*
X113962969Y38100096D03*
%TD*%
%TO.C,MX27*%
X181312775Y38100096D03*
D13*
X178772775Y43180096D03*
D14*
X176232775Y38100096D03*
D13*
X172422775Y40640096D03*
D12*
X171152775Y38100096D03*
%TD*%
%TO.C,MX2*%
X17006111Y38100096D03*
D13*
X14466111Y43180096D03*
D14*
X11926111Y38100096D03*
D13*
X8116111Y40640096D03*
D12*
X6846111Y38100096D03*
%TD*%
%TO.C,MX5*%
X38397753Y38100096D03*
D13*
X35857753Y43180096D03*
D14*
X33317753Y38100096D03*
D13*
X29507753Y40640096D03*
D12*
X28237753Y38100096D03*
%TD*%
%TO.C,MX22*%
X147975191Y19050048D03*
D13*
X145435191Y24130048D03*
D14*
X142895191Y19050048D03*
D13*
X139085191Y21590048D03*
D12*
X137815191Y19050048D03*
%TD*%
%TO.C,MX3*%
X14605024Y19050048D03*
D13*
X12065024Y24130048D03*
D14*
X9525024Y19050048D03*
D13*
X5715024Y21590048D03*
D12*
X4445024Y19050048D03*
%TD*%
%TO.C,MX11*%
X76517680Y38100096D03*
D13*
X73977680Y43180096D03*
D14*
X71437680Y38100096D03*
D13*
X67627680Y40640096D03*
D12*
X66357680Y38100096D03*
%TD*%
%TO.C,MX14*%
X95547897Y38100096D03*
D13*
X93007897Y43180096D03*
D14*
X90467897Y38100096D03*
D13*
X86657897Y40640096D03*
D12*
X85387897Y38100096D03*
%TD*%
%TO.C,MX8*%
X57447801Y38100096D03*
D13*
X54907801Y43180096D03*
D14*
X52367801Y38100096D03*
D13*
X48557801Y40640096D03*
D12*
X47287801Y38100096D03*
%TD*%
%TO.C,MX10*%
X81260361Y57150144D03*
D13*
X78720361Y62230144D03*
D14*
X76180361Y57150144D03*
D13*
X72370361Y59690144D03*
D12*
X71100361Y57150144D03*
%TD*%
%TO.C,MX7*%
X62249975Y57150144D03*
D13*
X59709975Y62230144D03*
D14*
X57169975Y57150144D03*
D13*
X53359975Y59690144D03*
D12*
X52089975Y57150144D03*
%TD*%
%TO.C,MX15*%
X100330240Y9525024D03*
D13*
X97790240Y14605024D03*
D14*
X95250240Y9525024D03*
D13*
X91440240Y12065024D03*
D12*
X90170240Y9525024D03*
%TD*%
%TO.C,MX18*%
X119380288Y9525024D03*
D13*
X116840288Y14605024D03*
D14*
X114300288Y9525024D03*
D13*
X110490288Y12065024D03*
D12*
X109220288Y9525024D03*
%TD*%
%TO.C,MX9*%
X52724951Y19050048D03*
D13*
X50184951Y24130048D03*
D14*
X47644951Y19050048D03*
D13*
X43834951Y21590048D03*
D12*
X42564951Y19050048D03*
%TD*%
%TO.C,MX29*%
X200342992Y57150144D03*
D13*
X197802992Y62230144D03*
D14*
X195262992Y57150144D03*
D13*
X191452992Y59690144D03*
D12*
X190182992Y57150144D03*
%TD*%
%TO.C,MX12*%
X71735337Y19050048D03*
D13*
X69195337Y24130048D03*
D14*
X66655337Y19050048D03*
D13*
X62845337Y21590048D03*
D12*
X61575337Y19050048D03*
%TD*%
%TO.C,MX21*%
X143173017Y38100096D03*
D13*
X140633017Y43180096D03*
D14*
X138093017Y38100096D03*
D13*
X134283017Y40640096D03*
D12*
X133013017Y38100096D03*
%TD*%
%TO.C,MX6*%
X33674903Y19050048D03*
D13*
X31134903Y24130048D03*
D14*
X28594903Y19050048D03*
D13*
X24784903Y21590048D03*
D12*
X23514903Y19050048D03*
%TD*%
%TO.C,MX30*%
X202704417Y38100096D03*
D13*
X200164417Y43180096D03*
D14*
X197624417Y38100096D03*
D13*
X193814417Y40640096D03*
D12*
X192544417Y38100096D03*
%TD*%
%TO.C,MX13*%
X90150409Y57150144D03*
D13*
X92690409Y52070144D03*
D14*
X95230409Y57150144D03*
D13*
X99040409Y54610144D03*
D12*
X100310409Y57150144D03*
%TD*%
%TO.C,MX16*%
X109200457Y57150144D03*
D13*
X111740457Y52070144D03*
D14*
X114280457Y57150144D03*
D13*
X118090457Y54610144D03*
D12*
X119360457Y57150144D03*
%TD*%
%TO.C,MX28*%
X186055456Y19050048D03*
D13*
X183515456Y24130048D03*
D14*
X180975456Y19050048D03*
D13*
X177165456Y21590048D03*
D12*
X175895456Y19050048D03*
%TD*%
D14*
%TO.C,MX19*%
X92837264Y17780024D03*
D15*
X92837264Y2540024D03*
D12*
X99695264Y9525024D03*
D13*
X102235264Y4445024D03*
D14*
X104775264Y9525024D03*
D13*
X108585264Y6985024D03*
D12*
X109855264Y9525024D03*
D14*
X116713264Y17780024D03*
D15*
X116713264Y2540024D03*
%TD*%
D16*
%TO.C,J1*%
X101885264Y61693912D03*
X107665264Y61693912D03*
D17*
X100455264Y65343912D03*
D18*
X100455264Y61163912D03*
D17*
X109095264Y65343912D03*
D18*
X109095264Y61163912D03*
%TD*%
D12*
%TO.C,MX26*%
X176530432Y57150144D03*
D13*
X173990432Y62230144D03*
D14*
X171450432Y57150144D03*
D13*
X167640432Y59690144D03*
D12*
X166370432Y57150144D03*
%TD*%
%TO.C,MX31*%
X205085673Y19050048D03*
D13*
X202545673Y24130048D03*
D14*
X200005673Y19050048D03*
D13*
X196195673Y21590048D03*
D12*
X194925673Y19050048D03*
%TD*%
%TO.C,MX20*%
X138410505Y57150144D03*
D13*
X135870505Y62230144D03*
D14*
X133330505Y57150144D03*
D13*
X129520505Y59690144D03*
D12*
X128250505Y57150144D03*
%TD*%
%TO.C,MX4*%
X43199927Y57150144D03*
D13*
X40659927Y62230144D03*
D14*
X38119927Y57150144D03*
D13*
X34309927Y59690144D03*
D12*
X33039927Y57150144D03*
%TD*%
%TO.C,MX23*%
X157480384Y57150144D03*
D13*
X154940384Y62230144D03*
D14*
X152400384Y57150144D03*
D13*
X148590384Y59690144D03*
D12*
X147320384Y57150144D03*
%TD*%
M02*
