M48
; DRILL file {KiCad 7.0.6} date Sun Jul 16 23:36:38 2023
; FORMAT={-:-/ absolute / metric / decimal}
; #@! TF.CreationDate,2023-07-16T23:36:38-04:00
; #@! TF.GenerationSoftware,Kicad,Pcbnew,7.0.6
; #@! TF.FileFunction,NonPlated,1,2,NPTH
FMAT,2
METRIC
; #@! TA.AperFunction,NonPlated,NPTH,ComponentDrill
T1C0.650
; #@! TA.AperFunction,NonPlated,NPTH,ComponentDrill
T2C1.750
; #@! TA.AperFunction,NonPlated,NPTH,ComponentDrill
T3C3.000
; #@! TA.AperFunction,NonPlated,NPTH,ComponentDrill
T4C3.048
; #@! TA.AperFunction,NonPlated,NPTH,ComponentDrill
T5C3.988
%
G90
G05
T1
X101.885Y61.694
X107.665Y61.694
T2
X4.445Y19.05
X6.846Y38.1
X9.188Y57.15
X14.605Y19.05
X17.006Y38.1
X19.348Y57.15
X23.515Y19.05
X28.238Y38.1
X33.04Y57.15
X33.675Y19.05
X38.398Y38.1
X42.565Y19.05
X43.2Y57.15
X47.288Y38.1
X52.09Y57.15
X52.725Y19.05
X57.448Y38.1
X61.575Y19.05
X62.25Y57.15
X66.358Y38.1
X71.1Y57.15
X71.735Y19.05
X76.518Y38.1
X81.26Y57.15
X85.388Y38.1
X90.15Y57.15
X90.17Y9.525
X95.548Y38.1
X99.695Y9.525
X100.31Y57.15
X100.33Y9.525
X109.2Y57.15
X109.22Y9.525
X109.855Y9.525
X113.963Y38.1
X119.36Y57.15
X119.38Y9.525
X124.123Y38.1
X128.251Y57.15
X133.013Y38.1
X137.815Y19.05
X138.411Y57.15
X143.173Y38.1
X147.32Y57.15
X147.975Y19.05
X152.103Y38.1
X156.865Y19.05
X157.48Y57.15
X162.263Y38.1
X166.37Y57.15
X167.025Y19.05
X171.153Y38.1
X175.895Y19.05
X176.53Y57.15
X181.313Y38.1
X186.055Y19.05
X190.183Y57.15
X192.544Y38.1
X194.926Y19.05
X200.343Y57.15
X202.704Y38.1
X205.086Y19.05
T3
X5.715Y21.59
X8.116Y40.64
X10.458Y59.69
X12.065Y24.13
X14.466Y43.18
X16.808Y62.23
X24.785Y21.59
X29.508Y40.64
X31.135Y24.13
X34.31Y59.69
X35.858Y43.18
X40.66Y62.23
X43.835Y21.59
X48.558Y40.64
X50.185Y24.13
X53.36Y59.69
X54.908Y43.18
X59.71Y62.23
X62.845Y21.59
X67.628Y40.64
X69.195Y24.13
X72.37Y59.69
X73.978Y43.18
X78.72Y62.23
X86.658Y40.64
X91.44Y12.065
X92.69Y52.07
X93.008Y43.18
X97.79Y14.605
X99.04Y54.61
X102.235Y4.445
X108.585Y6.985
X110.49Y12.065
X111.74Y52.07
X115.233Y40.64
X116.84Y14.605
X118.09Y54.61
X121.583Y43.18
X129.521Y59.69
X134.283Y40.64
X135.871Y62.23
X139.085Y21.59
X140.633Y43.18
X145.435Y24.13
X148.59Y59.69
X153.373Y40.64
X154.94Y62.23
X158.135Y21.59
X159.723Y43.18
X164.485Y24.13
X167.64Y59.69
X172.423Y40.64
X173.99Y62.23
X177.165Y21.59
X178.773Y43.18
X183.515Y24.13
X191.453Y59.69
X193.814Y40.64
X196.196Y21.59
X197.803Y62.23
X200.164Y43.18
X202.546Y24.13
T4
X92.837Y2.54
X116.713Y2.54
T5
X9.525Y19.05
X11.926Y38.1
X14.268Y57.15
X28.595Y19.05
X33.318Y38.1
X38.12Y57.15
X47.645Y19.05
X52.368Y38.1
X57.17Y57.15
X66.655Y19.05
X71.438Y38.1
X76.18Y57.15
X90.468Y38.1
X92.837Y17.78
X95.23Y57.15
X95.25Y9.525
X104.775Y9.525
X114.28Y57.15
X114.3Y9.525
X116.713Y17.78
X119.043Y38.1
X133.331Y57.15
X138.093Y38.1
X142.895Y19.05
X152.4Y57.15
X157.183Y38.1
X161.945Y19.05
X171.45Y57.15
X176.233Y38.1
X180.975Y19.05
X195.263Y57.15
X197.624Y38.1
X200.006Y19.05
T0
M30
