%TF.GenerationSoftware,KiCad,Pcbnew,7.0.6*%
%TF.CreationDate,2023-07-16T23:36:36-04:00*%
%TF.ProjectId,littolRP2040,6c697474-6f6c-4525-9032-3034302e6b69,rev?*%
%TF.SameCoordinates,PX2d6b3a0PY7e098dc*%
%TF.FileFunction,Drillmap*%
%TF.FilePolarity,Positive*%
%FSLAX45Y45*%
G04 Gerber Fmt 4.5, Leading zero omitted, Abs format (unit mm)*
G04 Created by KiCad (PCBNEW 7.0.6) date 2023-07-16 23:36:36*
%MOMM*%
%LPD*%
G01*
G04 APERTURE LIST*
%ADD10C,0.100000*%
%ADD11C,0.200000*%
%ADD12C,0.065000*%
%ADD13C,0.175000*%
%ADD14C,0.300000*%
%ADD15C,0.304800*%
%ADD16C,0.398780*%
G04 APERTURE END LIST*
D10*
X0Y1180414D02*
G75*
G03*
X227912Y952502I227908J-3D01*
G01*
X238126Y6667519D02*
G75*
G03*
X0Y6429391I2J-238128D01*
G01*
X20716927Y952506D02*
G75*
G03*
X20955053Y1190628I1J238125D01*
G01*
X20955054Y6439605D02*
G75*
G03*
X20716927Y6667517I-233016J-5104D01*
G01*
X12144406Y-2D02*
G75*
G03*
X12382531Y238126I2J238123D01*
G01*
X8572522Y227912D02*
X8572522Y952502D01*
X12382531Y952502D02*
X12382531Y238126D01*
X8572527Y227912D02*
G75*
G03*
X8800433Y0I227911J-1D01*
G01*
X20955053Y6439605D02*
X20955053Y1190628D01*
X8572522Y952502D02*
X227912Y952502D01*
X20716927Y952502D02*
X12382531Y952502D01*
X238126Y6667517D02*
X20716927Y6667517D01*
X12144406Y0D02*
X8800433Y0D01*
X0Y1180414D02*
X0Y6429391D01*
D11*
D12*
X10156026Y6201891D02*
X10221026Y6136891D01*
X10221026Y6201891D02*
X10156026Y6136891D01*
X10734026Y6201891D02*
X10799026Y6136891D01*
X10799026Y6201891D02*
X10734026Y6136891D01*
D13*
X532002Y1905005D02*
G75*
G03*
X532002Y1905005I-87500J0D01*
G01*
X772111Y3810010D02*
G75*
G03*
X772111Y3810010I-87500J0D01*
G01*
X1006270Y5715014D02*
G75*
G03*
X1006270Y5715014I-87500J0D01*
G01*
X1548002Y1905005D02*
G75*
G03*
X1548002Y1905005I-87500J0D01*
G01*
X1788111Y3810010D02*
G75*
G03*
X1788111Y3810010I-87500J0D01*
G01*
X2022270Y5715014D02*
G75*
G03*
X2022270Y5715014I-87500J0D01*
G01*
X2438990Y1905005D02*
G75*
G03*
X2438990Y1905005I-87500J0D01*
G01*
X2911275Y3810010D02*
G75*
G03*
X2911275Y3810010I-87500J0D01*
G01*
X3391493Y5715014D02*
G75*
G03*
X3391493Y5715014I-87500J0D01*
G01*
X3454990Y1905005D02*
G75*
G03*
X3454990Y1905005I-87500J0D01*
G01*
X3927275Y3810010D02*
G75*
G03*
X3927275Y3810010I-87500J0D01*
G01*
X4343995Y1905005D02*
G75*
G03*
X4343995Y1905005I-87500J0D01*
G01*
X4407493Y5715014D02*
G75*
G03*
X4407493Y5715014I-87500J0D01*
G01*
X4816280Y3810010D02*
G75*
G03*
X4816280Y3810010I-87500J0D01*
G01*
X5296498Y5715014D02*
G75*
G03*
X5296498Y5715014I-87500J0D01*
G01*
X5359995Y1905005D02*
G75*
G03*
X5359995Y1905005I-87500J0D01*
G01*
X5832280Y3810010D02*
G75*
G03*
X5832280Y3810010I-87500J0D01*
G01*
X6245034Y1905005D02*
G75*
G03*
X6245034Y1905005I-87500J0D01*
G01*
X6312497Y5715014D02*
G75*
G03*
X6312497Y5715014I-87500J0D01*
G01*
X6723268Y3810010D02*
G75*
G03*
X6723268Y3810010I-87500J0D01*
G01*
X7197536Y5715014D02*
G75*
G03*
X7197536Y5715014I-87500J0D01*
G01*
X7261034Y1905005D02*
G75*
G03*
X7261034Y1905005I-87500J0D01*
G01*
X7739268Y3810010D02*
G75*
G03*
X7739268Y3810010I-87500J0D01*
G01*
X8213536Y5715014D02*
G75*
G03*
X8213536Y5715014I-87500J0D01*
G01*
X8626290Y3810010D02*
G75*
G03*
X8626290Y3810010I-87500J0D01*
G01*
X9102541Y5715014D02*
G75*
G03*
X9102541Y5715014I-87500J0D01*
G01*
X9104524Y952502D02*
G75*
G03*
X9104524Y952502I-87500J0D01*
G01*
X9642290Y3810010D02*
G75*
G03*
X9642290Y3810010I-87500J0D01*
G01*
X10057026Y952502D02*
G75*
G03*
X10057026Y952502I-87500J0D01*
G01*
X10118541Y5715014D02*
G75*
G03*
X10118541Y5715014I-87500J0D01*
G01*
X10120524Y952502D02*
G75*
G03*
X10120524Y952502I-87500J0D01*
G01*
X11007546Y5715014D02*
G75*
G03*
X11007546Y5715014I-87500J0D01*
G01*
X11009529Y952502D02*
G75*
G03*
X11009529Y952502I-87500J0D01*
G01*
X11073026Y952502D02*
G75*
G03*
X11073026Y952502I-87500J0D01*
G01*
X11483797Y3810010D02*
G75*
G03*
X11483797Y3810010I-87500J0D01*
G01*
X12023546Y5715014D02*
G75*
G03*
X12023546Y5715014I-87500J0D01*
G01*
X12025529Y952502D02*
G75*
G03*
X12025529Y952502I-87500J0D01*
G01*
X12499797Y3810010D02*
G75*
G03*
X12499797Y3810010I-87500J0D01*
G01*
X12912550Y5715014D02*
G75*
G03*
X12912550Y5715014I-87500J0D01*
G01*
X13388802Y3810010D02*
G75*
G03*
X13388802Y3810010I-87500J0D01*
G01*
X13869019Y1905005D02*
G75*
G03*
X13869019Y1905005I-87500J0D01*
G01*
X13928550Y5715014D02*
G75*
G03*
X13928550Y5715014I-87500J0D01*
G01*
X14404802Y3810010D02*
G75*
G03*
X14404802Y3810010I-87500J0D01*
G01*
X14819538Y5715014D02*
G75*
G03*
X14819538Y5715014I-87500J0D01*
G01*
X14885019Y1905005D02*
G75*
G03*
X14885019Y1905005I-87500J0D01*
G01*
X15297773Y3810010D02*
G75*
G03*
X15297773Y3810010I-87500J0D01*
G01*
X15774024Y1905005D02*
G75*
G03*
X15774024Y1905005I-87500J0D01*
G01*
X15835538Y5715014D02*
G75*
G03*
X15835538Y5715014I-87500J0D01*
G01*
X16313773Y3810010D02*
G75*
G03*
X16313773Y3810010I-87500J0D01*
G01*
X16724543Y5715014D02*
G75*
G03*
X16724543Y5715014I-87500J0D01*
G01*
X16790024Y1905005D02*
G75*
G03*
X16790024Y1905005I-87500J0D01*
G01*
X17202778Y3810010D02*
G75*
G03*
X17202778Y3810010I-87500J0D01*
G01*
X17677046Y1905005D02*
G75*
G03*
X17677046Y1905005I-87500J0D01*
G01*
X17740543Y5715014D02*
G75*
G03*
X17740543Y5715014I-87500J0D01*
G01*
X18218778Y3810010D02*
G75*
G03*
X18218778Y3810010I-87500J0D01*
G01*
X18693046Y1905005D02*
G75*
G03*
X18693046Y1905005I-87500J0D01*
G01*
X19105799Y5715014D02*
G75*
G03*
X19105799Y5715014I-87500J0D01*
G01*
X19341942Y3810010D02*
G75*
G03*
X19341942Y3810010I-87500J0D01*
G01*
X19580067Y1905005D02*
G75*
G03*
X19580067Y1905005I-87500J0D01*
G01*
X20121799Y5715014D02*
G75*
G03*
X20121799Y5715014I-87500J0D01*
G01*
X20357942Y3810010D02*
G75*
G03*
X20357942Y3810010I-87500J0D01*
G01*
X20596067Y1905005D02*
G75*
G03*
X20596067Y1905005I-87500J0D01*
G01*
D14*
X571502Y2309005D02*
X571502Y2009005D01*
X421502Y2159005D02*
X721502Y2159005D01*
X811611Y4214010D02*
X811611Y3914010D01*
X661611Y4064010D02*
X961611Y4064010D01*
X1045770Y6119014D02*
X1045770Y5819014D01*
X895770Y5969014D02*
X1195771Y5969014D01*
X1206502Y2563005D02*
X1206502Y2263005D01*
X1056502Y2413005D02*
X1356502Y2413005D01*
X1446611Y4468010D02*
X1446611Y4168010D01*
X1296611Y4318010D02*
X1596611Y4318010D01*
X1680770Y6373014D02*
X1680770Y6073014D01*
X1530770Y6223014D02*
X1830770Y6223014D01*
X2478490Y2309005D02*
X2478490Y2009005D01*
X2328490Y2159005D02*
X2628490Y2159005D01*
X2950775Y4214010D02*
X2950775Y3914010D01*
X2800775Y4064010D02*
X3100775Y4064010D01*
X3113490Y2563005D02*
X3113490Y2263005D01*
X2963490Y2413005D02*
X3263490Y2413005D01*
X3430993Y6119014D02*
X3430993Y5819014D01*
X3280993Y5969014D02*
X3580993Y5969014D01*
X3585775Y4468010D02*
X3585775Y4168010D01*
X3435775Y4318010D02*
X3735775Y4318010D01*
X4065993Y6373014D02*
X4065993Y6073014D01*
X3915993Y6223014D02*
X4215993Y6223014D01*
X4383495Y2309005D02*
X4383495Y2009005D01*
X4233495Y2159005D02*
X4533495Y2159005D01*
X4855780Y4214010D02*
X4855780Y3914010D01*
X4705780Y4064010D02*
X5005780Y4064010D01*
X5018495Y2563005D02*
X5018495Y2263005D01*
X4868495Y2413005D02*
X5168495Y2413005D01*
X5335998Y6119014D02*
X5335998Y5819014D01*
X5185998Y5969014D02*
X5485998Y5969014D01*
X5490780Y4468010D02*
X5490780Y4168010D01*
X5340780Y4318010D02*
X5640780Y4318010D01*
X5970997Y6373014D02*
X5970997Y6073014D01*
X5820997Y6223014D02*
X6120997Y6223014D01*
X6284534Y2309005D02*
X6284534Y2009005D01*
X6134534Y2159005D02*
X6434534Y2159005D01*
X6762768Y4214010D02*
X6762768Y3914010D01*
X6612768Y4064010D02*
X6912768Y4064010D01*
X6919534Y2563005D02*
X6919534Y2263005D01*
X6769534Y2413005D02*
X7069534Y2413005D01*
X7237036Y6119014D02*
X7237036Y5819014D01*
X7087036Y5969014D02*
X7387036Y5969014D01*
X7397768Y4468010D02*
X7397768Y4168010D01*
X7247768Y4318010D02*
X7547768Y4318010D01*
X7872036Y6373014D02*
X7872036Y6073014D01*
X7722036Y6223014D02*
X8022036Y6223014D01*
X8665790Y4214010D02*
X8665790Y3914010D01*
X8515790Y4064010D02*
X8815790Y4064010D01*
X9144024Y1356502D02*
X9144024Y1056502D01*
X8994024Y1206502D02*
X9294024Y1206502D01*
X9269041Y5357014D02*
X9269041Y5057014D01*
X9119041Y5207014D02*
X9419041Y5207014D01*
X9300790Y4468010D02*
X9300790Y4168010D01*
X9150790Y4318010D02*
X9450790Y4318010D01*
X9779024Y1610502D02*
X9779024Y1310502D01*
X9629024Y1460502D02*
X9929024Y1460502D01*
X9904041Y5611014D02*
X9904041Y5311014D01*
X9754041Y5461014D02*
X10054041Y5461014D01*
X10223526Y594502D02*
X10223526Y294502D01*
X10073526Y444502D02*
X10373526Y444502D01*
X10858526Y848502D02*
X10858526Y548502D01*
X10708526Y698502D02*
X11008526Y698502D01*
X11049029Y1356502D02*
X11049029Y1056502D01*
X10899029Y1206502D02*
X11199029Y1206502D01*
X11174046Y5357014D02*
X11174046Y5057014D01*
X11024046Y5207014D02*
X11324046Y5207014D01*
X11523297Y4214010D02*
X11523297Y3914010D01*
X11373297Y4064010D02*
X11673297Y4064010D01*
X11684029Y1610502D02*
X11684029Y1310502D01*
X11534029Y1460502D02*
X11834029Y1460502D01*
X11809046Y5611014D02*
X11809046Y5311014D01*
X11659046Y5461014D02*
X11959046Y5461014D01*
X12158297Y4468010D02*
X12158297Y4168010D01*
X12008297Y4318010D02*
X12308297Y4318010D01*
X12952050Y6119014D02*
X12952050Y5819014D01*
X12802050Y5969014D02*
X13102050Y5969014D01*
X13428302Y4214010D02*
X13428302Y3914010D01*
X13278302Y4064010D02*
X13578302Y4064010D01*
X13587050Y6373014D02*
X13587050Y6073014D01*
X13437050Y6223014D02*
X13737050Y6223014D01*
X13908519Y2309005D02*
X13908519Y2009005D01*
X13758519Y2159005D02*
X14058519Y2159005D01*
X14063302Y4468010D02*
X14063302Y4168010D01*
X13913302Y4318010D02*
X14213302Y4318010D01*
X14543519Y2563005D02*
X14543519Y2263005D01*
X14393519Y2413005D02*
X14693519Y2413005D01*
X14859038Y6119014D02*
X14859038Y5819014D01*
X14709038Y5969014D02*
X15009038Y5969014D01*
X15337273Y4214010D02*
X15337273Y3914010D01*
X15187273Y4064010D02*
X15487273Y4064010D01*
X15494038Y6373014D02*
X15494038Y6073014D01*
X15344038Y6223014D02*
X15644038Y6223014D01*
X15813524Y2309005D02*
X15813524Y2009005D01*
X15663524Y2159005D02*
X15963524Y2159005D01*
X15972273Y4468010D02*
X15972273Y4168010D01*
X15822273Y4318010D02*
X16122273Y4318010D01*
X16448524Y2563005D02*
X16448524Y2263005D01*
X16298524Y2413005D02*
X16598524Y2413005D01*
X16764043Y6119014D02*
X16764043Y5819014D01*
X16614043Y5969014D02*
X16914043Y5969014D01*
X17242278Y4214010D02*
X17242278Y3914010D01*
X17092278Y4064010D02*
X17392278Y4064010D01*
X17399043Y6373014D02*
X17399043Y6073014D01*
X17249043Y6223014D02*
X17549043Y6223014D01*
X17716546Y2309005D02*
X17716546Y2009005D01*
X17566546Y2159005D02*
X17866546Y2159005D01*
X17877278Y4468010D02*
X17877278Y4168010D01*
X17727278Y4318010D02*
X18027278Y4318010D01*
X18351546Y2563005D02*
X18351546Y2263005D01*
X18201546Y2413005D02*
X18501546Y2413005D01*
X19145299Y6119014D02*
X19145299Y5819014D01*
X18995299Y5969014D02*
X19295299Y5969014D01*
X19381442Y4214010D02*
X19381442Y3914010D01*
X19231442Y4064010D02*
X19531442Y4064010D01*
X19619567Y2309005D02*
X19619567Y2009005D01*
X19469567Y2159005D02*
X19769567Y2159005D01*
X19780299Y6373014D02*
X19780299Y6073014D01*
X19630299Y6223014D02*
X19930299Y6223014D01*
X20016442Y4468010D02*
X20016442Y4168010D01*
X19866442Y4318010D02*
X20166442Y4318010D01*
X20254567Y2563005D02*
X20254567Y2263005D01*
X20104567Y2413005D02*
X20404567Y2413005D01*
D15*
X9391491Y146238D02*
X9391491Y361766D01*
X9175962Y361766D01*
X9175962Y146238D01*
X9391491Y146238D01*
X11779090Y146238D02*
X11779090Y361766D01*
X11563562Y361766D01*
X11563562Y146238D01*
X11779090Y146238D01*
D16*
X952502Y1705615D02*
X1151892Y1905005D01*
X952502Y2104395D01*
X753112Y1905005D01*
X952502Y1705615D01*
X1192611Y3610620D02*
X1392001Y3810010D01*
X1192611Y4009400D01*
X993221Y3810010D01*
X1192611Y3610620D01*
X1426770Y5515624D02*
X1626160Y5715014D01*
X1426770Y5914404D01*
X1227381Y5715014D01*
X1426770Y5515624D01*
X2859490Y1705615D02*
X3058880Y1905005D01*
X2859490Y2104395D01*
X2660100Y1905005D01*
X2859490Y1705615D01*
X3331775Y3610620D02*
X3531165Y3810010D01*
X3331775Y4009400D01*
X3132385Y3810010D01*
X3331775Y3610620D01*
X3811993Y5515624D02*
X4011383Y5715014D01*
X3811993Y5914404D01*
X3612603Y5715014D01*
X3811993Y5515624D01*
X4764495Y1705615D02*
X4963885Y1905005D01*
X4764495Y2104395D01*
X4565105Y1905005D01*
X4764495Y1705615D01*
X5236780Y3610620D02*
X5436170Y3810010D01*
X5236780Y4009400D01*
X5037390Y3810010D01*
X5236780Y3610620D01*
X5716997Y5515624D02*
X5916387Y5715014D01*
X5716997Y5914404D01*
X5517608Y5715014D01*
X5716997Y5515624D01*
X6665534Y1705615D02*
X6864924Y1905005D01*
X6665534Y2104395D01*
X6466144Y1905005D01*
X6665534Y1705615D01*
X7143768Y3610620D02*
X7343158Y3810010D01*
X7143768Y4009400D01*
X6944378Y3810010D01*
X7143768Y3610620D01*
X7618036Y5515624D02*
X7817426Y5715014D01*
X7618036Y5914404D01*
X7418646Y5715014D01*
X7618036Y5515624D01*
X9046790Y3610620D02*
X9246180Y3810010D01*
X9046790Y4009400D01*
X8847400Y3810010D01*
X9046790Y3610620D01*
X9283726Y1578612D02*
X9483116Y1778002D01*
X9283726Y1977392D01*
X9084336Y1778002D01*
X9283726Y1578612D01*
X9523041Y5515624D02*
X9722431Y5715014D01*
X9523041Y5914404D01*
X9323651Y5715014D01*
X9523041Y5515624D01*
X9525024Y753112D02*
X9724414Y952502D01*
X9525024Y1151892D01*
X9325634Y952502D01*
X9525024Y753112D01*
X10477526Y753112D02*
X10676916Y952502D01*
X10477526Y1151892D01*
X10278136Y952502D01*
X10477526Y753112D01*
X11428046Y5515624D02*
X11627436Y5715014D01*
X11428046Y5914404D01*
X11228656Y5715014D01*
X11428046Y5515624D01*
X11430029Y753112D02*
X11629419Y952502D01*
X11430029Y1151892D01*
X11230639Y952502D01*
X11430029Y753112D01*
X11671326Y1578612D02*
X11870716Y1778002D01*
X11671326Y1977392D01*
X11471936Y1778002D01*
X11671326Y1578612D01*
X11904297Y3610620D02*
X12103687Y3810010D01*
X11904297Y4009400D01*
X11704907Y3810010D01*
X11904297Y3610620D01*
X13333050Y5515624D02*
X13532440Y5715014D01*
X13333050Y5914404D01*
X13133660Y5715014D01*
X13333050Y5515624D01*
X13809302Y3610620D02*
X14008692Y3810010D01*
X13809302Y4009400D01*
X13609912Y3810010D01*
X13809302Y3610620D01*
X14289519Y1705615D02*
X14488909Y1905005D01*
X14289519Y2104395D01*
X14090129Y1905005D01*
X14289519Y1705615D01*
X15240038Y5515624D02*
X15439428Y5715014D01*
X15240038Y5914404D01*
X15040648Y5715014D01*
X15240038Y5515624D01*
X15718273Y3610620D02*
X15917663Y3810010D01*
X15718273Y4009400D01*
X15518883Y3810010D01*
X15718273Y3610620D01*
X16194524Y1705615D02*
X16393914Y1905005D01*
X16194524Y2104395D01*
X15995134Y1905005D01*
X16194524Y1705615D01*
X17145043Y5515624D02*
X17344433Y5715014D01*
X17145043Y5914404D01*
X16945653Y5715014D01*
X17145043Y5515624D01*
X17623278Y3610620D02*
X17822668Y3810010D01*
X17623278Y4009400D01*
X17423888Y3810010D01*
X17623278Y3610620D01*
X18097546Y1705615D02*
X18296936Y1905005D01*
X18097546Y2104395D01*
X17898156Y1905005D01*
X18097546Y1705615D01*
X19526299Y5515624D02*
X19725689Y5715014D01*
X19526299Y5914404D01*
X19326909Y5715014D01*
X19526299Y5515624D01*
X19762442Y3610620D02*
X19961832Y3810010D01*
X19762442Y4009400D01*
X19563052Y3810010D01*
X19762442Y3610620D01*
X20000567Y1705615D02*
X20199957Y1905005D01*
X20000567Y2104395D01*
X19801177Y1905005D01*
X20000567Y1705615D01*
D11*
X255776Y-316486D02*
X255776Y-116486D01*
X255776Y-116486D02*
X303395Y-116486D01*
X303395Y-116486D02*
X331967Y-126010D01*
X331967Y-126010D02*
X351014Y-145058D01*
X351014Y-145058D02*
X360538Y-164105D01*
X360538Y-164105D02*
X370062Y-202200D01*
X370062Y-202200D02*
X370062Y-230772D01*
X370062Y-230772D02*
X360538Y-268867D01*
X360538Y-268867D02*
X351014Y-287915D01*
X351014Y-287915D02*
X331967Y-306962D01*
X331967Y-306962D02*
X303395Y-316486D01*
X303395Y-316486D02*
X255776Y-316486D01*
X455776Y-316486D02*
X455776Y-183153D01*
X455776Y-221248D02*
X465300Y-202200D01*
X465300Y-202200D02*
X474824Y-192677D01*
X474824Y-192677D02*
X493872Y-183153D01*
X493872Y-183153D02*
X512919Y-183153D01*
X579586Y-316486D02*
X579586Y-183153D01*
X579586Y-116486D02*
X570062Y-126010D01*
X570062Y-126010D02*
X579586Y-135534D01*
X579586Y-135534D02*
X589110Y-126010D01*
X589110Y-126010D02*
X579586Y-116486D01*
X579586Y-116486D02*
X579586Y-135534D01*
X703395Y-316486D02*
X684348Y-306962D01*
X684348Y-306962D02*
X674824Y-287915D01*
X674824Y-287915D02*
X674824Y-116486D01*
X808157Y-316486D02*
X789110Y-306962D01*
X789110Y-306962D02*
X779586Y-287915D01*
X779586Y-287915D02*
X779586Y-116486D01*
X1036729Y-316486D02*
X1036729Y-116486D01*
X1036729Y-116486D02*
X1103396Y-259343D01*
X1103396Y-259343D02*
X1170062Y-116486D01*
X1170062Y-116486D02*
X1170062Y-316486D01*
X1351015Y-316486D02*
X1351015Y-211724D01*
X1351015Y-211724D02*
X1341491Y-192677D01*
X1341491Y-192677D02*
X1322443Y-183153D01*
X1322443Y-183153D02*
X1284348Y-183153D01*
X1284348Y-183153D02*
X1265300Y-192677D01*
X1351015Y-306962D02*
X1331967Y-316486D01*
X1331967Y-316486D02*
X1284348Y-316486D01*
X1284348Y-316486D02*
X1265300Y-306962D01*
X1265300Y-306962D02*
X1255776Y-287915D01*
X1255776Y-287915D02*
X1255776Y-268867D01*
X1255776Y-268867D02*
X1265300Y-249819D01*
X1265300Y-249819D02*
X1284348Y-240296D01*
X1284348Y-240296D02*
X1331967Y-240296D01*
X1331967Y-240296D02*
X1351015Y-230772D01*
X1446253Y-183153D02*
X1446253Y-383153D01*
X1446253Y-192677D02*
X1465300Y-183153D01*
X1465300Y-183153D02*
X1503395Y-183153D01*
X1503395Y-183153D02*
X1522443Y-192677D01*
X1522443Y-192677D02*
X1531967Y-202200D01*
X1531967Y-202200D02*
X1541491Y-221248D01*
X1541491Y-221248D02*
X1541491Y-278391D01*
X1541491Y-278391D02*
X1531967Y-297439D01*
X1531967Y-297439D02*
X1522443Y-306962D01*
X1522443Y-306962D02*
X1503395Y-316486D01*
X1503395Y-316486D02*
X1465300Y-316486D01*
X1465300Y-316486D02*
X1446253Y-306962D01*
X1627205Y-297439D02*
X1636729Y-306962D01*
X1636729Y-306962D02*
X1627205Y-316486D01*
X1627205Y-316486D02*
X1617681Y-306962D01*
X1617681Y-306962D02*
X1627205Y-297439D01*
X1627205Y-297439D02*
X1627205Y-316486D01*
X1627205Y-192677D02*
X1636729Y-202200D01*
X1636729Y-202200D02*
X1627205Y-211724D01*
X1627205Y-211724D02*
X1617681Y-202200D01*
X1617681Y-202200D02*
X1627205Y-192677D01*
X1627205Y-192677D02*
X1627205Y-211724D01*
D12*
X-70000Y-612502D02*
X-5000Y-677502D01*
X-5000Y-612502D02*
X-70000Y-677502D01*
D11*
X293872Y-536486D02*
X312919Y-536486D01*
X312919Y-536486D02*
X331967Y-546010D01*
X331967Y-546010D02*
X341491Y-555534D01*
X341491Y-555534D02*
X351014Y-574581D01*
X351014Y-574581D02*
X360538Y-612677D01*
X360538Y-612677D02*
X360538Y-660296D01*
X360538Y-660296D02*
X351014Y-698391D01*
X351014Y-698391D02*
X341491Y-717438D01*
X341491Y-717438D02*
X331967Y-726962D01*
X331967Y-726962D02*
X312919Y-736486D01*
X312919Y-736486D02*
X293872Y-736486D01*
X293872Y-736486D02*
X274824Y-726962D01*
X274824Y-726962D02*
X265300Y-717438D01*
X265300Y-717438D02*
X255776Y-698391D01*
X255776Y-698391D02*
X246253Y-660296D01*
X246253Y-660296D02*
X246253Y-612677D01*
X246253Y-612677D02*
X255776Y-574581D01*
X255776Y-574581D02*
X265300Y-555534D01*
X265300Y-555534D02*
X274824Y-546010D01*
X274824Y-546010D02*
X293872Y-536486D01*
X446253Y-717438D02*
X455776Y-726962D01*
X455776Y-726962D02*
X446253Y-736486D01*
X446253Y-736486D02*
X436729Y-726962D01*
X436729Y-726962D02*
X446253Y-717438D01*
X446253Y-717438D02*
X446253Y-736486D01*
X627205Y-536486D02*
X589110Y-536486D01*
X589110Y-536486D02*
X570062Y-546010D01*
X570062Y-546010D02*
X560538Y-555534D01*
X560538Y-555534D02*
X541491Y-584105D01*
X541491Y-584105D02*
X531967Y-622200D01*
X531967Y-622200D02*
X531967Y-698391D01*
X531967Y-698391D02*
X541491Y-717438D01*
X541491Y-717438D02*
X551015Y-726962D01*
X551015Y-726962D02*
X570062Y-736486D01*
X570062Y-736486D02*
X608157Y-736486D01*
X608157Y-736486D02*
X627205Y-726962D01*
X627205Y-726962D02*
X636729Y-717438D01*
X636729Y-717438D02*
X646253Y-698391D01*
X646253Y-698391D02*
X646253Y-650772D01*
X646253Y-650772D02*
X636729Y-631724D01*
X636729Y-631724D02*
X627205Y-622200D01*
X627205Y-622200D02*
X608157Y-612677D01*
X608157Y-612677D02*
X570062Y-612677D01*
X570062Y-612677D02*
X551015Y-622200D01*
X551015Y-622200D02*
X541491Y-631724D01*
X541491Y-631724D02*
X531967Y-650772D01*
X827205Y-536486D02*
X731967Y-536486D01*
X731967Y-536486D02*
X722443Y-631724D01*
X722443Y-631724D02*
X731967Y-622200D01*
X731967Y-622200D02*
X751014Y-612677D01*
X751014Y-612677D02*
X798634Y-612677D01*
X798634Y-612677D02*
X817681Y-622200D01*
X817681Y-622200D02*
X827205Y-631724D01*
X827205Y-631724D02*
X836729Y-650772D01*
X836729Y-650772D02*
X836729Y-698391D01*
X836729Y-698391D02*
X827205Y-717438D01*
X827205Y-717438D02*
X817681Y-726962D01*
X817681Y-726962D02*
X798634Y-736486D01*
X798634Y-736486D02*
X751014Y-736486D01*
X751014Y-736486D02*
X731967Y-726962D01*
X731967Y-726962D02*
X722443Y-717438D01*
X960538Y-536486D02*
X979586Y-536486D01*
X979586Y-536486D02*
X998634Y-546010D01*
X998634Y-546010D02*
X1008157Y-555534D01*
X1008157Y-555534D02*
X1017681Y-574581D01*
X1017681Y-574581D02*
X1027205Y-612677D01*
X1027205Y-612677D02*
X1027205Y-660296D01*
X1027205Y-660296D02*
X1017681Y-698391D01*
X1017681Y-698391D02*
X1008157Y-717438D01*
X1008157Y-717438D02*
X998634Y-726962D01*
X998634Y-726962D02*
X979586Y-736486D01*
X979586Y-736486D02*
X960538Y-736486D01*
X960538Y-736486D02*
X941491Y-726962D01*
X941491Y-726962D02*
X931967Y-717438D01*
X931967Y-717438D02*
X922443Y-698391D01*
X922443Y-698391D02*
X912919Y-660296D01*
X912919Y-660296D02*
X912919Y-612677D01*
X912919Y-612677D02*
X922443Y-574581D01*
X922443Y-574581D02*
X931967Y-555534D01*
X931967Y-555534D02*
X941491Y-546010D01*
X941491Y-546010D02*
X960538Y-536486D01*
X1112919Y-736486D02*
X1112919Y-603153D01*
X1112919Y-622200D02*
X1122443Y-612677D01*
X1122443Y-612677D02*
X1141491Y-603153D01*
X1141491Y-603153D02*
X1170062Y-603153D01*
X1170062Y-603153D02*
X1189110Y-612677D01*
X1189110Y-612677D02*
X1198634Y-631724D01*
X1198634Y-631724D02*
X1198634Y-736486D01*
X1198634Y-631724D02*
X1208157Y-612677D01*
X1208157Y-612677D02*
X1227205Y-603153D01*
X1227205Y-603153D02*
X1255776Y-603153D01*
X1255776Y-603153D02*
X1274824Y-612677D01*
X1274824Y-612677D02*
X1284348Y-631724D01*
X1284348Y-631724D02*
X1284348Y-736486D01*
X1379586Y-736486D02*
X1379586Y-603153D01*
X1379586Y-622200D02*
X1389110Y-612677D01*
X1389110Y-612677D02*
X1408157Y-603153D01*
X1408157Y-603153D02*
X1436729Y-603153D01*
X1436729Y-603153D02*
X1455776Y-612677D01*
X1455776Y-612677D02*
X1465300Y-631724D01*
X1465300Y-631724D02*
X1465300Y-736486D01*
X1465300Y-631724D02*
X1474824Y-612677D01*
X1474824Y-612677D02*
X1493872Y-603153D01*
X1493872Y-603153D02*
X1522443Y-603153D01*
X1522443Y-603153D02*
X1541491Y-612677D01*
X1541491Y-612677D02*
X1551015Y-631724D01*
X1551015Y-631724D02*
X1551015Y-736486D01*
X1941491Y-526962D02*
X1770062Y-784105D01*
X2198634Y-536486D02*
X2217681Y-536486D01*
X2217681Y-536486D02*
X2236729Y-546010D01*
X2236729Y-546010D02*
X2246253Y-555534D01*
X2246253Y-555534D02*
X2255777Y-574581D01*
X2255777Y-574581D02*
X2265300Y-612677D01*
X2265300Y-612677D02*
X2265300Y-660296D01*
X2265300Y-660296D02*
X2255777Y-698391D01*
X2255777Y-698391D02*
X2246253Y-717438D01*
X2246253Y-717438D02*
X2236729Y-726962D01*
X2236729Y-726962D02*
X2217681Y-736486D01*
X2217681Y-736486D02*
X2198634Y-736486D01*
X2198634Y-736486D02*
X2179586Y-726962D01*
X2179586Y-726962D02*
X2170062Y-717438D01*
X2170062Y-717438D02*
X2160539Y-698391D01*
X2160539Y-698391D02*
X2151015Y-660296D01*
X2151015Y-660296D02*
X2151015Y-612677D01*
X2151015Y-612677D02*
X2160539Y-574581D01*
X2160539Y-574581D02*
X2170062Y-555534D01*
X2170062Y-555534D02*
X2179586Y-546010D01*
X2179586Y-546010D02*
X2198634Y-536486D01*
X2351015Y-717438D02*
X2360539Y-726962D01*
X2360539Y-726962D02*
X2351015Y-736486D01*
X2351015Y-736486D02*
X2341491Y-726962D01*
X2341491Y-726962D02*
X2351015Y-717438D01*
X2351015Y-717438D02*
X2351015Y-736486D01*
X2484348Y-536486D02*
X2503396Y-536486D01*
X2503396Y-536486D02*
X2522443Y-546010D01*
X2522443Y-546010D02*
X2531967Y-555534D01*
X2531967Y-555534D02*
X2541491Y-574581D01*
X2541491Y-574581D02*
X2551015Y-612677D01*
X2551015Y-612677D02*
X2551015Y-660296D01*
X2551015Y-660296D02*
X2541491Y-698391D01*
X2541491Y-698391D02*
X2531967Y-717438D01*
X2531967Y-717438D02*
X2522443Y-726962D01*
X2522443Y-726962D02*
X2503396Y-736486D01*
X2503396Y-736486D02*
X2484348Y-736486D01*
X2484348Y-736486D02*
X2465300Y-726962D01*
X2465300Y-726962D02*
X2455777Y-717438D01*
X2455777Y-717438D02*
X2446253Y-698391D01*
X2446253Y-698391D02*
X2436729Y-660296D01*
X2436729Y-660296D02*
X2436729Y-612677D01*
X2436729Y-612677D02*
X2446253Y-574581D01*
X2446253Y-574581D02*
X2455777Y-555534D01*
X2455777Y-555534D02*
X2465300Y-546010D01*
X2465300Y-546010D02*
X2484348Y-536486D01*
X2627205Y-555534D02*
X2636729Y-546010D01*
X2636729Y-546010D02*
X2655777Y-536486D01*
X2655777Y-536486D02*
X2703396Y-536486D01*
X2703396Y-536486D02*
X2722443Y-546010D01*
X2722443Y-546010D02*
X2731967Y-555534D01*
X2731967Y-555534D02*
X2741491Y-574581D01*
X2741491Y-574581D02*
X2741491Y-593629D01*
X2741491Y-593629D02*
X2731967Y-622200D01*
X2731967Y-622200D02*
X2617681Y-736486D01*
X2617681Y-736486D02*
X2741491Y-736486D01*
X2922443Y-536486D02*
X2827205Y-536486D01*
X2827205Y-536486D02*
X2817681Y-631724D01*
X2817681Y-631724D02*
X2827205Y-622200D01*
X2827205Y-622200D02*
X2846253Y-612677D01*
X2846253Y-612677D02*
X2893872Y-612677D01*
X2893872Y-612677D02*
X2912919Y-622200D01*
X2912919Y-622200D02*
X2922443Y-631724D01*
X2922443Y-631724D02*
X2931967Y-650772D01*
X2931967Y-650772D02*
X2931967Y-698391D01*
X2931967Y-698391D02*
X2922443Y-717438D01*
X2922443Y-717438D02*
X2912919Y-726962D01*
X2912919Y-726962D02*
X2893872Y-736486D01*
X2893872Y-736486D02*
X2846253Y-736486D01*
X2846253Y-736486D02*
X2827205Y-726962D01*
X2827205Y-726962D02*
X2817681Y-717438D01*
X3103396Y-536486D02*
X3065300Y-536486D01*
X3065300Y-536486D02*
X3046253Y-546010D01*
X3046253Y-546010D02*
X3036729Y-555534D01*
X3036729Y-555534D02*
X3017681Y-584105D01*
X3017681Y-584105D02*
X3008158Y-622200D01*
X3008158Y-622200D02*
X3008158Y-698391D01*
X3008158Y-698391D02*
X3017681Y-717438D01*
X3017681Y-717438D02*
X3027205Y-726962D01*
X3027205Y-726962D02*
X3046253Y-736486D01*
X3046253Y-736486D02*
X3084348Y-736486D01*
X3084348Y-736486D02*
X3103396Y-726962D01*
X3103396Y-726962D02*
X3112919Y-717438D01*
X3112919Y-717438D02*
X3122443Y-698391D01*
X3122443Y-698391D02*
X3122443Y-650772D01*
X3122443Y-650772D02*
X3112919Y-631724D01*
X3112919Y-631724D02*
X3103396Y-622200D01*
X3103396Y-622200D02*
X3084348Y-612677D01*
X3084348Y-612677D02*
X3046253Y-612677D01*
X3046253Y-612677D02*
X3027205Y-622200D01*
X3027205Y-622200D02*
X3017681Y-631724D01*
X3017681Y-631724D02*
X3008158Y-650772D01*
X3198634Y-536486D02*
X3198634Y-574581D01*
X3274824Y-536486D02*
X3274824Y-574581D01*
X3570062Y-812677D02*
X3560539Y-803153D01*
X3560539Y-803153D02*
X3541491Y-774581D01*
X3541491Y-774581D02*
X3531967Y-755534D01*
X3531967Y-755534D02*
X3522443Y-726962D01*
X3522443Y-726962D02*
X3512920Y-679343D01*
X3512920Y-679343D02*
X3512920Y-641248D01*
X3512920Y-641248D02*
X3522443Y-593629D01*
X3522443Y-593629D02*
X3531967Y-565058D01*
X3531967Y-565058D02*
X3541491Y-546010D01*
X3541491Y-546010D02*
X3560539Y-517438D01*
X3560539Y-517438D02*
X3570062Y-507915D01*
X3636729Y-555534D02*
X3646253Y-546010D01*
X3646253Y-546010D02*
X3665300Y-536486D01*
X3665300Y-536486D02*
X3712920Y-536486D01*
X3712920Y-536486D02*
X3731967Y-546010D01*
X3731967Y-546010D02*
X3741491Y-555534D01*
X3741491Y-555534D02*
X3751015Y-574581D01*
X3751015Y-574581D02*
X3751015Y-593629D01*
X3751015Y-593629D02*
X3741491Y-622200D01*
X3741491Y-622200D02*
X3627205Y-736486D01*
X3627205Y-736486D02*
X3751015Y-736486D01*
X3989110Y-736486D02*
X3989110Y-536486D01*
X4074824Y-736486D02*
X4074824Y-631724D01*
X4074824Y-631724D02*
X4065301Y-612677D01*
X4065301Y-612677D02*
X4046253Y-603153D01*
X4046253Y-603153D02*
X4017681Y-603153D01*
X4017681Y-603153D02*
X3998634Y-612677D01*
X3998634Y-612677D02*
X3989110Y-622200D01*
X4198634Y-736486D02*
X4179586Y-726962D01*
X4179586Y-726962D02*
X4170062Y-717438D01*
X4170062Y-717438D02*
X4160539Y-698391D01*
X4160539Y-698391D02*
X4160539Y-641248D01*
X4160539Y-641248D02*
X4170062Y-622200D01*
X4170062Y-622200D02*
X4179586Y-612677D01*
X4179586Y-612677D02*
X4198634Y-603153D01*
X4198634Y-603153D02*
X4227205Y-603153D01*
X4227205Y-603153D02*
X4246253Y-612677D01*
X4246253Y-612677D02*
X4255777Y-622200D01*
X4255777Y-622200D02*
X4265301Y-641248D01*
X4265301Y-641248D02*
X4265301Y-698391D01*
X4265301Y-698391D02*
X4255777Y-717438D01*
X4255777Y-717438D02*
X4246253Y-726962D01*
X4246253Y-726962D02*
X4227205Y-736486D01*
X4227205Y-736486D02*
X4198634Y-736486D01*
X4379586Y-736486D02*
X4360539Y-726962D01*
X4360539Y-726962D02*
X4351015Y-707915D01*
X4351015Y-707915D02*
X4351015Y-536486D01*
X4531967Y-726962D02*
X4512920Y-736486D01*
X4512920Y-736486D02*
X4474824Y-736486D01*
X4474824Y-736486D02*
X4455777Y-726962D01*
X4455777Y-726962D02*
X4446253Y-707915D01*
X4446253Y-707915D02*
X4446253Y-631724D01*
X4446253Y-631724D02*
X4455777Y-612677D01*
X4455777Y-612677D02*
X4474824Y-603153D01*
X4474824Y-603153D02*
X4512920Y-603153D01*
X4512920Y-603153D02*
X4531967Y-612677D01*
X4531967Y-612677D02*
X4541491Y-631724D01*
X4541491Y-631724D02*
X4541491Y-650772D01*
X4541491Y-650772D02*
X4446253Y-669820D01*
X4617682Y-726962D02*
X4636729Y-736486D01*
X4636729Y-736486D02*
X4674824Y-736486D01*
X4674824Y-736486D02*
X4693872Y-726962D01*
X4693872Y-726962D02*
X4703396Y-707915D01*
X4703396Y-707915D02*
X4703396Y-698391D01*
X4703396Y-698391D02*
X4693872Y-679343D01*
X4693872Y-679343D02*
X4674824Y-669820D01*
X4674824Y-669820D02*
X4646253Y-669820D01*
X4646253Y-669820D02*
X4627205Y-660296D01*
X4627205Y-660296D02*
X4617682Y-641248D01*
X4617682Y-641248D02*
X4617682Y-631724D01*
X4617682Y-631724D02*
X4627205Y-612677D01*
X4627205Y-612677D02*
X4646253Y-603153D01*
X4646253Y-603153D02*
X4674824Y-603153D01*
X4674824Y-603153D02*
X4693872Y-612677D01*
X4770063Y-812677D02*
X4779586Y-803153D01*
X4779586Y-803153D02*
X4798634Y-774581D01*
X4798634Y-774581D02*
X4808158Y-755534D01*
X4808158Y-755534D02*
X4817682Y-726962D01*
X4817682Y-726962D02*
X4827205Y-679343D01*
X4827205Y-679343D02*
X4827205Y-641248D01*
X4827205Y-641248D02*
X4817682Y-593629D01*
X4817682Y-593629D02*
X4808158Y-565058D01*
X4808158Y-565058D02*
X4798634Y-546010D01*
X4798634Y-546010D02*
X4779586Y-517438D01*
X4779586Y-517438D02*
X4770063Y-507915D01*
X5131967Y-812677D02*
X5122444Y-803153D01*
X5122444Y-803153D02*
X5103396Y-774581D01*
X5103396Y-774581D02*
X5093872Y-755534D01*
X5093872Y-755534D02*
X5084348Y-726962D01*
X5084348Y-726962D02*
X5074825Y-679343D01*
X5074825Y-679343D02*
X5074825Y-641248D01*
X5074825Y-641248D02*
X5084348Y-593629D01*
X5084348Y-593629D02*
X5093872Y-565058D01*
X5093872Y-565058D02*
X5103396Y-546010D01*
X5103396Y-546010D02*
X5122444Y-517438D01*
X5122444Y-517438D02*
X5131967Y-507915D01*
X5208158Y-603153D02*
X5208158Y-736486D01*
X5208158Y-622200D02*
X5217682Y-612677D01*
X5217682Y-612677D02*
X5236729Y-603153D01*
X5236729Y-603153D02*
X5265301Y-603153D01*
X5265301Y-603153D02*
X5284348Y-612677D01*
X5284348Y-612677D02*
X5293872Y-631724D01*
X5293872Y-631724D02*
X5293872Y-736486D01*
X5417682Y-736486D02*
X5398634Y-726962D01*
X5398634Y-726962D02*
X5389110Y-717438D01*
X5389110Y-717438D02*
X5379586Y-698391D01*
X5379586Y-698391D02*
X5379586Y-641248D01*
X5379586Y-641248D02*
X5389110Y-622200D01*
X5389110Y-622200D02*
X5398634Y-612677D01*
X5398634Y-612677D02*
X5417682Y-603153D01*
X5417682Y-603153D02*
X5446253Y-603153D01*
X5446253Y-603153D02*
X5465301Y-612677D01*
X5465301Y-612677D02*
X5474825Y-622200D01*
X5474825Y-622200D02*
X5484348Y-641248D01*
X5484348Y-641248D02*
X5484348Y-698391D01*
X5484348Y-698391D02*
X5474825Y-717438D01*
X5474825Y-717438D02*
X5465301Y-726962D01*
X5465301Y-726962D02*
X5446253Y-736486D01*
X5446253Y-736486D02*
X5417682Y-736486D01*
X5541491Y-603153D02*
X5617682Y-603153D01*
X5570063Y-536486D02*
X5570063Y-707915D01*
X5570063Y-707915D02*
X5579586Y-726962D01*
X5579586Y-726962D02*
X5598634Y-736486D01*
X5598634Y-736486D02*
X5617682Y-736486D01*
X5836729Y-603153D02*
X5836729Y-803153D01*
X5836729Y-612677D02*
X5855777Y-603153D01*
X5855777Y-603153D02*
X5893872Y-603153D01*
X5893872Y-603153D02*
X5912920Y-612677D01*
X5912920Y-612677D02*
X5922444Y-622200D01*
X5922444Y-622200D02*
X5931967Y-641248D01*
X5931967Y-641248D02*
X5931967Y-698391D01*
X5931967Y-698391D02*
X5922444Y-717438D01*
X5922444Y-717438D02*
X5912920Y-726962D01*
X5912920Y-726962D02*
X5893872Y-736486D01*
X5893872Y-736486D02*
X5855777Y-736486D01*
X5855777Y-736486D02*
X5836729Y-726962D01*
X6046253Y-736486D02*
X6027205Y-726962D01*
X6027205Y-726962D02*
X6017682Y-707915D01*
X6017682Y-707915D02*
X6017682Y-536486D01*
X6208158Y-736486D02*
X6208158Y-631724D01*
X6208158Y-631724D02*
X6198634Y-612677D01*
X6198634Y-612677D02*
X6179586Y-603153D01*
X6179586Y-603153D02*
X6141491Y-603153D01*
X6141491Y-603153D02*
X6122444Y-612677D01*
X6208158Y-726962D02*
X6189110Y-736486D01*
X6189110Y-736486D02*
X6141491Y-736486D01*
X6141491Y-736486D02*
X6122444Y-726962D01*
X6122444Y-726962D02*
X6112920Y-707915D01*
X6112920Y-707915D02*
X6112920Y-688867D01*
X6112920Y-688867D02*
X6122444Y-669820D01*
X6122444Y-669820D02*
X6141491Y-660296D01*
X6141491Y-660296D02*
X6189110Y-660296D01*
X6189110Y-660296D02*
X6208158Y-650772D01*
X6274825Y-603153D02*
X6351015Y-603153D01*
X6303396Y-536486D02*
X6303396Y-707915D01*
X6303396Y-707915D02*
X6312920Y-726962D01*
X6312920Y-726962D02*
X6331967Y-736486D01*
X6331967Y-736486D02*
X6351015Y-736486D01*
X6493872Y-726962D02*
X6474825Y-736486D01*
X6474825Y-736486D02*
X6436729Y-736486D01*
X6436729Y-736486D02*
X6417682Y-726962D01*
X6417682Y-726962D02*
X6408158Y-707915D01*
X6408158Y-707915D02*
X6408158Y-631724D01*
X6408158Y-631724D02*
X6417682Y-612677D01*
X6417682Y-612677D02*
X6436729Y-603153D01*
X6436729Y-603153D02*
X6474825Y-603153D01*
X6474825Y-603153D02*
X6493872Y-612677D01*
X6493872Y-612677D02*
X6503396Y-631724D01*
X6503396Y-631724D02*
X6503396Y-650772D01*
X6503396Y-650772D02*
X6408158Y-669820D01*
X6674825Y-736486D02*
X6674825Y-536486D01*
X6674825Y-726962D02*
X6655777Y-736486D01*
X6655777Y-736486D02*
X6617682Y-736486D01*
X6617682Y-736486D02*
X6598634Y-726962D01*
X6598634Y-726962D02*
X6589110Y-717438D01*
X6589110Y-717438D02*
X6579586Y-698391D01*
X6579586Y-698391D02*
X6579586Y-641248D01*
X6579586Y-641248D02*
X6589110Y-622200D01*
X6589110Y-622200D02*
X6598634Y-612677D01*
X6598634Y-612677D02*
X6617682Y-603153D01*
X6617682Y-603153D02*
X6655777Y-603153D01*
X6655777Y-603153D02*
X6674825Y-612677D01*
X6751015Y-812677D02*
X6760539Y-803153D01*
X6760539Y-803153D02*
X6779586Y-774581D01*
X6779586Y-774581D02*
X6789110Y-755534D01*
X6789110Y-755534D02*
X6798634Y-726962D01*
X6798634Y-726962D02*
X6808158Y-679343D01*
X6808158Y-679343D02*
X6808158Y-641248D01*
X6808158Y-641248D02*
X6798634Y-593629D01*
X6798634Y-593629D02*
X6789110Y-565058D01*
X6789110Y-565058D02*
X6779586Y-546010D01*
X6779586Y-546010D02*
X6760539Y-517438D01*
X6760539Y-517438D02*
X6751015Y-507915D01*
D13*
X-5000Y-909002D02*
G75*
G03*
X-5000Y-909002I-87500J0D01*
G01*
D11*
X360538Y-1000486D02*
X246253Y-1000486D01*
X303395Y-1000486D02*
X303395Y-800486D01*
X303395Y-800486D02*
X284348Y-829058D01*
X284348Y-829058D02*
X265300Y-848105D01*
X265300Y-848105D02*
X246253Y-857629D01*
X446253Y-981438D02*
X455776Y-990962D01*
X455776Y-990962D02*
X446253Y-1000486D01*
X446253Y-1000486D02*
X436729Y-990962D01*
X436729Y-990962D02*
X446253Y-981438D01*
X446253Y-981438D02*
X446253Y-1000486D01*
X522443Y-800486D02*
X655776Y-800486D01*
X655776Y-800486D02*
X570062Y-1000486D01*
X827205Y-800486D02*
X731967Y-800486D01*
X731967Y-800486D02*
X722443Y-895724D01*
X722443Y-895724D02*
X731967Y-886200D01*
X731967Y-886200D02*
X751014Y-876677D01*
X751014Y-876677D02*
X798634Y-876677D01*
X798634Y-876677D02*
X817681Y-886200D01*
X817681Y-886200D02*
X827205Y-895724D01*
X827205Y-895724D02*
X836729Y-914772D01*
X836729Y-914772D02*
X836729Y-962391D01*
X836729Y-962391D02*
X827205Y-981438D01*
X827205Y-981438D02*
X817681Y-990962D01*
X817681Y-990962D02*
X798634Y-1000486D01*
X798634Y-1000486D02*
X751014Y-1000486D01*
X751014Y-1000486D02*
X731967Y-990962D01*
X731967Y-990962D02*
X722443Y-981438D01*
X960538Y-800486D02*
X979586Y-800486D01*
X979586Y-800486D02*
X998634Y-810010D01*
X998634Y-810010D02*
X1008157Y-819534D01*
X1008157Y-819534D02*
X1017681Y-838581D01*
X1017681Y-838581D02*
X1027205Y-876677D01*
X1027205Y-876677D02*
X1027205Y-924296D01*
X1027205Y-924296D02*
X1017681Y-962391D01*
X1017681Y-962391D02*
X1008157Y-981438D01*
X1008157Y-981438D02*
X998634Y-990962D01*
X998634Y-990962D02*
X979586Y-1000486D01*
X979586Y-1000486D02*
X960538Y-1000486D01*
X960538Y-1000486D02*
X941491Y-990962D01*
X941491Y-990962D02*
X931967Y-981438D01*
X931967Y-981438D02*
X922443Y-962391D01*
X922443Y-962391D02*
X912919Y-924296D01*
X912919Y-924296D02*
X912919Y-876677D01*
X912919Y-876677D02*
X922443Y-838581D01*
X922443Y-838581D02*
X931967Y-819534D01*
X931967Y-819534D02*
X941491Y-810010D01*
X941491Y-810010D02*
X960538Y-800486D01*
X1112919Y-1000486D02*
X1112919Y-867153D01*
X1112919Y-886200D02*
X1122443Y-876677D01*
X1122443Y-876677D02*
X1141491Y-867153D01*
X1141491Y-867153D02*
X1170062Y-867153D01*
X1170062Y-867153D02*
X1189110Y-876677D01*
X1189110Y-876677D02*
X1198634Y-895724D01*
X1198634Y-895724D02*
X1198634Y-1000486D01*
X1198634Y-895724D02*
X1208157Y-876677D01*
X1208157Y-876677D02*
X1227205Y-867153D01*
X1227205Y-867153D02*
X1255776Y-867153D01*
X1255776Y-867153D02*
X1274824Y-876677D01*
X1274824Y-876677D02*
X1284348Y-895724D01*
X1284348Y-895724D02*
X1284348Y-1000486D01*
X1379586Y-1000486D02*
X1379586Y-867153D01*
X1379586Y-886200D02*
X1389110Y-876677D01*
X1389110Y-876677D02*
X1408157Y-867153D01*
X1408157Y-867153D02*
X1436729Y-867153D01*
X1436729Y-867153D02*
X1455776Y-876677D01*
X1455776Y-876677D02*
X1465300Y-895724D01*
X1465300Y-895724D02*
X1465300Y-1000486D01*
X1465300Y-895724D02*
X1474824Y-876677D01*
X1474824Y-876677D02*
X1493872Y-867153D01*
X1493872Y-867153D02*
X1522443Y-867153D01*
X1522443Y-867153D02*
X1541491Y-876677D01*
X1541491Y-876677D02*
X1551015Y-895724D01*
X1551015Y-895724D02*
X1551015Y-1000486D01*
X1941491Y-790962D02*
X1770062Y-1048105D01*
X2198634Y-800486D02*
X2217681Y-800486D01*
X2217681Y-800486D02*
X2236729Y-810010D01*
X2236729Y-810010D02*
X2246253Y-819534D01*
X2246253Y-819534D02*
X2255777Y-838581D01*
X2255777Y-838581D02*
X2265300Y-876677D01*
X2265300Y-876677D02*
X2265300Y-924296D01*
X2265300Y-924296D02*
X2255777Y-962391D01*
X2255777Y-962391D02*
X2246253Y-981438D01*
X2246253Y-981438D02*
X2236729Y-990962D01*
X2236729Y-990962D02*
X2217681Y-1000486D01*
X2217681Y-1000486D02*
X2198634Y-1000486D01*
X2198634Y-1000486D02*
X2179586Y-990962D01*
X2179586Y-990962D02*
X2170062Y-981438D01*
X2170062Y-981438D02*
X2160539Y-962391D01*
X2160539Y-962391D02*
X2151015Y-924296D01*
X2151015Y-924296D02*
X2151015Y-876677D01*
X2151015Y-876677D02*
X2160539Y-838581D01*
X2160539Y-838581D02*
X2170062Y-819534D01*
X2170062Y-819534D02*
X2179586Y-810010D01*
X2179586Y-810010D02*
X2198634Y-800486D01*
X2351015Y-981438D02*
X2360539Y-990962D01*
X2360539Y-990962D02*
X2351015Y-1000486D01*
X2351015Y-1000486D02*
X2341491Y-990962D01*
X2341491Y-990962D02*
X2351015Y-981438D01*
X2351015Y-981438D02*
X2351015Y-1000486D01*
X2484348Y-800486D02*
X2503396Y-800486D01*
X2503396Y-800486D02*
X2522443Y-810010D01*
X2522443Y-810010D02*
X2531967Y-819534D01*
X2531967Y-819534D02*
X2541491Y-838581D01*
X2541491Y-838581D02*
X2551015Y-876677D01*
X2551015Y-876677D02*
X2551015Y-924296D01*
X2551015Y-924296D02*
X2541491Y-962391D01*
X2541491Y-962391D02*
X2531967Y-981438D01*
X2531967Y-981438D02*
X2522443Y-990962D01*
X2522443Y-990962D02*
X2503396Y-1000486D01*
X2503396Y-1000486D02*
X2484348Y-1000486D01*
X2484348Y-1000486D02*
X2465300Y-990962D01*
X2465300Y-990962D02*
X2455777Y-981438D01*
X2455777Y-981438D02*
X2446253Y-962391D01*
X2446253Y-962391D02*
X2436729Y-924296D01*
X2436729Y-924296D02*
X2436729Y-876677D01*
X2436729Y-876677D02*
X2446253Y-838581D01*
X2446253Y-838581D02*
X2455777Y-819534D01*
X2455777Y-819534D02*
X2465300Y-810010D01*
X2465300Y-810010D02*
X2484348Y-800486D01*
X2722443Y-800486D02*
X2684348Y-800486D01*
X2684348Y-800486D02*
X2665300Y-810010D01*
X2665300Y-810010D02*
X2655777Y-819534D01*
X2655777Y-819534D02*
X2636729Y-848105D01*
X2636729Y-848105D02*
X2627205Y-886200D01*
X2627205Y-886200D02*
X2627205Y-962391D01*
X2627205Y-962391D02*
X2636729Y-981438D01*
X2636729Y-981438D02*
X2646253Y-990962D01*
X2646253Y-990962D02*
X2665300Y-1000486D01*
X2665300Y-1000486D02*
X2703396Y-1000486D01*
X2703396Y-1000486D02*
X2722443Y-990962D01*
X2722443Y-990962D02*
X2731967Y-981438D01*
X2731967Y-981438D02*
X2741491Y-962391D01*
X2741491Y-962391D02*
X2741491Y-914772D01*
X2741491Y-914772D02*
X2731967Y-895724D01*
X2731967Y-895724D02*
X2722443Y-886200D01*
X2722443Y-886200D02*
X2703396Y-876677D01*
X2703396Y-876677D02*
X2665300Y-876677D01*
X2665300Y-876677D02*
X2646253Y-886200D01*
X2646253Y-886200D02*
X2636729Y-895724D01*
X2636729Y-895724D02*
X2627205Y-914772D01*
X2855777Y-886200D02*
X2836729Y-876677D01*
X2836729Y-876677D02*
X2827205Y-867153D01*
X2827205Y-867153D02*
X2817681Y-848105D01*
X2817681Y-848105D02*
X2817681Y-838581D01*
X2817681Y-838581D02*
X2827205Y-819534D01*
X2827205Y-819534D02*
X2836729Y-810010D01*
X2836729Y-810010D02*
X2855777Y-800486D01*
X2855777Y-800486D02*
X2893872Y-800486D01*
X2893872Y-800486D02*
X2912919Y-810010D01*
X2912919Y-810010D02*
X2922443Y-819534D01*
X2922443Y-819534D02*
X2931967Y-838581D01*
X2931967Y-838581D02*
X2931967Y-848105D01*
X2931967Y-848105D02*
X2922443Y-867153D01*
X2922443Y-867153D02*
X2912919Y-876677D01*
X2912919Y-876677D02*
X2893872Y-886200D01*
X2893872Y-886200D02*
X2855777Y-886200D01*
X2855777Y-886200D02*
X2836729Y-895724D01*
X2836729Y-895724D02*
X2827205Y-905248D01*
X2827205Y-905248D02*
X2817681Y-924296D01*
X2817681Y-924296D02*
X2817681Y-962391D01*
X2817681Y-962391D02*
X2827205Y-981438D01*
X2827205Y-981438D02*
X2836729Y-990962D01*
X2836729Y-990962D02*
X2855777Y-1000486D01*
X2855777Y-1000486D02*
X2893872Y-1000486D01*
X2893872Y-1000486D02*
X2912919Y-990962D01*
X2912919Y-990962D02*
X2922443Y-981438D01*
X2922443Y-981438D02*
X2931967Y-962391D01*
X2931967Y-962391D02*
X2931967Y-924296D01*
X2931967Y-924296D02*
X2922443Y-905248D01*
X2922443Y-905248D02*
X2912919Y-895724D01*
X2912919Y-895724D02*
X2893872Y-886200D01*
X3027205Y-1000486D02*
X3065300Y-1000486D01*
X3065300Y-1000486D02*
X3084348Y-990962D01*
X3084348Y-990962D02*
X3093872Y-981438D01*
X3093872Y-981438D02*
X3112919Y-952867D01*
X3112919Y-952867D02*
X3122443Y-914772D01*
X3122443Y-914772D02*
X3122443Y-838581D01*
X3122443Y-838581D02*
X3112919Y-819534D01*
X3112919Y-819534D02*
X3103396Y-810010D01*
X3103396Y-810010D02*
X3084348Y-800486D01*
X3084348Y-800486D02*
X3046253Y-800486D01*
X3046253Y-800486D02*
X3027205Y-810010D01*
X3027205Y-810010D02*
X3017681Y-819534D01*
X3017681Y-819534D02*
X3008158Y-838581D01*
X3008158Y-838581D02*
X3008158Y-886200D01*
X3008158Y-886200D02*
X3017681Y-905248D01*
X3017681Y-905248D02*
X3027205Y-914772D01*
X3027205Y-914772D02*
X3046253Y-924296D01*
X3046253Y-924296D02*
X3084348Y-924296D01*
X3084348Y-924296D02*
X3103396Y-914772D01*
X3103396Y-914772D02*
X3112919Y-905248D01*
X3112919Y-905248D02*
X3122443Y-886200D01*
X3198634Y-800486D02*
X3198634Y-838581D01*
X3274824Y-800486D02*
X3274824Y-838581D01*
X3570062Y-1076677D02*
X3560539Y-1067153D01*
X3560539Y-1067153D02*
X3541491Y-1038581D01*
X3541491Y-1038581D02*
X3531967Y-1019534D01*
X3531967Y-1019534D02*
X3522443Y-990962D01*
X3522443Y-990962D02*
X3512920Y-943343D01*
X3512920Y-943343D02*
X3512920Y-905248D01*
X3512920Y-905248D02*
X3522443Y-857629D01*
X3522443Y-857629D02*
X3531967Y-829058D01*
X3531967Y-829058D02*
X3541491Y-810010D01*
X3541491Y-810010D02*
X3560539Y-781438D01*
X3560539Y-781438D02*
X3570062Y-771915D01*
X3731967Y-800486D02*
X3693872Y-800486D01*
X3693872Y-800486D02*
X3674824Y-810010D01*
X3674824Y-810010D02*
X3665300Y-819534D01*
X3665300Y-819534D02*
X3646253Y-848105D01*
X3646253Y-848105D02*
X3636729Y-886200D01*
X3636729Y-886200D02*
X3636729Y-962391D01*
X3636729Y-962391D02*
X3646253Y-981438D01*
X3646253Y-981438D02*
X3655777Y-990962D01*
X3655777Y-990962D02*
X3674824Y-1000486D01*
X3674824Y-1000486D02*
X3712920Y-1000486D01*
X3712920Y-1000486D02*
X3731967Y-990962D01*
X3731967Y-990962D02*
X3741491Y-981438D01*
X3741491Y-981438D02*
X3751015Y-962391D01*
X3751015Y-962391D02*
X3751015Y-914772D01*
X3751015Y-914772D02*
X3741491Y-895724D01*
X3741491Y-895724D02*
X3731967Y-886200D01*
X3731967Y-886200D02*
X3712920Y-876677D01*
X3712920Y-876677D02*
X3674824Y-876677D01*
X3674824Y-876677D02*
X3655777Y-886200D01*
X3655777Y-886200D02*
X3646253Y-895724D01*
X3646253Y-895724D02*
X3636729Y-914772D01*
X3827205Y-819534D02*
X3836729Y-810010D01*
X3836729Y-810010D02*
X3855777Y-800486D01*
X3855777Y-800486D02*
X3903396Y-800486D01*
X3903396Y-800486D02*
X3922443Y-810010D01*
X3922443Y-810010D02*
X3931967Y-819534D01*
X3931967Y-819534D02*
X3941491Y-838581D01*
X3941491Y-838581D02*
X3941491Y-857629D01*
X3941491Y-857629D02*
X3931967Y-886200D01*
X3931967Y-886200D02*
X3817681Y-1000486D01*
X3817681Y-1000486D02*
X3941491Y-1000486D01*
X4179586Y-1000486D02*
X4179586Y-800486D01*
X4265301Y-1000486D02*
X4265301Y-895724D01*
X4265301Y-895724D02*
X4255777Y-876677D01*
X4255777Y-876677D02*
X4236729Y-867153D01*
X4236729Y-867153D02*
X4208158Y-867153D01*
X4208158Y-867153D02*
X4189110Y-876677D01*
X4189110Y-876677D02*
X4179586Y-886200D01*
X4389110Y-1000486D02*
X4370063Y-990962D01*
X4370063Y-990962D02*
X4360539Y-981438D01*
X4360539Y-981438D02*
X4351015Y-962391D01*
X4351015Y-962391D02*
X4351015Y-905248D01*
X4351015Y-905248D02*
X4360539Y-886200D01*
X4360539Y-886200D02*
X4370063Y-876677D01*
X4370063Y-876677D02*
X4389110Y-867153D01*
X4389110Y-867153D02*
X4417682Y-867153D01*
X4417682Y-867153D02*
X4436729Y-876677D01*
X4436729Y-876677D02*
X4446253Y-886200D01*
X4446253Y-886200D02*
X4455777Y-905248D01*
X4455777Y-905248D02*
X4455777Y-962391D01*
X4455777Y-962391D02*
X4446253Y-981438D01*
X4446253Y-981438D02*
X4436729Y-990962D01*
X4436729Y-990962D02*
X4417682Y-1000486D01*
X4417682Y-1000486D02*
X4389110Y-1000486D01*
X4570063Y-1000486D02*
X4551015Y-990962D01*
X4551015Y-990962D02*
X4541491Y-971915D01*
X4541491Y-971915D02*
X4541491Y-800486D01*
X4722444Y-990962D02*
X4703396Y-1000486D01*
X4703396Y-1000486D02*
X4665301Y-1000486D01*
X4665301Y-1000486D02*
X4646253Y-990962D01*
X4646253Y-990962D02*
X4636729Y-971915D01*
X4636729Y-971915D02*
X4636729Y-895724D01*
X4636729Y-895724D02*
X4646253Y-876677D01*
X4646253Y-876677D02*
X4665301Y-867153D01*
X4665301Y-867153D02*
X4703396Y-867153D01*
X4703396Y-867153D02*
X4722444Y-876677D01*
X4722444Y-876677D02*
X4731967Y-895724D01*
X4731967Y-895724D02*
X4731967Y-914772D01*
X4731967Y-914772D02*
X4636729Y-933819D01*
X4808158Y-990962D02*
X4827205Y-1000486D01*
X4827205Y-1000486D02*
X4865301Y-1000486D01*
X4865301Y-1000486D02*
X4884348Y-990962D01*
X4884348Y-990962D02*
X4893872Y-971915D01*
X4893872Y-971915D02*
X4893872Y-962391D01*
X4893872Y-962391D02*
X4884348Y-943343D01*
X4884348Y-943343D02*
X4865301Y-933819D01*
X4865301Y-933819D02*
X4836729Y-933819D01*
X4836729Y-933819D02*
X4817682Y-924296D01*
X4817682Y-924296D02*
X4808158Y-905248D01*
X4808158Y-905248D02*
X4808158Y-895724D01*
X4808158Y-895724D02*
X4817682Y-876677D01*
X4817682Y-876677D02*
X4836729Y-867153D01*
X4836729Y-867153D02*
X4865301Y-867153D01*
X4865301Y-867153D02*
X4884348Y-876677D01*
X4960539Y-1076677D02*
X4970063Y-1067153D01*
X4970063Y-1067153D02*
X4989110Y-1038581D01*
X4989110Y-1038581D02*
X4998634Y-1019534D01*
X4998634Y-1019534D02*
X5008158Y-990962D01*
X5008158Y-990962D02*
X5017682Y-943343D01*
X5017682Y-943343D02*
X5017682Y-905248D01*
X5017682Y-905248D02*
X5008158Y-857629D01*
X5008158Y-857629D02*
X4998634Y-829058D01*
X4998634Y-829058D02*
X4989110Y-810010D01*
X4989110Y-810010D02*
X4970063Y-781438D01*
X4970063Y-781438D02*
X4960539Y-771915D01*
X5322444Y-1076677D02*
X5312920Y-1067153D01*
X5312920Y-1067153D02*
X5293872Y-1038581D01*
X5293872Y-1038581D02*
X5284348Y-1019534D01*
X5284348Y-1019534D02*
X5274825Y-990962D01*
X5274825Y-990962D02*
X5265301Y-943343D01*
X5265301Y-943343D02*
X5265301Y-905248D01*
X5265301Y-905248D02*
X5274825Y-857629D01*
X5274825Y-857629D02*
X5284348Y-829058D01*
X5284348Y-829058D02*
X5293872Y-810010D01*
X5293872Y-810010D02*
X5312920Y-781438D01*
X5312920Y-781438D02*
X5322444Y-771915D01*
X5398634Y-867153D02*
X5398634Y-1000486D01*
X5398634Y-886200D02*
X5408158Y-876677D01*
X5408158Y-876677D02*
X5427205Y-867153D01*
X5427205Y-867153D02*
X5455777Y-867153D01*
X5455777Y-867153D02*
X5474825Y-876677D01*
X5474825Y-876677D02*
X5484348Y-895724D01*
X5484348Y-895724D02*
X5484348Y-1000486D01*
X5608158Y-1000486D02*
X5589110Y-990962D01*
X5589110Y-990962D02*
X5579586Y-981438D01*
X5579586Y-981438D02*
X5570063Y-962391D01*
X5570063Y-962391D02*
X5570063Y-905248D01*
X5570063Y-905248D02*
X5579586Y-886200D01*
X5579586Y-886200D02*
X5589110Y-876677D01*
X5589110Y-876677D02*
X5608158Y-867153D01*
X5608158Y-867153D02*
X5636729Y-867153D01*
X5636729Y-867153D02*
X5655777Y-876677D01*
X5655777Y-876677D02*
X5665301Y-886200D01*
X5665301Y-886200D02*
X5674824Y-905248D01*
X5674824Y-905248D02*
X5674824Y-962391D01*
X5674824Y-962391D02*
X5665301Y-981438D01*
X5665301Y-981438D02*
X5655777Y-990962D01*
X5655777Y-990962D02*
X5636729Y-1000486D01*
X5636729Y-1000486D02*
X5608158Y-1000486D01*
X5731967Y-867153D02*
X5808158Y-867153D01*
X5760539Y-800486D02*
X5760539Y-971915D01*
X5760539Y-971915D02*
X5770063Y-990962D01*
X5770063Y-990962D02*
X5789110Y-1000486D01*
X5789110Y-1000486D02*
X5808158Y-1000486D01*
X6027205Y-867153D02*
X6027205Y-1067153D01*
X6027205Y-876677D02*
X6046253Y-867153D01*
X6046253Y-867153D02*
X6084348Y-867153D01*
X6084348Y-867153D02*
X6103396Y-876677D01*
X6103396Y-876677D02*
X6112920Y-886200D01*
X6112920Y-886200D02*
X6122444Y-905248D01*
X6122444Y-905248D02*
X6122444Y-962391D01*
X6122444Y-962391D02*
X6112920Y-981438D01*
X6112920Y-981438D02*
X6103396Y-990962D01*
X6103396Y-990962D02*
X6084348Y-1000486D01*
X6084348Y-1000486D02*
X6046253Y-1000486D01*
X6046253Y-1000486D02*
X6027205Y-990962D01*
X6236729Y-1000486D02*
X6217682Y-990962D01*
X6217682Y-990962D02*
X6208158Y-971915D01*
X6208158Y-971915D02*
X6208158Y-800486D01*
X6398634Y-1000486D02*
X6398634Y-895724D01*
X6398634Y-895724D02*
X6389110Y-876677D01*
X6389110Y-876677D02*
X6370063Y-867153D01*
X6370063Y-867153D02*
X6331967Y-867153D01*
X6331967Y-867153D02*
X6312920Y-876677D01*
X6398634Y-990962D02*
X6379586Y-1000486D01*
X6379586Y-1000486D02*
X6331967Y-1000486D01*
X6331967Y-1000486D02*
X6312920Y-990962D01*
X6312920Y-990962D02*
X6303396Y-971915D01*
X6303396Y-971915D02*
X6303396Y-952867D01*
X6303396Y-952867D02*
X6312920Y-933819D01*
X6312920Y-933819D02*
X6331967Y-924296D01*
X6331967Y-924296D02*
X6379586Y-924296D01*
X6379586Y-924296D02*
X6398634Y-914772D01*
X6465301Y-867153D02*
X6541491Y-867153D01*
X6493872Y-800486D02*
X6493872Y-971915D01*
X6493872Y-971915D02*
X6503396Y-990962D01*
X6503396Y-990962D02*
X6522444Y-1000486D01*
X6522444Y-1000486D02*
X6541491Y-1000486D01*
X6684348Y-990962D02*
X6665301Y-1000486D01*
X6665301Y-1000486D02*
X6627205Y-1000486D01*
X6627205Y-1000486D02*
X6608158Y-990962D01*
X6608158Y-990962D02*
X6598634Y-971915D01*
X6598634Y-971915D02*
X6598634Y-895724D01*
X6598634Y-895724D02*
X6608158Y-876677D01*
X6608158Y-876677D02*
X6627205Y-867153D01*
X6627205Y-867153D02*
X6665301Y-867153D01*
X6665301Y-867153D02*
X6684348Y-876677D01*
X6684348Y-876677D02*
X6693872Y-895724D01*
X6693872Y-895724D02*
X6693872Y-914772D01*
X6693872Y-914772D02*
X6598634Y-933819D01*
X6865301Y-1000486D02*
X6865301Y-800486D01*
X6865301Y-990962D02*
X6846253Y-1000486D01*
X6846253Y-1000486D02*
X6808158Y-1000486D01*
X6808158Y-1000486D02*
X6789110Y-990962D01*
X6789110Y-990962D02*
X6779586Y-981438D01*
X6779586Y-981438D02*
X6770063Y-962391D01*
X6770063Y-962391D02*
X6770063Y-905248D01*
X6770063Y-905248D02*
X6779586Y-886200D01*
X6779586Y-886200D02*
X6789110Y-876677D01*
X6789110Y-876677D02*
X6808158Y-867153D01*
X6808158Y-867153D02*
X6846253Y-867153D01*
X6846253Y-867153D02*
X6865301Y-876677D01*
X6941491Y-1076677D02*
X6951015Y-1067153D01*
X6951015Y-1067153D02*
X6970063Y-1038581D01*
X6970063Y-1038581D02*
X6979586Y-1019534D01*
X6979586Y-1019534D02*
X6989110Y-990962D01*
X6989110Y-990962D02*
X6998634Y-943343D01*
X6998634Y-943343D02*
X6998634Y-905248D01*
X6998634Y-905248D02*
X6989110Y-857629D01*
X6989110Y-857629D02*
X6979586Y-829058D01*
X6979586Y-829058D02*
X6970063Y-810010D01*
X6970063Y-810010D02*
X6951015Y-781438D01*
X6951015Y-781438D02*
X6941491Y-771915D01*
X-105000Y-1104002D02*
X-105000Y-1304002D01*
X-205000Y-1204002D02*
X-5000Y-1204002D01*
X236729Y-1095486D02*
X360538Y-1095486D01*
X360538Y-1095486D02*
X293872Y-1171677D01*
X293872Y-1171677D02*
X322443Y-1171677D01*
X322443Y-1171677D02*
X341491Y-1181200D01*
X341491Y-1181200D02*
X351014Y-1190724D01*
X351014Y-1190724D02*
X360538Y-1209772D01*
X360538Y-1209772D02*
X360538Y-1257391D01*
X360538Y-1257391D02*
X351014Y-1276439D01*
X351014Y-1276439D02*
X341491Y-1285962D01*
X341491Y-1285962D02*
X322443Y-1295486D01*
X322443Y-1295486D02*
X265300Y-1295486D01*
X265300Y-1295486D02*
X246253Y-1285962D01*
X246253Y-1285962D02*
X236729Y-1276439D01*
X446253Y-1276439D02*
X455776Y-1285962D01*
X455776Y-1285962D02*
X446253Y-1295486D01*
X446253Y-1295486D02*
X436729Y-1285962D01*
X436729Y-1285962D02*
X446253Y-1276439D01*
X446253Y-1276439D02*
X446253Y-1295486D01*
X579586Y-1095486D02*
X598634Y-1095486D01*
X598634Y-1095486D02*
X617681Y-1105010D01*
X617681Y-1105010D02*
X627205Y-1114534D01*
X627205Y-1114534D02*
X636729Y-1133581D01*
X636729Y-1133581D02*
X646253Y-1171677D01*
X646253Y-1171677D02*
X646253Y-1219296D01*
X646253Y-1219296D02*
X636729Y-1257391D01*
X636729Y-1257391D02*
X627205Y-1276439D01*
X627205Y-1276439D02*
X617681Y-1285962D01*
X617681Y-1285962D02*
X598634Y-1295486D01*
X598634Y-1295486D02*
X579586Y-1295486D01*
X579586Y-1295486D02*
X560538Y-1285962D01*
X560538Y-1285962D02*
X551015Y-1276439D01*
X551015Y-1276439D02*
X541491Y-1257391D01*
X541491Y-1257391D02*
X531967Y-1219296D01*
X531967Y-1219296D02*
X531967Y-1171677D01*
X531967Y-1171677D02*
X541491Y-1133581D01*
X541491Y-1133581D02*
X551015Y-1114534D01*
X551015Y-1114534D02*
X560538Y-1105010D01*
X560538Y-1105010D02*
X579586Y-1095486D01*
X770062Y-1095486D02*
X789110Y-1095486D01*
X789110Y-1095486D02*
X808157Y-1105010D01*
X808157Y-1105010D02*
X817681Y-1114534D01*
X817681Y-1114534D02*
X827205Y-1133581D01*
X827205Y-1133581D02*
X836729Y-1171677D01*
X836729Y-1171677D02*
X836729Y-1219296D01*
X836729Y-1219296D02*
X827205Y-1257391D01*
X827205Y-1257391D02*
X817681Y-1276439D01*
X817681Y-1276439D02*
X808157Y-1285962D01*
X808157Y-1285962D02*
X789110Y-1295486D01*
X789110Y-1295486D02*
X770062Y-1295486D01*
X770062Y-1295486D02*
X751014Y-1285962D01*
X751014Y-1285962D02*
X741491Y-1276439D01*
X741491Y-1276439D02*
X731967Y-1257391D01*
X731967Y-1257391D02*
X722443Y-1219296D01*
X722443Y-1219296D02*
X722443Y-1171677D01*
X722443Y-1171677D02*
X731967Y-1133581D01*
X731967Y-1133581D02*
X741491Y-1114534D01*
X741491Y-1114534D02*
X751014Y-1105010D01*
X751014Y-1105010D02*
X770062Y-1095486D01*
X960538Y-1095486D02*
X979586Y-1095486D01*
X979586Y-1095486D02*
X998634Y-1105010D01*
X998634Y-1105010D02*
X1008157Y-1114534D01*
X1008157Y-1114534D02*
X1017681Y-1133581D01*
X1017681Y-1133581D02*
X1027205Y-1171677D01*
X1027205Y-1171677D02*
X1027205Y-1219296D01*
X1027205Y-1219296D02*
X1017681Y-1257391D01*
X1017681Y-1257391D02*
X1008157Y-1276439D01*
X1008157Y-1276439D02*
X998634Y-1285962D01*
X998634Y-1285962D02*
X979586Y-1295486D01*
X979586Y-1295486D02*
X960538Y-1295486D01*
X960538Y-1295486D02*
X941491Y-1285962D01*
X941491Y-1285962D02*
X931967Y-1276439D01*
X931967Y-1276439D02*
X922443Y-1257391D01*
X922443Y-1257391D02*
X912919Y-1219296D01*
X912919Y-1219296D02*
X912919Y-1171677D01*
X912919Y-1171677D02*
X922443Y-1133581D01*
X922443Y-1133581D02*
X931967Y-1114534D01*
X931967Y-1114534D02*
X941491Y-1105010D01*
X941491Y-1105010D02*
X960538Y-1095486D01*
X1112919Y-1295486D02*
X1112919Y-1162153D01*
X1112919Y-1181200D02*
X1122443Y-1171677D01*
X1122443Y-1171677D02*
X1141491Y-1162153D01*
X1141491Y-1162153D02*
X1170062Y-1162153D01*
X1170062Y-1162153D02*
X1189110Y-1171677D01*
X1189110Y-1171677D02*
X1198634Y-1190724D01*
X1198634Y-1190724D02*
X1198634Y-1295486D01*
X1198634Y-1190724D02*
X1208157Y-1171677D01*
X1208157Y-1171677D02*
X1227205Y-1162153D01*
X1227205Y-1162153D02*
X1255776Y-1162153D01*
X1255776Y-1162153D02*
X1274824Y-1171677D01*
X1274824Y-1171677D02*
X1284348Y-1190724D01*
X1284348Y-1190724D02*
X1284348Y-1295486D01*
X1379586Y-1295486D02*
X1379586Y-1162153D01*
X1379586Y-1181200D02*
X1389110Y-1171677D01*
X1389110Y-1171677D02*
X1408157Y-1162153D01*
X1408157Y-1162153D02*
X1436729Y-1162153D01*
X1436729Y-1162153D02*
X1455776Y-1171677D01*
X1455776Y-1171677D02*
X1465300Y-1190724D01*
X1465300Y-1190724D02*
X1465300Y-1295486D01*
X1465300Y-1190724D02*
X1474824Y-1171677D01*
X1474824Y-1171677D02*
X1493872Y-1162153D01*
X1493872Y-1162153D02*
X1522443Y-1162153D01*
X1522443Y-1162153D02*
X1541491Y-1171677D01*
X1541491Y-1171677D02*
X1551015Y-1190724D01*
X1551015Y-1190724D02*
X1551015Y-1295486D01*
X1941491Y-1085962D02*
X1770062Y-1343105D01*
X2198634Y-1095486D02*
X2217681Y-1095486D01*
X2217681Y-1095486D02*
X2236729Y-1105010D01*
X2236729Y-1105010D02*
X2246253Y-1114534D01*
X2246253Y-1114534D02*
X2255777Y-1133581D01*
X2255777Y-1133581D02*
X2265300Y-1171677D01*
X2265300Y-1171677D02*
X2265300Y-1219296D01*
X2265300Y-1219296D02*
X2255777Y-1257391D01*
X2255777Y-1257391D02*
X2246253Y-1276439D01*
X2246253Y-1276439D02*
X2236729Y-1285962D01*
X2236729Y-1285962D02*
X2217681Y-1295486D01*
X2217681Y-1295486D02*
X2198634Y-1295486D01*
X2198634Y-1295486D02*
X2179586Y-1285962D01*
X2179586Y-1285962D02*
X2170062Y-1276439D01*
X2170062Y-1276439D02*
X2160539Y-1257391D01*
X2160539Y-1257391D02*
X2151015Y-1219296D01*
X2151015Y-1219296D02*
X2151015Y-1171677D01*
X2151015Y-1171677D02*
X2160539Y-1133581D01*
X2160539Y-1133581D02*
X2170062Y-1114534D01*
X2170062Y-1114534D02*
X2179586Y-1105010D01*
X2179586Y-1105010D02*
X2198634Y-1095486D01*
X2351015Y-1276439D02*
X2360539Y-1285962D01*
X2360539Y-1285962D02*
X2351015Y-1295486D01*
X2351015Y-1295486D02*
X2341491Y-1285962D01*
X2341491Y-1285962D02*
X2351015Y-1276439D01*
X2351015Y-1276439D02*
X2351015Y-1295486D01*
X2551015Y-1295486D02*
X2436729Y-1295486D01*
X2493872Y-1295486D02*
X2493872Y-1095486D01*
X2493872Y-1095486D02*
X2474824Y-1124058D01*
X2474824Y-1124058D02*
X2455777Y-1143105D01*
X2455777Y-1143105D02*
X2436729Y-1152629D01*
X2741491Y-1295486D02*
X2627205Y-1295486D01*
X2684348Y-1295486D02*
X2684348Y-1095486D01*
X2684348Y-1095486D02*
X2665300Y-1124058D01*
X2665300Y-1124058D02*
X2646253Y-1143105D01*
X2646253Y-1143105D02*
X2627205Y-1152629D01*
X2855777Y-1181200D02*
X2836729Y-1171677D01*
X2836729Y-1171677D02*
X2827205Y-1162153D01*
X2827205Y-1162153D02*
X2817681Y-1143105D01*
X2817681Y-1143105D02*
X2817681Y-1133581D01*
X2817681Y-1133581D02*
X2827205Y-1114534D01*
X2827205Y-1114534D02*
X2836729Y-1105010D01*
X2836729Y-1105010D02*
X2855777Y-1095486D01*
X2855777Y-1095486D02*
X2893872Y-1095486D01*
X2893872Y-1095486D02*
X2912919Y-1105010D01*
X2912919Y-1105010D02*
X2922443Y-1114534D01*
X2922443Y-1114534D02*
X2931967Y-1133581D01*
X2931967Y-1133581D02*
X2931967Y-1143105D01*
X2931967Y-1143105D02*
X2922443Y-1162153D01*
X2922443Y-1162153D02*
X2912919Y-1171677D01*
X2912919Y-1171677D02*
X2893872Y-1181200D01*
X2893872Y-1181200D02*
X2855777Y-1181200D01*
X2855777Y-1181200D02*
X2836729Y-1190724D01*
X2836729Y-1190724D02*
X2827205Y-1200248D01*
X2827205Y-1200248D02*
X2817681Y-1219296D01*
X2817681Y-1219296D02*
X2817681Y-1257391D01*
X2817681Y-1257391D02*
X2827205Y-1276439D01*
X2827205Y-1276439D02*
X2836729Y-1285962D01*
X2836729Y-1285962D02*
X2855777Y-1295486D01*
X2855777Y-1295486D02*
X2893872Y-1295486D01*
X2893872Y-1295486D02*
X2912919Y-1285962D01*
X2912919Y-1285962D02*
X2922443Y-1276439D01*
X2922443Y-1276439D02*
X2931967Y-1257391D01*
X2931967Y-1257391D02*
X2931967Y-1219296D01*
X2931967Y-1219296D02*
X2922443Y-1200248D01*
X2922443Y-1200248D02*
X2912919Y-1190724D01*
X2912919Y-1190724D02*
X2893872Y-1181200D01*
X3122443Y-1295486D02*
X3008158Y-1295486D01*
X3065300Y-1295486D02*
X3065300Y-1095486D01*
X3065300Y-1095486D02*
X3046253Y-1124058D01*
X3046253Y-1124058D02*
X3027205Y-1143105D01*
X3027205Y-1143105D02*
X3008158Y-1152629D01*
X3198634Y-1095486D02*
X3198634Y-1133581D01*
X3274824Y-1095486D02*
X3274824Y-1133581D01*
X3570062Y-1371677D02*
X3560539Y-1362153D01*
X3560539Y-1362153D02*
X3541491Y-1333581D01*
X3541491Y-1333581D02*
X3531967Y-1314534D01*
X3531967Y-1314534D02*
X3522443Y-1285962D01*
X3522443Y-1285962D02*
X3512920Y-1238343D01*
X3512920Y-1238343D02*
X3512920Y-1200248D01*
X3512920Y-1200248D02*
X3522443Y-1152629D01*
X3522443Y-1152629D02*
X3531967Y-1124058D01*
X3531967Y-1124058D02*
X3541491Y-1105010D01*
X3541491Y-1105010D02*
X3560539Y-1076439D01*
X3560539Y-1076439D02*
X3570062Y-1066915D01*
X3731967Y-1095486D02*
X3693872Y-1095486D01*
X3693872Y-1095486D02*
X3674824Y-1105010D01*
X3674824Y-1105010D02*
X3665300Y-1114534D01*
X3665300Y-1114534D02*
X3646253Y-1143105D01*
X3646253Y-1143105D02*
X3636729Y-1181200D01*
X3636729Y-1181200D02*
X3636729Y-1257391D01*
X3636729Y-1257391D02*
X3646253Y-1276439D01*
X3646253Y-1276439D02*
X3655777Y-1285962D01*
X3655777Y-1285962D02*
X3674824Y-1295486D01*
X3674824Y-1295486D02*
X3712920Y-1295486D01*
X3712920Y-1295486D02*
X3731967Y-1285962D01*
X3731967Y-1285962D02*
X3741491Y-1276439D01*
X3741491Y-1276439D02*
X3751015Y-1257391D01*
X3751015Y-1257391D02*
X3751015Y-1209772D01*
X3751015Y-1209772D02*
X3741491Y-1190724D01*
X3741491Y-1190724D02*
X3731967Y-1181200D01*
X3731967Y-1181200D02*
X3712920Y-1171677D01*
X3712920Y-1171677D02*
X3674824Y-1171677D01*
X3674824Y-1171677D02*
X3655777Y-1181200D01*
X3655777Y-1181200D02*
X3646253Y-1190724D01*
X3646253Y-1190724D02*
X3636729Y-1209772D01*
X3827205Y-1114534D02*
X3836729Y-1105010D01*
X3836729Y-1105010D02*
X3855777Y-1095486D01*
X3855777Y-1095486D02*
X3903396Y-1095486D01*
X3903396Y-1095486D02*
X3922443Y-1105010D01*
X3922443Y-1105010D02*
X3931967Y-1114534D01*
X3931967Y-1114534D02*
X3941491Y-1133581D01*
X3941491Y-1133581D02*
X3941491Y-1152629D01*
X3941491Y-1152629D02*
X3931967Y-1181200D01*
X3931967Y-1181200D02*
X3817681Y-1295486D01*
X3817681Y-1295486D02*
X3941491Y-1295486D01*
X4179586Y-1295486D02*
X4179586Y-1095486D01*
X4265301Y-1295486D02*
X4265301Y-1190724D01*
X4265301Y-1190724D02*
X4255777Y-1171677D01*
X4255777Y-1171677D02*
X4236729Y-1162153D01*
X4236729Y-1162153D02*
X4208158Y-1162153D01*
X4208158Y-1162153D02*
X4189110Y-1171677D01*
X4189110Y-1171677D02*
X4179586Y-1181200D01*
X4389110Y-1295486D02*
X4370063Y-1285962D01*
X4370063Y-1285962D02*
X4360539Y-1276439D01*
X4360539Y-1276439D02*
X4351015Y-1257391D01*
X4351015Y-1257391D02*
X4351015Y-1200248D01*
X4351015Y-1200248D02*
X4360539Y-1181200D01*
X4360539Y-1181200D02*
X4370063Y-1171677D01*
X4370063Y-1171677D02*
X4389110Y-1162153D01*
X4389110Y-1162153D02*
X4417682Y-1162153D01*
X4417682Y-1162153D02*
X4436729Y-1171677D01*
X4436729Y-1171677D02*
X4446253Y-1181200D01*
X4446253Y-1181200D02*
X4455777Y-1200248D01*
X4455777Y-1200248D02*
X4455777Y-1257391D01*
X4455777Y-1257391D02*
X4446253Y-1276439D01*
X4446253Y-1276439D02*
X4436729Y-1285962D01*
X4436729Y-1285962D02*
X4417682Y-1295486D01*
X4417682Y-1295486D02*
X4389110Y-1295486D01*
X4570063Y-1295486D02*
X4551015Y-1285962D01*
X4551015Y-1285962D02*
X4541491Y-1266915D01*
X4541491Y-1266915D02*
X4541491Y-1095486D01*
X4722444Y-1285962D02*
X4703396Y-1295486D01*
X4703396Y-1295486D02*
X4665301Y-1295486D01*
X4665301Y-1295486D02*
X4646253Y-1285962D01*
X4646253Y-1285962D02*
X4636729Y-1266915D01*
X4636729Y-1266915D02*
X4636729Y-1190724D01*
X4636729Y-1190724D02*
X4646253Y-1171677D01*
X4646253Y-1171677D02*
X4665301Y-1162153D01*
X4665301Y-1162153D02*
X4703396Y-1162153D01*
X4703396Y-1162153D02*
X4722444Y-1171677D01*
X4722444Y-1171677D02*
X4731967Y-1190724D01*
X4731967Y-1190724D02*
X4731967Y-1209772D01*
X4731967Y-1209772D02*
X4636729Y-1228820D01*
X4808158Y-1285962D02*
X4827205Y-1295486D01*
X4827205Y-1295486D02*
X4865301Y-1295486D01*
X4865301Y-1295486D02*
X4884348Y-1285962D01*
X4884348Y-1285962D02*
X4893872Y-1266915D01*
X4893872Y-1266915D02*
X4893872Y-1257391D01*
X4893872Y-1257391D02*
X4884348Y-1238343D01*
X4884348Y-1238343D02*
X4865301Y-1228820D01*
X4865301Y-1228820D02*
X4836729Y-1228820D01*
X4836729Y-1228820D02*
X4817682Y-1219296D01*
X4817682Y-1219296D02*
X4808158Y-1200248D01*
X4808158Y-1200248D02*
X4808158Y-1190724D01*
X4808158Y-1190724D02*
X4817682Y-1171677D01*
X4817682Y-1171677D02*
X4836729Y-1162153D01*
X4836729Y-1162153D02*
X4865301Y-1162153D01*
X4865301Y-1162153D02*
X4884348Y-1171677D01*
X4960539Y-1371677D02*
X4970063Y-1362153D01*
X4970063Y-1362153D02*
X4989110Y-1333581D01*
X4989110Y-1333581D02*
X4998634Y-1314534D01*
X4998634Y-1314534D02*
X5008158Y-1285962D01*
X5008158Y-1285962D02*
X5017682Y-1238343D01*
X5017682Y-1238343D02*
X5017682Y-1200248D01*
X5017682Y-1200248D02*
X5008158Y-1152629D01*
X5008158Y-1152629D02*
X4998634Y-1124058D01*
X4998634Y-1124058D02*
X4989110Y-1105010D01*
X4989110Y-1105010D02*
X4970063Y-1076439D01*
X4970063Y-1076439D02*
X4960539Y-1066915D01*
X5322444Y-1371677D02*
X5312920Y-1362153D01*
X5312920Y-1362153D02*
X5293872Y-1333581D01*
X5293872Y-1333581D02*
X5284348Y-1314534D01*
X5284348Y-1314534D02*
X5274825Y-1285962D01*
X5274825Y-1285962D02*
X5265301Y-1238343D01*
X5265301Y-1238343D02*
X5265301Y-1200248D01*
X5265301Y-1200248D02*
X5274825Y-1152629D01*
X5274825Y-1152629D02*
X5284348Y-1124058D01*
X5284348Y-1124058D02*
X5293872Y-1105010D01*
X5293872Y-1105010D02*
X5312920Y-1076439D01*
X5312920Y-1076439D02*
X5322444Y-1066915D01*
X5398634Y-1162153D02*
X5398634Y-1295486D01*
X5398634Y-1181200D02*
X5408158Y-1171677D01*
X5408158Y-1171677D02*
X5427205Y-1162153D01*
X5427205Y-1162153D02*
X5455777Y-1162153D01*
X5455777Y-1162153D02*
X5474825Y-1171677D01*
X5474825Y-1171677D02*
X5484348Y-1190724D01*
X5484348Y-1190724D02*
X5484348Y-1295486D01*
X5608158Y-1295486D02*
X5589110Y-1285962D01*
X5589110Y-1285962D02*
X5579586Y-1276439D01*
X5579586Y-1276439D02*
X5570063Y-1257391D01*
X5570063Y-1257391D02*
X5570063Y-1200248D01*
X5570063Y-1200248D02*
X5579586Y-1181200D01*
X5579586Y-1181200D02*
X5589110Y-1171677D01*
X5589110Y-1171677D02*
X5608158Y-1162153D01*
X5608158Y-1162153D02*
X5636729Y-1162153D01*
X5636729Y-1162153D02*
X5655777Y-1171677D01*
X5655777Y-1171677D02*
X5665301Y-1181200D01*
X5665301Y-1181200D02*
X5674824Y-1200248D01*
X5674824Y-1200248D02*
X5674824Y-1257391D01*
X5674824Y-1257391D02*
X5665301Y-1276439D01*
X5665301Y-1276439D02*
X5655777Y-1285962D01*
X5655777Y-1285962D02*
X5636729Y-1295486D01*
X5636729Y-1295486D02*
X5608158Y-1295486D01*
X5731967Y-1162153D02*
X5808158Y-1162153D01*
X5760539Y-1095486D02*
X5760539Y-1266915D01*
X5760539Y-1266915D02*
X5770063Y-1285962D01*
X5770063Y-1285962D02*
X5789110Y-1295486D01*
X5789110Y-1295486D02*
X5808158Y-1295486D01*
X6027205Y-1162153D02*
X6027205Y-1362153D01*
X6027205Y-1171677D02*
X6046253Y-1162153D01*
X6046253Y-1162153D02*
X6084348Y-1162153D01*
X6084348Y-1162153D02*
X6103396Y-1171677D01*
X6103396Y-1171677D02*
X6112920Y-1181200D01*
X6112920Y-1181200D02*
X6122444Y-1200248D01*
X6122444Y-1200248D02*
X6122444Y-1257391D01*
X6122444Y-1257391D02*
X6112920Y-1276439D01*
X6112920Y-1276439D02*
X6103396Y-1285962D01*
X6103396Y-1285962D02*
X6084348Y-1295486D01*
X6084348Y-1295486D02*
X6046253Y-1295486D01*
X6046253Y-1295486D02*
X6027205Y-1285962D01*
X6236729Y-1295486D02*
X6217682Y-1285962D01*
X6217682Y-1285962D02*
X6208158Y-1266915D01*
X6208158Y-1266915D02*
X6208158Y-1095486D01*
X6398634Y-1295486D02*
X6398634Y-1190724D01*
X6398634Y-1190724D02*
X6389110Y-1171677D01*
X6389110Y-1171677D02*
X6370063Y-1162153D01*
X6370063Y-1162153D02*
X6331967Y-1162153D01*
X6331967Y-1162153D02*
X6312920Y-1171677D01*
X6398634Y-1285962D02*
X6379586Y-1295486D01*
X6379586Y-1295486D02*
X6331967Y-1295486D01*
X6331967Y-1295486D02*
X6312920Y-1285962D01*
X6312920Y-1285962D02*
X6303396Y-1266915D01*
X6303396Y-1266915D02*
X6303396Y-1247867D01*
X6303396Y-1247867D02*
X6312920Y-1228820D01*
X6312920Y-1228820D02*
X6331967Y-1219296D01*
X6331967Y-1219296D02*
X6379586Y-1219296D01*
X6379586Y-1219296D02*
X6398634Y-1209772D01*
X6465301Y-1162153D02*
X6541491Y-1162153D01*
X6493872Y-1095486D02*
X6493872Y-1266915D01*
X6493872Y-1266915D02*
X6503396Y-1285962D01*
X6503396Y-1285962D02*
X6522444Y-1295486D01*
X6522444Y-1295486D02*
X6541491Y-1295486D01*
X6684348Y-1285962D02*
X6665301Y-1295486D01*
X6665301Y-1295486D02*
X6627205Y-1295486D01*
X6627205Y-1295486D02*
X6608158Y-1285962D01*
X6608158Y-1285962D02*
X6598634Y-1266915D01*
X6598634Y-1266915D02*
X6598634Y-1190724D01*
X6598634Y-1190724D02*
X6608158Y-1171677D01*
X6608158Y-1171677D02*
X6627205Y-1162153D01*
X6627205Y-1162153D02*
X6665301Y-1162153D01*
X6665301Y-1162153D02*
X6684348Y-1171677D01*
X6684348Y-1171677D02*
X6693872Y-1190724D01*
X6693872Y-1190724D02*
X6693872Y-1209772D01*
X6693872Y-1209772D02*
X6598634Y-1228820D01*
X6865301Y-1295486D02*
X6865301Y-1095486D01*
X6865301Y-1285962D02*
X6846253Y-1295486D01*
X6846253Y-1295486D02*
X6808158Y-1295486D01*
X6808158Y-1295486D02*
X6789110Y-1285962D01*
X6789110Y-1285962D02*
X6779586Y-1276439D01*
X6779586Y-1276439D02*
X6770063Y-1257391D01*
X6770063Y-1257391D02*
X6770063Y-1200248D01*
X6770063Y-1200248D02*
X6779586Y-1181200D01*
X6779586Y-1181200D02*
X6789110Y-1171677D01*
X6789110Y-1171677D02*
X6808158Y-1162153D01*
X6808158Y-1162153D02*
X6846253Y-1162153D01*
X6846253Y-1162153D02*
X6865301Y-1171677D01*
X6941491Y-1371677D02*
X6951015Y-1362153D01*
X6951015Y-1362153D02*
X6970063Y-1333581D01*
X6970063Y-1333581D02*
X6979586Y-1314534D01*
X6979586Y-1314534D02*
X6989110Y-1285962D01*
X6989110Y-1285962D02*
X6998634Y-1238343D01*
X6998634Y-1238343D02*
X6998634Y-1200248D01*
X6998634Y-1200248D02*
X6989110Y-1152629D01*
X6989110Y-1152629D02*
X6979586Y-1124058D01*
X6979586Y-1124058D02*
X6970063Y-1105010D01*
X6970063Y-1105010D02*
X6951015Y-1076439D01*
X6951015Y-1076439D02*
X6941491Y-1066915D01*
X-34289Y-1594714D02*
X-34289Y-1453291D01*
X-175712Y-1453291D01*
X-175712Y-1594714D01*
X-34289Y-1594714D01*
X236729Y-1415486D02*
X360538Y-1415486D01*
X360538Y-1415486D02*
X293872Y-1491677D01*
X293872Y-1491677D02*
X322443Y-1491677D01*
X322443Y-1491677D02*
X341491Y-1501200D01*
X341491Y-1501200D02*
X351014Y-1510724D01*
X351014Y-1510724D02*
X360538Y-1529772D01*
X360538Y-1529772D02*
X360538Y-1577391D01*
X360538Y-1577391D02*
X351014Y-1596438D01*
X351014Y-1596438D02*
X341491Y-1605962D01*
X341491Y-1605962D02*
X322443Y-1615486D01*
X322443Y-1615486D02*
X265300Y-1615486D01*
X265300Y-1615486D02*
X246253Y-1605962D01*
X246253Y-1605962D02*
X236729Y-1596438D01*
X446253Y-1596438D02*
X455776Y-1605962D01*
X455776Y-1605962D02*
X446253Y-1615486D01*
X446253Y-1615486D02*
X436729Y-1605962D01*
X436729Y-1605962D02*
X446253Y-1596438D01*
X446253Y-1596438D02*
X446253Y-1615486D01*
X579586Y-1415486D02*
X598634Y-1415486D01*
X598634Y-1415486D02*
X617681Y-1425010D01*
X617681Y-1425010D02*
X627205Y-1434534D01*
X627205Y-1434534D02*
X636729Y-1453581D01*
X636729Y-1453581D02*
X646253Y-1491677D01*
X646253Y-1491677D02*
X646253Y-1539296D01*
X646253Y-1539296D02*
X636729Y-1577391D01*
X636729Y-1577391D02*
X627205Y-1596438D01*
X627205Y-1596438D02*
X617681Y-1605962D01*
X617681Y-1605962D02*
X598634Y-1615486D01*
X598634Y-1615486D02*
X579586Y-1615486D01*
X579586Y-1615486D02*
X560538Y-1605962D01*
X560538Y-1605962D02*
X551015Y-1596438D01*
X551015Y-1596438D02*
X541491Y-1577391D01*
X541491Y-1577391D02*
X531967Y-1539296D01*
X531967Y-1539296D02*
X531967Y-1491677D01*
X531967Y-1491677D02*
X541491Y-1453581D01*
X541491Y-1453581D02*
X551015Y-1434534D01*
X551015Y-1434534D02*
X560538Y-1425010D01*
X560538Y-1425010D02*
X579586Y-1415486D01*
X817681Y-1482153D02*
X817681Y-1615486D01*
X770062Y-1405962D02*
X722443Y-1548819D01*
X722443Y-1548819D02*
X846253Y-1548819D01*
X951014Y-1501200D02*
X931967Y-1491677D01*
X931967Y-1491677D02*
X922443Y-1482153D01*
X922443Y-1482153D02*
X912919Y-1463105D01*
X912919Y-1463105D02*
X912919Y-1453581D01*
X912919Y-1453581D02*
X922443Y-1434534D01*
X922443Y-1434534D02*
X931967Y-1425010D01*
X931967Y-1425010D02*
X951014Y-1415486D01*
X951014Y-1415486D02*
X989110Y-1415486D01*
X989110Y-1415486D02*
X1008157Y-1425010D01*
X1008157Y-1425010D02*
X1017681Y-1434534D01*
X1017681Y-1434534D02*
X1027205Y-1453581D01*
X1027205Y-1453581D02*
X1027205Y-1463105D01*
X1027205Y-1463105D02*
X1017681Y-1482153D01*
X1017681Y-1482153D02*
X1008157Y-1491677D01*
X1008157Y-1491677D02*
X989110Y-1501200D01*
X989110Y-1501200D02*
X951014Y-1501200D01*
X951014Y-1501200D02*
X931967Y-1510724D01*
X931967Y-1510724D02*
X922443Y-1520248D01*
X922443Y-1520248D02*
X912919Y-1539296D01*
X912919Y-1539296D02*
X912919Y-1577391D01*
X912919Y-1577391D02*
X922443Y-1596438D01*
X922443Y-1596438D02*
X931967Y-1605962D01*
X931967Y-1605962D02*
X951014Y-1615486D01*
X951014Y-1615486D02*
X989110Y-1615486D01*
X989110Y-1615486D02*
X1008157Y-1605962D01*
X1008157Y-1605962D02*
X1017681Y-1596438D01*
X1017681Y-1596438D02*
X1027205Y-1577391D01*
X1027205Y-1577391D02*
X1027205Y-1539296D01*
X1027205Y-1539296D02*
X1017681Y-1520248D01*
X1017681Y-1520248D02*
X1008157Y-1510724D01*
X1008157Y-1510724D02*
X989110Y-1501200D01*
X1112919Y-1615486D02*
X1112919Y-1482153D01*
X1112919Y-1501200D02*
X1122443Y-1491677D01*
X1122443Y-1491677D02*
X1141491Y-1482153D01*
X1141491Y-1482153D02*
X1170062Y-1482153D01*
X1170062Y-1482153D02*
X1189110Y-1491677D01*
X1189110Y-1491677D02*
X1198634Y-1510724D01*
X1198634Y-1510724D02*
X1198634Y-1615486D01*
X1198634Y-1510724D02*
X1208157Y-1491677D01*
X1208157Y-1491677D02*
X1227205Y-1482153D01*
X1227205Y-1482153D02*
X1255776Y-1482153D01*
X1255776Y-1482153D02*
X1274824Y-1491677D01*
X1274824Y-1491677D02*
X1284348Y-1510724D01*
X1284348Y-1510724D02*
X1284348Y-1615486D01*
X1379586Y-1615486D02*
X1379586Y-1482153D01*
X1379586Y-1501200D02*
X1389110Y-1491677D01*
X1389110Y-1491677D02*
X1408157Y-1482153D01*
X1408157Y-1482153D02*
X1436729Y-1482153D01*
X1436729Y-1482153D02*
X1455776Y-1491677D01*
X1455776Y-1491677D02*
X1465300Y-1510724D01*
X1465300Y-1510724D02*
X1465300Y-1615486D01*
X1465300Y-1510724D02*
X1474824Y-1491677D01*
X1474824Y-1491677D02*
X1493872Y-1482153D01*
X1493872Y-1482153D02*
X1522443Y-1482153D01*
X1522443Y-1482153D02*
X1541491Y-1491677D01*
X1541491Y-1491677D02*
X1551015Y-1510724D01*
X1551015Y-1510724D02*
X1551015Y-1615486D01*
X1941491Y-1405962D02*
X1770062Y-1663105D01*
X2198634Y-1415486D02*
X2217681Y-1415486D01*
X2217681Y-1415486D02*
X2236729Y-1425010D01*
X2236729Y-1425010D02*
X2246253Y-1434534D01*
X2246253Y-1434534D02*
X2255777Y-1453581D01*
X2255777Y-1453581D02*
X2265300Y-1491677D01*
X2265300Y-1491677D02*
X2265300Y-1539296D01*
X2265300Y-1539296D02*
X2255777Y-1577391D01*
X2255777Y-1577391D02*
X2246253Y-1596438D01*
X2246253Y-1596438D02*
X2236729Y-1605962D01*
X2236729Y-1605962D02*
X2217681Y-1615486D01*
X2217681Y-1615486D02*
X2198634Y-1615486D01*
X2198634Y-1615486D02*
X2179586Y-1605962D01*
X2179586Y-1605962D02*
X2170062Y-1596438D01*
X2170062Y-1596438D02*
X2160539Y-1577391D01*
X2160539Y-1577391D02*
X2151015Y-1539296D01*
X2151015Y-1539296D02*
X2151015Y-1491677D01*
X2151015Y-1491677D02*
X2160539Y-1453581D01*
X2160539Y-1453581D02*
X2170062Y-1434534D01*
X2170062Y-1434534D02*
X2179586Y-1425010D01*
X2179586Y-1425010D02*
X2198634Y-1415486D01*
X2351015Y-1596438D02*
X2360539Y-1605962D01*
X2360539Y-1605962D02*
X2351015Y-1615486D01*
X2351015Y-1615486D02*
X2341491Y-1605962D01*
X2341491Y-1605962D02*
X2351015Y-1596438D01*
X2351015Y-1596438D02*
X2351015Y-1615486D01*
X2551015Y-1615486D02*
X2436729Y-1615486D01*
X2493872Y-1615486D02*
X2493872Y-1415486D01*
X2493872Y-1415486D02*
X2474824Y-1444058D01*
X2474824Y-1444058D02*
X2455777Y-1463105D01*
X2455777Y-1463105D02*
X2436729Y-1472629D01*
X2627205Y-1434534D02*
X2636729Y-1425010D01*
X2636729Y-1425010D02*
X2655777Y-1415486D01*
X2655777Y-1415486D02*
X2703396Y-1415486D01*
X2703396Y-1415486D02*
X2722443Y-1425010D01*
X2722443Y-1425010D02*
X2731967Y-1434534D01*
X2731967Y-1434534D02*
X2741491Y-1453581D01*
X2741491Y-1453581D02*
X2741491Y-1472629D01*
X2741491Y-1472629D02*
X2731967Y-1501200D01*
X2731967Y-1501200D02*
X2617681Y-1615486D01*
X2617681Y-1615486D02*
X2741491Y-1615486D01*
X2865300Y-1415486D02*
X2884348Y-1415486D01*
X2884348Y-1415486D02*
X2903396Y-1425010D01*
X2903396Y-1425010D02*
X2912919Y-1434534D01*
X2912919Y-1434534D02*
X2922443Y-1453581D01*
X2922443Y-1453581D02*
X2931967Y-1491677D01*
X2931967Y-1491677D02*
X2931967Y-1539296D01*
X2931967Y-1539296D02*
X2922443Y-1577391D01*
X2922443Y-1577391D02*
X2912919Y-1596438D01*
X2912919Y-1596438D02*
X2903396Y-1605962D01*
X2903396Y-1605962D02*
X2884348Y-1615486D01*
X2884348Y-1615486D02*
X2865300Y-1615486D01*
X2865300Y-1615486D02*
X2846253Y-1605962D01*
X2846253Y-1605962D02*
X2836729Y-1596438D01*
X2836729Y-1596438D02*
X2827205Y-1577391D01*
X2827205Y-1577391D02*
X2817681Y-1539296D01*
X2817681Y-1539296D02*
X2817681Y-1491677D01*
X2817681Y-1491677D02*
X2827205Y-1453581D01*
X2827205Y-1453581D02*
X2836729Y-1434534D01*
X2836729Y-1434534D02*
X2846253Y-1425010D01*
X2846253Y-1425010D02*
X2865300Y-1415486D01*
X3055777Y-1415486D02*
X3074824Y-1415486D01*
X3074824Y-1415486D02*
X3093872Y-1425010D01*
X3093872Y-1425010D02*
X3103396Y-1434534D01*
X3103396Y-1434534D02*
X3112919Y-1453581D01*
X3112919Y-1453581D02*
X3122443Y-1491677D01*
X3122443Y-1491677D02*
X3122443Y-1539296D01*
X3122443Y-1539296D02*
X3112919Y-1577391D01*
X3112919Y-1577391D02*
X3103396Y-1596438D01*
X3103396Y-1596438D02*
X3093872Y-1605962D01*
X3093872Y-1605962D02*
X3074824Y-1615486D01*
X3074824Y-1615486D02*
X3055777Y-1615486D01*
X3055777Y-1615486D02*
X3036729Y-1605962D01*
X3036729Y-1605962D02*
X3027205Y-1596438D01*
X3027205Y-1596438D02*
X3017681Y-1577391D01*
X3017681Y-1577391D02*
X3008158Y-1539296D01*
X3008158Y-1539296D02*
X3008158Y-1491677D01*
X3008158Y-1491677D02*
X3017681Y-1453581D01*
X3017681Y-1453581D02*
X3027205Y-1434534D01*
X3027205Y-1434534D02*
X3036729Y-1425010D01*
X3036729Y-1425010D02*
X3055777Y-1415486D01*
X3198634Y-1415486D02*
X3198634Y-1453581D01*
X3274824Y-1415486D02*
X3274824Y-1453581D01*
X3570062Y-1691677D02*
X3560539Y-1682153D01*
X3560539Y-1682153D02*
X3541491Y-1653581D01*
X3541491Y-1653581D02*
X3531967Y-1634534D01*
X3531967Y-1634534D02*
X3522443Y-1605962D01*
X3522443Y-1605962D02*
X3512920Y-1558343D01*
X3512920Y-1558343D02*
X3512920Y-1520248D01*
X3512920Y-1520248D02*
X3522443Y-1472629D01*
X3522443Y-1472629D02*
X3531967Y-1444058D01*
X3531967Y-1444058D02*
X3541491Y-1425010D01*
X3541491Y-1425010D02*
X3560539Y-1396439D01*
X3560539Y-1396439D02*
X3570062Y-1386915D01*
X3636729Y-1434534D02*
X3646253Y-1425010D01*
X3646253Y-1425010D02*
X3665300Y-1415486D01*
X3665300Y-1415486D02*
X3712920Y-1415486D01*
X3712920Y-1415486D02*
X3731967Y-1425010D01*
X3731967Y-1425010D02*
X3741491Y-1434534D01*
X3741491Y-1434534D02*
X3751015Y-1453581D01*
X3751015Y-1453581D02*
X3751015Y-1472629D01*
X3751015Y-1472629D02*
X3741491Y-1501200D01*
X3741491Y-1501200D02*
X3627205Y-1615486D01*
X3627205Y-1615486D02*
X3751015Y-1615486D01*
X3989110Y-1615486D02*
X3989110Y-1415486D01*
X4074824Y-1615486D02*
X4074824Y-1510724D01*
X4074824Y-1510724D02*
X4065301Y-1491677D01*
X4065301Y-1491677D02*
X4046253Y-1482153D01*
X4046253Y-1482153D02*
X4017681Y-1482153D01*
X4017681Y-1482153D02*
X3998634Y-1491677D01*
X3998634Y-1491677D02*
X3989110Y-1501200D01*
X4198634Y-1615486D02*
X4179586Y-1605962D01*
X4179586Y-1605962D02*
X4170062Y-1596438D01*
X4170062Y-1596438D02*
X4160539Y-1577391D01*
X4160539Y-1577391D02*
X4160539Y-1520248D01*
X4160539Y-1520248D02*
X4170062Y-1501200D01*
X4170062Y-1501200D02*
X4179586Y-1491677D01*
X4179586Y-1491677D02*
X4198634Y-1482153D01*
X4198634Y-1482153D02*
X4227205Y-1482153D01*
X4227205Y-1482153D02*
X4246253Y-1491677D01*
X4246253Y-1491677D02*
X4255777Y-1501200D01*
X4255777Y-1501200D02*
X4265301Y-1520248D01*
X4265301Y-1520248D02*
X4265301Y-1577391D01*
X4265301Y-1577391D02*
X4255777Y-1596438D01*
X4255777Y-1596438D02*
X4246253Y-1605962D01*
X4246253Y-1605962D02*
X4227205Y-1615486D01*
X4227205Y-1615486D02*
X4198634Y-1615486D01*
X4379586Y-1615486D02*
X4360539Y-1605962D01*
X4360539Y-1605962D02*
X4351015Y-1586915D01*
X4351015Y-1586915D02*
X4351015Y-1415486D01*
X4531967Y-1605962D02*
X4512920Y-1615486D01*
X4512920Y-1615486D02*
X4474824Y-1615486D01*
X4474824Y-1615486D02*
X4455777Y-1605962D01*
X4455777Y-1605962D02*
X4446253Y-1586915D01*
X4446253Y-1586915D02*
X4446253Y-1510724D01*
X4446253Y-1510724D02*
X4455777Y-1491677D01*
X4455777Y-1491677D02*
X4474824Y-1482153D01*
X4474824Y-1482153D02*
X4512920Y-1482153D01*
X4512920Y-1482153D02*
X4531967Y-1491677D01*
X4531967Y-1491677D02*
X4541491Y-1510724D01*
X4541491Y-1510724D02*
X4541491Y-1529772D01*
X4541491Y-1529772D02*
X4446253Y-1548819D01*
X4617682Y-1605962D02*
X4636729Y-1615486D01*
X4636729Y-1615486D02*
X4674824Y-1615486D01*
X4674824Y-1615486D02*
X4693872Y-1605962D01*
X4693872Y-1605962D02*
X4703396Y-1586915D01*
X4703396Y-1586915D02*
X4703396Y-1577391D01*
X4703396Y-1577391D02*
X4693872Y-1558343D01*
X4693872Y-1558343D02*
X4674824Y-1548819D01*
X4674824Y-1548819D02*
X4646253Y-1548819D01*
X4646253Y-1548819D02*
X4627205Y-1539296D01*
X4627205Y-1539296D02*
X4617682Y-1520248D01*
X4617682Y-1520248D02*
X4617682Y-1510724D01*
X4617682Y-1510724D02*
X4627205Y-1491677D01*
X4627205Y-1491677D02*
X4646253Y-1482153D01*
X4646253Y-1482153D02*
X4674824Y-1482153D01*
X4674824Y-1482153D02*
X4693872Y-1491677D01*
X4770063Y-1691677D02*
X4779586Y-1682153D01*
X4779586Y-1682153D02*
X4798634Y-1653581D01*
X4798634Y-1653581D02*
X4808158Y-1634534D01*
X4808158Y-1634534D02*
X4817682Y-1605962D01*
X4817682Y-1605962D02*
X4827205Y-1558343D01*
X4827205Y-1558343D02*
X4827205Y-1520248D01*
X4827205Y-1520248D02*
X4817682Y-1472629D01*
X4817682Y-1472629D02*
X4808158Y-1444058D01*
X4808158Y-1444058D02*
X4798634Y-1425010D01*
X4798634Y-1425010D02*
X4779586Y-1396439D01*
X4779586Y-1396439D02*
X4770063Y-1386915D01*
X5131967Y-1691677D02*
X5122444Y-1682153D01*
X5122444Y-1682153D02*
X5103396Y-1653581D01*
X5103396Y-1653581D02*
X5093872Y-1634534D01*
X5093872Y-1634534D02*
X5084348Y-1605962D01*
X5084348Y-1605962D02*
X5074825Y-1558343D01*
X5074825Y-1558343D02*
X5074825Y-1520248D01*
X5074825Y-1520248D02*
X5084348Y-1472629D01*
X5084348Y-1472629D02*
X5093872Y-1444058D01*
X5093872Y-1444058D02*
X5103396Y-1425010D01*
X5103396Y-1425010D02*
X5122444Y-1396439D01*
X5122444Y-1396439D02*
X5131967Y-1386915D01*
X5208158Y-1482153D02*
X5208158Y-1615486D01*
X5208158Y-1501200D02*
X5217682Y-1491677D01*
X5217682Y-1491677D02*
X5236729Y-1482153D01*
X5236729Y-1482153D02*
X5265301Y-1482153D01*
X5265301Y-1482153D02*
X5284348Y-1491677D01*
X5284348Y-1491677D02*
X5293872Y-1510724D01*
X5293872Y-1510724D02*
X5293872Y-1615486D01*
X5417682Y-1615486D02*
X5398634Y-1605962D01*
X5398634Y-1605962D02*
X5389110Y-1596438D01*
X5389110Y-1596438D02*
X5379586Y-1577391D01*
X5379586Y-1577391D02*
X5379586Y-1520248D01*
X5379586Y-1520248D02*
X5389110Y-1501200D01*
X5389110Y-1501200D02*
X5398634Y-1491677D01*
X5398634Y-1491677D02*
X5417682Y-1482153D01*
X5417682Y-1482153D02*
X5446253Y-1482153D01*
X5446253Y-1482153D02*
X5465301Y-1491677D01*
X5465301Y-1491677D02*
X5474825Y-1501200D01*
X5474825Y-1501200D02*
X5484348Y-1520248D01*
X5484348Y-1520248D02*
X5484348Y-1577391D01*
X5484348Y-1577391D02*
X5474825Y-1596438D01*
X5474825Y-1596438D02*
X5465301Y-1605962D01*
X5465301Y-1605962D02*
X5446253Y-1615486D01*
X5446253Y-1615486D02*
X5417682Y-1615486D01*
X5541491Y-1482153D02*
X5617682Y-1482153D01*
X5570063Y-1415486D02*
X5570063Y-1586915D01*
X5570063Y-1586915D02*
X5579586Y-1605962D01*
X5579586Y-1605962D02*
X5598634Y-1615486D01*
X5598634Y-1615486D02*
X5617682Y-1615486D01*
X5836729Y-1482153D02*
X5836729Y-1682153D01*
X5836729Y-1491677D02*
X5855777Y-1482153D01*
X5855777Y-1482153D02*
X5893872Y-1482153D01*
X5893872Y-1482153D02*
X5912920Y-1491677D01*
X5912920Y-1491677D02*
X5922444Y-1501200D01*
X5922444Y-1501200D02*
X5931967Y-1520248D01*
X5931967Y-1520248D02*
X5931967Y-1577391D01*
X5931967Y-1577391D02*
X5922444Y-1596438D01*
X5922444Y-1596438D02*
X5912920Y-1605962D01*
X5912920Y-1605962D02*
X5893872Y-1615486D01*
X5893872Y-1615486D02*
X5855777Y-1615486D01*
X5855777Y-1615486D02*
X5836729Y-1605962D01*
X6046253Y-1615486D02*
X6027205Y-1605962D01*
X6027205Y-1605962D02*
X6017682Y-1586915D01*
X6017682Y-1586915D02*
X6017682Y-1415486D01*
X6208158Y-1615486D02*
X6208158Y-1510724D01*
X6208158Y-1510724D02*
X6198634Y-1491677D01*
X6198634Y-1491677D02*
X6179586Y-1482153D01*
X6179586Y-1482153D02*
X6141491Y-1482153D01*
X6141491Y-1482153D02*
X6122444Y-1491677D01*
X6208158Y-1605962D02*
X6189110Y-1615486D01*
X6189110Y-1615486D02*
X6141491Y-1615486D01*
X6141491Y-1615486D02*
X6122444Y-1605962D01*
X6122444Y-1605962D02*
X6112920Y-1586915D01*
X6112920Y-1586915D02*
X6112920Y-1567867D01*
X6112920Y-1567867D02*
X6122444Y-1548819D01*
X6122444Y-1548819D02*
X6141491Y-1539296D01*
X6141491Y-1539296D02*
X6189110Y-1539296D01*
X6189110Y-1539296D02*
X6208158Y-1529772D01*
X6274825Y-1482153D02*
X6351015Y-1482153D01*
X6303396Y-1415486D02*
X6303396Y-1586915D01*
X6303396Y-1586915D02*
X6312920Y-1605962D01*
X6312920Y-1605962D02*
X6331967Y-1615486D01*
X6331967Y-1615486D02*
X6351015Y-1615486D01*
X6493872Y-1605962D02*
X6474825Y-1615486D01*
X6474825Y-1615486D02*
X6436729Y-1615486D01*
X6436729Y-1615486D02*
X6417682Y-1605962D01*
X6417682Y-1605962D02*
X6408158Y-1586915D01*
X6408158Y-1586915D02*
X6408158Y-1510724D01*
X6408158Y-1510724D02*
X6417682Y-1491677D01*
X6417682Y-1491677D02*
X6436729Y-1482153D01*
X6436729Y-1482153D02*
X6474825Y-1482153D01*
X6474825Y-1482153D02*
X6493872Y-1491677D01*
X6493872Y-1491677D02*
X6503396Y-1510724D01*
X6503396Y-1510724D02*
X6503396Y-1529772D01*
X6503396Y-1529772D02*
X6408158Y-1548819D01*
X6674825Y-1615486D02*
X6674825Y-1415486D01*
X6674825Y-1605962D02*
X6655777Y-1615486D01*
X6655777Y-1615486D02*
X6617682Y-1615486D01*
X6617682Y-1615486D02*
X6598634Y-1605962D01*
X6598634Y-1605962D02*
X6589110Y-1596438D01*
X6589110Y-1596438D02*
X6579586Y-1577391D01*
X6579586Y-1577391D02*
X6579586Y-1520248D01*
X6579586Y-1520248D02*
X6589110Y-1501200D01*
X6589110Y-1501200D02*
X6598634Y-1491677D01*
X6598634Y-1491677D02*
X6617682Y-1482153D01*
X6617682Y-1482153D02*
X6655777Y-1482153D01*
X6655777Y-1482153D02*
X6674825Y-1491677D01*
X6751015Y-1691677D02*
X6760539Y-1682153D01*
X6760539Y-1682153D02*
X6779586Y-1653581D01*
X6779586Y-1653581D02*
X6789110Y-1634534D01*
X6789110Y-1634534D02*
X6798634Y-1605962D01*
X6798634Y-1605962D02*
X6808158Y-1558343D01*
X6808158Y-1558343D02*
X6808158Y-1520248D01*
X6808158Y-1520248D02*
X6798634Y-1472629D01*
X6798634Y-1472629D02*
X6789110Y-1444058D01*
X6789110Y-1444058D02*
X6779586Y-1425010D01*
X6779586Y-1425010D02*
X6760539Y-1396439D01*
X6760539Y-1396439D02*
X6751015Y-1386915D01*
X-105000Y-1944002D02*
X-5000Y-1844002D01*
X-105000Y-1744002D01*
X-205000Y-1844002D01*
X-105000Y-1944002D01*
X236729Y-1735486D02*
X360538Y-1735486D01*
X360538Y-1735486D02*
X293872Y-1811677D01*
X293872Y-1811677D02*
X322443Y-1811677D01*
X322443Y-1811677D02*
X341491Y-1821200D01*
X341491Y-1821200D02*
X351014Y-1830724D01*
X351014Y-1830724D02*
X360538Y-1849772D01*
X360538Y-1849772D02*
X360538Y-1897391D01*
X360538Y-1897391D02*
X351014Y-1916438D01*
X351014Y-1916438D02*
X341491Y-1925962D01*
X341491Y-1925962D02*
X322443Y-1935486D01*
X322443Y-1935486D02*
X265300Y-1935486D01*
X265300Y-1935486D02*
X246253Y-1925962D01*
X246253Y-1925962D02*
X236729Y-1916438D01*
X446253Y-1916438D02*
X455776Y-1925962D01*
X455776Y-1925962D02*
X446253Y-1935486D01*
X446253Y-1935486D02*
X436729Y-1925962D01*
X436729Y-1925962D02*
X446253Y-1916438D01*
X446253Y-1916438D02*
X446253Y-1935486D01*
X551015Y-1935486D02*
X589110Y-1935486D01*
X589110Y-1935486D02*
X608157Y-1925962D01*
X608157Y-1925962D02*
X617681Y-1916438D01*
X617681Y-1916438D02*
X636729Y-1887867D01*
X636729Y-1887867D02*
X646253Y-1849772D01*
X646253Y-1849772D02*
X646253Y-1773581D01*
X646253Y-1773581D02*
X636729Y-1754534D01*
X636729Y-1754534D02*
X627205Y-1745010D01*
X627205Y-1745010D02*
X608157Y-1735486D01*
X608157Y-1735486D02*
X570062Y-1735486D01*
X570062Y-1735486D02*
X551015Y-1745010D01*
X551015Y-1745010D02*
X541491Y-1754534D01*
X541491Y-1754534D02*
X531967Y-1773581D01*
X531967Y-1773581D02*
X531967Y-1821200D01*
X531967Y-1821200D02*
X541491Y-1840248D01*
X541491Y-1840248D02*
X551015Y-1849772D01*
X551015Y-1849772D02*
X570062Y-1859296D01*
X570062Y-1859296D02*
X608157Y-1859296D01*
X608157Y-1859296D02*
X627205Y-1849772D01*
X627205Y-1849772D02*
X636729Y-1840248D01*
X636729Y-1840248D02*
X646253Y-1821200D01*
X760538Y-1821200D02*
X741491Y-1811677D01*
X741491Y-1811677D02*
X731967Y-1802153D01*
X731967Y-1802153D02*
X722443Y-1783105D01*
X722443Y-1783105D02*
X722443Y-1773581D01*
X722443Y-1773581D02*
X731967Y-1754534D01*
X731967Y-1754534D02*
X741491Y-1745010D01*
X741491Y-1745010D02*
X760538Y-1735486D01*
X760538Y-1735486D02*
X798634Y-1735486D01*
X798634Y-1735486D02*
X817681Y-1745010D01*
X817681Y-1745010D02*
X827205Y-1754534D01*
X827205Y-1754534D02*
X836729Y-1773581D01*
X836729Y-1773581D02*
X836729Y-1783105D01*
X836729Y-1783105D02*
X827205Y-1802153D01*
X827205Y-1802153D02*
X817681Y-1811677D01*
X817681Y-1811677D02*
X798634Y-1821200D01*
X798634Y-1821200D02*
X760538Y-1821200D01*
X760538Y-1821200D02*
X741491Y-1830724D01*
X741491Y-1830724D02*
X731967Y-1840248D01*
X731967Y-1840248D02*
X722443Y-1859296D01*
X722443Y-1859296D02*
X722443Y-1897391D01*
X722443Y-1897391D02*
X731967Y-1916438D01*
X731967Y-1916438D02*
X741491Y-1925962D01*
X741491Y-1925962D02*
X760538Y-1935486D01*
X760538Y-1935486D02*
X798634Y-1935486D01*
X798634Y-1935486D02*
X817681Y-1925962D01*
X817681Y-1925962D02*
X827205Y-1916438D01*
X827205Y-1916438D02*
X836729Y-1897391D01*
X836729Y-1897391D02*
X836729Y-1859296D01*
X836729Y-1859296D02*
X827205Y-1840248D01*
X827205Y-1840248D02*
X817681Y-1830724D01*
X817681Y-1830724D02*
X798634Y-1821200D01*
X951014Y-1821200D02*
X931967Y-1811677D01*
X931967Y-1811677D02*
X922443Y-1802153D01*
X922443Y-1802153D02*
X912919Y-1783105D01*
X912919Y-1783105D02*
X912919Y-1773581D01*
X912919Y-1773581D02*
X922443Y-1754534D01*
X922443Y-1754534D02*
X931967Y-1745010D01*
X931967Y-1745010D02*
X951014Y-1735486D01*
X951014Y-1735486D02*
X989110Y-1735486D01*
X989110Y-1735486D02*
X1008157Y-1745010D01*
X1008157Y-1745010D02*
X1017681Y-1754534D01*
X1017681Y-1754534D02*
X1027205Y-1773581D01*
X1027205Y-1773581D02*
X1027205Y-1783105D01*
X1027205Y-1783105D02*
X1017681Y-1802153D01*
X1017681Y-1802153D02*
X1008157Y-1811677D01*
X1008157Y-1811677D02*
X989110Y-1821200D01*
X989110Y-1821200D02*
X951014Y-1821200D01*
X951014Y-1821200D02*
X931967Y-1830724D01*
X931967Y-1830724D02*
X922443Y-1840248D01*
X922443Y-1840248D02*
X912919Y-1859296D01*
X912919Y-1859296D02*
X912919Y-1897391D01*
X912919Y-1897391D02*
X922443Y-1916438D01*
X922443Y-1916438D02*
X931967Y-1925962D01*
X931967Y-1925962D02*
X951014Y-1935486D01*
X951014Y-1935486D02*
X989110Y-1935486D01*
X989110Y-1935486D02*
X1008157Y-1925962D01*
X1008157Y-1925962D02*
X1017681Y-1916438D01*
X1017681Y-1916438D02*
X1027205Y-1897391D01*
X1027205Y-1897391D02*
X1027205Y-1859296D01*
X1027205Y-1859296D02*
X1017681Y-1840248D01*
X1017681Y-1840248D02*
X1008157Y-1830724D01*
X1008157Y-1830724D02*
X989110Y-1821200D01*
X1112919Y-1935486D02*
X1112919Y-1802153D01*
X1112919Y-1821200D02*
X1122443Y-1811677D01*
X1122443Y-1811677D02*
X1141491Y-1802153D01*
X1141491Y-1802153D02*
X1170062Y-1802153D01*
X1170062Y-1802153D02*
X1189110Y-1811677D01*
X1189110Y-1811677D02*
X1198634Y-1830724D01*
X1198634Y-1830724D02*
X1198634Y-1935486D01*
X1198634Y-1830724D02*
X1208157Y-1811677D01*
X1208157Y-1811677D02*
X1227205Y-1802153D01*
X1227205Y-1802153D02*
X1255776Y-1802153D01*
X1255776Y-1802153D02*
X1274824Y-1811677D01*
X1274824Y-1811677D02*
X1284348Y-1830724D01*
X1284348Y-1830724D02*
X1284348Y-1935486D01*
X1379586Y-1935486D02*
X1379586Y-1802153D01*
X1379586Y-1821200D02*
X1389110Y-1811677D01*
X1389110Y-1811677D02*
X1408157Y-1802153D01*
X1408157Y-1802153D02*
X1436729Y-1802153D01*
X1436729Y-1802153D02*
X1455776Y-1811677D01*
X1455776Y-1811677D02*
X1465300Y-1830724D01*
X1465300Y-1830724D02*
X1465300Y-1935486D01*
X1465300Y-1830724D02*
X1474824Y-1811677D01*
X1474824Y-1811677D02*
X1493872Y-1802153D01*
X1493872Y-1802153D02*
X1522443Y-1802153D01*
X1522443Y-1802153D02*
X1541491Y-1811677D01*
X1541491Y-1811677D02*
X1551015Y-1830724D01*
X1551015Y-1830724D02*
X1551015Y-1935486D01*
X1941491Y-1725962D02*
X1770062Y-1983105D01*
X2198634Y-1735486D02*
X2217681Y-1735486D01*
X2217681Y-1735486D02*
X2236729Y-1745010D01*
X2236729Y-1745010D02*
X2246253Y-1754534D01*
X2246253Y-1754534D02*
X2255777Y-1773581D01*
X2255777Y-1773581D02*
X2265300Y-1811677D01*
X2265300Y-1811677D02*
X2265300Y-1859296D01*
X2265300Y-1859296D02*
X2255777Y-1897391D01*
X2255777Y-1897391D02*
X2246253Y-1916438D01*
X2246253Y-1916438D02*
X2236729Y-1925962D01*
X2236729Y-1925962D02*
X2217681Y-1935486D01*
X2217681Y-1935486D02*
X2198634Y-1935486D01*
X2198634Y-1935486D02*
X2179586Y-1925962D01*
X2179586Y-1925962D02*
X2170062Y-1916438D01*
X2170062Y-1916438D02*
X2160539Y-1897391D01*
X2160539Y-1897391D02*
X2151015Y-1859296D01*
X2151015Y-1859296D02*
X2151015Y-1811677D01*
X2151015Y-1811677D02*
X2160539Y-1773581D01*
X2160539Y-1773581D02*
X2170062Y-1754534D01*
X2170062Y-1754534D02*
X2179586Y-1745010D01*
X2179586Y-1745010D02*
X2198634Y-1735486D01*
X2351015Y-1916438D02*
X2360539Y-1925962D01*
X2360539Y-1925962D02*
X2351015Y-1935486D01*
X2351015Y-1935486D02*
X2341491Y-1925962D01*
X2341491Y-1925962D02*
X2351015Y-1916438D01*
X2351015Y-1916438D02*
X2351015Y-1935486D01*
X2551015Y-1935486D02*
X2436729Y-1935486D01*
X2493872Y-1935486D02*
X2493872Y-1735486D01*
X2493872Y-1735486D02*
X2474824Y-1764058D01*
X2474824Y-1764058D02*
X2455777Y-1783105D01*
X2455777Y-1783105D02*
X2436729Y-1792629D01*
X2731967Y-1735486D02*
X2636729Y-1735486D01*
X2636729Y-1735486D02*
X2627205Y-1830724D01*
X2627205Y-1830724D02*
X2636729Y-1821200D01*
X2636729Y-1821200D02*
X2655777Y-1811677D01*
X2655777Y-1811677D02*
X2703396Y-1811677D01*
X2703396Y-1811677D02*
X2722443Y-1821200D01*
X2722443Y-1821200D02*
X2731967Y-1830724D01*
X2731967Y-1830724D02*
X2741491Y-1849772D01*
X2741491Y-1849772D02*
X2741491Y-1897391D01*
X2741491Y-1897391D02*
X2731967Y-1916438D01*
X2731967Y-1916438D02*
X2722443Y-1925962D01*
X2722443Y-1925962D02*
X2703396Y-1935486D01*
X2703396Y-1935486D02*
X2655777Y-1935486D01*
X2655777Y-1935486D02*
X2636729Y-1925962D01*
X2636729Y-1925962D02*
X2627205Y-1916438D01*
X2808158Y-1735486D02*
X2941491Y-1735486D01*
X2941491Y-1735486D02*
X2855777Y-1935486D01*
X3055777Y-1735486D02*
X3074824Y-1735486D01*
X3074824Y-1735486D02*
X3093872Y-1745010D01*
X3093872Y-1745010D02*
X3103396Y-1754534D01*
X3103396Y-1754534D02*
X3112919Y-1773581D01*
X3112919Y-1773581D02*
X3122443Y-1811677D01*
X3122443Y-1811677D02*
X3122443Y-1859296D01*
X3122443Y-1859296D02*
X3112919Y-1897391D01*
X3112919Y-1897391D02*
X3103396Y-1916438D01*
X3103396Y-1916438D02*
X3093872Y-1925962D01*
X3093872Y-1925962D02*
X3074824Y-1935486D01*
X3074824Y-1935486D02*
X3055777Y-1935486D01*
X3055777Y-1935486D02*
X3036729Y-1925962D01*
X3036729Y-1925962D02*
X3027205Y-1916438D01*
X3027205Y-1916438D02*
X3017681Y-1897391D01*
X3017681Y-1897391D02*
X3008158Y-1859296D01*
X3008158Y-1859296D02*
X3008158Y-1811677D01*
X3008158Y-1811677D02*
X3017681Y-1773581D01*
X3017681Y-1773581D02*
X3027205Y-1754534D01*
X3027205Y-1754534D02*
X3036729Y-1745010D01*
X3036729Y-1745010D02*
X3055777Y-1735486D01*
X3198634Y-1735486D02*
X3198634Y-1773581D01*
X3274824Y-1735486D02*
X3274824Y-1773581D01*
X3570062Y-2011677D02*
X3560539Y-2002153D01*
X3560539Y-2002153D02*
X3541491Y-1973581D01*
X3541491Y-1973581D02*
X3531967Y-1954534D01*
X3531967Y-1954534D02*
X3522443Y-1925962D01*
X3522443Y-1925962D02*
X3512920Y-1878343D01*
X3512920Y-1878343D02*
X3512920Y-1840248D01*
X3512920Y-1840248D02*
X3522443Y-1792629D01*
X3522443Y-1792629D02*
X3531967Y-1764058D01*
X3531967Y-1764058D02*
X3541491Y-1745010D01*
X3541491Y-1745010D02*
X3560539Y-1716438D01*
X3560539Y-1716438D02*
X3570062Y-1706915D01*
X3627205Y-1735486D02*
X3751015Y-1735486D01*
X3751015Y-1735486D02*
X3684348Y-1811677D01*
X3684348Y-1811677D02*
X3712920Y-1811677D01*
X3712920Y-1811677D02*
X3731967Y-1821200D01*
X3731967Y-1821200D02*
X3741491Y-1830724D01*
X3741491Y-1830724D02*
X3751015Y-1849772D01*
X3751015Y-1849772D02*
X3751015Y-1897391D01*
X3751015Y-1897391D02*
X3741491Y-1916438D01*
X3741491Y-1916438D02*
X3731967Y-1925962D01*
X3731967Y-1925962D02*
X3712920Y-1935486D01*
X3712920Y-1935486D02*
X3655777Y-1935486D01*
X3655777Y-1935486D02*
X3636729Y-1925962D01*
X3636729Y-1925962D02*
X3627205Y-1916438D01*
X3817681Y-1735486D02*
X3941491Y-1735486D01*
X3941491Y-1735486D02*
X3874824Y-1811677D01*
X3874824Y-1811677D02*
X3903396Y-1811677D01*
X3903396Y-1811677D02*
X3922443Y-1821200D01*
X3922443Y-1821200D02*
X3931967Y-1830724D01*
X3931967Y-1830724D02*
X3941491Y-1849772D01*
X3941491Y-1849772D02*
X3941491Y-1897391D01*
X3941491Y-1897391D02*
X3931967Y-1916438D01*
X3931967Y-1916438D02*
X3922443Y-1925962D01*
X3922443Y-1925962D02*
X3903396Y-1935486D01*
X3903396Y-1935486D02*
X3846253Y-1935486D01*
X3846253Y-1935486D02*
X3827205Y-1925962D01*
X3827205Y-1925962D02*
X3817681Y-1916438D01*
X4179586Y-1935486D02*
X4179586Y-1735486D01*
X4265301Y-1935486D02*
X4265301Y-1830724D01*
X4265301Y-1830724D02*
X4255777Y-1811677D01*
X4255777Y-1811677D02*
X4236729Y-1802153D01*
X4236729Y-1802153D02*
X4208158Y-1802153D01*
X4208158Y-1802153D02*
X4189110Y-1811677D01*
X4189110Y-1811677D02*
X4179586Y-1821200D01*
X4389110Y-1935486D02*
X4370063Y-1925962D01*
X4370063Y-1925962D02*
X4360539Y-1916438D01*
X4360539Y-1916438D02*
X4351015Y-1897391D01*
X4351015Y-1897391D02*
X4351015Y-1840248D01*
X4351015Y-1840248D02*
X4360539Y-1821200D01*
X4360539Y-1821200D02*
X4370063Y-1811677D01*
X4370063Y-1811677D02*
X4389110Y-1802153D01*
X4389110Y-1802153D02*
X4417682Y-1802153D01*
X4417682Y-1802153D02*
X4436729Y-1811677D01*
X4436729Y-1811677D02*
X4446253Y-1821200D01*
X4446253Y-1821200D02*
X4455777Y-1840248D01*
X4455777Y-1840248D02*
X4455777Y-1897391D01*
X4455777Y-1897391D02*
X4446253Y-1916438D01*
X4446253Y-1916438D02*
X4436729Y-1925962D01*
X4436729Y-1925962D02*
X4417682Y-1935486D01*
X4417682Y-1935486D02*
X4389110Y-1935486D01*
X4570063Y-1935486D02*
X4551015Y-1925962D01*
X4551015Y-1925962D02*
X4541491Y-1906915D01*
X4541491Y-1906915D02*
X4541491Y-1735486D01*
X4722444Y-1925962D02*
X4703396Y-1935486D01*
X4703396Y-1935486D02*
X4665301Y-1935486D01*
X4665301Y-1935486D02*
X4646253Y-1925962D01*
X4646253Y-1925962D02*
X4636729Y-1906915D01*
X4636729Y-1906915D02*
X4636729Y-1830724D01*
X4636729Y-1830724D02*
X4646253Y-1811677D01*
X4646253Y-1811677D02*
X4665301Y-1802153D01*
X4665301Y-1802153D02*
X4703396Y-1802153D01*
X4703396Y-1802153D02*
X4722444Y-1811677D01*
X4722444Y-1811677D02*
X4731967Y-1830724D01*
X4731967Y-1830724D02*
X4731967Y-1849772D01*
X4731967Y-1849772D02*
X4636729Y-1868819D01*
X4808158Y-1925962D02*
X4827205Y-1935486D01*
X4827205Y-1935486D02*
X4865301Y-1935486D01*
X4865301Y-1935486D02*
X4884348Y-1925962D01*
X4884348Y-1925962D02*
X4893872Y-1906915D01*
X4893872Y-1906915D02*
X4893872Y-1897391D01*
X4893872Y-1897391D02*
X4884348Y-1878343D01*
X4884348Y-1878343D02*
X4865301Y-1868819D01*
X4865301Y-1868819D02*
X4836729Y-1868819D01*
X4836729Y-1868819D02*
X4817682Y-1859296D01*
X4817682Y-1859296D02*
X4808158Y-1840248D01*
X4808158Y-1840248D02*
X4808158Y-1830724D01*
X4808158Y-1830724D02*
X4817682Y-1811677D01*
X4817682Y-1811677D02*
X4836729Y-1802153D01*
X4836729Y-1802153D02*
X4865301Y-1802153D01*
X4865301Y-1802153D02*
X4884348Y-1811677D01*
X4960539Y-2011677D02*
X4970063Y-2002153D01*
X4970063Y-2002153D02*
X4989110Y-1973581D01*
X4989110Y-1973581D02*
X4998634Y-1954534D01*
X4998634Y-1954534D02*
X5008158Y-1925962D01*
X5008158Y-1925962D02*
X5017682Y-1878343D01*
X5017682Y-1878343D02*
X5017682Y-1840248D01*
X5017682Y-1840248D02*
X5008158Y-1792629D01*
X5008158Y-1792629D02*
X4998634Y-1764058D01*
X4998634Y-1764058D02*
X4989110Y-1745010D01*
X4989110Y-1745010D02*
X4970063Y-1716438D01*
X4970063Y-1716438D02*
X4960539Y-1706915D01*
X5322444Y-2011677D02*
X5312920Y-2002153D01*
X5312920Y-2002153D02*
X5293872Y-1973581D01*
X5293872Y-1973581D02*
X5284348Y-1954534D01*
X5284348Y-1954534D02*
X5274825Y-1925962D01*
X5274825Y-1925962D02*
X5265301Y-1878343D01*
X5265301Y-1878343D02*
X5265301Y-1840248D01*
X5265301Y-1840248D02*
X5274825Y-1792629D01*
X5274825Y-1792629D02*
X5284348Y-1764058D01*
X5284348Y-1764058D02*
X5293872Y-1745010D01*
X5293872Y-1745010D02*
X5312920Y-1716438D01*
X5312920Y-1716438D02*
X5322444Y-1706915D01*
X5398634Y-1802153D02*
X5398634Y-1935486D01*
X5398634Y-1821200D02*
X5408158Y-1811677D01*
X5408158Y-1811677D02*
X5427205Y-1802153D01*
X5427205Y-1802153D02*
X5455777Y-1802153D01*
X5455777Y-1802153D02*
X5474825Y-1811677D01*
X5474825Y-1811677D02*
X5484348Y-1830724D01*
X5484348Y-1830724D02*
X5484348Y-1935486D01*
X5608158Y-1935486D02*
X5589110Y-1925962D01*
X5589110Y-1925962D02*
X5579586Y-1916438D01*
X5579586Y-1916438D02*
X5570063Y-1897391D01*
X5570063Y-1897391D02*
X5570063Y-1840248D01*
X5570063Y-1840248D02*
X5579586Y-1821200D01*
X5579586Y-1821200D02*
X5589110Y-1811677D01*
X5589110Y-1811677D02*
X5608158Y-1802153D01*
X5608158Y-1802153D02*
X5636729Y-1802153D01*
X5636729Y-1802153D02*
X5655777Y-1811677D01*
X5655777Y-1811677D02*
X5665301Y-1821200D01*
X5665301Y-1821200D02*
X5674824Y-1840248D01*
X5674824Y-1840248D02*
X5674824Y-1897391D01*
X5674824Y-1897391D02*
X5665301Y-1916438D01*
X5665301Y-1916438D02*
X5655777Y-1925962D01*
X5655777Y-1925962D02*
X5636729Y-1935486D01*
X5636729Y-1935486D02*
X5608158Y-1935486D01*
X5731967Y-1802153D02*
X5808158Y-1802153D01*
X5760539Y-1735486D02*
X5760539Y-1906915D01*
X5760539Y-1906915D02*
X5770063Y-1925962D01*
X5770063Y-1925962D02*
X5789110Y-1935486D01*
X5789110Y-1935486D02*
X5808158Y-1935486D01*
X6027205Y-1802153D02*
X6027205Y-2002153D01*
X6027205Y-1811677D02*
X6046253Y-1802153D01*
X6046253Y-1802153D02*
X6084348Y-1802153D01*
X6084348Y-1802153D02*
X6103396Y-1811677D01*
X6103396Y-1811677D02*
X6112920Y-1821200D01*
X6112920Y-1821200D02*
X6122444Y-1840248D01*
X6122444Y-1840248D02*
X6122444Y-1897391D01*
X6122444Y-1897391D02*
X6112920Y-1916438D01*
X6112920Y-1916438D02*
X6103396Y-1925962D01*
X6103396Y-1925962D02*
X6084348Y-1935486D01*
X6084348Y-1935486D02*
X6046253Y-1935486D01*
X6046253Y-1935486D02*
X6027205Y-1925962D01*
X6236729Y-1935486D02*
X6217682Y-1925962D01*
X6217682Y-1925962D02*
X6208158Y-1906915D01*
X6208158Y-1906915D02*
X6208158Y-1735486D01*
X6398634Y-1935486D02*
X6398634Y-1830724D01*
X6398634Y-1830724D02*
X6389110Y-1811677D01*
X6389110Y-1811677D02*
X6370063Y-1802153D01*
X6370063Y-1802153D02*
X6331967Y-1802153D01*
X6331967Y-1802153D02*
X6312920Y-1811677D01*
X6398634Y-1925962D02*
X6379586Y-1935486D01*
X6379586Y-1935486D02*
X6331967Y-1935486D01*
X6331967Y-1935486D02*
X6312920Y-1925962D01*
X6312920Y-1925962D02*
X6303396Y-1906915D01*
X6303396Y-1906915D02*
X6303396Y-1887867D01*
X6303396Y-1887867D02*
X6312920Y-1868819D01*
X6312920Y-1868819D02*
X6331967Y-1859296D01*
X6331967Y-1859296D02*
X6379586Y-1859296D01*
X6379586Y-1859296D02*
X6398634Y-1849772D01*
X6465301Y-1802153D02*
X6541491Y-1802153D01*
X6493872Y-1735486D02*
X6493872Y-1906915D01*
X6493872Y-1906915D02*
X6503396Y-1925962D01*
X6503396Y-1925962D02*
X6522444Y-1935486D01*
X6522444Y-1935486D02*
X6541491Y-1935486D01*
X6684348Y-1925962D02*
X6665301Y-1935486D01*
X6665301Y-1935486D02*
X6627205Y-1935486D01*
X6627205Y-1935486D02*
X6608158Y-1925962D01*
X6608158Y-1925962D02*
X6598634Y-1906915D01*
X6598634Y-1906915D02*
X6598634Y-1830724D01*
X6598634Y-1830724D02*
X6608158Y-1811677D01*
X6608158Y-1811677D02*
X6627205Y-1802153D01*
X6627205Y-1802153D02*
X6665301Y-1802153D01*
X6665301Y-1802153D02*
X6684348Y-1811677D01*
X6684348Y-1811677D02*
X6693872Y-1830724D01*
X6693872Y-1830724D02*
X6693872Y-1849772D01*
X6693872Y-1849772D02*
X6598634Y-1868819D01*
X6865301Y-1935486D02*
X6865301Y-1735486D01*
X6865301Y-1925962D02*
X6846253Y-1935486D01*
X6846253Y-1935486D02*
X6808158Y-1935486D01*
X6808158Y-1935486D02*
X6789110Y-1925962D01*
X6789110Y-1925962D02*
X6779586Y-1916438D01*
X6779586Y-1916438D02*
X6770063Y-1897391D01*
X6770063Y-1897391D02*
X6770063Y-1840248D01*
X6770063Y-1840248D02*
X6779586Y-1821200D01*
X6779586Y-1821200D02*
X6789110Y-1811677D01*
X6789110Y-1811677D02*
X6808158Y-1802153D01*
X6808158Y-1802153D02*
X6846253Y-1802153D01*
X6846253Y-1802153D02*
X6865301Y-1811677D01*
X6941491Y-2011677D02*
X6951015Y-2002153D01*
X6951015Y-2002153D02*
X6970063Y-1973581D01*
X6970063Y-1973581D02*
X6979586Y-1954534D01*
X6979586Y-1954534D02*
X6989110Y-1925962D01*
X6989110Y-1925962D02*
X6998634Y-1878343D01*
X6998634Y-1878343D02*
X6998634Y-1840248D01*
X6998634Y-1840248D02*
X6989110Y-1792629D01*
X6989110Y-1792629D02*
X6979586Y-1764058D01*
X6979586Y-1764058D02*
X6970063Y-1745010D01*
X6970063Y-1745010D02*
X6951015Y-1716438D01*
X6951015Y-1716438D02*
X6941491Y-1706915D01*
M02*
