0
SECTION
2
HEADER
9
$INSUNITS
70
4
9
$ACADVER
1
AC1014
9
$HANDSEED
5
FFFF
0
ENDSEC
0
SECTION
2
TABLES
0
TABLE
2
VPORT
5
8
100
AcDbSymbolTable
0
ENDTAB
0
TABLE
2
LTYPE
5
5
100
AcDbSymbolTable
0
LTYPE
5
14
100
AcDbSymbolTableRecord
100
AcDbLinetypeTableRecord
2
BYBLOCK
70
0
0
LTYPE
5
15
100
AcDbSymbolTableRecord
100
AcDbLinetypeTableRecord
2
BYLAYER
70
0
0
ENDTAB
0
TABLE
2
LAYER
5
2
100
AcDbSymbolTable
70
2
0
LAYER
5
50
100
AcDbSymbolTableRecord
100
AcDbLayerTableRecord
2
0
70
0
6
CONTINUOUS
0
ENDTAB
0
TABLE
2
STYLE
5
3
100
AcDbSymbolTable
70
1
0
STYLE
5
11
100
AcDbSymbolTableRecord
100
AcDbTextStyleTableRecord
2
STANDARD
70
0
0
ENDTAB
0
TABLE
2
VIEW
5
6
100
AcDbSymbolTable
70
0
0
ENDTAB
0
TABLE
2
UCS
5
7
100
AcDbSymbolTable
70
0
0
ENDTAB
0
TABLE
2
APPID
5
9
100
AcDbSymbolTable
70
2
0
APPID
5
12
100
AcDbSymbolTableRecord
100
AcDbRegAppTableRecord
2
ACAD
70
0
0
ENDTAB
0
TABLE
2
DIMSTYLE
5
A
100
AcDbSymbolTable
70
1
0
ENDTAB
0
TABLE
2
BLOCK_RECORD
5
1
100
AcDbSymbolTable
70
1
0
BLOCK_RECORD
5
1F
100
AcDbSymbolTableRecord
100
AcDbBlockTableRecord
2
*MODEL_SPACE
0
BLOCK_RECORD
5
1B
100
AcDbSymbolTableRecord
100
AcDbBlockTableRecord
2
*PAPER_SPACE
0
ENDTAB
0
ENDSEC
0
SECTION
2
BLOCKS
0
BLOCK
5
20
100
AcDbEntity
100
AcDbBlockBegin
2
*MODEL_SPACE
0
ENDBLK
5
21
100
AcDbEntity
100
AcDbBlockEnd
0
BLOCK
5
1C
100
AcDbEntity
100
AcDbBlockBegin
2
*PAPER_SPACE
0
ENDBLK
5
1D
100
AcDbEntity
100
AcDbBlockEnd
0
ENDSEC
0
SECTION
2
ENTITIES
0
LWPOLYLINE
5
100
100
AcDbEntity
8
0
100
AcDbPolyline
90
8
70
1
43
0.0
10
-95.837000000000003
20
66.149999993107087
10
-89.837000000000003
20
66.149999993107087
42
-0.41421356237309503
10
-89.337000000000003
20
65.649999993107073
10
-89.337000000000018
20
48.649999993107052
42
-0.41421356237310025
10
-89.837000000000003
20
48.149999993107059
10
-95.837000000000003
20
48.149999993107045
42
-0.41421356237309503
10
-96.337000000000018
20
48.649999993107052
10
-96.337000000000018
20
65.649999993107087
42
-0.41421356237309503
0
LWPOLYLINE
5
101
100
AcDbEntity
8
0
100
AcDbPolyline
90
8
70
1
43
0.0
10
-113.21299999999999
20
65.649999993107073
10
-113.21300000000001
20
48.649999993107052
42
-0.41421356237310025
10
-113.71299999999999
20
48.149999993107059
10
-119.71299999999999
20
48.149999993107045
42
-0.41421356237309503
10
-120.21299999999999
20
48.649999993107052
10
-120.21299999999999
20
65.649999993107087
42
-0.41421356237309503
10
-119.71299999999999
20
66.149999993107087
10
-113.71299999999999
20
66.149999993107087
42
-0.41421356237309503
0
LWPOLYLINE
5
102
100
AcDbEntity
8
0
100
AcDbPolyline
90
56
70
1
43
0.0
10
-121.33971862576145
20
66.674999993107079
42
0.19891236737965987
10
-125.58235931288073
20
64.917640680226356
10
-131.59264068711929
20
58.907359305987789
42
-0.19891236737965859
10
-135.83528137423858
20
57.149999993107059
10
-212.71715728752537
20
57.149999993107066
42
0.19891236737984549
10
-212.85857864376266
20
57.091421349344401
10
-213.20857864376273
20
56.741421349344385
42
0.66817863791927612
10
-213.06715728752539
20
56.399999993107087
10
-212.30000000000004
20
56.399999993107066
42
-0.99999999999999989
10
-212.30000000000004
20
53.899999993107066
10
-213.06715728752536
20
53.899999993107066
42
0.66817863791947663
10
-213.20857864376265
20
53.55857863686974
10
-212.85857864376271
20
53.208578636869746
42
0.19891236737962539
10
-212.7171572875254
20
53.149999993107066
10
-212.05000000000001
20
53.149999993107066
42
-0.41421356237309503
10
-209.55000000000001
20
50.649999993107066
10
-209.55000000000001
20
6.4999999931070729
42
-0.41421356237309592
10
-212.05000000000001
20
3.9999999931070649
10
-212.71715728752537
20
3.9999999931070658
42
0.19891236737966922
10
-212.85857864376268
20
3.9414213493443668
10
-213.20857864376273
20
3.591421349344373
42
0.6681786379192648
10
-213.06715728752539
20
3.24999999310708
10
-212.30000000000004
20
3.2499999931070658
42
-0.99999999999999989
10
-212.30000000000004
20
0.74999999310706578
10
-213.06715728752536
20
0.74999999310706578
42
0.66817863791926835
10
-213.20857864376268
20
0.40857863686976187
10
-212.85857864376271
20
0.058578636869771258
42
0.19891236737979529
10
-212.7171572875254
20
-6.8929412525009504e-09
10
3.1671572875254483
20
-6.8929410096396637e-09
42
0.1989123673795393
10
3.308578643762691
20
0.058578636869692023
10
3.6585786437623598
20
0.40857863686904883
42
0.66817863791944787
10
3.5171572875251025
20
0.74999999310642373
10
2.749999999999972
20
0.74999999310642829
42
-0.99999999999999989
10
2.7500000000000431
20
3.2499999931064281
10
3.5171572875254227
20
3.2499999931064232
42
0.66817863791930177
10
3.658578643762731
20
3.5914213493437339
10
3.3085786437627358
20
3.9414213493437327
42
0.19891236737965753
10
3.1671572875254252
20
3.9999999931064254
10
2.4999999999999858
20
3.9999999931064298
42
-0.41421356237309337
10
0
20
6.4999999931064298
10
0
20
50.649999993107677
42
-0.41421356237309342
10
2.4999999999999858
20
53.149999993107677
10
3.1671572875254252
20
53.149999993107684
42
0.19891236737962215
10
3.3085786437627389
20
53.208578636870371
10
3.6585786437627417
20
53.558578636870379
42
0.66817863791931964
10
3.5171572875254298
20
53.899999993107684
10
2.7500000000000075
20
53.899999993107684
42
-0.99999999999999989
10
2.7500000000000075
20
56.399999993107684
10
3.5171572875254005
20
56.399999993107699
42
0.66817863791929633
10
3.6585786437627048
20
56.741421349345003
10
3.3085786437626914
20
57.091421349345012
42
0.19891236737965379
10
3.1671572875253733
20
57.149999993107691
10
-73.714718625761563
20
57.149999993107237
42
-0.1989123673796595
10
-77.957359312880897
20
58.907359305987946
10
-83.9676406871193
20
64.917640680226356
42
0.19891236737965515
10
-88.210281374238591
20
66.674999993107079
0
LWPOLYLINE
5
103
100
AcDbEntity
8
0
100
AcDbPolyline
90
8
70
1
43
0.0
10
-164.16250000000002
20
22.074999993107063
42
0.41421356237310025
10
-163.66250000000002
20
21.574999993107049
10
-150.66249999999999
20
21.574999993107067
42
0.41421356237310542
10
-150.16249999999999
20
22.074999993107063
10
-150.16249999999999
20
35.07499999310707
42
0.41421356237309503
10
-150.66249999999999
20
35.574999993107063
10
-163.66250000000002
20
35.574999993107063
42
0.41421356237305079
10
-164.16250000000002
20
35.07499999310707
0
LWPOLYLINE
5
104
100
AcDbEntity
8
0
100
AcDbPolyline
90
8
70
1
43
0.0
10
-22.074999999999999
20
40.624999993107068
42
0.41421356237309764
10
-21.574999999999996
20
41.124999993107068
10
-21.575000000000003
20
54.124999993107075
42
0.41421356237309764
10
-22.074999999999999
20
54.624999993107075
10
-35.075000000000003
20
54.624999993107075
42
0.41421356237309764
10
-35.575000000000003
20
54.124999993107075
10
-35.575000000000003
20
41.124999993107068
42
0.41421356237309764
10
-35.075000000000003
20
40.624999993107068
0
LWPOLYLINE
5
105
100
AcDbEntity
8
0
100
AcDbPolyline
90
8
70
1
43
0.0
10
-193.52500000000003
20
40.624999993107068
42
0.41421356237307422
10
-193.02499999999998
20
41.124999993107068
10
-193.02500000000003
20
54.124999993107075
42
0.41421356237313667
10
-193.52500000000003
20
54.624999993107082
10
-206.52500000000003
20
54.624999993107075
42
0.4142135623730222
10
-207.02500000000003
20
54.124999993107075
10
-207.02500000000003
20
41.124999993107068
42
0.41421356237312623
10
-206.52500000000003
20
40.624999993107068
0
LWPOLYLINE
5
106
100
AcDbEntity
8
0
100
AcDbPolyline
90
8
70
1
43
0.0
10
-45.887500000000003
20
21.574999993107067
42
0.41421356237309503
10
-45.387500000000003
20
22.074999993107063
10
-45.387500000000003
20
35.07499999310707
42
0.41421356237309503
10
-45.887500000000003
20
35.574999993107063
10
-58.88750000000001
20
35.574999993107063
42
0.41421356237309503
10
-59.387500000000003
20
35.07499999310707
10
-59.387500000000003
20
22.074999993107063
42
0.41421356237309503
10
-58.88750000000001
20
21.574999993107067
0
LWPOLYLINE
5
107
100
AcDbEntity
8
0
100
AcDbPolyline
90
8
70
1
43
0.0
10
-126.85000000000001
20
2.5249999931070652
42
0.41421356237307422
10
-126.34999999999999
20
3.0249999931070648
10
-126.34999999999999
20
16.024999993107066
42
0.41421356237307549
10
-126.85000000000001
20
16.524999993107066
10
-139.84999999999999
20
16.524999993107066
42
0.41421356237310675
10
-140.34999999999999
20
16.024999993107066
10
-140.34999999999999
20
3.0249999931070652
42
0.41421356237309437
10
-139.84999999999999
20
2.5249999931070581
0
LWPOLYLINE
5
108
100
AcDbEntity
8
0
100
AcDbPolyline
90
8
70
1
43
0.0
10
-145.90000000000001
20
2.5249999931070652
42
0.41421356237307422
10
-145.40000000000001
20
3.0249999931070648
10
-145.40000000000001
20
16.024999993107066
42
0.41421356237307549
10
-145.90000000000001
20
16.524999993107073
10
-158.90000000000001
20
16.524999993107066
42
0.41421356237310675
10
-159.40000000000001
20
16.024999993107066
10
-159.40000000000001
20
3.0249999931070652
42
0.41421356237309437
10
-158.90000000000001
20
2.5249999931070581
0
LWPOLYLINE
5
109
100
AcDbEntity
8
0
100
AcDbPolyline
90
8
70
1
43
0.0
10
-50.650000000000006
20
2.5249999931070652
42
0.41421356237309404
10
-50.150000000000006
20
3.0249999931070648
10
-50.150000000000006
20
16.024999993107066
42
0.41421356237309503
10
-50.650000000000006
20
16.524999993107066
10
-63.650000000000006
20
16.524999993107066
42
0.41421356237309631
10
-64.150000000000006
20
16.024999993107066
10
-64.150000000000006
20
3.0249999931070652
42
0.41421356237309664
10
-63.650000000000006
20
2.5249999931070652
0
LWPOLYLINE
5
110
100
AcDbEntity
8
0
100
AcDbPolyline
90
8
70
1
43
0.0
10
-107.80000000000001
20
2.5249999931070652
42
0.41421356237310542
10
-107.29999999999998
20
3.0249999931070648
10
-107.30000000000001
20
16.024999993107066
42
0.41421356237309631
10
-107.80000000000001
20
16.524999993107073
10
-120.8
20
16.524999993107066
42
0.41421356237307549
10
-121.30000000000001
20
16.024999993107066
10
-121.30000000000001
20
3.0249999931070652
42
0.41421356237307355
10
-120.8
20
2.5249999931070581
0
LWPOLYLINE
5
111
100
AcDbEntity
8
0
100
AcDbPolyline
90
8
70
1
43
0.0
10
-26.837499999999999
20
21.574999993107067
42
0.41421356237309503
10
-26.337499999999999
20
22.074999993107063
10
-26.337499999999999
20
35.07499999310707
42
0.41421356237309503
10
-26.837499999999999
20
35.574999993107063
10
-39.837499999999999
20
35.574999993107063
42
0.41421356237311324
10
-40.337499999999991
20
35.07499999310707
10
-40.337500000000006
20
22.074999993107063
42
0.41421356237310542
10
-39.837499999999999
20
21.574999993107063
0
LWPOLYLINE
5
112
100
AcDbEntity
8
0
100
AcDbPolyline
90
8
70
1
43
0.0
10
-164.95000000000002
20
2.5249999931070652
42
0.41421356237307749
10
-164.44999999999996
20
3.0249999931070648
10
-164.44999999999999
20
16.024999993107066
42
0.41421356237313406
10
-164.95000000000002
20
16.524999993107066
10
-177.94999999999999
20
16.524999993107066
42
0.4142135623730781
10
-178.44999999999999
20
16.024999993107066
10
-178.44999999999999
20
3.0249999931070652
42
0.41421356237313306
10
-177.94999999999999
20
2.5249999931070581
0
LWPOLYLINE
5
113
100
AcDbEntity
8
0
100
AcDbPolyline
90
8
70
1
43
0.0
10
-18.906250000000004
20
22.074999993107063
42
0.41421356237309503
10
-18.40625
20
21.574999993107067
10
-5.40625
20
21.574999993107067
42
0.41421356237309437
10
-4.9062500000000018
20
22.074999993107063
10
-4.90625
20
35.07499999310707
42
0.41421356237309503
10
-5.4062499999999991
20
35.574999993107063
10
-18.40625
20
35.574999993107063
42
0.41421356237309631
10
-18.906250000000004
20
35.07499999310707
0
LWPOLYLINE
5
114
100
AcDbEntity
8
0
100
AcDbPolyline
90
8
70
1
43
0.0
10
-64.9375
20
21.574999993107067
42
0.41421356237309764
10
-64.437500000000014
20
22.074999993107063
10
-64.4375
20
35.07499999310707
42
0.41421356237309764
10
-64.9375
20
35.574999993107063
10
-77.9375
20
35.574999993107063
42
0.41421356237309503
10
-78.4375
20
35.07499999310707
10
-78.4375
20
22.074999993107063
42
0.41421356237309503
10
-77.9375
20
21.574999993107067
0
LWPOLYLINE
5
115
100
AcDbEntity
8
0
100
AcDbPolyline
90
8
70
1
43
0.0
10
-83.987499999999997
20
21.574999993107067
42
0.41421356237310542
10
-83.487499999999983
20
22.074999993107063
10
-83.487499999999983
20
35.07499999310707
42
0.41421356237309503
10
-83.987499999999997
20
35.574999993107078
10
-96.987500000000011
20
35.574999993107063
42
0.41421356237310802
10
-97.487500000000011
20
35.07499999310707
10
-97.487500000000011
20
22.074999993107063
42
0.41421356237309243
10
-96.987500000000011
20
21.574999993107056
0
LWPOLYLINE
5
116
100
AcDbEntity
8
0
100
AcDbPolyline
90
8
70
1
43
0.0
10
-202.26249999999999
20
3.0249999931070652
42
0.41421356237313306
10
-201.76249999999999
20
2.5249999931070644
10
-188.76249999999999
20
2.5249999931070652
42
0.41421356237302509
10
-188.26249999999999
20
3.0249999931070648
10
-188.26249999999999
20
16.024999993107066
42
0.41421356237312362
10
-188.76249999999999
20
16.524999993107066
10
-201.76249999999999
20
16.524999993107066
42
0.4142135623730781
10
-202.26249999999999
20
16.024999993107066
0
LWPOLYLINE
5
117
100
AcDbEntity
8
0
100
AcDbPolyline
90
8
70
1
43
0.0
10
-112.56250000000001
20
21.574999993107067
42
0.41421356237310542
10
-112.0625
20
22.074999993107063
10
-112.0625
20
35.07499999310707
42
0.41421356237309503
10
-112.56250000000001
20
35.574999993107078
10
-125.5625
20
35.574999993107063
42
0.4142135623730846
10
-126.0625
20
35.07499999310707
10
-126.06250000000001
20
22.074999993107063
42
0.41421356237307161
10
-125.5625
20
21.574999993107056
0
LWPOLYLINE
5
118
100
AcDbEntity
8
0
100
AcDbPolyline
90
8
70
1
43
0.0
10
-41.125
20
40.624999993107068
42
0.41421356237309503
10
-40.625
20
41.124999993107068
10
-40.625
20
54.124999993107075
42
0.41421356237309503
10
-41.125
20
54.624999993107075
10
-54.125000000000007
20
54.624999993107075
42
0.41421356237309503
10
-54.625
20
54.124999993107075
10
-54.625
20
41.124999993107068
42
0.41421356237309503
10
-54.125000000000007
20
40.624999993107068
0
LWPOLYLINE
5
119
100
AcDbEntity
8
0
100
AcDbPolyline
90
8
70
1
43
0.0
10
-191.14375000000001
20
21.574999993107067
42
0.41421356237304563
10
-190.64375000000001
20
22.074999993107063
10
-190.64375000000001
20
35.07499999310707
42
0.41421356237310281
10
-191.14375000000001
20
35.574999993107078
10
-204.14375000000004
20
35.574999993107063
42
0.41421356237308204
10
-204.64375000000004
20
35.07499999310707
10
-204.64375000000004
20
22.074999993107063
42
0.41421356237313145
10
-204.14375000000004
20
21.574999993107056
0
LWPOLYLINE
5
120
100
AcDbEntity
8
0
100
AcDbPolyline
90
8
70
1
43
0.0
10
-131.61250000000001
20
21.574999993107067
42
0.41421356237310542
10
-131.11250000000001
20
22.074999993107063
10
-131.11250000000001
20
35.07499999310707
42
0.41421356237309503
10
-131.61250000000001
20
35.574999993107063
10
-144.61250000000001
20
35.574999993107063
42
0.4142135623730846
10
-145.11250000000001
20
35.07499999310707
10
-145.11250000000001
20
22.074999993107063
42
0.41421356237307161
10
-144.61250000000001
20
21.574999993107056
0
LWPOLYLINE
5
121
100
AcDbEntity
8
0
100
AcDbPolyline
90
8
70
1
43
0.0
10
-169.71250000000001
20
21.574999993107067
42
0.41421356237307683
10
-169.21249999999998
20
22.074999993107063
10
-169.21250000000001
20
35.07499999310707
42
0.41421356237313406
10
-169.71250000000001
20
35.574999993107078
10
-182.71250000000003
20
35.574999993107063
42
0.41421356237305079
10
-183.21250000000003
20
35.07499999310707
10
-183.21250000000003
20
22.074999993107063
42
0.41421356237310025
10
-182.71250000000003
20
21.574999993107056
0
LWPOLYLINE
5
122
100
AcDbEntity
8
0
100
AcDbPolyline
90
8
70
1
43
0.0
10
-2.5249999999999999
20
54.124999993107075
10
-2.5249999999999986
20
41.124999993107068
42
-0.41421356237309698
10
-3.0249999999999999
20
40.624999993107068
10
-16.024999999999999
20
40.624999993107068
42
-0.41421356237309631
10
-16.525000000000002
20
41.124999993107068
10
-16.525000000000002
20
54.124999993107075
42
-0.41421356237309764
10
-16.024999999999999
20
54.624999993107075
10
-3.0249999999999999
20
54.624999993107075
42
-0.41421356237309664
0
LWPOLYLINE
5
123
100
AcDbEntity
8
0
100
AcDbPolyline
90
8
70
1
43
0.0
10
-155.42500000000001
20
40.624999993107068
42
0.41421356237310542
10
-154.92500000000004
20
41.124999993107068
10
-154.92500000000001
20
54.124999993107075
42
0.41421356237307944
10
-155.42500000000001
20
54.624999993107075
10
-168.42500000000001
20
54.624999993107075
42
0.4142135623730222
10
-168.92500000000001
20
54.124999993107075
10
-168.92500000000001
20
41.124999993107068
42
0.41421356237312623
10
-168.42500000000001
20
40.624999993107068
0
LWPOLYLINE
5
124
100
AcDbEntity
8
0
100
AcDbPolyline
90
8
70
1
43
0.0
10
-136.375
20
40.624999993107068
42
0.41421356237310542
10
-135.87500000000003
20
41.124999993107068
10
-135.875
20
54.124999993107075
42
0.41421356237307944
10
-136.375
20
54.624999993107075
10
-149.375
20
54.624999993107075
42
0.41421356237310542
10
-149.875
20
54.124999993107075
10
-149.875
20
41.124999993107068
42
0.41421356237310025
10
-149.375
20
40.62499999310706
0
LWPOLYLINE
5
125
100
AcDbEntity
8
0
100
AcDbPolyline
90
8
70
1
43
0.0
10
-98.275000000000006
20
50.149999993107073
42
0.41421356237310542
10
-97.775000000000006
20
50.649999993107073
10
-97.775000000000006
20
63.649999993107073
42
0.41421356237309503
10
-98.275000000000006
20
64.149999993107073
10
-111.27500000000001
20
64.149999993107073
42
0.41421356237308982
10
-111.77500000000002
20
63.649999993107073
10
-111.77500000000002
20
50.649999993107073
42
0.41421356237310025
10
-111.27500000000001
20
50.149999993107066
0
LWPOLYLINE
5
126
100
AcDbEntity
8
0
100
AcDbPolyline
90
8
70
1
43
0.0
10
-60.174999999999997
20
40.624999993107068
42
0.41421356237310542
10
-59.675000000000004
20
41.124999993107068
10
-59.675000000000004
20
54.124999993107075
42
0.41421356237310542
10
-60.174999999999997
20
54.624999993107075
10
-73.174999999999997
20
54.624999993107075
42
0.41421356237309503
10
-73.674999999999997
20
54.124999993107075
10
-73.674999999999997
20
41.124999993107068
42
0.41421356237309503
10
-73.174999999999997
20
40.624999993107068
0
LWPOLYLINE
5
127
100
AcDbEntity
8
0
100
AcDbPolyline
90
8
70
1
43
0.0
10
-174.47500000000002
20
40.624999993107068
42
0.41421356237307422
10
-173.97499999999997
20
41.124999993107068
10
-173.97500000000002
20
54.124999993107075
42
0.41421356237313667
10
-174.47500000000002
20
54.624999993107082
10
-187.47499999999999
20
54.624999993107075
42
0.41421356237307422
10
-187.97499999999999
20
54.124999993107075
10
-187.97499999999999
20
41.124999993107068
42
0.41421356237313667
10
-187.47499999999999
20
40.62499999310706
0
LWPOLYLINE
5
128
100
AcDbEntity
8
0
100
AcDbPolyline
90
8
70
1
43
0.0
10
-69.700000000000003
20
2.5249999931070652
42
0.41421356237309664
10
-69.200000000000003
20
3.0249999931070648
10
-69.200000000000003
20
16.024999993107066
42
0.41421356237309764
10
-69.700000000000003
20
16.524999993107063
10
-82.700000000000017
20
16.524999993107066
42
0.41421356237307549
10
-83.200000000000017
20
16.024999993107066
10
-83.200000000000017
20
3.0249999931070652
42
0.41421356237307355
10
-82.700000000000017
20
2.5249999931070581
0
LWPOLYLINE
5
129
100
AcDbEntity
8
0
100
AcDbPolyline
90
8
70
1
43
0.0
10
-7.7875000000000005
20
2.5249999931070652
42
0.41421356237309342
10
-7.2874999999999996
20
3.0249999931070648
10
-7.2874999999999996
20
16.024999993107066
42
0.41421356237309243
10
-7.7875000000000005
20
16.524999993107066
10
-20.787500000000001
20
16.524999993107066
42
0.41421356237309503
10
-21.287500000000001
20
16.024999993107066
10
-21.287500000000001
20
3.0249999931070652
42
0.41421356237309537
10
-20.787500000000001
20
2.524999993107067
0
LWPOLYLINE
5
130
100
AcDbEntity
8
0
100
AcDbPolyline
90
8
70
1
43
0.0
10
-88.25
20
16.024999993107066
10
-88.249999999999972
20
3.0249999931070648
42
-0.41421356237310514
10
-88.75
20
2.5249999931070652
10
-101.75
20
2.5249999931070595
42
-0.41421356237309437
10
-102.25000000000001
20
3.0249999931070652
10
-102.25000000000001
20
16.024999993107066
42
-0.41421356237310675
10
-101.75
20
16.524999993107066
10
-88.75
20
16.524999993107073
42
-0.41421356237309631
0
LWPOLYLINE
5
131
100
AcDbEntity
8
0
100
AcDbPolyline
90
8
70
1
43
0.0
10
-31.600000000000001
20
2.5249999931070652
42
0.41421356237309537
10
-31.100000000000001
20
3.0249999931070648
10
-31.100000000000001
20
16.024999993107066
42
0.41421356237309631
10
-31.600000000000001
20
16.524999993107066
10
-44.600000000000001
20
16.524999993107066
42
0.4142135623730937
10
-45.099999999999994
20
16.024999993107066
10
-45.099999999999994
20
3.0249999931070652
42
0.41421356237309404
10
-44.600000000000001
20
2.524999993107067
0
ENDSEC
0
SECTION
2
OBJECTS
0
DICTIONARY
5
C
100
AcDbDictionary
3
ACAD_GROUP
350
D
3
ACAD_MLINESTYLE
350
17
0
DICTIONARY
5
D
100
AcDbDictionary
0
DICTIONARY
5
1A
330
C
100
AcDbDictionary
0
DICTIONARY
5
17
100
AcDbDictionary
0
ENDSEC
0
EOF
