%TF.GenerationSoftware,KiCad,Pcbnew,7.0.6*%
%TF.CreationDate,2023-07-12T00:24:14-04:00*%
%TF.ProjectId,littolRP2040,6c697474-6f6c-4525-9032-3034302e6b69,rev?*%
%TF.SameCoordinates,Original*%
%TF.FileFunction,Drillmap*%
%TF.FilePolarity,Positive*%
%FSLAX45Y45*%
G04 Gerber Fmt 4.5, Leading zero omitted, Abs format (unit mm)*
G04 Created by KiCad (PCBNEW 7.0.6) date 2023-07-12 00:24:14*
%MOMM*%
%LPD*%
G01*
G04 APERTURE LIST*
%ADD10C,0.100000*%
%ADD11C,0.200000*%
%ADD12C,0.040000*%
%ADD13C,0.060000*%
G04 APERTURE END LIST*
D10*
X4762512Y-12035557D02*
G75*
G03*
X4990424Y-12263468I227908J-3D01*
G01*
X5000638Y-6548452D02*
G75*
G03*
X4762512Y-6786580I2J-238128D01*
G01*
X25479439Y-12263465D02*
G75*
G03*
X25717565Y-12025343I1J238125D01*
G01*
X25717566Y-6776366D02*
G75*
G03*
X25479439Y-6548454I-233016J-5104D01*
G01*
X16906918Y-13215973D02*
G75*
G03*
X17145043Y-12977845I2J238123D01*
G01*
X13335034Y-12988059D02*
X13335034Y-12263468D01*
X17145043Y-12263468D02*
X17145043Y-12977845D01*
X13335039Y-12988059D02*
G75*
G03*
X13562945Y-13215971I227911J-1D01*
G01*
X25717565Y-6776366D02*
X25717565Y-12025343D01*
X13335034Y-12263468D02*
X4990424Y-12263468D01*
X25479439Y-12263468D02*
X17145043Y-12263468D01*
X5000638Y-6548454D02*
X25479439Y-6548454D01*
X16906918Y-13215971D02*
X13562945Y-13215971D01*
X4762512Y-12035557D02*
X4762512Y-6786580D01*
D11*
D12*
X4980638Y-11052840D02*
X5020638Y-11092840D01*
X5020638Y-11052840D02*
X4980638Y-11092840D01*
X5218763Y-9147836D02*
X5258763Y-9187836D01*
X5258763Y-9147836D02*
X5218763Y-9187836D01*
X5456889Y-7242831D02*
X5496889Y-7282831D01*
X5496889Y-7242831D02*
X5456889Y-7282831D01*
X6885642Y-11052840D02*
X6925642Y-11092840D01*
X6925642Y-11052840D02*
X6885642Y-11092840D01*
X7361894Y-9147836D02*
X7401894Y-9187836D01*
X7401894Y-9147836D02*
X7361894Y-9187836D01*
X7838145Y-7242831D02*
X7878145Y-7282831D01*
X7878145Y-7242831D02*
X7838145Y-7282831D01*
X8790647Y-11052840D02*
X8830647Y-11092840D01*
X8830647Y-11052840D02*
X8790647Y-11092840D01*
X9266898Y-9147836D02*
X9306898Y-9187836D01*
X9306898Y-9147836D02*
X9266898Y-9187836D01*
X9743150Y-7242831D02*
X9783150Y-7282831D01*
X9783150Y-7242831D02*
X9743150Y-7282831D01*
X10695652Y-11052840D02*
X10735652Y-11092840D01*
X10735652Y-11052840D02*
X10695652Y-11092840D01*
X11171903Y-9147836D02*
X11211903Y-9187836D01*
X11211903Y-9147836D02*
X11171903Y-9187836D01*
X11648154Y-7242831D02*
X11688154Y-7282831D01*
X11688154Y-7242831D02*
X11648154Y-7282831D01*
X13076908Y-9147836D02*
X13116908Y-9187836D01*
X13116908Y-9147836D02*
X13076908Y-9187836D01*
X13434096Y-7480956D02*
X13474096Y-7520956D01*
X13474096Y-7480956D02*
X13434096Y-7520956D01*
X13553159Y-12005343D02*
X13593159Y-12045343D01*
X13593159Y-12005343D02*
X13553159Y-12045343D01*
X14088942Y-10397995D02*
X14128942Y-10437995D01*
X14128942Y-10397995D02*
X14088942Y-10437995D01*
X14088942Y-10695652D02*
X14128942Y-10735652D01*
X14128942Y-10695652D02*
X14088942Y-10735652D01*
X14208005Y-11886280D02*
X14248005Y-11926280D01*
X14248005Y-11886280D02*
X14208005Y-11926280D01*
X14267536Y-10253619D02*
X14307536Y-10293619D01*
X14307536Y-10253619D02*
X14267536Y-10293619D01*
X14362536Y-9862212D02*
X14402536Y-9902212D01*
X14402536Y-9862212D02*
X14362536Y-9902212D01*
X14386599Y-11290966D02*
X14426599Y-11330966D01*
X14426599Y-11290966D02*
X14386599Y-11330966D01*
X14505662Y-11290966D02*
X14545662Y-11330966D01*
X14545662Y-11290966D02*
X14505662Y-11330966D01*
X14576724Y-9862212D02*
X14616724Y-9902212D01*
X14616724Y-9862212D02*
X14576724Y-9902212D01*
X14624724Y-11290966D02*
X14664724Y-11330966D01*
X14664724Y-11290966D02*
X14624724Y-11330966D01*
X14743787Y-8195333D02*
X14783787Y-8235333D01*
X14783787Y-8195333D02*
X14743787Y-8235333D01*
X14743787Y-8348615D02*
X14783787Y-8388615D01*
X14783787Y-8348615D02*
X14743787Y-8388615D01*
X14743787Y-12005343D02*
X14783787Y-12045343D01*
X14783787Y-12005343D02*
X14743787Y-12045343D01*
X14922381Y-9802681D02*
X14962381Y-9842681D01*
X14962381Y-9802681D02*
X14922381Y-9842681D01*
X14981913Y-7421425D02*
X15021913Y-7461425D01*
X15021913Y-7421425D02*
X14981913Y-7461425D01*
X14981913Y-7719082D02*
X15021913Y-7759082D01*
X15021913Y-7719082D02*
X14981913Y-7759082D01*
X15100976Y-9266898D02*
X15140976Y-9306898D01*
X15140976Y-9266898D02*
X15100976Y-9306898D01*
X15100976Y-10457526D02*
X15140976Y-10497526D01*
X15140976Y-10457526D02*
X15100976Y-10497526D01*
X15100976Y-10576589D02*
X15140976Y-10616589D01*
X15140976Y-10576589D02*
X15100976Y-10616589D01*
X15100976Y-10695652D02*
X15140976Y-10735652D01*
X15140976Y-10695652D02*
X15100976Y-10735652D01*
X15220038Y-10457526D02*
X15260038Y-10497526D01*
X15260038Y-10457526D02*
X15220038Y-10497526D01*
X15220038Y-10576589D02*
X15260038Y-10616589D01*
X15260038Y-10576589D02*
X15220038Y-10616589D01*
X15220038Y-10695652D02*
X15260038Y-10735652D01*
X15260038Y-10695652D02*
X15220038Y-10735652D01*
X15339101Y-9564555D02*
X15379101Y-9604555D01*
X15379101Y-9564555D02*
X15339101Y-9604555D01*
X15339101Y-10457526D02*
X15379101Y-10497526D01*
X15379101Y-10457526D02*
X15339101Y-10497526D01*
X15339101Y-10576589D02*
X15379101Y-10616589D01*
X15379101Y-10576589D02*
X15339101Y-10616589D01*
X15339101Y-10695652D02*
X15379101Y-10735652D01*
X15379101Y-10695652D02*
X15339101Y-10735652D01*
X15339101Y-11290966D02*
X15379101Y-11330966D01*
X15379101Y-11290966D02*
X15339101Y-11330966D01*
X15339101Y-11529092D02*
X15379101Y-11569092D01*
X15379101Y-11529092D02*
X15339101Y-11569092D01*
X15458164Y-12005343D02*
X15498164Y-12045343D01*
X15498164Y-12005343D02*
X15458164Y-12045343D01*
X15577227Y-9445493D02*
X15617227Y-9485493D01*
X15617227Y-9445493D02*
X15577227Y-9485493D01*
X15577227Y-9624087D02*
X15617227Y-9664087D01*
X15617227Y-9624087D02*
X15577227Y-9664087D01*
X15696290Y-8671584D02*
X15736290Y-8711584D01*
X15736290Y-8671584D02*
X15696290Y-8711584D01*
X15696290Y-10159869D02*
X15736290Y-10199869D01*
X15736290Y-10159869D02*
X15696290Y-10199869D01*
X15755821Y-10517058D02*
X15795821Y-10557058D01*
X15795821Y-10517058D02*
X15755821Y-10557058D01*
X15815352Y-10397995D02*
X15855352Y-10437995D01*
X15855352Y-10397995D02*
X15815352Y-10437995D01*
X15934415Y-9147836D02*
X15974415Y-9187836D01*
X15974415Y-9147836D02*
X15934415Y-9187836D01*
X15934415Y-10814715D02*
X15974415Y-10854715D01*
X15974415Y-10814715D02*
X15934415Y-10854715D01*
X16053478Y-8195333D02*
X16093478Y-8235333D01*
X16093478Y-8195333D02*
X16053478Y-8235333D01*
X16053478Y-8348615D02*
X16093478Y-8388615D01*
X16093478Y-8348615D02*
X16053478Y-8388615D01*
X16113009Y-9921744D02*
X16153009Y-9961744D01*
X16153009Y-9921744D02*
X16113009Y-9961744D01*
X16886918Y-7719082D02*
X16926918Y-7759082D01*
X16926918Y-7719082D02*
X16886918Y-7759082D01*
X17363169Y-7242831D02*
X17403169Y-7282831D01*
X17403169Y-7242831D02*
X17363169Y-7282831D01*
X17839420Y-9147836D02*
X17879420Y-9187836D01*
X17879420Y-9147836D02*
X17839420Y-9187836D01*
X18315671Y-11052840D02*
X18355671Y-11092840D01*
X18355671Y-11052840D02*
X18315671Y-11092840D01*
X19268174Y-7242831D02*
X19308174Y-7282831D01*
X19308174Y-7242831D02*
X19268174Y-7282831D01*
X19744425Y-9147836D02*
X19784425Y-9187836D01*
X19784425Y-9147836D02*
X19744425Y-9187836D01*
X20220676Y-11052840D02*
X20260676Y-11092840D01*
X20260676Y-11052840D02*
X20220676Y-11092840D01*
X21173178Y-7242831D02*
X21213178Y-7282831D01*
X21213178Y-7242831D02*
X21173178Y-7282831D01*
X21649430Y-9147836D02*
X21689430Y-9187836D01*
X21689430Y-9147836D02*
X21649430Y-9187836D01*
X22125681Y-11052840D02*
X22165681Y-11092840D01*
X22165681Y-11052840D02*
X22125681Y-11092840D01*
X23554434Y-7242831D02*
X23594434Y-7282831D01*
X23594434Y-7242831D02*
X23554434Y-7282831D01*
X23792560Y-9147836D02*
X23832560Y-9187836D01*
X23832560Y-9147836D02*
X23792560Y-9187836D01*
X24030686Y-11052840D02*
X24070686Y-11092840D01*
X24070686Y-11052840D02*
X24030686Y-11092840D01*
D13*
X14838038Y-6681580D02*
G75*
G03*
X14838038Y-6681580I-30000J0D01*
G01*
D11*
X14778038Y-6651580D02*
X14778038Y-6711580D01*
X14778038Y-6711580D02*
G75*
G03*
X14838038Y-6711580I30000J0D01*
G01*
X14838038Y-6711580D02*
X14838038Y-6651580D01*
X14838038Y-6651580D02*
G75*
G03*
X14778038Y-6651580I-30000J0D01*
G01*
D13*
X14838038Y-7099580D02*
G75*
G03*
X14838038Y-7099580I-30000J0D01*
G01*
D11*
X14778038Y-7044580D02*
X14778038Y-7154580D01*
X14778038Y-7154580D02*
G75*
G03*
X14838038Y-7154580I30000J0D01*
G01*
X14838038Y-7154580D02*
X14838038Y-7044580D01*
X14838038Y-7044580D02*
G75*
G03*
X14778038Y-7044580I-30000J0D01*
G01*
D13*
X15702038Y-6681580D02*
G75*
G03*
X15702038Y-6681580I-30000J0D01*
G01*
D11*
X15642038Y-6651580D02*
X15642038Y-6711580D01*
X15642038Y-6711580D02*
G75*
G03*
X15702038Y-6711580I30000J0D01*
G01*
X15702038Y-6711580D02*
X15702038Y-6651580D01*
X15702038Y-6651580D02*
G75*
G03*
X15642038Y-6651580I-30000J0D01*
G01*
D13*
X15702038Y-7099580D02*
G75*
G03*
X15702038Y-7099580I-30000J0D01*
G01*
D11*
X15642038Y-7044580D02*
X15642038Y-7154580D01*
X15642038Y-7154580D02*
G75*
G03*
X15702038Y-7154580I30000J0D01*
G01*
X15702038Y-7154580D02*
X15702038Y-7044580D01*
X15702038Y-7044580D02*
G75*
G03*
X15642038Y-7044580I-30000J0D01*
G01*
D10*
X11842782Y-11975343D02*
X11842782Y-12075343D01*
X11792782Y-12025343D02*
X11892782Y-12025343D01*
X12096782Y-11975343D02*
X12096782Y-12075343D01*
X12046782Y-12025343D02*
X12146782Y-12025343D01*
X12350782Y-11975343D02*
X12350782Y-12075343D01*
X12300782Y-12025343D02*
X12400782Y-12025343D01*
X12604782Y-11975343D02*
X12604782Y-12075343D01*
X12554782Y-12025343D02*
X12654782Y-12025343D01*
X12858782Y-11975343D02*
X12858782Y-12075343D01*
X12808782Y-12025343D02*
X12908782Y-12025343D01*
D11*
X5018288Y-13532457D02*
X5018288Y-13332457D01*
X5018288Y-13332457D02*
X5065907Y-13332457D01*
X5065907Y-13332457D02*
X5094479Y-13341981D01*
X5094479Y-13341981D02*
X5113527Y-13361028D01*
X5113527Y-13361028D02*
X5123050Y-13380076D01*
X5123050Y-13380076D02*
X5132574Y-13418171D01*
X5132574Y-13418171D02*
X5132574Y-13446743D01*
X5132574Y-13446743D02*
X5123050Y-13484838D01*
X5123050Y-13484838D02*
X5113527Y-13503885D01*
X5113527Y-13503885D02*
X5094479Y-13522933D01*
X5094479Y-13522933D02*
X5065907Y-13532457D01*
X5065907Y-13532457D02*
X5018288Y-13532457D01*
X5218288Y-13532457D02*
X5218288Y-13399124D01*
X5218288Y-13437219D02*
X5227812Y-13418171D01*
X5227812Y-13418171D02*
X5237336Y-13408647D01*
X5237336Y-13408647D02*
X5256384Y-13399124D01*
X5256384Y-13399124D02*
X5275431Y-13399124D01*
X5342098Y-13532457D02*
X5342098Y-13399124D01*
X5342098Y-13332457D02*
X5332574Y-13341981D01*
X5332574Y-13341981D02*
X5342098Y-13351505D01*
X5342098Y-13351505D02*
X5351622Y-13341981D01*
X5351622Y-13341981D02*
X5342098Y-13332457D01*
X5342098Y-13332457D02*
X5342098Y-13351505D01*
X5465907Y-13532457D02*
X5446860Y-13522933D01*
X5446860Y-13522933D02*
X5437336Y-13503885D01*
X5437336Y-13503885D02*
X5437336Y-13332457D01*
X5570669Y-13532457D02*
X5551622Y-13522933D01*
X5551622Y-13522933D02*
X5542098Y-13503885D01*
X5542098Y-13503885D02*
X5542098Y-13332457D01*
X5799241Y-13532457D02*
X5799241Y-13332457D01*
X5799241Y-13332457D02*
X5865907Y-13475314D01*
X5865907Y-13475314D02*
X5932574Y-13332457D01*
X5932574Y-13332457D02*
X5932574Y-13532457D01*
X6113526Y-13532457D02*
X6113526Y-13427695D01*
X6113526Y-13427695D02*
X6104003Y-13408647D01*
X6104003Y-13408647D02*
X6084955Y-13399124D01*
X6084955Y-13399124D02*
X6046860Y-13399124D01*
X6046860Y-13399124D02*
X6027812Y-13408647D01*
X6113526Y-13522933D02*
X6094479Y-13532457D01*
X6094479Y-13532457D02*
X6046860Y-13532457D01*
X6046860Y-13532457D02*
X6027812Y-13522933D01*
X6027812Y-13522933D02*
X6018288Y-13503885D01*
X6018288Y-13503885D02*
X6018288Y-13484838D01*
X6018288Y-13484838D02*
X6027812Y-13465790D01*
X6027812Y-13465790D02*
X6046860Y-13456266D01*
X6046860Y-13456266D02*
X6094479Y-13456266D01*
X6094479Y-13456266D02*
X6113526Y-13446743D01*
X6208765Y-13399124D02*
X6208765Y-13599124D01*
X6208765Y-13408647D02*
X6227812Y-13399124D01*
X6227812Y-13399124D02*
X6265907Y-13399124D01*
X6265907Y-13399124D02*
X6284955Y-13408647D01*
X6284955Y-13408647D02*
X6294479Y-13418171D01*
X6294479Y-13418171D02*
X6304003Y-13437219D01*
X6304003Y-13437219D02*
X6304003Y-13494362D01*
X6304003Y-13494362D02*
X6294479Y-13513409D01*
X6294479Y-13513409D02*
X6284955Y-13522933D01*
X6284955Y-13522933D02*
X6265907Y-13532457D01*
X6265907Y-13532457D02*
X6227812Y-13532457D01*
X6227812Y-13532457D02*
X6208765Y-13522933D01*
X6389717Y-13513409D02*
X6399241Y-13522933D01*
X6399241Y-13522933D02*
X6389717Y-13532457D01*
X6389717Y-13532457D02*
X6380193Y-13522933D01*
X6380193Y-13522933D02*
X6389717Y-13513409D01*
X6389717Y-13513409D02*
X6389717Y-13532457D01*
X6389717Y-13408647D02*
X6399241Y-13418171D01*
X6399241Y-13418171D02*
X6389717Y-13427695D01*
X6389717Y-13427695D02*
X6380193Y-13418171D01*
X6380193Y-13418171D02*
X6389717Y-13408647D01*
X6389717Y-13408647D02*
X6389717Y-13427695D01*
D12*
X4717512Y-13840973D02*
X4757512Y-13880973D01*
X4757512Y-13840973D02*
X4717512Y-13880973D01*
D11*
X5056384Y-13752457D02*
X5075431Y-13752457D01*
X5075431Y-13752457D02*
X5094479Y-13761981D01*
X5094479Y-13761981D02*
X5104003Y-13771505D01*
X5104003Y-13771505D02*
X5113527Y-13790552D01*
X5113527Y-13790552D02*
X5123050Y-13828647D01*
X5123050Y-13828647D02*
X5123050Y-13876266D01*
X5123050Y-13876266D02*
X5113527Y-13914362D01*
X5113527Y-13914362D02*
X5104003Y-13933409D01*
X5104003Y-13933409D02*
X5094479Y-13942933D01*
X5094479Y-13942933D02*
X5075431Y-13952457D01*
X5075431Y-13952457D02*
X5056384Y-13952457D01*
X5056384Y-13952457D02*
X5037336Y-13942933D01*
X5037336Y-13942933D02*
X5027812Y-13933409D01*
X5027812Y-13933409D02*
X5018288Y-13914362D01*
X5018288Y-13914362D02*
X5008765Y-13876266D01*
X5008765Y-13876266D02*
X5008765Y-13828647D01*
X5008765Y-13828647D02*
X5018288Y-13790552D01*
X5018288Y-13790552D02*
X5027812Y-13771505D01*
X5027812Y-13771505D02*
X5037336Y-13761981D01*
X5037336Y-13761981D02*
X5056384Y-13752457D01*
X5208765Y-13933409D02*
X5218288Y-13942933D01*
X5218288Y-13942933D02*
X5208765Y-13952457D01*
X5208765Y-13952457D02*
X5199241Y-13942933D01*
X5199241Y-13942933D02*
X5208765Y-13933409D01*
X5208765Y-13933409D02*
X5208765Y-13952457D01*
X5389717Y-13819124D02*
X5389717Y-13952457D01*
X5342098Y-13742933D02*
X5294479Y-13885790D01*
X5294479Y-13885790D02*
X5418288Y-13885790D01*
X5532574Y-13752457D02*
X5551622Y-13752457D01*
X5551622Y-13752457D02*
X5570669Y-13761981D01*
X5570669Y-13761981D02*
X5580193Y-13771505D01*
X5580193Y-13771505D02*
X5589717Y-13790552D01*
X5589717Y-13790552D02*
X5599241Y-13828647D01*
X5599241Y-13828647D02*
X5599241Y-13876266D01*
X5599241Y-13876266D02*
X5589717Y-13914362D01*
X5589717Y-13914362D02*
X5580193Y-13933409D01*
X5580193Y-13933409D02*
X5570669Y-13942933D01*
X5570669Y-13942933D02*
X5551622Y-13952457D01*
X5551622Y-13952457D02*
X5532574Y-13952457D01*
X5532574Y-13952457D02*
X5513527Y-13942933D01*
X5513527Y-13942933D02*
X5504003Y-13933409D01*
X5504003Y-13933409D02*
X5494479Y-13914362D01*
X5494479Y-13914362D02*
X5484955Y-13876266D01*
X5484955Y-13876266D02*
X5484955Y-13828647D01*
X5484955Y-13828647D02*
X5494479Y-13790552D01*
X5494479Y-13790552D02*
X5504003Y-13771505D01*
X5504003Y-13771505D02*
X5513527Y-13761981D01*
X5513527Y-13761981D02*
X5532574Y-13752457D01*
X5723050Y-13752457D02*
X5742098Y-13752457D01*
X5742098Y-13752457D02*
X5761146Y-13761981D01*
X5761146Y-13761981D02*
X5770669Y-13771505D01*
X5770669Y-13771505D02*
X5780193Y-13790552D01*
X5780193Y-13790552D02*
X5789717Y-13828647D01*
X5789717Y-13828647D02*
X5789717Y-13876266D01*
X5789717Y-13876266D02*
X5780193Y-13914362D01*
X5780193Y-13914362D02*
X5770669Y-13933409D01*
X5770669Y-13933409D02*
X5761146Y-13942933D01*
X5761146Y-13942933D02*
X5742098Y-13952457D01*
X5742098Y-13952457D02*
X5723050Y-13952457D01*
X5723050Y-13952457D02*
X5704003Y-13942933D01*
X5704003Y-13942933D02*
X5694479Y-13933409D01*
X5694479Y-13933409D02*
X5684955Y-13914362D01*
X5684955Y-13914362D02*
X5675431Y-13876266D01*
X5675431Y-13876266D02*
X5675431Y-13828647D01*
X5675431Y-13828647D02*
X5684955Y-13790552D01*
X5684955Y-13790552D02*
X5694479Y-13771505D01*
X5694479Y-13771505D02*
X5704003Y-13761981D01*
X5704003Y-13761981D02*
X5723050Y-13752457D01*
X5875431Y-13952457D02*
X5875431Y-13819124D01*
X5875431Y-13838171D02*
X5884955Y-13828647D01*
X5884955Y-13828647D02*
X5904003Y-13819124D01*
X5904003Y-13819124D02*
X5932574Y-13819124D01*
X5932574Y-13819124D02*
X5951622Y-13828647D01*
X5951622Y-13828647D02*
X5961146Y-13847695D01*
X5961146Y-13847695D02*
X5961146Y-13952457D01*
X5961146Y-13847695D02*
X5970669Y-13828647D01*
X5970669Y-13828647D02*
X5989717Y-13819124D01*
X5989717Y-13819124D02*
X6018288Y-13819124D01*
X6018288Y-13819124D02*
X6037336Y-13828647D01*
X6037336Y-13828647D02*
X6046860Y-13847695D01*
X6046860Y-13847695D02*
X6046860Y-13952457D01*
X6142098Y-13952457D02*
X6142098Y-13819124D01*
X6142098Y-13838171D02*
X6151622Y-13828647D01*
X6151622Y-13828647D02*
X6170669Y-13819124D01*
X6170669Y-13819124D02*
X6199241Y-13819124D01*
X6199241Y-13819124D02*
X6218288Y-13828647D01*
X6218288Y-13828647D02*
X6227812Y-13847695D01*
X6227812Y-13847695D02*
X6227812Y-13952457D01*
X6227812Y-13847695D02*
X6237336Y-13828647D01*
X6237336Y-13828647D02*
X6256384Y-13819124D01*
X6256384Y-13819124D02*
X6284955Y-13819124D01*
X6284955Y-13819124D02*
X6304003Y-13828647D01*
X6304003Y-13828647D02*
X6313527Y-13847695D01*
X6313527Y-13847695D02*
X6313527Y-13952457D01*
X6704003Y-13742933D02*
X6532574Y-14000076D01*
X6961146Y-13752457D02*
X6980193Y-13752457D01*
X6980193Y-13752457D02*
X6999241Y-13761981D01*
X6999241Y-13761981D02*
X7008765Y-13771505D01*
X7008765Y-13771505D02*
X7018289Y-13790552D01*
X7018289Y-13790552D02*
X7027812Y-13828647D01*
X7027812Y-13828647D02*
X7027812Y-13876266D01*
X7027812Y-13876266D02*
X7018289Y-13914362D01*
X7018289Y-13914362D02*
X7008765Y-13933409D01*
X7008765Y-13933409D02*
X6999241Y-13942933D01*
X6999241Y-13942933D02*
X6980193Y-13952457D01*
X6980193Y-13952457D02*
X6961146Y-13952457D01*
X6961146Y-13952457D02*
X6942098Y-13942933D01*
X6942098Y-13942933D02*
X6932574Y-13933409D01*
X6932574Y-13933409D02*
X6923050Y-13914362D01*
X6923050Y-13914362D02*
X6913527Y-13876266D01*
X6913527Y-13876266D02*
X6913527Y-13828647D01*
X6913527Y-13828647D02*
X6923050Y-13790552D01*
X6923050Y-13790552D02*
X6932574Y-13771505D01*
X6932574Y-13771505D02*
X6942098Y-13761981D01*
X6942098Y-13761981D02*
X6961146Y-13752457D01*
X7113527Y-13933409D02*
X7123050Y-13942933D01*
X7123050Y-13942933D02*
X7113527Y-13952457D01*
X7113527Y-13952457D02*
X7104003Y-13942933D01*
X7104003Y-13942933D02*
X7113527Y-13933409D01*
X7113527Y-13933409D02*
X7113527Y-13952457D01*
X7246860Y-13752457D02*
X7265908Y-13752457D01*
X7265908Y-13752457D02*
X7284955Y-13761981D01*
X7284955Y-13761981D02*
X7294479Y-13771505D01*
X7294479Y-13771505D02*
X7304003Y-13790552D01*
X7304003Y-13790552D02*
X7313527Y-13828647D01*
X7313527Y-13828647D02*
X7313527Y-13876266D01*
X7313527Y-13876266D02*
X7304003Y-13914362D01*
X7304003Y-13914362D02*
X7294479Y-13933409D01*
X7294479Y-13933409D02*
X7284955Y-13942933D01*
X7284955Y-13942933D02*
X7265908Y-13952457D01*
X7265908Y-13952457D02*
X7246860Y-13952457D01*
X7246860Y-13952457D02*
X7227812Y-13942933D01*
X7227812Y-13942933D02*
X7218289Y-13933409D01*
X7218289Y-13933409D02*
X7208765Y-13914362D01*
X7208765Y-13914362D02*
X7199241Y-13876266D01*
X7199241Y-13876266D02*
X7199241Y-13828647D01*
X7199241Y-13828647D02*
X7208765Y-13790552D01*
X7208765Y-13790552D02*
X7218289Y-13771505D01*
X7218289Y-13771505D02*
X7227812Y-13761981D01*
X7227812Y-13761981D02*
X7246860Y-13752457D01*
X7504003Y-13952457D02*
X7389717Y-13952457D01*
X7446860Y-13952457D02*
X7446860Y-13752457D01*
X7446860Y-13752457D02*
X7427812Y-13781028D01*
X7427812Y-13781028D02*
X7408765Y-13800076D01*
X7408765Y-13800076D02*
X7389717Y-13809600D01*
X7684955Y-13752457D02*
X7589717Y-13752457D01*
X7589717Y-13752457D02*
X7580193Y-13847695D01*
X7580193Y-13847695D02*
X7589717Y-13838171D01*
X7589717Y-13838171D02*
X7608765Y-13828647D01*
X7608765Y-13828647D02*
X7656384Y-13828647D01*
X7656384Y-13828647D02*
X7675431Y-13838171D01*
X7675431Y-13838171D02*
X7684955Y-13847695D01*
X7684955Y-13847695D02*
X7694479Y-13866743D01*
X7694479Y-13866743D02*
X7694479Y-13914362D01*
X7694479Y-13914362D02*
X7684955Y-13933409D01*
X7684955Y-13933409D02*
X7675431Y-13942933D01*
X7675431Y-13942933D02*
X7656384Y-13952457D01*
X7656384Y-13952457D02*
X7608765Y-13952457D01*
X7608765Y-13952457D02*
X7589717Y-13942933D01*
X7589717Y-13942933D02*
X7580193Y-13933409D01*
X7761146Y-13752457D02*
X7894479Y-13752457D01*
X7894479Y-13752457D02*
X7808765Y-13952457D01*
X7961146Y-13752457D02*
X7961146Y-13790552D01*
X8037336Y-13752457D02*
X8037336Y-13790552D01*
X8332574Y-14028647D02*
X8323051Y-14019124D01*
X8323051Y-14019124D02*
X8304003Y-13990552D01*
X8304003Y-13990552D02*
X8294479Y-13971505D01*
X8294479Y-13971505D02*
X8284955Y-13942933D01*
X8284955Y-13942933D02*
X8275432Y-13895314D01*
X8275432Y-13895314D02*
X8275432Y-13857219D01*
X8275432Y-13857219D02*
X8284955Y-13809600D01*
X8284955Y-13809600D02*
X8294479Y-13781028D01*
X8294479Y-13781028D02*
X8304003Y-13761981D01*
X8304003Y-13761981D02*
X8323051Y-13733409D01*
X8323051Y-13733409D02*
X8332574Y-13723885D01*
X8494479Y-13752457D02*
X8456384Y-13752457D01*
X8456384Y-13752457D02*
X8437336Y-13761981D01*
X8437336Y-13761981D02*
X8427813Y-13771505D01*
X8427813Y-13771505D02*
X8408765Y-13800076D01*
X8408765Y-13800076D02*
X8399241Y-13838171D01*
X8399241Y-13838171D02*
X8399241Y-13914362D01*
X8399241Y-13914362D02*
X8408765Y-13933409D01*
X8408765Y-13933409D02*
X8418289Y-13942933D01*
X8418289Y-13942933D02*
X8437336Y-13952457D01*
X8437336Y-13952457D02*
X8475432Y-13952457D01*
X8475432Y-13952457D02*
X8494479Y-13942933D01*
X8494479Y-13942933D02*
X8504003Y-13933409D01*
X8504003Y-13933409D02*
X8513527Y-13914362D01*
X8513527Y-13914362D02*
X8513527Y-13866743D01*
X8513527Y-13866743D02*
X8504003Y-13847695D01*
X8504003Y-13847695D02*
X8494479Y-13838171D01*
X8494479Y-13838171D02*
X8475432Y-13828647D01*
X8475432Y-13828647D02*
X8437336Y-13828647D01*
X8437336Y-13828647D02*
X8418289Y-13838171D01*
X8418289Y-13838171D02*
X8408765Y-13847695D01*
X8408765Y-13847695D02*
X8399241Y-13866743D01*
X8627813Y-13838171D02*
X8608765Y-13828647D01*
X8608765Y-13828647D02*
X8599241Y-13819124D01*
X8599241Y-13819124D02*
X8589717Y-13800076D01*
X8589717Y-13800076D02*
X8589717Y-13790552D01*
X8589717Y-13790552D02*
X8599241Y-13771505D01*
X8599241Y-13771505D02*
X8608765Y-13761981D01*
X8608765Y-13761981D02*
X8627813Y-13752457D01*
X8627813Y-13752457D02*
X8665908Y-13752457D01*
X8665908Y-13752457D02*
X8684955Y-13761981D01*
X8684955Y-13761981D02*
X8694479Y-13771505D01*
X8694479Y-13771505D02*
X8704003Y-13790552D01*
X8704003Y-13790552D02*
X8704003Y-13800076D01*
X8704003Y-13800076D02*
X8694479Y-13819124D01*
X8694479Y-13819124D02*
X8684955Y-13828647D01*
X8684955Y-13828647D02*
X8665908Y-13838171D01*
X8665908Y-13838171D02*
X8627813Y-13838171D01*
X8627813Y-13838171D02*
X8608765Y-13847695D01*
X8608765Y-13847695D02*
X8599241Y-13857219D01*
X8599241Y-13857219D02*
X8589717Y-13876266D01*
X8589717Y-13876266D02*
X8589717Y-13914362D01*
X8589717Y-13914362D02*
X8599241Y-13933409D01*
X8599241Y-13933409D02*
X8608765Y-13942933D01*
X8608765Y-13942933D02*
X8627813Y-13952457D01*
X8627813Y-13952457D02*
X8665908Y-13952457D01*
X8665908Y-13952457D02*
X8684955Y-13942933D01*
X8684955Y-13942933D02*
X8694479Y-13933409D01*
X8694479Y-13933409D02*
X8704003Y-13914362D01*
X8704003Y-13914362D02*
X8704003Y-13876266D01*
X8704003Y-13876266D02*
X8694479Y-13857219D01*
X8694479Y-13857219D02*
X8684955Y-13847695D01*
X8684955Y-13847695D02*
X8665908Y-13838171D01*
X8942098Y-13952457D02*
X8942098Y-13752457D01*
X9027813Y-13952457D02*
X9027813Y-13847695D01*
X9027813Y-13847695D02*
X9018289Y-13828647D01*
X9018289Y-13828647D02*
X8999241Y-13819124D01*
X8999241Y-13819124D02*
X8970670Y-13819124D01*
X8970670Y-13819124D02*
X8951622Y-13828647D01*
X8951622Y-13828647D02*
X8942098Y-13838171D01*
X9151622Y-13952457D02*
X9132575Y-13942933D01*
X9132575Y-13942933D02*
X9123051Y-13933409D01*
X9123051Y-13933409D02*
X9113527Y-13914362D01*
X9113527Y-13914362D02*
X9113527Y-13857219D01*
X9113527Y-13857219D02*
X9123051Y-13838171D01*
X9123051Y-13838171D02*
X9132575Y-13828647D01*
X9132575Y-13828647D02*
X9151622Y-13819124D01*
X9151622Y-13819124D02*
X9180194Y-13819124D01*
X9180194Y-13819124D02*
X9199241Y-13828647D01*
X9199241Y-13828647D02*
X9208765Y-13838171D01*
X9208765Y-13838171D02*
X9218289Y-13857219D01*
X9218289Y-13857219D02*
X9218289Y-13914362D01*
X9218289Y-13914362D02*
X9208765Y-13933409D01*
X9208765Y-13933409D02*
X9199241Y-13942933D01*
X9199241Y-13942933D02*
X9180194Y-13952457D01*
X9180194Y-13952457D02*
X9151622Y-13952457D01*
X9332575Y-13952457D02*
X9313527Y-13942933D01*
X9313527Y-13942933D02*
X9304003Y-13923885D01*
X9304003Y-13923885D02*
X9304003Y-13752457D01*
X9484956Y-13942933D02*
X9465908Y-13952457D01*
X9465908Y-13952457D02*
X9427813Y-13952457D01*
X9427813Y-13952457D02*
X9408765Y-13942933D01*
X9408765Y-13942933D02*
X9399241Y-13923885D01*
X9399241Y-13923885D02*
X9399241Y-13847695D01*
X9399241Y-13847695D02*
X9408765Y-13828647D01*
X9408765Y-13828647D02*
X9427813Y-13819124D01*
X9427813Y-13819124D02*
X9465908Y-13819124D01*
X9465908Y-13819124D02*
X9484956Y-13828647D01*
X9484956Y-13828647D02*
X9494479Y-13847695D01*
X9494479Y-13847695D02*
X9494479Y-13866743D01*
X9494479Y-13866743D02*
X9399241Y-13885790D01*
X9570670Y-13942933D02*
X9589717Y-13952457D01*
X9589717Y-13952457D02*
X9627813Y-13952457D01*
X9627813Y-13952457D02*
X9646860Y-13942933D01*
X9646860Y-13942933D02*
X9656384Y-13923885D01*
X9656384Y-13923885D02*
X9656384Y-13914362D01*
X9656384Y-13914362D02*
X9646860Y-13895314D01*
X9646860Y-13895314D02*
X9627813Y-13885790D01*
X9627813Y-13885790D02*
X9599241Y-13885790D01*
X9599241Y-13885790D02*
X9580194Y-13876266D01*
X9580194Y-13876266D02*
X9570670Y-13857219D01*
X9570670Y-13857219D02*
X9570670Y-13847695D01*
X9570670Y-13847695D02*
X9580194Y-13828647D01*
X9580194Y-13828647D02*
X9599241Y-13819124D01*
X9599241Y-13819124D02*
X9627813Y-13819124D01*
X9627813Y-13819124D02*
X9646860Y-13828647D01*
X9723051Y-14028647D02*
X9732575Y-14019124D01*
X9732575Y-14019124D02*
X9751622Y-13990552D01*
X9751622Y-13990552D02*
X9761146Y-13971505D01*
X9761146Y-13971505D02*
X9770670Y-13942933D01*
X9770670Y-13942933D02*
X9780194Y-13895314D01*
X9780194Y-13895314D02*
X9780194Y-13857219D01*
X9780194Y-13857219D02*
X9770670Y-13809600D01*
X9770670Y-13809600D02*
X9761146Y-13781028D01*
X9761146Y-13781028D02*
X9751622Y-13761981D01*
X9751622Y-13761981D02*
X9732575Y-13733409D01*
X9732575Y-13733409D02*
X9723051Y-13723885D01*
D13*
X4757512Y-14124973D02*
G75*
G03*
X4757512Y-14124973I-30000J0D01*
G01*
D11*
X5056384Y-14016457D02*
X5075431Y-14016457D01*
X5075431Y-14016457D02*
X5094479Y-14025981D01*
X5094479Y-14025981D02*
X5104003Y-14035505D01*
X5104003Y-14035505D02*
X5113527Y-14054552D01*
X5113527Y-14054552D02*
X5123050Y-14092647D01*
X5123050Y-14092647D02*
X5123050Y-14140266D01*
X5123050Y-14140266D02*
X5113527Y-14178362D01*
X5113527Y-14178362D02*
X5104003Y-14197409D01*
X5104003Y-14197409D02*
X5094479Y-14206933D01*
X5094479Y-14206933D02*
X5075431Y-14216457D01*
X5075431Y-14216457D02*
X5056384Y-14216457D01*
X5056384Y-14216457D02*
X5037336Y-14206933D01*
X5037336Y-14206933D02*
X5027812Y-14197409D01*
X5027812Y-14197409D02*
X5018288Y-14178362D01*
X5018288Y-14178362D02*
X5008765Y-14140266D01*
X5008765Y-14140266D02*
X5008765Y-14092647D01*
X5008765Y-14092647D02*
X5018288Y-14054552D01*
X5018288Y-14054552D02*
X5027812Y-14035505D01*
X5027812Y-14035505D02*
X5037336Y-14025981D01*
X5037336Y-14025981D02*
X5056384Y-14016457D01*
X5208765Y-14197409D02*
X5218288Y-14206933D01*
X5218288Y-14206933D02*
X5208765Y-14216457D01*
X5208765Y-14216457D02*
X5199241Y-14206933D01*
X5199241Y-14206933D02*
X5208765Y-14197409D01*
X5208765Y-14197409D02*
X5208765Y-14216457D01*
X5389717Y-14016457D02*
X5351622Y-14016457D01*
X5351622Y-14016457D02*
X5332574Y-14025981D01*
X5332574Y-14025981D02*
X5323050Y-14035505D01*
X5323050Y-14035505D02*
X5304003Y-14064076D01*
X5304003Y-14064076D02*
X5294479Y-14102171D01*
X5294479Y-14102171D02*
X5294479Y-14178362D01*
X5294479Y-14178362D02*
X5304003Y-14197409D01*
X5304003Y-14197409D02*
X5313527Y-14206933D01*
X5313527Y-14206933D02*
X5332574Y-14216457D01*
X5332574Y-14216457D02*
X5370669Y-14216457D01*
X5370669Y-14216457D02*
X5389717Y-14206933D01*
X5389717Y-14206933D02*
X5399241Y-14197409D01*
X5399241Y-14197409D02*
X5408765Y-14178362D01*
X5408765Y-14178362D02*
X5408765Y-14130743D01*
X5408765Y-14130743D02*
X5399241Y-14111695D01*
X5399241Y-14111695D02*
X5389717Y-14102171D01*
X5389717Y-14102171D02*
X5370669Y-14092647D01*
X5370669Y-14092647D02*
X5332574Y-14092647D01*
X5332574Y-14092647D02*
X5313527Y-14102171D01*
X5313527Y-14102171D02*
X5304003Y-14111695D01*
X5304003Y-14111695D02*
X5294479Y-14130743D01*
X5532574Y-14016457D02*
X5551622Y-14016457D01*
X5551622Y-14016457D02*
X5570669Y-14025981D01*
X5570669Y-14025981D02*
X5580193Y-14035505D01*
X5580193Y-14035505D02*
X5589717Y-14054552D01*
X5589717Y-14054552D02*
X5599241Y-14092647D01*
X5599241Y-14092647D02*
X5599241Y-14140266D01*
X5599241Y-14140266D02*
X5589717Y-14178362D01*
X5589717Y-14178362D02*
X5580193Y-14197409D01*
X5580193Y-14197409D02*
X5570669Y-14206933D01*
X5570669Y-14206933D02*
X5551622Y-14216457D01*
X5551622Y-14216457D02*
X5532574Y-14216457D01*
X5532574Y-14216457D02*
X5513527Y-14206933D01*
X5513527Y-14206933D02*
X5504003Y-14197409D01*
X5504003Y-14197409D02*
X5494479Y-14178362D01*
X5494479Y-14178362D02*
X5484955Y-14140266D01*
X5484955Y-14140266D02*
X5484955Y-14092647D01*
X5484955Y-14092647D02*
X5494479Y-14054552D01*
X5494479Y-14054552D02*
X5504003Y-14035505D01*
X5504003Y-14035505D02*
X5513527Y-14025981D01*
X5513527Y-14025981D02*
X5532574Y-14016457D01*
X5723050Y-14016457D02*
X5742098Y-14016457D01*
X5742098Y-14016457D02*
X5761146Y-14025981D01*
X5761146Y-14025981D02*
X5770669Y-14035505D01*
X5770669Y-14035505D02*
X5780193Y-14054552D01*
X5780193Y-14054552D02*
X5789717Y-14092647D01*
X5789717Y-14092647D02*
X5789717Y-14140266D01*
X5789717Y-14140266D02*
X5780193Y-14178362D01*
X5780193Y-14178362D02*
X5770669Y-14197409D01*
X5770669Y-14197409D02*
X5761146Y-14206933D01*
X5761146Y-14206933D02*
X5742098Y-14216457D01*
X5742098Y-14216457D02*
X5723050Y-14216457D01*
X5723050Y-14216457D02*
X5704003Y-14206933D01*
X5704003Y-14206933D02*
X5694479Y-14197409D01*
X5694479Y-14197409D02*
X5684955Y-14178362D01*
X5684955Y-14178362D02*
X5675431Y-14140266D01*
X5675431Y-14140266D02*
X5675431Y-14092647D01*
X5675431Y-14092647D02*
X5684955Y-14054552D01*
X5684955Y-14054552D02*
X5694479Y-14035505D01*
X5694479Y-14035505D02*
X5704003Y-14025981D01*
X5704003Y-14025981D02*
X5723050Y-14016457D01*
X5875431Y-14216457D02*
X5875431Y-14083124D01*
X5875431Y-14102171D02*
X5884955Y-14092647D01*
X5884955Y-14092647D02*
X5904003Y-14083124D01*
X5904003Y-14083124D02*
X5932574Y-14083124D01*
X5932574Y-14083124D02*
X5951622Y-14092647D01*
X5951622Y-14092647D02*
X5961146Y-14111695D01*
X5961146Y-14111695D02*
X5961146Y-14216457D01*
X5961146Y-14111695D02*
X5970669Y-14092647D01*
X5970669Y-14092647D02*
X5989717Y-14083124D01*
X5989717Y-14083124D02*
X6018288Y-14083124D01*
X6018288Y-14083124D02*
X6037336Y-14092647D01*
X6037336Y-14092647D02*
X6046860Y-14111695D01*
X6046860Y-14111695D02*
X6046860Y-14216457D01*
X6142098Y-14216457D02*
X6142098Y-14083124D01*
X6142098Y-14102171D02*
X6151622Y-14092647D01*
X6151622Y-14092647D02*
X6170669Y-14083124D01*
X6170669Y-14083124D02*
X6199241Y-14083124D01*
X6199241Y-14083124D02*
X6218288Y-14092647D01*
X6218288Y-14092647D02*
X6227812Y-14111695D01*
X6227812Y-14111695D02*
X6227812Y-14216457D01*
X6227812Y-14111695D02*
X6237336Y-14092647D01*
X6237336Y-14092647D02*
X6256384Y-14083124D01*
X6256384Y-14083124D02*
X6284955Y-14083124D01*
X6284955Y-14083124D02*
X6304003Y-14092647D01*
X6304003Y-14092647D02*
X6313527Y-14111695D01*
X6313527Y-14111695D02*
X6313527Y-14216457D01*
X6704003Y-14006933D02*
X6532574Y-14264076D01*
X6961146Y-14016457D02*
X6980193Y-14016457D01*
X6980193Y-14016457D02*
X6999241Y-14025981D01*
X6999241Y-14025981D02*
X7008765Y-14035505D01*
X7008765Y-14035505D02*
X7018289Y-14054552D01*
X7018289Y-14054552D02*
X7027812Y-14092647D01*
X7027812Y-14092647D02*
X7027812Y-14140266D01*
X7027812Y-14140266D02*
X7018289Y-14178362D01*
X7018289Y-14178362D02*
X7008765Y-14197409D01*
X7008765Y-14197409D02*
X6999241Y-14206933D01*
X6999241Y-14206933D02*
X6980193Y-14216457D01*
X6980193Y-14216457D02*
X6961146Y-14216457D01*
X6961146Y-14216457D02*
X6942098Y-14206933D01*
X6942098Y-14206933D02*
X6932574Y-14197409D01*
X6932574Y-14197409D02*
X6923050Y-14178362D01*
X6923050Y-14178362D02*
X6913527Y-14140266D01*
X6913527Y-14140266D02*
X6913527Y-14092647D01*
X6913527Y-14092647D02*
X6923050Y-14054552D01*
X6923050Y-14054552D02*
X6932574Y-14035505D01*
X6932574Y-14035505D02*
X6942098Y-14025981D01*
X6942098Y-14025981D02*
X6961146Y-14016457D01*
X7113527Y-14197409D02*
X7123050Y-14206933D01*
X7123050Y-14206933D02*
X7113527Y-14216457D01*
X7113527Y-14216457D02*
X7104003Y-14206933D01*
X7104003Y-14206933D02*
X7113527Y-14197409D01*
X7113527Y-14197409D02*
X7113527Y-14216457D01*
X7246860Y-14016457D02*
X7265908Y-14016457D01*
X7265908Y-14016457D02*
X7284955Y-14025981D01*
X7284955Y-14025981D02*
X7294479Y-14035505D01*
X7294479Y-14035505D02*
X7304003Y-14054552D01*
X7304003Y-14054552D02*
X7313527Y-14092647D01*
X7313527Y-14092647D02*
X7313527Y-14140266D01*
X7313527Y-14140266D02*
X7304003Y-14178362D01*
X7304003Y-14178362D02*
X7294479Y-14197409D01*
X7294479Y-14197409D02*
X7284955Y-14206933D01*
X7284955Y-14206933D02*
X7265908Y-14216457D01*
X7265908Y-14216457D02*
X7246860Y-14216457D01*
X7246860Y-14216457D02*
X7227812Y-14206933D01*
X7227812Y-14206933D02*
X7218289Y-14197409D01*
X7218289Y-14197409D02*
X7208765Y-14178362D01*
X7208765Y-14178362D02*
X7199241Y-14140266D01*
X7199241Y-14140266D02*
X7199241Y-14092647D01*
X7199241Y-14092647D02*
X7208765Y-14054552D01*
X7208765Y-14054552D02*
X7218289Y-14035505D01*
X7218289Y-14035505D02*
X7227812Y-14025981D01*
X7227812Y-14025981D02*
X7246860Y-14016457D01*
X7389717Y-14035505D02*
X7399241Y-14025981D01*
X7399241Y-14025981D02*
X7418289Y-14016457D01*
X7418289Y-14016457D02*
X7465908Y-14016457D01*
X7465908Y-14016457D02*
X7484955Y-14025981D01*
X7484955Y-14025981D02*
X7494479Y-14035505D01*
X7494479Y-14035505D02*
X7504003Y-14054552D01*
X7504003Y-14054552D02*
X7504003Y-14073600D01*
X7504003Y-14073600D02*
X7494479Y-14102171D01*
X7494479Y-14102171D02*
X7380193Y-14216457D01*
X7380193Y-14216457D02*
X7504003Y-14216457D01*
X7570670Y-14016457D02*
X7694479Y-14016457D01*
X7694479Y-14016457D02*
X7627812Y-14092647D01*
X7627812Y-14092647D02*
X7656384Y-14092647D01*
X7656384Y-14092647D02*
X7675431Y-14102171D01*
X7675431Y-14102171D02*
X7684955Y-14111695D01*
X7684955Y-14111695D02*
X7694479Y-14130743D01*
X7694479Y-14130743D02*
X7694479Y-14178362D01*
X7694479Y-14178362D02*
X7684955Y-14197409D01*
X7684955Y-14197409D02*
X7675431Y-14206933D01*
X7675431Y-14206933D02*
X7656384Y-14216457D01*
X7656384Y-14216457D02*
X7599241Y-14216457D01*
X7599241Y-14216457D02*
X7580193Y-14206933D01*
X7580193Y-14206933D02*
X7570670Y-14197409D01*
X7865908Y-14016457D02*
X7827812Y-14016457D01*
X7827812Y-14016457D02*
X7808765Y-14025981D01*
X7808765Y-14025981D02*
X7799241Y-14035505D01*
X7799241Y-14035505D02*
X7780193Y-14064076D01*
X7780193Y-14064076D02*
X7770670Y-14102171D01*
X7770670Y-14102171D02*
X7770670Y-14178362D01*
X7770670Y-14178362D02*
X7780193Y-14197409D01*
X7780193Y-14197409D02*
X7789717Y-14206933D01*
X7789717Y-14206933D02*
X7808765Y-14216457D01*
X7808765Y-14216457D02*
X7846860Y-14216457D01*
X7846860Y-14216457D02*
X7865908Y-14206933D01*
X7865908Y-14206933D02*
X7875431Y-14197409D01*
X7875431Y-14197409D02*
X7884955Y-14178362D01*
X7884955Y-14178362D02*
X7884955Y-14130743D01*
X7884955Y-14130743D02*
X7875431Y-14111695D01*
X7875431Y-14111695D02*
X7865908Y-14102171D01*
X7865908Y-14102171D02*
X7846860Y-14092647D01*
X7846860Y-14092647D02*
X7808765Y-14092647D01*
X7808765Y-14092647D02*
X7789717Y-14102171D01*
X7789717Y-14102171D02*
X7780193Y-14111695D01*
X7780193Y-14111695D02*
X7770670Y-14130743D01*
X7961146Y-14016457D02*
X7961146Y-14054552D01*
X8037336Y-14016457D02*
X8037336Y-14054552D01*
X8332574Y-14292647D02*
X8323051Y-14283124D01*
X8323051Y-14283124D02*
X8304003Y-14254552D01*
X8304003Y-14254552D02*
X8294479Y-14235505D01*
X8294479Y-14235505D02*
X8284955Y-14206933D01*
X8284955Y-14206933D02*
X8275432Y-14159314D01*
X8275432Y-14159314D02*
X8275432Y-14121219D01*
X8275432Y-14121219D02*
X8284955Y-14073600D01*
X8284955Y-14073600D02*
X8294479Y-14045028D01*
X8294479Y-14045028D02*
X8304003Y-14025981D01*
X8304003Y-14025981D02*
X8323051Y-13997409D01*
X8323051Y-13997409D02*
X8332574Y-13987885D01*
X8446860Y-14016457D02*
X8465908Y-14016457D01*
X8465908Y-14016457D02*
X8484955Y-14025981D01*
X8484955Y-14025981D02*
X8494479Y-14035505D01*
X8494479Y-14035505D02*
X8504003Y-14054552D01*
X8504003Y-14054552D02*
X8513527Y-14092647D01*
X8513527Y-14092647D02*
X8513527Y-14140266D01*
X8513527Y-14140266D02*
X8504003Y-14178362D01*
X8504003Y-14178362D02*
X8494479Y-14197409D01*
X8494479Y-14197409D02*
X8484955Y-14206933D01*
X8484955Y-14206933D02*
X8465908Y-14216457D01*
X8465908Y-14216457D02*
X8446860Y-14216457D01*
X8446860Y-14216457D02*
X8427813Y-14206933D01*
X8427813Y-14206933D02*
X8418289Y-14197409D01*
X8418289Y-14197409D02*
X8408765Y-14178362D01*
X8408765Y-14178362D02*
X8399241Y-14140266D01*
X8399241Y-14140266D02*
X8399241Y-14092647D01*
X8399241Y-14092647D02*
X8408765Y-14054552D01*
X8408765Y-14054552D02*
X8418289Y-14035505D01*
X8418289Y-14035505D02*
X8427813Y-14025981D01*
X8427813Y-14025981D02*
X8446860Y-14016457D01*
X8751622Y-14216457D02*
X8751622Y-14016457D01*
X8837336Y-14216457D02*
X8837336Y-14111695D01*
X8837336Y-14111695D02*
X8827813Y-14092647D01*
X8827813Y-14092647D02*
X8808765Y-14083124D01*
X8808765Y-14083124D02*
X8780194Y-14083124D01*
X8780194Y-14083124D02*
X8761146Y-14092647D01*
X8761146Y-14092647D02*
X8751622Y-14102171D01*
X8961146Y-14216457D02*
X8942098Y-14206933D01*
X8942098Y-14206933D02*
X8932575Y-14197409D01*
X8932575Y-14197409D02*
X8923051Y-14178362D01*
X8923051Y-14178362D02*
X8923051Y-14121219D01*
X8923051Y-14121219D02*
X8932575Y-14102171D01*
X8932575Y-14102171D02*
X8942098Y-14092647D01*
X8942098Y-14092647D02*
X8961146Y-14083124D01*
X8961146Y-14083124D02*
X8989717Y-14083124D01*
X8989717Y-14083124D02*
X9008765Y-14092647D01*
X9008765Y-14092647D02*
X9018289Y-14102171D01*
X9018289Y-14102171D02*
X9027813Y-14121219D01*
X9027813Y-14121219D02*
X9027813Y-14178362D01*
X9027813Y-14178362D02*
X9018289Y-14197409D01*
X9018289Y-14197409D02*
X9008765Y-14206933D01*
X9008765Y-14206933D02*
X8989717Y-14216457D01*
X8989717Y-14216457D02*
X8961146Y-14216457D01*
X9142098Y-14216457D02*
X9123051Y-14206933D01*
X9123051Y-14206933D02*
X9113527Y-14187885D01*
X9113527Y-14187885D02*
X9113527Y-14016457D01*
X9294479Y-14206933D02*
X9275432Y-14216457D01*
X9275432Y-14216457D02*
X9237336Y-14216457D01*
X9237336Y-14216457D02*
X9218289Y-14206933D01*
X9218289Y-14206933D02*
X9208765Y-14187885D01*
X9208765Y-14187885D02*
X9208765Y-14111695D01*
X9208765Y-14111695D02*
X9218289Y-14092647D01*
X9218289Y-14092647D02*
X9237336Y-14083124D01*
X9237336Y-14083124D02*
X9275432Y-14083124D01*
X9275432Y-14083124D02*
X9294479Y-14092647D01*
X9294479Y-14092647D02*
X9304003Y-14111695D01*
X9304003Y-14111695D02*
X9304003Y-14130743D01*
X9304003Y-14130743D02*
X9208765Y-14149790D01*
X9380194Y-14206933D02*
X9399241Y-14216457D01*
X9399241Y-14216457D02*
X9437336Y-14216457D01*
X9437336Y-14216457D02*
X9456384Y-14206933D01*
X9456384Y-14206933D02*
X9465908Y-14187885D01*
X9465908Y-14187885D02*
X9465908Y-14178362D01*
X9465908Y-14178362D02*
X9456384Y-14159314D01*
X9456384Y-14159314D02*
X9437336Y-14149790D01*
X9437336Y-14149790D02*
X9408765Y-14149790D01*
X9408765Y-14149790D02*
X9389717Y-14140266D01*
X9389717Y-14140266D02*
X9380194Y-14121219D01*
X9380194Y-14121219D02*
X9380194Y-14111695D01*
X9380194Y-14111695D02*
X9389717Y-14092647D01*
X9389717Y-14092647D02*
X9408765Y-14083124D01*
X9408765Y-14083124D02*
X9437336Y-14083124D01*
X9437336Y-14083124D02*
X9456384Y-14092647D01*
X9704003Y-14140266D02*
X9856384Y-14140266D01*
X9780194Y-14216457D02*
X9780194Y-14064076D01*
X10189718Y-14083124D02*
X10189718Y-14216457D01*
X10142098Y-14006933D02*
X10094479Y-14149790D01*
X10094479Y-14149790D02*
X10218289Y-14149790D01*
X10437337Y-14206933D02*
X10456384Y-14216457D01*
X10456384Y-14216457D02*
X10494479Y-14216457D01*
X10494479Y-14216457D02*
X10513527Y-14206933D01*
X10513527Y-14206933D02*
X10523051Y-14187885D01*
X10523051Y-14187885D02*
X10523051Y-14178362D01*
X10523051Y-14178362D02*
X10513527Y-14159314D01*
X10513527Y-14159314D02*
X10494479Y-14149790D01*
X10494479Y-14149790D02*
X10465908Y-14149790D01*
X10465908Y-14149790D02*
X10446860Y-14140266D01*
X10446860Y-14140266D02*
X10437337Y-14121219D01*
X10437337Y-14121219D02*
X10437337Y-14111695D01*
X10437337Y-14111695D02*
X10446860Y-14092647D01*
X10446860Y-14092647D02*
X10465908Y-14083124D01*
X10465908Y-14083124D02*
X10494479Y-14083124D01*
X10494479Y-14083124D02*
X10513527Y-14092647D01*
X10637337Y-14216457D02*
X10618289Y-14206933D01*
X10618289Y-14206933D02*
X10608765Y-14187885D01*
X10608765Y-14187885D02*
X10608765Y-14016457D01*
X10742099Y-14216457D02*
X10723051Y-14206933D01*
X10723051Y-14206933D02*
X10713527Y-14197409D01*
X10713527Y-14197409D02*
X10704003Y-14178362D01*
X10704003Y-14178362D02*
X10704003Y-14121219D01*
X10704003Y-14121219D02*
X10713527Y-14102171D01*
X10713527Y-14102171D02*
X10723051Y-14092647D01*
X10723051Y-14092647D02*
X10742099Y-14083124D01*
X10742099Y-14083124D02*
X10770670Y-14083124D01*
X10770670Y-14083124D02*
X10789718Y-14092647D01*
X10789718Y-14092647D02*
X10799241Y-14102171D01*
X10799241Y-14102171D02*
X10808765Y-14121219D01*
X10808765Y-14121219D02*
X10808765Y-14178362D01*
X10808765Y-14178362D02*
X10799241Y-14197409D01*
X10799241Y-14197409D02*
X10789718Y-14206933D01*
X10789718Y-14206933D02*
X10770670Y-14216457D01*
X10770670Y-14216457D02*
X10742099Y-14216457D01*
X10865908Y-14083124D02*
X10942099Y-14083124D01*
X10894480Y-14016457D02*
X10894480Y-14187885D01*
X10894480Y-14187885D02*
X10904003Y-14206933D01*
X10904003Y-14206933D02*
X10923051Y-14216457D01*
X10923051Y-14216457D02*
X10942099Y-14216457D01*
X10999241Y-14206933D02*
X11018289Y-14216457D01*
X11018289Y-14216457D02*
X11056384Y-14216457D01*
X11056384Y-14216457D02*
X11075432Y-14206933D01*
X11075432Y-14206933D02*
X11084956Y-14187885D01*
X11084956Y-14187885D02*
X11084956Y-14178362D01*
X11084956Y-14178362D02*
X11075432Y-14159314D01*
X11075432Y-14159314D02*
X11056384Y-14149790D01*
X11056384Y-14149790D02*
X11027813Y-14149790D01*
X11027813Y-14149790D02*
X11008765Y-14140266D01*
X11008765Y-14140266D02*
X10999241Y-14121219D01*
X10999241Y-14121219D02*
X10999241Y-14111695D01*
X10999241Y-14111695D02*
X11008765Y-14092647D01*
X11008765Y-14092647D02*
X11027813Y-14083124D01*
X11027813Y-14083124D02*
X11056384Y-14083124D01*
X11056384Y-14083124D02*
X11075432Y-14092647D01*
X11151622Y-14292647D02*
X11161146Y-14283124D01*
X11161146Y-14283124D02*
X11180194Y-14254552D01*
X11180194Y-14254552D02*
X11189718Y-14235505D01*
X11189718Y-14235505D02*
X11199241Y-14206933D01*
X11199241Y-14206933D02*
X11208765Y-14159314D01*
X11208765Y-14159314D02*
X11208765Y-14121219D01*
X11208765Y-14121219D02*
X11199241Y-14073600D01*
X11199241Y-14073600D02*
X11189718Y-14045028D01*
X11189718Y-14045028D02*
X11180194Y-14025981D01*
X11180194Y-14025981D02*
X11161146Y-13997409D01*
X11161146Y-13997409D02*
X11151622Y-13987885D01*
D10*
X4707512Y-14338973D02*
X4707512Y-14438973D01*
X4657512Y-14388973D02*
X4757512Y-14388973D01*
D11*
X5123050Y-14480457D02*
X5008765Y-14480457D01*
X5065907Y-14480457D02*
X5065907Y-14280457D01*
X5065907Y-14280457D02*
X5046860Y-14309028D01*
X5046860Y-14309028D02*
X5027812Y-14328076D01*
X5027812Y-14328076D02*
X5008765Y-14337600D01*
X5208765Y-14461409D02*
X5218288Y-14470933D01*
X5218288Y-14470933D02*
X5208765Y-14480457D01*
X5208765Y-14480457D02*
X5199241Y-14470933D01*
X5199241Y-14470933D02*
X5208765Y-14461409D01*
X5208765Y-14461409D02*
X5208765Y-14480457D01*
X5342098Y-14280457D02*
X5361146Y-14280457D01*
X5361146Y-14280457D02*
X5380193Y-14289981D01*
X5380193Y-14289981D02*
X5389717Y-14299505D01*
X5389717Y-14299505D02*
X5399241Y-14318552D01*
X5399241Y-14318552D02*
X5408765Y-14356647D01*
X5408765Y-14356647D02*
X5408765Y-14404266D01*
X5408765Y-14404266D02*
X5399241Y-14442362D01*
X5399241Y-14442362D02*
X5389717Y-14461409D01*
X5389717Y-14461409D02*
X5380193Y-14470933D01*
X5380193Y-14470933D02*
X5361146Y-14480457D01*
X5361146Y-14480457D02*
X5342098Y-14480457D01*
X5342098Y-14480457D02*
X5323050Y-14470933D01*
X5323050Y-14470933D02*
X5313527Y-14461409D01*
X5313527Y-14461409D02*
X5304003Y-14442362D01*
X5304003Y-14442362D02*
X5294479Y-14404266D01*
X5294479Y-14404266D02*
X5294479Y-14356647D01*
X5294479Y-14356647D02*
X5304003Y-14318552D01*
X5304003Y-14318552D02*
X5313527Y-14299505D01*
X5313527Y-14299505D02*
X5323050Y-14289981D01*
X5323050Y-14289981D02*
X5342098Y-14280457D01*
X5532574Y-14280457D02*
X5551622Y-14280457D01*
X5551622Y-14280457D02*
X5570669Y-14289981D01*
X5570669Y-14289981D02*
X5580193Y-14299505D01*
X5580193Y-14299505D02*
X5589717Y-14318552D01*
X5589717Y-14318552D02*
X5599241Y-14356647D01*
X5599241Y-14356647D02*
X5599241Y-14404266D01*
X5599241Y-14404266D02*
X5589717Y-14442362D01*
X5589717Y-14442362D02*
X5580193Y-14461409D01*
X5580193Y-14461409D02*
X5570669Y-14470933D01*
X5570669Y-14470933D02*
X5551622Y-14480457D01*
X5551622Y-14480457D02*
X5532574Y-14480457D01*
X5532574Y-14480457D02*
X5513527Y-14470933D01*
X5513527Y-14470933D02*
X5504003Y-14461409D01*
X5504003Y-14461409D02*
X5494479Y-14442362D01*
X5494479Y-14442362D02*
X5484955Y-14404266D01*
X5484955Y-14404266D02*
X5484955Y-14356647D01*
X5484955Y-14356647D02*
X5494479Y-14318552D01*
X5494479Y-14318552D02*
X5504003Y-14299505D01*
X5504003Y-14299505D02*
X5513527Y-14289981D01*
X5513527Y-14289981D02*
X5532574Y-14280457D01*
X5723050Y-14280457D02*
X5742098Y-14280457D01*
X5742098Y-14280457D02*
X5761146Y-14289981D01*
X5761146Y-14289981D02*
X5770669Y-14299505D01*
X5770669Y-14299505D02*
X5780193Y-14318552D01*
X5780193Y-14318552D02*
X5789717Y-14356647D01*
X5789717Y-14356647D02*
X5789717Y-14404266D01*
X5789717Y-14404266D02*
X5780193Y-14442362D01*
X5780193Y-14442362D02*
X5770669Y-14461409D01*
X5770669Y-14461409D02*
X5761146Y-14470933D01*
X5761146Y-14470933D02*
X5742098Y-14480457D01*
X5742098Y-14480457D02*
X5723050Y-14480457D01*
X5723050Y-14480457D02*
X5704003Y-14470933D01*
X5704003Y-14470933D02*
X5694479Y-14461409D01*
X5694479Y-14461409D02*
X5684955Y-14442362D01*
X5684955Y-14442362D02*
X5675431Y-14404266D01*
X5675431Y-14404266D02*
X5675431Y-14356647D01*
X5675431Y-14356647D02*
X5684955Y-14318552D01*
X5684955Y-14318552D02*
X5694479Y-14299505D01*
X5694479Y-14299505D02*
X5704003Y-14289981D01*
X5704003Y-14289981D02*
X5723050Y-14280457D01*
X5875431Y-14480457D02*
X5875431Y-14347124D01*
X5875431Y-14366171D02*
X5884955Y-14356647D01*
X5884955Y-14356647D02*
X5904003Y-14347124D01*
X5904003Y-14347124D02*
X5932574Y-14347124D01*
X5932574Y-14347124D02*
X5951622Y-14356647D01*
X5951622Y-14356647D02*
X5961146Y-14375695D01*
X5961146Y-14375695D02*
X5961146Y-14480457D01*
X5961146Y-14375695D02*
X5970669Y-14356647D01*
X5970669Y-14356647D02*
X5989717Y-14347124D01*
X5989717Y-14347124D02*
X6018288Y-14347124D01*
X6018288Y-14347124D02*
X6037336Y-14356647D01*
X6037336Y-14356647D02*
X6046860Y-14375695D01*
X6046860Y-14375695D02*
X6046860Y-14480457D01*
X6142098Y-14480457D02*
X6142098Y-14347124D01*
X6142098Y-14366171D02*
X6151622Y-14356647D01*
X6151622Y-14356647D02*
X6170669Y-14347124D01*
X6170669Y-14347124D02*
X6199241Y-14347124D01*
X6199241Y-14347124D02*
X6218288Y-14356647D01*
X6218288Y-14356647D02*
X6227812Y-14375695D01*
X6227812Y-14375695D02*
X6227812Y-14480457D01*
X6227812Y-14375695D02*
X6237336Y-14356647D01*
X6237336Y-14356647D02*
X6256384Y-14347124D01*
X6256384Y-14347124D02*
X6284955Y-14347124D01*
X6284955Y-14347124D02*
X6304003Y-14356647D01*
X6304003Y-14356647D02*
X6313527Y-14375695D01*
X6313527Y-14375695D02*
X6313527Y-14480457D01*
X6704003Y-14270933D02*
X6532574Y-14528076D01*
X6961146Y-14280457D02*
X6980193Y-14280457D01*
X6980193Y-14280457D02*
X6999241Y-14289981D01*
X6999241Y-14289981D02*
X7008765Y-14299505D01*
X7008765Y-14299505D02*
X7018289Y-14318552D01*
X7018289Y-14318552D02*
X7027812Y-14356647D01*
X7027812Y-14356647D02*
X7027812Y-14404266D01*
X7027812Y-14404266D02*
X7018289Y-14442362D01*
X7018289Y-14442362D02*
X7008765Y-14461409D01*
X7008765Y-14461409D02*
X6999241Y-14470933D01*
X6999241Y-14470933D02*
X6980193Y-14480457D01*
X6980193Y-14480457D02*
X6961146Y-14480457D01*
X6961146Y-14480457D02*
X6942098Y-14470933D01*
X6942098Y-14470933D02*
X6932574Y-14461409D01*
X6932574Y-14461409D02*
X6923050Y-14442362D01*
X6923050Y-14442362D02*
X6913527Y-14404266D01*
X6913527Y-14404266D02*
X6913527Y-14356647D01*
X6913527Y-14356647D02*
X6923050Y-14318552D01*
X6923050Y-14318552D02*
X6932574Y-14299505D01*
X6932574Y-14299505D02*
X6942098Y-14289981D01*
X6942098Y-14289981D02*
X6961146Y-14280457D01*
X7113527Y-14461409D02*
X7123050Y-14470933D01*
X7123050Y-14470933D02*
X7113527Y-14480457D01*
X7113527Y-14480457D02*
X7104003Y-14470933D01*
X7104003Y-14470933D02*
X7113527Y-14461409D01*
X7113527Y-14461409D02*
X7113527Y-14480457D01*
X7246860Y-14280457D02*
X7265908Y-14280457D01*
X7265908Y-14280457D02*
X7284955Y-14289981D01*
X7284955Y-14289981D02*
X7294479Y-14299505D01*
X7294479Y-14299505D02*
X7304003Y-14318552D01*
X7304003Y-14318552D02*
X7313527Y-14356647D01*
X7313527Y-14356647D02*
X7313527Y-14404266D01*
X7313527Y-14404266D02*
X7304003Y-14442362D01*
X7304003Y-14442362D02*
X7294479Y-14461409D01*
X7294479Y-14461409D02*
X7284955Y-14470933D01*
X7284955Y-14470933D02*
X7265908Y-14480457D01*
X7265908Y-14480457D02*
X7246860Y-14480457D01*
X7246860Y-14480457D02*
X7227812Y-14470933D01*
X7227812Y-14470933D02*
X7218289Y-14461409D01*
X7218289Y-14461409D02*
X7208765Y-14442362D01*
X7208765Y-14442362D02*
X7199241Y-14404266D01*
X7199241Y-14404266D02*
X7199241Y-14356647D01*
X7199241Y-14356647D02*
X7208765Y-14318552D01*
X7208765Y-14318552D02*
X7218289Y-14299505D01*
X7218289Y-14299505D02*
X7227812Y-14289981D01*
X7227812Y-14289981D02*
X7246860Y-14280457D01*
X7380193Y-14280457D02*
X7504003Y-14280457D01*
X7504003Y-14280457D02*
X7437336Y-14356647D01*
X7437336Y-14356647D02*
X7465908Y-14356647D01*
X7465908Y-14356647D02*
X7484955Y-14366171D01*
X7484955Y-14366171D02*
X7494479Y-14375695D01*
X7494479Y-14375695D02*
X7504003Y-14394743D01*
X7504003Y-14394743D02*
X7504003Y-14442362D01*
X7504003Y-14442362D02*
X7494479Y-14461409D01*
X7494479Y-14461409D02*
X7484955Y-14470933D01*
X7484955Y-14470933D02*
X7465908Y-14480457D01*
X7465908Y-14480457D02*
X7408765Y-14480457D01*
X7408765Y-14480457D02*
X7389717Y-14470933D01*
X7389717Y-14470933D02*
X7380193Y-14461409D01*
X7599241Y-14480457D02*
X7637336Y-14480457D01*
X7637336Y-14480457D02*
X7656384Y-14470933D01*
X7656384Y-14470933D02*
X7665908Y-14461409D01*
X7665908Y-14461409D02*
X7684955Y-14432838D01*
X7684955Y-14432838D02*
X7694479Y-14394743D01*
X7694479Y-14394743D02*
X7694479Y-14318552D01*
X7694479Y-14318552D02*
X7684955Y-14299505D01*
X7684955Y-14299505D02*
X7675431Y-14289981D01*
X7675431Y-14289981D02*
X7656384Y-14280457D01*
X7656384Y-14280457D02*
X7618289Y-14280457D01*
X7618289Y-14280457D02*
X7599241Y-14289981D01*
X7599241Y-14289981D02*
X7589717Y-14299505D01*
X7589717Y-14299505D02*
X7580193Y-14318552D01*
X7580193Y-14318552D02*
X7580193Y-14366171D01*
X7580193Y-14366171D02*
X7589717Y-14385219D01*
X7589717Y-14385219D02*
X7599241Y-14394743D01*
X7599241Y-14394743D02*
X7618289Y-14404266D01*
X7618289Y-14404266D02*
X7656384Y-14404266D01*
X7656384Y-14404266D02*
X7675431Y-14394743D01*
X7675431Y-14394743D02*
X7684955Y-14385219D01*
X7684955Y-14385219D02*
X7694479Y-14366171D01*
X7865908Y-14347124D02*
X7865908Y-14480457D01*
X7818289Y-14270933D02*
X7770670Y-14413790D01*
X7770670Y-14413790D02*
X7894479Y-14413790D01*
X7961146Y-14280457D02*
X7961146Y-14318552D01*
X8037336Y-14280457D02*
X8037336Y-14318552D01*
X8332574Y-14556647D02*
X8323051Y-14547124D01*
X8323051Y-14547124D02*
X8304003Y-14518552D01*
X8304003Y-14518552D02*
X8294479Y-14499505D01*
X8294479Y-14499505D02*
X8284955Y-14470933D01*
X8284955Y-14470933D02*
X8275432Y-14423314D01*
X8275432Y-14423314D02*
X8275432Y-14385219D01*
X8275432Y-14385219D02*
X8284955Y-14337600D01*
X8284955Y-14337600D02*
X8294479Y-14309028D01*
X8294479Y-14309028D02*
X8304003Y-14289981D01*
X8304003Y-14289981D02*
X8323051Y-14261409D01*
X8323051Y-14261409D02*
X8332574Y-14251885D01*
X8504003Y-14280457D02*
X8408765Y-14280457D01*
X8408765Y-14280457D02*
X8399241Y-14375695D01*
X8399241Y-14375695D02*
X8408765Y-14366171D01*
X8408765Y-14366171D02*
X8427813Y-14356647D01*
X8427813Y-14356647D02*
X8475432Y-14356647D01*
X8475432Y-14356647D02*
X8494479Y-14366171D01*
X8494479Y-14366171D02*
X8504003Y-14375695D01*
X8504003Y-14375695D02*
X8513527Y-14394743D01*
X8513527Y-14394743D02*
X8513527Y-14442362D01*
X8513527Y-14442362D02*
X8504003Y-14461409D01*
X8504003Y-14461409D02*
X8494479Y-14470933D01*
X8494479Y-14470933D02*
X8475432Y-14480457D01*
X8475432Y-14480457D02*
X8427813Y-14480457D01*
X8427813Y-14480457D02*
X8408765Y-14470933D01*
X8408765Y-14470933D02*
X8399241Y-14461409D01*
X8751622Y-14480457D02*
X8751622Y-14280457D01*
X8837336Y-14480457D02*
X8837336Y-14375695D01*
X8837336Y-14375695D02*
X8827813Y-14356647D01*
X8827813Y-14356647D02*
X8808765Y-14347124D01*
X8808765Y-14347124D02*
X8780194Y-14347124D01*
X8780194Y-14347124D02*
X8761146Y-14356647D01*
X8761146Y-14356647D02*
X8751622Y-14366171D01*
X8961146Y-14480457D02*
X8942098Y-14470933D01*
X8942098Y-14470933D02*
X8932575Y-14461409D01*
X8932575Y-14461409D02*
X8923051Y-14442362D01*
X8923051Y-14442362D02*
X8923051Y-14385219D01*
X8923051Y-14385219D02*
X8932575Y-14366171D01*
X8932575Y-14366171D02*
X8942098Y-14356647D01*
X8942098Y-14356647D02*
X8961146Y-14347124D01*
X8961146Y-14347124D02*
X8989717Y-14347124D01*
X8989717Y-14347124D02*
X9008765Y-14356647D01*
X9008765Y-14356647D02*
X9018289Y-14366171D01*
X9018289Y-14366171D02*
X9027813Y-14385219D01*
X9027813Y-14385219D02*
X9027813Y-14442362D01*
X9027813Y-14442362D02*
X9018289Y-14461409D01*
X9018289Y-14461409D02*
X9008765Y-14470933D01*
X9008765Y-14470933D02*
X8989717Y-14480457D01*
X8989717Y-14480457D02*
X8961146Y-14480457D01*
X9142098Y-14480457D02*
X9123051Y-14470933D01*
X9123051Y-14470933D02*
X9113527Y-14451885D01*
X9113527Y-14451885D02*
X9113527Y-14280457D01*
X9294479Y-14470933D02*
X9275432Y-14480457D01*
X9275432Y-14480457D02*
X9237336Y-14480457D01*
X9237336Y-14480457D02*
X9218289Y-14470933D01*
X9218289Y-14470933D02*
X9208765Y-14451885D01*
X9208765Y-14451885D02*
X9208765Y-14375695D01*
X9208765Y-14375695D02*
X9218289Y-14356647D01*
X9218289Y-14356647D02*
X9237336Y-14347124D01*
X9237336Y-14347124D02*
X9275432Y-14347124D01*
X9275432Y-14347124D02*
X9294479Y-14356647D01*
X9294479Y-14356647D02*
X9304003Y-14375695D01*
X9304003Y-14375695D02*
X9304003Y-14394743D01*
X9304003Y-14394743D02*
X9208765Y-14413790D01*
X9380194Y-14470933D02*
X9399241Y-14480457D01*
X9399241Y-14480457D02*
X9437336Y-14480457D01*
X9437336Y-14480457D02*
X9456384Y-14470933D01*
X9456384Y-14470933D02*
X9465908Y-14451885D01*
X9465908Y-14451885D02*
X9465908Y-14442362D01*
X9465908Y-14442362D02*
X9456384Y-14423314D01*
X9456384Y-14423314D02*
X9437336Y-14413790D01*
X9437336Y-14413790D02*
X9408765Y-14413790D01*
X9408765Y-14413790D02*
X9389717Y-14404266D01*
X9389717Y-14404266D02*
X9380194Y-14385219D01*
X9380194Y-14385219D02*
X9380194Y-14375695D01*
X9380194Y-14375695D02*
X9389717Y-14356647D01*
X9389717Y-14356647D02*
X9408765Y-14347124D01*
X9408765Y-14347124D02*
X9437336Y-14347124D01*
X9437336Y-14347124D02*
X9456384Y-14356647D01*
X9532575Y-14556647D02*
X9542098Y-14547124D01*
X9542098Y-14547124D02*
X9561146Y-14518552D01*
X9561146Y-14518552D02*
X9570670Y-14499505D01*
X9570670Y-14499505D02*
X9580194Y-14470933D01*
X9580194Y-14470933D02*
X9589717Y-14423314D01*
X9589717Y-14423314D02*
X9589717Y-14385219D01*
X9589717Y-14385219D02*
X9580194Y-14337600D01*
X9580194Y-14337600D02*
X9570670Y-14309028D01*
X9570670Y-14309028D02*
X9561146Y-14289981D01*
X9561146Y-14289981D02*
X9542098Y-14261409D01*
X9542098Y-14261409D02*
X9532575Y-14251885D01*
M02*
