M48
; DRILL file {KiCad 7.0.6} date Wed Jul 12 00:23:44 2023
; FORMAT={-:-/ absolute / metric / decimal}
; #@! TF.CreationDate,2023-07-12T00:23:44-04:00
; #@! TF.GenerationSoftware,Kicad,Pcbnew,7.0.6
; #@! TF.FileFunction,NonPlated,1,2,NPTH
FMAT,2
METRIC
; #@! TA.AperFunction,NonPlated,NPTH,ComponentDrill
T1C0.650
; #@! TA.AperFunction,NonPlated,NPTH,ComponentDrill
T2C1.750
; #@! TA.AperFunction,NonPlated,NPTH,ComponentDrill
T3C3.000
; #@! TA.AperFunction,NonPlated,NPTH,ComponentDrill
T4C3.048
; #@! TA.AperFunction,NonPlated,NPTH,ComponentDrill
T5C3.988
%
G90
G05
T1
X149.51Y-70.466
X155.29Y-70.466
T2
X52.07Y-113.11
X54.471Y-94.06
X56.813Y-75.01
X62.23Y-113.11
X64.631Y-94.06
X66.973Y-75.01
X71.14Y-113.11
X75.863Y-94.06
X80.665Y-75.01
X81.3Y-113.11
X86.023Y-94.06
X90.19Y-113.11
X90.825Y-75.01
X94.913Y-94.06
X99.715Y-75.01
X100.35Y-113.11
X105.073Y-94.06
X109.2Y-113.11
X109.875Y-75.01
X113.983Y-94.06
X118.725Y-75.01
X119.36Y-113.11
X124.143Y-94.06
X128.885Y-75.01
X133.013Y-94.06
X137.776Y-75.01
X137.795Y-122.635
X143.173Y-94.06
X147.32Y-122.635
X147.936Y-75.01
X147.955Y-122.635
X156.826Y-75.01
X156.845Y-122.635
X157.48Y-122.635
X161.588Y-94.06
X166.986Y-75.01
X167.005Y-122.635
X171.748Y-94.06
X175.876Y-75.01
X180.638Y-94.06
X185.44Y-113.11
X186.036Y-75.01
X190.798Y-94.06
X194.946Y-75.01
X195.6Y-113.11
X199.728Y-94.06
X204.49Y-113.11
X205.106Y-75.01
X209.888Y-94.06
X213.996Y-75.01
X214.65Y-113.11
X218.778Y-94.06
X223.521Y-113.11
X224.156Y-75.01
X228.938Y-94.06
X233.681Y-113.11
X237.808Y-75.01
X240.17Y-94.06
X242.551Y-113.11
X247.968Y-75.01
X250.33Y-94.06
X252.711Y-113.11
T3
X53.34Y-110.57
X55.741Y-91.52
X58.083Y-72.47
X59.69Y-108.03
X62.091Y-88.98
X64.433Y-69.93
X72.41Y-110.57
X77.133Y-91.52
X78.76Y-108.03
X81.935Y-72.47
X83.483Y-88.98
X88.285Y-69.93
X91.46Y-110.57
X96.183Y-91.52
X97.81Y-108.03
X100.985Y-72.47
X102.533Y-88.98
X107.335Y-69.93
X110.47Y-110.57
X115.253Y-91.52
X116.82Y-108.03
X119.995Y-72.47
X121.603Y-88.98
X126.345Y-69.93
X134.283Y-91.52
X139.065Y-120.095
X140.316Y-80.09
X140.633Y-88.98
X145.415Y-117.555
X146.666Y-77.55
X149.86Y-127.715
X156.21Y-125.175
X158.115Y-120.095
X159.366Y-80.09
X162.858Y-91.52
X164.465Y-117.555
X165.716Y-77.55
X169.208Y-88.98
X177.146Y-72.47
X181.908Y-91.52
X183.496Y-69.93
X186.71Y-110.57
X188.258Y-88.98
X193.06Y-108.03
X196.216Y-72.47
X200.998Y-91.52
X202.566Y-69.93
X205.76Y-110.57
X207.348Y-88.98
X212.11Y-108.03
X215.266Y-72.47
X220.048Y-91.52
X221.616Y-69.93
X224.791Y-110.57
X226.398Y-88.98
X231.141Y-108.03
X239.078Y-72.47
X241.44Y-91.52
X243.821Y-110.57
X245.428Y-69.93
X247.79Y-88.98
X250.171Y-108.03
T4
X140.462Y-129.62
X164.338Y-129.62
T5
X57.15Y-113.11
X59.551Y-94.06
X61.893Y-75.01
X76.22Y-113.11
X80.943Y-94.06
X85.745Y-75.01
X95.27Y-113.11
X99.993Y-94.06
X104.795Y-75.01
X114.28Y-113.11
X119.063Y-94.06
X123.805Y-75.01
X138.093Y-94.06
X140.462Y-114.38
X142.856Y-75.01
X142.875Y-122.635
X152.4Y-122.635
X161.906Y-75.01
X161.925Y-122.635
X164.338Y-114.38
X166.668Y-94.06
X180.956Y-75.01
X185.718Y-94.06
X190.52Y-113.11
X200.026Y-75.01
X204.808Y-94.06
X209.57Y-113.11
X219.076Y-75.01
X223.858Y-94.06
X228.601Y-113.11
X242.888Y-75.01
X245.25Y-94.06
X247.631Y-113.11
T0
M30
