%TF.GenerationSoftware,KiCad,Pcbnew,7.0.6*%
%TF.CreationDate,2023-07-12T00:22:12-04:00*%
%TF.ProjectId,littolRP2040,6c697474-6f6c-4525-9032-3034302e6b69,rev?*%
%TF.SameCoordinates,Original*%
%TF.FileFunction,Soldermask,Bot*%
%TF.FilePolarity,Negative*%
%FSLAX46Y46*%
G04 Gerber Fmt 4.6, Leading zero omitted, Abs format (unit mm)*
G04 Created by KiCad (PCBNEW 7.0.6) date 2023-07-12 00:22:12*
%MOMM*%
%LPD*%
G01*
G04 APERTURE LIST*
G04 Aperture macros list*
%AMRoundRect*
0 Rectangle with rounded corners*
0 $1 Rounding radius*
0 $2 $3 $4 $5 $6 $7 $8 $9 X,Y pos of 4 corners*
0 Add a 4 corners polygon primitive as box body*
4,1,4,$2,$3,$4,$5,$6,$7,$8,$9,$2,$3,0*
0 Add four circle primitives for the rounded corners*
1,1,$1+$1,$2,$3*
1,1,$1+$1,$4,$5*
1,1,$1+$1,$6,$7*
1,1,$1+$1,$8,$9*
0 Add four rect primitives between the rounded corners*
20,1,$1+$1,$2,$3,$4,$5,0*
20,1,$1+$1,$4,$5,$6,$7,0*
20,1,$1+$1,$6,$7,$8,$9,0*
20,1,$1+$1,$8,$9,$2,$3,0*%
%AMRotRect*
0 Rectangle, with rotation*
0 The origin of the aperture is its center*
0 $1 length*
0 $2 width*
0 $3 Rotation angle, in degrees counterclockwise*
0 Add horizontal line*
21,1,$1,$2,0,0,$3*%
%AMOutline5P*
0 Free polygon, 5 corners , with rotation*
0 The origin of the aperture is its center*
0 number of corners: always 5*
0 $1 to $10 corner X, Y*
0 $11 Rotation angle, in degrees counterclockwise*
0 create outline with 5 corners*
4,1,5,$1,$2,$3,$4,$5,$6,$7,$8,$9,$10,$1,$2,$11*%
%AMOutline6P*
0 Free polygon, 6 corners , with rotation*
0 The origin of the aperture is its center*
0 number of corners: always 6*
0 $1 to $12 corner X, Y*
0 $13 Rotation angle, in degrees counterclockwise*
0 create outline with 6 corners*
4,1,6,$1,$2,$3,$4,$5,$6,$7,$8,$9,$10,$11,$12,$1,$2,$13*%
%AMOutline7P*
0 Free polygon, 7 corners , with rotation*
0 The origin of the aperture is its center*
0 number of corners: always 7*
0 $1 to $14 corner X, Y*
0 $15 Rotation angle, in degrees counterclockwise*
0 create outline with 7 corners*
4,1,7,$1,$2,$3,$4,$5,$6,$7,$8,$9,$10,$11,$12,$13,$14,$1,$2,$15*%
%AMOutline8P*
0 Free polygon, 8 corners , with rotation*
0 The origin of the aperture is its center*
0 number of corners: always 8*
0 $1 to $16 corner X, Y*
0 $17 Rotation angle, in degrees counterclockwise*
0 create outline with 8 corners*
4,1,8,$1,$2,$3,$4,$5,$6,$7,$8,$9,$10,$11,$12,$13,$14,$15,$16,$1,$2,$17*%
G04 Aperture macros list end*
%ADD10C,3.048000*%
%ADD11C,3.987800*%
%ADD12C,1.750000*%
%ADD13C,3.000000*%
%ADD14Outline5P,-1.275000X1.250000X1.275000X1.250000X1.275000X-1.250000X-0.400000X-1.250000X-1.275000X-0.375000X180.000000*%
%ADD15R,2.550000X2.500000*%
%ADD16Outline5P,-1.275000X1.250000X1.275000X1.250000X1.275000X-1.250000X-0.400000X-1.250000X-1.275000X-0.375000X0.000000*%
%ADD17R,1.700000X1.700000*%
%ADD18O,1.700000X1.700000*%
%ADD19RoundRect,0.140000X-0.140000X-0.170000X0.140000X-0.170000X0.140000X0.170000X-0.140000X0.170000X0*%
%ADD20RoundRect,0.150000X-0.150000X0.587500X-0.150000X-0.587500X0.150000X-0.587500X0.150000X0.587500X0*%
%ADD21RoundRect,0.140000X0.170000X-0.140000X0.170000X0.140000X-0.170000X0.140000X-0.170000X-0.140000X0*%
%ADD22RoundRect,0.250000X0.375000X0.625000X-0.375000X0.625000X-0.375000X-0.625000X0.375000X-0.625000X0*%
%ADD23RoundRect,0.150000X-0.512500X-0.150000X0.512500X-0.150000X0.512500X0.150000X-0.512500X0.150000X0*%
%ADD24RotRect,1.400000X1.200000X45.000000*%
%ADD25RoundRect,0.140000X0.021213X-0.219203X0.219203X-0.021213X-0.021213X0.219203X-0.219203X0.021213X0*%
%ADD26RoundRect,0.135000X-0.185000X0.135000X-0.185000X-0.135000X0.185000X-0.135000X0.185000X0.135000X0*%
%ADD27RoundRect,0.140000X-0.021213X0.219203X-0.219203X0.021213X0.021213X-0.219203X0.219203X-0.021213X0*%
%ADD28RoundRect,0.135000X0.185000X-0.135000X0.185000X0.135000X-0.185000X0.135000X-0.185000X-0.135000X0*%
%ADD29RoundRect,0.150000X0.475000X0.150000X-0.475000X0.150000X-0.475000X-0.150000X0.475000X-0.150000X0*%
%ADD30RoundRect,0.140000X0.140000X0.170000X-0.140000X0.170000X-0.140000X-0.170000X0.140000X-0.170000X0*%
%ADD31RoundRect,0.225000X0.250000X-0.225000X0.250000X0.225000X-0.250000X0.225000X-0.250000X-0.225000X0*%
%ADD32RoundRect,0.050000X0.387500X0.050000X-0.387500X0.050000X-0.387500X-0.050000X0.387500X-0.050000X0*%
%ADD33RoundRect,0.050000X0.050000X0.387500X-0.050000X0.387500X-0.050000X-0.387500X0.050000X-0.387500X0*%
%ADD34R,3.200000X3.200000*%
%ADD35RoundRect,0.150000X0.565685X-0.353553X-0.353553X0.565685X-0.565685X0.353553X0.353553X-0.565685X0*%
%ADD36RoundRect,0.135000X0.035355X-0.226274X0.226274X-0.035355X-0.035355X0.226274X-0.226274X0.035355X0*%
%ADD37R,1.700000X1.000000*%
%ADD38C,0.650000*%
%ADD39R,0.600000X1.450000*%
%ADD40R,0.300000X1.450000*%
%ADD41O,1.000000X1.600000*%
%ADD42O,1.000000X2.100000*%
%ADD43RoundRect,0.140000X0.219203X0.021213X0.021213X0.219203X-0.219203X-0.021213X-0.021213X-0.219203X0*%
G04 APERTURE END LIST*
D10*
%TO.C,MX19*%
X164338384Y-129619684D03*
D11*
X164338384Y-114379684D03*
D12*
X157480384Y-122634684D03*
D13*
X156210384Y-125174684D03*
D11*
X152400384Y-122634684D03*
D13*
X149860384Y-127714684D03*
D12*
X147320384Y-122634684D03*
D10*
X140462384Y-129619684D03*
D11*
X140462384Y-114379684D03*
D14*
X159485384Y-125174684D03*
D15*
X146558384Y-127714684D03*
%TD*%
D12*
%TO.C,MX18*%
X156845408Y-122634684D03*
D13*
X158115408Y-120094684D03*
D11*
X161925408Y-122634684D03*
D13*
X164465408Y-117554684D03*
D12*
X167005408Y-122634684D03*
D16*
X154840408Y-120094684D03*
D15*
X167767408Y-117554684D03*
%TD*%
D17*
%TO.C,J2*%
X118427824Y-120253428D03*
D18*
X120967824Y-120253428D03*
X123507824Y-120253428D03*
X126047824Y-120253428D03*
X128587824Y-120253428D03*
%TD*%
D12*
%TO.C,MX24*%
X199727847Y-94059612D03*
D13*
X200997847Y-91519612D03*
D11*
X204807847Y-94059612D03*
D13*
X207347847Y-88979612D03*
D12*
X209887847Y-94059612D03*
D15*
X197722847Y-91519612D03*
X210649847Y-88979612D03*
%TD*%
D12*
%TO.C,MX25*%
X204490359Y-113109660D03*
D13*
X205760359Y-110569660D03*
D11*
X209570359Y-113109660D03*
D13*
X212110359Y-108029660D03*
D12*
X214650359Y-113109660D03*
D15*
X202485359Y-110569660D03*
X215412359Y-108029660D03*
%TD*%
D12*
%TO.C,MX1*%
X56812825Y-75009564D03*
D13*
X58082825Y-72469564D03*
D11*
X61892825Y-75009564D03*
D13*
X64432825Y-69929564D03*
D12*
X66972825Y-75009564D03*
D15*
X54807825Y-72469564D03*
X67734825Y-69929564D03*
%TD*%
D12*
%TO.C,MX17*%
X161588089Y-94059612D03*
D13*
X162858089Y-91519612D03*
D11*
X166668089Y-94059612D03*
D13*
X169208089Y-88979612D03*
D12*
X171748089Y-94059612D03*
D15*
X159583089Y-91519612D03*
X172510089Y-88979612D03*
%TD*%
D12*
%TO.C,MX27*%
X218777895Y-94059612D03*
D13*
X220047895Y-91519612D03*
D11*
X223857895Y-94059612D03*
D13*
X226397895Y-88979612D03*
D12*
X228937895Y-94059612D03*
D15*
X216772895Y-91519612D03*
X229699895Y-88979612D03*
%TD*%
D12*
%TO.C,MX2*%
X54471231Y-94059612D03*
D13*
X55741231Y-91519612D03*
D11*
X59551231Y-94059612D03*
D13*
X62091231Y-88979612D03*
D12*
X64631231Y-94059612D03*
D15*
X52466231Y-91519612D03*
X65393231Y-88979612D03*
%TD*%
D12*
%TO.C,MX5*%
X75862873Y-94059612D03*
D13*
X77132873Y-91519612D03*
D11*
X80942873Y-94059612D03*
D13*
X83482873Y-88979612D03*
D12*
X86022873Y-94059612D03*
D15*
X73857873Y-91519612D03*
X86784873Y-88979612D03*
%TD*%
D12*
%TO.C,MX22*%
X185440311Y-113109660D03*
D13*
X186710311Y-110569660D03*
D11*
X190520311Y-113109660D03*
D13*
X193060311Y-108029660D03*
D12*
X195600311Y-113109660D03*
D15*
X183435311Y-110569660D03*
X196362311Y-108029660D03*
%TD*%
D12*
%TO.C,MX3*%
X52070144Y-113109660D03*
D13*
X53340144Y-110569660D03*
D11*
X57150144Y-113109660D03*
D13*
X59690144Y-108029660D03*
D12*
X62230144Y-113109660D03*
D15*
X50065144Y-110569660D03*
X62992144Y-108029660D03*
%TD*%
D12*
%TO.C,MX11*%
X113982800Y-94059612D03*
D13*
X115252800Y-91519612D03*
D11*
X119062800Y-94059612D03*
D13*
X121602800Y-88979612D03*
D12*
X124142800Y-94059612D03*
D15*
X111977800Y-91519612D03*
X124904800Y-88979612D03*
%TD*%
D12*
%TO.C,MX14*%
X133013017Y-94059612D03*
D13*
X134283017Y-91519612D03*
D11*
X138093017Y-94059612D03*
D13*
X140633017Y-88979612D03*
D12*
X143173017Y-94059612D03*
D15*
X131008017Y-91519612D03*
X143935017Y-88979612D03*
%TD*%
D12*
%TO.C,MX8*%
X94912921Y-94059612D03*
D13*
X96182921Y-91519612D03*
D11*
X99992921Y-94059612D03*
D13*
X102532921Y-88979612D03*
D12*
X105072921Y-94059612D03*
D15*
X92907921Y-91519612D03*
X105834921Y-88979612D03*
%TD*%
D12*
%TO.C,MX10*%
X118725481Y-75009564D03*
D13*
X119995481Y-72469564D03*
D11*
X123805481Y-75009564D03*
D13*
X126345481Y-69929564D03*
D12*
X128885481Y-75009564D03*
D15*
X116720481Y-72469564D03*
X129647481Y-69929564D03*
%TD*%
D12*
%TO.C,MX7*%
X99715095Y-75009564D03*
D13*
X100985095Y-72469564D03*
D11*
X104795095Y-75009564D03*
D13*
X107335095Y-69929564D03*
D12*
X109875095Y-75009564D03*
D15*
X97710095Y-72469564D03*
X110637095Y-69929564D03*
%TD*%
D12*
%TO.C,MX15*%
X137795360Y-122634684D03*
D13*
X139065360Y-120094684D03*
D11*
X142875360Y-122634684D03*
D13*
X145415360Y-117554684D03*
D12*
X147955360Y-122634684D03*
D15*
X135790360Y-120094684D03*
X148717360Y-117554684D03*
%TD*%
D12*
%TO.C,MX9*%
X90190071Y-113109660D03*
D13*
X91460071Y-110569660D03*
D11*
X95270071Y-113109660D03*
D13*
X97810071Y-108029660D03*
D12*
X100350071Y-113109660D03*
D15*
X88185071Y-110569660D03*
X101112071Y-108029660D03*
%TD*%
D12*
%TO.C,MX29*%
X237808112Y-75009564D03*
D13*
X239078112Y-72469564D03*
D11*
X242888112Y-75009564D03*
D13*
X245428112Y-69929564D03*
D12*
X247968112Y-75009564D03*
D15*
X235803112Y-72469564D03*
X248730112Y-69929564D03*
%TD*%
D12*
%TO.C,MX12*%
X109200457Y-113109660D03*
D13*
X110470457Y-110569660D03*
D11*
X114280457Y-113109660D03*
D13*
X116820457Y-108029660D03*
D12*
X119360457Y-113109660D03*
D15*
X107195457Y-110569660D03*
X120122457Y-108029660D03*
%TD*%
D12*
%TO.C,MX21*%
X180638137Y-94059612D03*
D13*
X181908137Y-91519612D03*
D11*
X185718137Y-94059612D03*
D13*
X188258137Y-88979612D03*
D12*
X190798137Y-94059612D03*
D15*
X178633137Y-91519612D03*
X191560137Y-88979612D03*
%TD*%
D12*
%TO.C,MX6*%
X71140023Y-113109660D03*
D13*
X72410023Y-110569660D03*
D11*
X76220023Y-113109660D03*
D13*
X78760023Y-108029660D03*
D12*
X81300023Y-113109660D03*
D15*
X69135023Y-110569660D03*
X82062023Y-108029660D03*
%TD*%
D12*
%TO.C,MX30*%
X240169537Y-94059612D03*
D13*
X241439537Y-91519612D03*
D11*
X245249537Y-94059612D03*
D13*
X247789537Y-88979612D03*
D12*
X250329537Y-94059612D03*
D15*
X238164537Y-91519612D03*
X251091537Y-88979612D03*
%TD*%
D12*
%TO.C,MX13*%
X147935529Y-75009564D03*
D13*
X146665529Y-77549564D03*
D11*
X142855529Y-75009564D03*
D13*
X140315529Y-80089564D03*
D12*
X137775529Y-75009564D03*
D15*
X149940529Y-77549564D03*
X137013529Y-80089564D03*
%TD*%
D12*
%TO.C,MX16*%
X166985577Y-75009564D03*
D13*
X165715577Y-77549564D03*
D11*
X161905577Y-75009564D03*
D13*
X159365577Y-80089564D03*
D12*
X156825577Y-75009564D03*
D15*
X168990577Y-77549564D03*
X156063577Y-80089564D03*
%TD*%
D12*
%TO.C,MX28*%
X223520576Y-113109660D03*
D13*
X224790576Y-110569660D03*
D11*
X228600576Y-113109660D03*
D13*
X231140576Y-108029660D03*
D12*
X233680576Y-113109660D03*
D15*
X221515576Y-110569660D03*
X234442576Y-108029660D03*
%TD*%
D12*
%TO.C,MX26*%
X213995552Y-75009564D03*
D13*
X215265552Y-72469564D03*
D11*
X219075552Y-75009564D03*
D13*
X221615552Y-69929564D03*
D12*
X224155552Y-75009564D03*
D15*
X211990552Y-72469564D03*
X224917552Y-69929564D03*
%TD*%
D12*
%TO.C,MX31*%
X242550793Y-113109660D03*
D13*
X243820793Y-110569660D03*
D11*
X247630793Y-113109660D03*
D13*
X250170793Y-108029660D03*
D12*
X252710793Y-113109660D03*
D15*
X240545793Y-110569660D03*
X253472793Y-108029660D03*
%TD*%
D12*
%TO.C,MX20*%
X175875625Y-75009564D03*
D13*
X177145625Y-72469564D03*
D11*
X180955625Y-75009564D03*
D13*
X183495625Y-69929564D03*
D12*
X186035625Y-75009564D03*
D15*
X173870625Y-72469564D03*
X186797625Y-69929564D03*
%TD*%
D12*
%TO.C,MX4*%
X80665047Y-75009564D03*
D13*
X81935047Y-72469564D03*
D11*
X85745047Y-75009564D03*
D13*
X88285047Y-69929564D03*
D12*
X90825047Y-75009564D03*
D15*
X78660047Y-72469564D03*
X91587047Y-69929564D03*
%TD*%
D12*
%TO.C,MX23*%
X194945504Y-75009564D03*
D13*
X196215504Y-72469564D03*
D11*
X200025504Y-75009564D03*
D13*
X202565504Y-69929564D03*
D12*
X205105504Y-75009564D03*
D15*
X192940504Y-72469564D03*
X205867504Y-69929564D03*
%TD*%
D19*
%TO.C,C13*%
X157278210Y-103231508D03*
X158238210Y-103231508D03*
%TD*%
D20*
%TO.C,D2*%
X68701738Y-100861194D03*
X70601738Y-100861194D03*
X69651738Y-102736194D03*
%TD*%
D21*
%TO.C,C1*%
X141684732Y-71197052D03*
X141684732Y-70237052D03*
%TD*%
D22*
%TO.C,F1*%
X146061302Y-71197052D03*
X143261302Y-71197052D03*
%TD*%
D23*
%TO.C,U2*%
X137570662Y-72147052D03*
X137570662Y-70247052D03*
X139845662Y-71197052D03*
%TD*%
D20*
%TO.C,D10*%
X187764538Y-81811146D03*
X189664538Y-81811146D03*
X188714538Y-83686146D03*
%TD*%
D21*
%TO.C,C6*%
X150019128Y-100608066D03*
X150019128Y-99648066D03*
%TD*%
D24*
%TO.C,Y1*%
X152110013Y-114374925D03*
X153665648Y-112819290D03*
X154867729Y-114021371D03*
X153312094Y-115577006D03*
%TD*%
D21*
%TO.C,C5*%
X158353524Y-94654926D03*
X158353524Y-93694926D03*
%TD*%
D25*
%TO.C,C3*%
X154833263Y-116221361D03*
X155512085Y-115542539D03*
%TD*%
D20*
%TO.C,D15*%
X235389658Y-119911242D03*
X237289658Y-119911242D03*
X236339658Y-121786242D03*
%TD*%
D26*
%TO.C,R6*%
X169664490Y-97512438D03*
X169664490Y-98532438D03*
%TD*%
D27*
%TO.C,C8*%
X149167911Y-112174935D03*
X148489089Y-112853757D03*
%TD*%
D20*
%TO.C,D11*%
X192527050Y-100861194D03*
X194427050Y-100861194D03*
X193477050Y-102736194D03*
%TD*%
D28*
%TO.C,R9*%
X137095650Y-113024346D03*
X137095650Y-112004346D03*
%TD*%
D29*
%TO.C,U1*%
X153575384Y-86561158D03*
X153575384Y-87511158D03*
X153575384Y-88461158D03*
X151225384Y-88461158D03*
X151225384Y-87511158D03*
X151225384Y-86561158D03*
%TD*%
D28*
%TO.C,R7*%
X168473862Y-98532438D03*
X168473862Y-97512438D03*
%TD*%
D30*
%TO.C,C14*%
X146927244Y-107156520D03*
X145967244Y-107156520D03*
%TD*%
D28*
%TO.C,R2*%
X154150384Y-74924250D03*
X154150384Y-73904250D03*
%TD*%
D20*
%TO.C,D6*%
X102039322Y-119911242D03*
X103939322Y-119911242D03*
X102989322Y-121786242D03*
%TD*%
D31*
%TO.C,C9*%
X146927244Y-97301182D03*
X146927244Y-95751182D03*
%TD*%
D32*
%TO.C,U4*%
X155837884Y-103231508D03*
X155837884Y-103631508D03*
X155837884Y-104031508D03*
X155837884Y-104431508D03*
X155837884Y-104831508D03*
X155837884Y-105231508D03*
X155837884Y-105631508D03*
X155837884Y-106031508D03*
X155837884Y-106431508D03*
X155837884Y-106831508D03*
X155837884Y-107231508D03*
X155837884Y-107631508D03*
X155837884Y-108031508D03*
X155837884Y-108431508D03*
D33*
X155000384Y-109269008D03*
X154600384Y-109269008D03*
X154200384Y-109269008D03*
X153800384Y-109269008D03*
X153400384Y-109269008D03*
X153000384Y-109269008D03*
X152600384Y-109269008D03*
X152200384Y-109269008D03*
X151800384Y-109269008D03*
X151400384Y-109269008D03*
X151000384Y-109269008D03*
X150600384Y-109269008D03*
X150200384Y-109269008D03*
X149800384Y-109269008D03*
D32*
X148962884Y-108431508D03*
X148962884Y-108031508D03*
X148962884Y-107631508D03*
X148962884Y-107231508D03*
X148962884Y-106831508D03*
X148962884Y-106431508D03*
X148962884Y-106031508D03*
X148962884Y-105631508D03*
X148962884Y-105231508D03*
X148962884Y-104831508D03*
X148962884Y-104431508D03*
X148962884Y-104031508D03*
X148962884Y-103631508D03*
X148962884Y-103231508D03*
D33*
X149800384Y-102394008D03*
X150200384Y-102394008D03*
X150600384Y-102394008D03*
X151000384Y-102394008D03*
X151400384Y-102394008D03*
X151800384Y-102394008D03*
X152200384Y-102394008D03*
X152600384Y-102394008D03*
X153000384Y-102394008D03*
X153400384Y-102394008D03*
X153800384Y-102394008D03*
X154200384Y-102394008D03*
X154600384Y-102394008D03*
X155000384Y-102394008D03*
D34*
X152400384Y-105831508D03*
%TD*%
D20*
%TO.C,D12*%
X197289562Y-119911242D03*
X199189562Y-119911242D03*
X198239562Y-121786242D03*
%TD*%
D35*
%TO.C,U3*%
X165222717Y-100615984D03*
X164324691Y-101514010D03*
X163426666Y-102412035D03*
X162528640Y-103310061D03*
X157437471Y-98218892D03*
X158335497Y-97320866D03*
X159233522Y-96422841D03*
X160131548Y-95524815D03*
%TD*%
D20*
%TO.C,D9*%
X172286374Y-119911242D03*
X174186374Y-119911242D03*
X173236374Y-121786242D03*
%TD*%
D21*
%TO.C,C11*%
X148828500Y-100608066D03*
X148828500Y-99648066D03*
%TD*%
D26*
%TO.C,R8*%
X167283234Y-97512438D03*
X167283234Y-98532438D03*
%TD*%
D20*
%TO.C,D5*%
X106801834Y-100861194D03*
X108701834Y-100861194D03*
X107751834Y-102736194D03*
%TD*%
D36*
%TO.C,R5*%
X151444446Y-112874970D03*
X152165694Y-112153722D03*
%TD*%
D19*
%TO.C,C15*%
X157278210Y-106831508D03*
X158238210Y-106831508D03*
%TD*%
D20*
%TO.C,D4*%
X111564346Y-81811146D03*
X113464346Y-81811146D03*
X112514346Y-83686146D03*
%TD*%
%TO.C,D3*%
X63939226Y-119911242D03*
X65839226Y-119911242D03*
X64889226Y-121786242D03*
%TD*%
%TO.C,D8*%
X141925360Y-100861194D03*
X143825360Y-100861194D03*
X142875360Y-102736194D03*
%TD*%
%TO.C,D1*%
X73464250Y-81811146D03*
X75364250Y-81811146D03*
X74414250Y-83686146D03*
%TD*%
D28*
%TO.C,R4*%
X150614442Y-97036182D03*
X150614442Y-96016182D03*
%TD*%
D30*
%TO.C,C2*%
X136096278Y-70247052D03*
X135136278Y-70247052D03*
%TD*%
D27*
%TO.C,C16*%
X149763225Y-112770249D03*
X149084403Y-113449071D03*
%TD*%
D37*
%TO.C,RESET1*%
X130795650Y-110956520D03*
X137095650Y-110956520D03*
X130795650Y-107156520D03*
X137095650Y-107156520D03*
%TD*%
D21*
%TO.C,C7*%
X154186326Y-98706810D03*
X154186326Y-97746810D03*
%TD*%
D26*
%TO.C,R1*%
X151150384Y-73904250D03*
X151150384Y-74924250D03*
%TD*%
D21*
%TO.C,C12*%
X152400384Y-99302124D03*
X152400384Y-98342124D03*
%TD*%
D20*
%TO.C,D13*%
X225864634Y-81811146D03*
X227764634Y-81811146D03*
X226814634Y-83686146D03*
%TD*%
D38*
%TO.C,J1*%
X149510384Y-70465796D03*
X155290384Y-70465796D03*
D39*
X149150384Y-71910796D03*
X149950384Y-71910796D03*
D40*
X151150384Y-71910796D03*
X152150384Y-71910796D03*
X152650384Y-71910796D03*
X153650384Y-71910796D03*
D39*
X154850384Y-71910796D03*
X155650384Y-71910796D03*
X155650384Y-71910796D03*
X154850384Y-71910796D03*
D40*
X154150384Y-71910796D03*
X153150384Y-71910796D03*
X151650384Y-71910796D03*
X150650384Y-71910796D03*
D39*
X149950384Y-71910796D03*
X149150384Y-71910796D03*
D41*
X148080384Y-66815796D03*
D42*
X148080384Y-70995796D03*
D41*
X156720384Y-66815796D03*
D42*
X156720384Y-70995796D03*
%TD*%
D28*
%TO.C,R3*%
X151805070Y-97036182D03*
X151805070Y-96016182D03*
%TD*%
D20*
%TO.C,D7*%
X168714490Y-81811146D03*
X170614490Y-81811146D03*
X169664490Y-83686146D03*
%TD*%
D43*
%TO.C,C4*%
X151702930Y-116662911D03*
X151024108Y-115984089D03*
%TD*%
D20*
%TO.C,D14*%
X230627146Y-100861194D03*
X232527146Y-100861194D03*
X231577146Y-102736194D03*
%TD*%
D30*
%TO.C,C10*%
X146927244Y-103231508D03*
X145967244Y-103231508D03*
%TD*%
D37*
%TO.C,BOOT1*%
X173583234Y-100494008D03*
X167283234Y-100494008D03*
X173583234Y-104294008D03*
X167283234Y-104294008D03*
%TD*%
M02*
