M48
; DRILL file {KiCad 7.0.6} date Wed Jul 12 00:23:44 2023
; FORMAT={-:-/ absolute / metric / decimal}
; #@! TF.CreationDate,2023-07-12T00:23:44-04:00
; #@! TF.GenerationSoftware,Kicad,Pcbnew,7.0.6
; #@! TF.FileFunction,Plated,1,2,PTH
FMAT,2
METRIC
; #@! TA.AperFunction,Plated,PTH,ViaDrill
T1C0.400
; #@! TA.AperFunction,Plated,PTH,ComponentDrill
T2C0.600
; #@! TA.AperFunction,Plated,PTH,ComponentDrill
T3C1.000
%
G90
G05
T1
X50.006Y-110.728
X52.388Y-91.678
X54.769Y-72.628
X69.056Y-110.728
X73.819Y-91.678
X78.581Y-72.628
X88.106Y-110.728
X92.869Y-91.678
X97.631Y-72.628
X107.157Y-110.728
X111.919Y-91.678
X116.682Y-72.628
X130.969Y-91.678
X134.541Y-75.01
X135.732Y-120.253
X141.089Y-104.18
X141.089Y-107.157
X142.28Y-119.063
X142.875Y-102.736
X143.825Y-98.822
X144.066Y-113.11
X145.257Y-113.11
X145.967Y-98.822
X146.447Y-113.11
X147.638Y-82.153
X147.638Y-83.686
X147.638Y-120.253
X149.424Y-98.227
X150.019Y-74.414
X150.019Y-77.391
X151.21Y-92.869
X151.21Y-104.775
X151.21Y-105.966
X151.21Y-107.157
X152.4Y-104.775
X152.4Y-105.966
X152.4Y-107.157
X153.591Y-95.846
X153.591Y-104.775
X153.591Y-105.966
X153.591Y-107.157
X153.591Y-113.11
X153.591Y-115.491
X154.782Y-120.253
X155.972Y-94.655
X155.972Y-96.441
X157.163Y-86.916
X157.163Y-101.799
X157.758Y-105.371
X158.354Y-104.18
X159.544Y-91.678
X159.544Y-108.347
X160.735Y-82.153
X160.735Y-83.686
X161.33Y-99.417
X169.069Y-77.391
X173.832Y-72.628
X178.594Y-91.678
X183.357Y-110.728
X192.882Y-72.628
X197.644Y-91.678
X202.407Y-110.728
X211.932Y-72.628
X216.694Y-91.678
X221.457Y-110.728
X235.744Y-72.628
X238.126Y-91.678
X240.507Y-110.728
T3
X118.428Y-120.253
X120.968Y-120.253
X123.508Y-120.253
X126.048Y-120.253
X128.588Y-120.253
T2
X148.08Y-66.516G85X148.08Y-67.116
G05
X148.08Y-70.446G85X148.08Y-71.546
G05
X156.72Y-66.516G85X156.72Y-67.116
G05
X156.72Y-70.446G85X156.72Y-71.546
G05
T0
M30
